<?xml version="1.0" encoding="utf-8" standalone="no"?>
<!DOCTYPE svg PUBLIC "-//W3C//DTD SVG 1.1//EN"
  "http://www.w3.org/Graphics/SVG/1.1/DTD/svg11.dtd">
<svg xmlns:xlink="http://www.w3.org/1999/xlink" width="864pt" height="360pt" viewBox="0 0 864 360" xmlns="http://www.w3.org/2000/svg" version="1.1">
 <metadata>
  <rdf:RDF xmlns:dc="http://purl.org/dc/elements/1.1/" xmlns:cc="http://creativecommons.org/ns#" xmlns:rdf="http://www.w3.org/1999/02/22-rdf-syntax-ns#">
   <cc:Work>
    <dc:type rdf:resource="http://purl.org/dc/dcmitype/StillImage"/>
    <dc:date>2025-03-22T20:05:29.690429</dc:date>
    <dc:format>image/svg+xml</dc:format>
    <dc:creator>
     <cc:Agent>
      <dc:title>Matplotlib v3.10.1, https://matplotlib.org/</dc:title>
     </cc:Agent>
    </dc:creator>
   </cc:Work>
  </rdf:RDF>
 </metadata>
 <defs>
  <style type="text/css">*{stroke-linejoin: round; stroke-linecap: butt}</style>
 </defs>
 <g id="figure_1">
  <g id="patch_1">
   <path d="M 0 360 
L 864 360 
L 864 0 
L 0 0 
L 0 360 
z
" style="fill: none; opacity: 0"/>
  </g>
  <g id="axes_1">
   <g id="patch_2">
    <path d="M 108 320.4 
L 777.6 320.4 
L 777.6 43.2 
L 108 43.2 
L 108 320.4 
z
" style="fill: none; opacity: 0"/>
   </g>
   <g id="matplotlib.axis_1">
    <g id="xtick_1">
     <g id="line2d_1">
      <path d="M 127.964615 320.4 
L 127.964615 43.2 
" clip-path="url(#p17d9cfa8b2)" style="fill: none; stroke-dasharray: 5.12,1.28,0.8,1.28; stroke-dashoffset: 0; stroke: #b0b0b0; stroke-width: 0.8"/>
     </g>
     <g id="line2d_2">
      <defs>
       <path id="m3cc5df7f10" d="M 0 0 
L 0 3.5 
" style="stroke: #a9a9a9; stroke-width: 0.8"/>
      </defs>
      <g>
       <use xlink:href="#m3cc5df7f10" x="127.964615" y="320.4" style="fill: #a9a9a9; stroke: #a9a9a9; stroke-width: 0.8"/>
      </g>
     </g>
     <g id="text_1">
      <!-- 2021-07 -->
      <g style="fill: #a9a9a9" transform="translate(107.073209 334.998438) scale(0.1 -0.1)">
       <defs>
        <path id="DejaVuSans-32" d="M 1228 531 
L 3431 531 
L 3431 0 
L 469 0 
L 469 531 
Q 828 903 1448 1529 
Q 2069 2156 2228 2338 
Q 2531 2678 2651 2914 
Q 2772 3150 2772 3378 
Q 2772 3750 2511 3984 
Q 2250 4219 1831 4219 
Q 1534 4219 1204 4116 
Q 875 4013 500 3803 
L 500 4441 
Q 881 4594 1212 4672 
Q 1544 4750 1819 4750 
Q 2544 4750 2975 4387 
Q 3406 4025 3406 3419 
Q 3406 3131 3298 2873 
Q 3191 2616 2906 2266 
Q 2828 2175 2409 1742 
Q 1991 1309 1228 531 
z
" transform="scale(0.015625)"/>
        <path id="DejaVuSans-30" d="M 2034 4250 
Q 1547 4250 1301 3770 
Q 1056 3291 1056 2328 
Q 1056 1369 1301 889 
Q 1547 409 2034 409 
Q 2525 409 2770 889 
Q 3016 1369 3016 2328 
Q 3016 3291 2770 3770 
Q 2525 4250 2034 4250 
z
M 2034 4750 
Q 2819 4750 3233 4129 
Q 3647 3509 3647 2328 
Q 3647 1150 3233 529 
Q 2819 -91 2034 -91 
Q 1250 -91 836 529 
Q 422 1150 422 2328 
Q 422 3509 836 4129 
Q 1250 4750 2034 4750 
z
" transform="scale(0.015625)"/>
        <path id="DejaVuSans-31" d="M 794 531 
L 1825 531 
L 1825 4091 
L 703 3866 
L 703 4441 
L 1819 4666 
L 2450 4666 
L 2450 531 
L 3481 531 
L 3481 0 
L 794 0 
L 794 531 
z
" transform="scale(0.015625)"/>
        <path id="DejaVuSans-2d" d="M 313 2009 
L 1997 2009 
L 1997 1497 
L 313 1497 
L 313 2009 
z
" transform="scale(0.015625)"/>
        <path id="DejaVuSans-37" d="M 525 4666 
L 3525 4666 
L 3525 4397 
L 1831 0 
L 1172 0 
L 2766 4134 
L 525 4134 
L 525 4666 
z
" transform="scale(0.015625)"/>
       </defs>
       <use xlink:href="#DejaVuSans-32"/>
       <use xlink:href="#DejaVuSans-30" transform="translate(63.623047 0)"/>
       <use xlink:href="#DejaVuSans-32" transform="translate(127.246094 0)"/>
       <use xlink:href="#DejaVuSans-31" transform="translate(190.869141 0)"/>
       <use xlink:href="#DejaVuSans-2d" transform="translate(254.492188 0)"/>
       <use xlink:href="#DejaVuSans-30" transform="translate(290.576172 0)"/>
       <use xlink:href="#DejaVuSans-37" transform="translate(354.199219 0)"/>
      </g>
     </g>
    </g>
    <g id="xtick_2">
     <g id="line2d_3">
      <path d="M 211.738601 320.4 
L 211.738601 43.2 
" clip-path="url(#p17d9cfa8b2)" style="fill: none; stroke-dasharray: 5.12,1.28,0.8,1.28; stroke-dashoffset: 0; stroke: #b0b0b0; stroke-width: 0.8"/>
     </g>
     <g id="line2d_4">
      <g>
       <use xlink:href="#m3cc5df7f10" x="211.738601" y="320.4" style="fill: #a9a9a9; stroke: #a9a9a9; stroke-width: 0.8"/>
      </g>
     </g>
     <g id="text_2">
      <!-- 2022-01 -->
      <g style="fill: #a9a9a9" transform="translate(190.847194 334.998438) scale(0.1 -0.1)">
       <use xlink:href="#DejaVuSans-32"/>
       <use xlink:href="#DejaVuSans-30" transform="translate(63.623047 0)"/>
       <use xlink:href="#DejaVuSans-32" transform="translate(127.246094 0)"/>
       <use xlink:href="#DejaVuSans-32" transform="translate(190.869141 0)"/>
       <use xlink:href="#DejaVuSans-2d" transform="translate(254.492188 0)"/>
       <use xlink:href="#DejaVuSans-30" transform="translate(290.576172 0)"/>
       <use xlink:href="#DejaVuSans-31" transform="translate(354.199219 0)"/>
      </g>
     </g>
    </g>
    <g id="xtick_3">
     <g id="line2d_5">
      <path d="M 294.146706 320.4 
L 294.146706 43.2 
" clip-path="url(#p17d9cfa8b2)" style="fill: none; stroke-dasharray: 5.12,1.28,0.8,1.28; stroke-dashoffset: 0; stroke: #b0b0b0; stroke-width: 0.8"/>
     </g>
     <g id="line2d_6">
      <g>
       <use xlink:href="#m3cc5df7f10" x="294.146706" y="320.4" style="fill: #a9a9a9; stroke: #a9a9a9; stroke-width: 0.8"/>
      </g>
     </g>
     <g id="text_3">
      <!-- 2022-07 -->
      <g style="fill: #a9a9a9" transform="translate(273.255299 334.998438) scale(0.1 -0.1)">
       <use xlink:href="#DejaVuSans-32"/>
       <use xlink:href="#DejaVuSans-30" transform="translate(63.623047 0)"/>
       <use xlink:href="#DejaVuSans-32" transform="translate(127.246094 0)"/>
       <use xlink:href="#DejaVuSans-32" transform="translate(190.869141 0)"/>
       <use xlink:href="#DejaVuSans-2d" transform="translate(254.492188 0)"/>
       <use xlink:href="#DejaVuSans-30" transform="translate(290.576172 0)"/>
       <use xlink:href="#DejaVuSans-37" transform="translate(354.199219 0)"/>
      </g>
     </g>
    </g>
    <g id="xtick_4">
     <g id="line2d_7">
      <path d="M 377.920691 320.4 
L 377.920691 43.2 
" clip-path="url(#p17d9cfa8b2)" style="fill: none; stroke-dasharray: 5.12,1.28,0.8,1.28; stroke-dashoffset: 0; stroke: #b0b0b0; stroke-width: 0.8"/>
     </g>
     <g id="line2d_8">
      <g>
       <use xlink:href="#m3cc5df7f10" x="377.920691" y="320.4" style="fill: #a9a9a9; stroke: #a9a9a9; stroke-width: 0.8"/>
      </g>
     </g>
     <g id="text_4">
      <!-- 2023-01 -->
      <g style="fill: #a9a9a9" transform="translate(357.029285 334.998438) scale(0.1 -0.1)">
       <defs>
        <path id="DejaVuSans-33" d="M 2597 2516 
Q 3050 2419 3304 2112 
Q 3559 1806 3559 1356 
Q 3559 666 3084 287 
Q 2609 -91 1734 -91 
Q 1441 -91 1130 -33 
Q 819 25 488 141 
L 488 750 
Q 750 597 1062 519 
Q 1375 441 1716 441 
Q 2309 441 2620 675 
Q 2931 909 2931 1356 
Q 2931 1769 2642 2001 
Q 2353 2234 1838 2234 
L 1294 2234 
L 1294 2753 
L 1863 2753 
Q 2328 2753 2575 2939 
Q 2822 3125 2822 3475 
Q 2822 3834 2567 4026 
Q 2313 4219 1838 4219 
Q 1578 4219 1281 4162 
Q 984 4106 628 3988 
L 628 4550 
Q 988 4650 1302 4700 
Q 1616 4750 1894 4750 
Q 2613 4750 3031 4423 
Q 3450 4097 3450 3541 
Q 3450 3153 3228 2886 
Q 3006 2619 2597 2516 
z
" transform="scale(0.015625)"/>
       </defs>
       <use xlink:href="#DejaVuSans-32"/>
       <use xlink:href="#DejaVuSans-30" transform="translate(63.623047 0)"/>
       <use xlink:href="#DejaVuSans-32" transform="translate(127.246094 0)"/>
       <use xlink:href="#DejaVuSans-33" transform="translate(190.869141 0)"/>
       <use xlink:href="#DejaVuSans-2d" transform="translate(254.492188 0)"/>
       <use xlink:href="#DejaVuSans-30" transform="translate(290.576172 0)"/>
       <use xlink:href="#DejaVuSans-31" transform="translate(354.199219 0)"/>
      </g>
     </g>
    </g>
    <g id="xtick_5">
     <g id="line2d_9">
      <path d="M 460.328796 320.4 
L 460.328796 43.2 
" clip-path="url(#p17d9cfa8b2)" style="fill: none; stroke-dasharray: 5.12,1.28,0.8,1.28; stroke-dashoffset: 0; stroke: #b0b0b0; stroke-width: 0.8"/>
     </g>
     <g id="line2d_10">
      <g>
       <use xlink:href="#m3cc5df7f10" x="460.328796" y="320.4" style="fill: #a9a9a9; stroke: #a9a9a9; stroke-width: 0.8"/>
      </g>
     </g>
     <g id="text_5">
      <!-- 2023-07 -->
      <g style="fill: #a9a9a9" transform="translate(439.43739 334.998438) scale(0.1 -0.1)">
       <use xlink:href="#DejaVuSans-32"/>
       <use xlink:href="#DejaVuSans-30" transform="translate(63.623047 0)"/>
       <use xlink:href="#DejaVuSans-32" transform="translate(127.246094 0)"/>
       <use xlink:href="#DejaVuSans-33" transform="translate(190.869141 0)"/>
       <use xlink:href="#DejaVuSans-2d" transform="translate(254.492188 0)"/>
       <use xlink:href="#DejaVuSans-30" transform="translate(290.576172 0)"/>
       <use xlink:href="#DejaVuSans-37" transform="translate(354.199219 0)"/>
      </g>
     </g>
    </g>
    <g id="xtick_6">
     <g id="line2d_11">
      <path d="M 544.102781 320.4 
L 544.102781 43.2 
" clip-path="url(#p17d9cfa8b2)" style="fill: none; stroke-dasharray: 5.12,1.28,0.8,1.28; stroke-dashoffset: 0; stroke: #b0b0b0; stroke-width: 0.8"/>
     </g>
     <g id="line2d_12">
      <g>
       <use xlink:href="#m3cc5df7f10" x="544.102781" y="320.4" style="fill: #a9a9a9; stroke: #a9a9a9; stroke-width: 0.8"/>
      </g>
     </g>
     <g id="text_6">
      <!-- 2024-01 -->
      <g style="fill: #a9a9a9" transform="translate(523.211375 334.998438) scale(0.1 -0.1)">
       <defs>
        <path id="DejaVuSans-34" d="M 2419 4116 
L 825 1625 
L 2419 1625 
L 2419 4116 
z
M 2253 4666 
L 3047 4666 
L 3047 1625 
L 3713 1625 
L 3713 1100 
L 3047 1100 
L 3047 0 
L 2419 0 
L 2419 1100 
L 313 1100 
L 313 1709 
L 2253 4666 
z
" transform="scale(0.015625)"/>
       </defs>
       <use xlink:href="#DejaVuSans-32"/>
       <use xlink:href="#DejaVuSans-30" transform="translate(63.623047 0)"/>
       <use xlink:href="#DejaVuSans-32" transform="translate(127.246094 0)"/>
       <use xlink:href="#DejaVuSans-34" transform="translate(190.869141 0)"/>
       <use xlink:href="#DejaVuSans-2d" transform="translate(254.492188 0)"/>
       <use xlink:href="#DejaVuSans-30" transform="translate(290.576172 0)"/>
       <use xlink:href="#DejaVuSans-31" transform="translate(354.199219 0)"/>
      </g>
     </g>
    </g>
    <g id="xtick_7">
     <g id="line2d_13">
      <path d="M 626.966179 320.4 
L 626.966179 43.2 
" clip-path="url(#p17d9cfa8b2)" style="fill: none; stroke-dasharray: 5.12,1.28,0.8,1.28; stroke-dashoffset: 0; stroke: #b0b0b0; stroke-width: 0.8"/>
     </g>
     <g id="line2d_14">
      <g>
       <use xlink:href="#m3cc5df7f10" x="626.966179" y="320.4" style="fill: #a9a9a9; stroke: #a9a9a9; stroke-width: 0.8"/>
      </g>
     </g>
     <g id="text_7">
      <!-- 2024-07 -->
      <g style="fill: #a9a9a9" transform="translate(606.074773 334.998438) scale(0.1 -0.1)">
       <use xlink:href="#DejaVuSans-32"/>
       <use xlink:href="#DejaVuSans-30" transform="translate(63.623047 0)"/>
       <use xlink:href="#DejaVuSans-32" transform="translate(127.246094 0)"/>
       <use xlink:href="#DejaVuSans-34" transform="translate(190.869141 0)"/>
       <use xlink:href="#DejaVuSans-2d" transform="translate(254.492188 0)"/>
       <use xlink:href="#DejaVuSans-30" transform="translate(290.576172 0)"/>
       <use xlink:href="#DejaVuSans-37" transform="translate(354.199219 0)"/>
      </g>
     </g>
    </g>
    <g id="xtick_8">
     <g id="line2d_15">
      <path d="M 710.740165 320.4 
L 710.740165 43.2 
" clip-path="url(#p17d9cfa8b2)" style="fill: none; stroke-dasharray: 5.12,1.28,0.8,1.28; stroke-dashoffset: 0; stroke: #b0b0b0; stroke-width: 0.8"/>
     </g>
     <g id="line2d_16">
      <g>
       <use xlink:href="#m3cc5df7f10" x="710.740165" y="320.4" style="fill: #a9a9a9; stroke: #a9a9a9; stroke-width: 0.8"/>
      </g>
     </g>
     <g id="text_8">
      <!-- 2025-01 -->
      <g style="fill: #a9a9a9" transform="translate(689.848758 334.998438) scale(0.1 -0.1)">
       <defs>
        <path id="DejaVuSans-35" d="M 691 4666 
L 3169 4666 
L 3169 4134 
L 1269 4134 
L 1269 2991 
Q 1406 3038 1543 3061 
Q 1681 3084 1819 3084 
Q 2600 3084 3056 2656 
Q 3513 2228 3513 1497 
Q 3513 744 3044 326 
Q 2575 -91 1722 -91 
Q 1428 -91 1123 -41 
Q 819 9 494 109 
L 494 744 
Q 775 591 1075 516 
Q 1375 441 1709 441 
Q 2250 441 2565 725 
Q 2881 1009 2881 1497 
Q 2881 1984 2565 2268 
Q 2250 2553 1709 2553 
Q 1456 2553 1204 2497 
Q 953 2441 691 2322 
L 691 4666 
z
" transform="scale(0.015625)"/>
       </defs>
       <use xlink:href="#DejaVuSans-32"/>
       <use xlink:href="#DejaVuSans-30" transform="translate(63.623047 0)"/>
       <use xlink:href="#DejaVuSans-32" transform="translate(127.246094 0)"/>
       <use xlink:href="#DejaVuSans-35" transform="translate(190.869141 0)"/>
       <use xlink:href="#DejaVuSans-2d" transform="translate(254.492188 0)"/>
       <use xlink:href="#DejaVuSans-30" transform="translate(290.576172 0)"/>
       <use xlink:href="#DejaVuSans-31" transform="translate(354.199219 0)"/>
      </g>
     </g>
    </g>
   </g>
   <g id="matplotlib.axis_2">
    <g id="ytick_1">
     <g id="line2d_17">
      <path d="M 108 307.833885 
L 777.6 307.833885 
" clip-path="url(#p17d9cfa8b2)" style="fill: none; stroke-dasharray: 5.12,1.28,0.8,1.28; stroke-dashoffset: 0; stroke: #b0b0b0; stroke-width: 0.8"/>
     </g>
     <g id="line2d_18">
      <defs>
       <path id="mdcf2a6acd7" d="M 0 0 
L -3.5 0 
" style="stroke: #a9a9a9; stroke-width: 0.8"/>
      </defs>
      <g>
       <use xlink:href="#mdcf2a6acd7" x="108" y="307.833885" style="fill: #a9a9a9; stroke: #a9a9a9; stroke-width: 0.8"/>
      </g>
     </g>
     <g id="text_9">
      <!-- 0 -->
      <g style="fill: #a9a9a9" transform="translate(94.6375 311.633103) scale(0.1 -0.1)">
       <use xlink:href="#DejaVuSans-30"/>
      </g>
     </g>
    </g>
    <g id="ytick_2">
     <g id="line2d_19">
      <path d="M 108 273.949254 
L 777.6 273.949254 
" clip-path="url(#p17d9cfa8b2)" style="fill: none; stroke-dasharray: 5.12,1.28,0.8,1.28; stroke-dashoffset: 0; stroke: #b0b0b0; stroke-width: 0.8"/>
     </g>
     <g id="line2d_20">
      <g>
       <use xlink:href="#mdcf2a6acd7" x="108" y="273.949254" style="fill: #a9a9a9; stroke: #a9a9a9; stroke-width: 0.8"/>
      </g>
     </g>
     <g id="text_10">
      <!-- 1000 -->
      <g style="fill: #a9a9a9" transform="translate(75.55 277.748472) scale(0.1 -0.1)">
       <use xlink:href="#DejaVuSans-31"/>
       <use xlink:href="#DejaVuSans-30" transform="translate(63.623047 0)"/>
       <use xlink:href="#DejaVuSans-30" transform="translate(127.246094 0)"/>
       <use xlink:href="#DejaVuSans-30" transform="translate(190.869141 0)"/>
      </g>
     </g>
    </g>
    <g id="ytick_3">
     <g id="line2d_21">
      <path d="M 108 240.064623 
L 777.6 240.064623 
" clip-path="url(#p17d9cfa8b2)" style="fill: none; stroke-dasharray: 5.12,1.28,0.8,1.28; stroke-dashoffset: 0; stroke: #b0b0b0; stroke-width: 0.8"/>
     </g>
     <g id="line2d_22">
      <g>
       <use xlink:href="#mdcf2a6acd7" x="108" y="240.064623" style="fill: #a9a9a9; stroke: #a9a9a9; stroke-width: 0.8"/>
      </g>
     </g>
     <g id="text_11">
      <!-- 2000 -->
      <g style="fill: #a9a9a9" transform="translate(75.55 243.863842) scale(0.1 -0.1)">
       <use xlink:href="#DejaVuSans-32"/>
       <use xlink:href="#DejaVuSans-30" transform="translate(63.623047 0)"/>
       <use xlink:href="#DejaVuSans-30" transform="translate(127.246094 0)"/>
       <use xlink:href="#DejaVuSans-30" transform="translate(190.869141 0)"/>
      </g>
     </g>
    </g>
    <g id="ytick_4">
     <g id="line2d_23">
      <path d="M 108 206.179992 
L 777.6 206.179992 
" clip-path="url(#p17d9cfa8b2)" style="fill: none; stroke-dasharray: 5.12,1.28,0.8,1.28; stroke-dashoffset: 0; stroke: #b0b0b0; stroke-width: 0.8"/>
     </g>
     <g id="line2d_24">
      <g>
       <use xlink:href="#mdcf2a6acd7" x="108" y="206.179992" style="fill: #a9a9a9; stroke: #a9a9a9; stroke-width: 0.8"/>
      </g>
     </g>
     <g id="text_12">
      <!-- 3000 -->
      <g style="fill: #a9a9a9" transform="translate(75.55 209.979211) scale(0.1 -0.1)">
       <use xlink:href="#DejaVuSans-33"/>
       <use xlink:href="#DejaVuSans-30" transform="translate(63.623047 0)"/>
       <use xlink:href="#DejaVuSans-30" transform="translate(127.246094 0)"/>
       <use xlink:href="#DejaVuSans-30" transform="translate(190.869141 0)"/>
      </g>
     </g>
    </g>
    <g id="ytick_5">
     <g id="line2d_25">
      <path d="M 108 172.295361 
L 777.6 172.295361 
" clip-path="url(#p17d9cfa8b2)" style="fill: none; stroke-dasharray: 5.12,1.28,0.8,1.28; stroke-dashoffset: 0; stroke: #b0b0b0; stroke-width: 0.8"/>
     </g>
     <g id="line2d_26">
      <g>
       <use xlink:href="#mdcf2a6acd7" x="108" y="172.295361" style="fill: #a9a9a9; stroke: #a9a9a9; stroke-width: 0.8"/>
      </g>
     </g>
     <g id="text_13">
      <!-- 4000 -->
      <g style="fill: #a9a9a9" transform="translate(75.55 176.09458) scale(0.1 -0.1)">
       <use xlink:href="#DejaVuSans-34"/>
       <use xlink:href="#DejaVuSans-30" transform="translate(63.623047 0)"/>
       <use xlink:href="#DejaVuSans-30" transform="translate(127.246094 0)"/>
       <use xlink:href="#DejaVuSans-30" transform="translate(190.869141 0)"/>
      </g>
     </g>
    </g>
    <g id="ytick_6">
     <g id="line2d_27">
      <path d="M 108 138.41073 
L 777.6 138.41073 
" clip-path="url(#p17d9cfa8b2)" style="fill: none; stroke-dasharray: 5.12,1.28,0.8,1.28; stroke-dashoffset: 0; stroke: #b0b0b0; stroke-width: 0.8"/>
     </g>
     <g id="line2d_28">
      <g>
       <use xlink:href="#mdcf2a6acd7" x="108" y="138.41073" style="fill: #a9a9a9; stroke: #a9a9a9; stroke-width: 0.8"/>
      </g>
     </g>
     <g id="text_14">
      <!-- 5000 -->
      <g style="fill: #a9a9a9" transform="translate(75.55 142.209949) scale(0.1 -0.1)">
       <use xlink:href="#DejaVuSans-35"/>
       <use xlink:href="#DejaVuSans-30" transform="translate(63.623047 0)"/>
       <use xlink:href="#DejaVuSans-30" transform="translate(127.246094 0)"/>
       <use xlink:href="#DejaVuSans-30" transform="translate(190.869141 0)"/>
      </g>
     </g>
    </g>
    <g id="ytick_7">
     <g id="line2d_29">
      <path d="M 108 104.526099 
L 777.6 104.526099 
" clip-path="url(#p17d9cfa8b2)" style="fill: none; stroke-dasharray: 5.12,1.28,0.8,1.28; stroke-dashoffset: 0; stroke: #b0b0b0; stroke-width: 0.8"/>
     </g>
     <g id="line2d_30">
      <g>
       <use xlink:href="#mdcf2a6acd7" x="108" y="104.526099" style="fill: #a9a9a9; stroke: #a9a9a9; stroke-width: 0.8"/>
      </g>
     </g>
     <g id="text_15">
      <!-- 6000 -->
      <g style="fill: #a9a9a9" transform="translate(75.55 108.325318) scale(0.1 -0.1)">
       <defs>
        <path id="DejaVuSans-36" d="M 2113 2584 
Q 1688 2584 1439 2293 
Q 1191 2003 1191 1497 
Q 1191 994 1439 701 
Q 1688 409 2113 409 
Q 2538 409 2786 701 
Q 3034 994 3034 1497 
Q 3034 2003 2786 2293 
Q 2538 2584 2113 2584 
z
M 3366 4563 
L 3366 3988 
Q 3128 4100 2886 4159 
Q 2644 4219 2406 4219 
Q 1781 4219 1451 3797 
Q 1122 3375 1075 2522 
Q 1259 2794 1537 2939 
Q 1816 3084 2150 3084 
Q 2853 3084 3261 2657 
Q 3669 2231 3669 1497 
Q 3669 778 3244 343 
Q 2819 -91 2113 -91 
Q 1303 -91 875 529 
Q 447 1150 447 2328 
Q 447 3434 972 4092 
Q 1497 4750 2381 4750 
Q 2619 4750 2861 4703 
Q 3103 4656 3366 4563 
z
" transform="scale(0.015625)"/>
       </defs>
       <use xlink:href="#DejaVuSans-36"/>
       <use xlink:href="#DejaVuSans-30" transform="translate(63.623047 0)"/>
       <use xlink:href="#DejaVuSans-30" transform="translate(127.246094 0)"/>
       <use xlink:href="#DejaVuSans-30" transform="translate(190.869141 0)"/>
      </g>
     </g>
    </g>
    <g id="ytick_8">
     <g id="line2d_31">
      <path d="M 108 70.641468 
L 777.6 70.641468 
" clip-path="url(#p17d9cfa8b2)" style="fill: none; stroke-dasharray: 5.12,1.28,0.8,1.28; stroke-dashoffset: 0; stroke: #b0b0b0; stroke-width: 0.8"/>
     </g>
     <g id="line2d_32">
      <g>
       <use xlink:href="#mdcf2a6acd7" x="108" y="70.641468" style="fill: #a9a9a9; stroke: #a9a9a9; stroke-width: 0.8"/>
      </g>
     </g>
     <g id="text_16">
      <!-- 7000 -->
      <g style="fill: #a9a9a9" transform="translate(75.55 74.440687) scale(0.1 -0.1)">
       <use xlink:href="#DejaVuSans-37"/>
       <use xlink:href="#DejaVuSans-30" transform="translate(63.623047 0)"/>
       <use xlink:href="#DejaVuSans-30" transform="translate(127.246094 0)"/>
       <use xlink:href="#DejaVuSans-30" transform="translate(190.869141 0)"/>
      </g>
     </g>
    </g>
   </g>
   <g id="line2d_33">
    <path d="M 138.436364 307.732231 
L 141.168124 307.495038 
L 141.623417 307.291731 
L 143.444591 307.054538 
L 145.265765 306.681807 
L 146.176351 306.546269 
L 148.452818 306.342961 
L 149.363405 305.97023 
L 149.818699 305.360307 
L 150.273992 305.055345 
L 150.729285 304.004921 
L 151.184579 303.937152 
L 151.639872 303.564421 
L 152.550459 303.090036 
L 154.371633 301.599113 
L 156.192806 300.684228 
L 157.558686 300.04042 
L 158.01398 299.294958 
L 158.924567 298.617265 
L 159.37986 298.413957 
L 163.932794 297.736265 
L 164.388087 297.532957 
L 167.575141 297.26188 
L 169.396315 296.82138 
L 173.038662 296.31311 
L 173.493955 296.075918 
L 173.949249 296.008148 
L 174.859835 295.703187 
L 178.046889 295.161033 
L 178.957476 294.889956 
L 183.055117 294.178378 
L 183.965703 293.975071 
L 184.87629 293.941186 
L 186.697464 293.500686 
L 187.152757 292.856878 
L 188.518637 292.314724 
L 189.884518 291.941993 
L 190.339811 291.7048 
L 191.250398 291.535377 
L 193.071571 290.993223 
L 193.982158 290.925454 
L 194.892745 290.688261 
L 196.713919 290.213877 
L 197.169212 290.179992 
L 198.079799 289.739492 
L 198.535092 289.671722 
L 198.990386 289.43453 
L 203.998613 288.587414 
L 205.819786 288.04526 
L 206.27508 287.740299 
L 208.551547 286.994837 
L 209.462134 286.351029 
L 210.828014 286.079952 
L 220.844469 283.131989 
L 221.299762 283.098104 
L 222.665642 282.691489 
L 223.120936 282.691489 
L 223.576229 282.488181 
L 224.486816 282.386527 
L 224.942109 282.217104 
L 226.763283 282.149334 
L 227.67387 281.979911 
L 228.584456 281.505526 
L 229.950337 280.997257 
L 230.40563 280.692295 
L 231.316217 280.28568 
L 231.77151 280.048487 
L 232.682097 279.743526 
L 233.13739 279.607987 
L 234.047977 279.031948 
L 234.503271 278.523679 
L 235.413857 277.100524 
L 235.869151 276.964986 
L 236.324444 276.964986 
L 237.690324 276.151755 
L 238.145618 275.914562 
L 238.600911 275.812908 
L 239.056205 275.372408 
L 239.966791 274.999677 
L 240.877378 274.559177 
L 243.153845 271.611214 
L 245.885605 270.12029 
L 246.796192 269.374829 
L 247.251486 269.069867 
L 247.706779 268.426059 
L 248.162072 267.375635 
L 248.617366 266.664058 
L 249.072659 266.291327 
L 249.527953 266.088019 
L 253.1703 262.699556 
L 254.080887 261.852441 
L 256.812647 260.124324 
L 257.26794 259.954901 
L 258.633821 259.14167 
L 259.999701 258.226785 
L 261.820874 256.566438 
L 262.731461 256.193707 
L 263.642048 255.549899 
L 264.097341 255.278822 
L 264.552635 255.211053 
L 265.918515 254.431706 
L 266.373808 253.923437 
L 268.650275 252.669706 
L 269.105569 252.500282 
L 270.471449 251.551513 
L 277.30085 249.111819 
L 278.211437 248.264704 
L 279.577317 247.587011 
L 280.487904 247.010972 
L 281.398491 246.739895 
L 281.853784 246.434933 
L 282.309077 246.299395 
L 283.674958 245.38451 
L 285.951424 244.842356 
L 287.317305 244.029125 
L 288.683185 243.724163 
L 289.138478 243.622509 
L 290.504358 242.572086 
L 292.325532 242.063816 
L 292.780825 241.691085 
L 295.512586 240.742315 
L 296.423173 240.572892 
L 297.333759 240.200161 
L 300.520813 239.014199 
L 301.4314 238.878661 
L 302.79728 238.404276 
L 305.073747 237.286083 
L 306.894921 236.269544 
L 310.537268 234.744736 
L 310.992561 234.676967 
L 311.903148 234.100928 
L 312.813735 233.863735 
L 314.179615 233.321581 
L 316.000789 233.084389 
L 316.911376 232.610004 
L 317.366669 232.203388 
L 317.821962 231.356273 
L 319.643136 230.848003 
L 321.009016 230.136426 
L 321.919603 229.831464 
L 322.83019 229.357079 
L 325.56195 228.238887 
L 326.472537 228.035579 
L 327.383124 227.561194 
L 327.838417 227.357886 
L 328.29371 227.290117 
L 330.570177 226.171924 
L 331.480764 225.595885 
L 332.846644 225.324808 
L 334.667818 224.816539 
L 335.123111 224.782654 
L 335.578405 224.409923 
L 336.488992 224.104962 
L 338.765459 223.190077 
L 339.220752 222.85123 
L 339.676045 222.681807 
L 340.586632 222.173538 
L 342.407806 221.597499 
L 343.318393 221.02146 
L 343.773686 220.547075 
L 344.228979 220.275998 
L 344.684273 220.174344 
L 345.59486 219.428883 
L 346.050153 219.361113 
L 346.505446 218.615651 
L 346.96074 218.412344 
L 347.416033 218.039613 
L 347.871327 217.971843 
L 348.781913 217.395805 
L 349.6925 217.090843 
L 350.147794 216.751997 
L 350.603087 216.582574 
L 352.424261 215.362727 
L 353.790141 214.65115 
L 354.700728 214.413957 
L 355.611314 213.905688 
L 356.066608 213.126341 
L 356.977195 212.448649 
L 357.432488 212.346995 
L 360.164248 211.025494 
L 361.074835 210.652763 
L 362.440715 209.500686 
L 363.351302 208.721339 
L 364.261889 208.179185 
L 364.717182 207.670916 
L 365.172476 207.365954 
L 366.083062 206.620492 
L 366.538356 206.417184 
L 367.448943 205.502299 
L 368.359529 205.197338 
L 369.270116 204.587414 
L 370.635996 203.875837 
L 371.09129 203.808068 
L 372.45717 203.062606 
L 373.367757 202.486567 
L 377.920691 200.792336 
L 378.375984 200.419605 
L 380.197158 199.708027 
L 380.652451 199.572489 
L 381.563038 198.962566 
L 382.473625 198.589835 
L 383.384212 197.946027 
L 384.294798 196.116257 
L 385.205385 195.031948 
L 386.571265 194.320371 
L 387.481852 193.94764 
L 387.937146 193.879871 
L 388.392439 193.608794 
L 390.668906 192.863332 
L 391.124199 192.660024 
L 392.034786 192.016216 
L 393.400666 191.440177 
L 394.311253 190.931908 
L 395.22184 190.389754 
L 395.677133 190.084792 
L 396.132427 189.576523 
L 397.043014 189.068253 
L 399.319481 187.814522 
L 402.051241 186.425252 
L 403.417121 186.018637 
L 404.783001 185.476482 
L 405.238295 185.137636 
L 406.148881 184.866559 
L 407.059468 184.493828 
L 407.514762 184.121097 
L 409.335935 183.477289 
L 410.246522 182.799597 
L 411.157109 182.426866 
L 412.067696 181.715288 
L 412.978282 181.444211 
L 413.433576 181.037596 
L 413.888869 180.969827 
L 414.799456 180.258249 
L 415.710043 179.783864 
L 416.165336 179.580557 
L 416.62063 179.106172 
L 419.807683 177.818556 
L 420.71827 177.41194 
L 422.08415 176.97144 
L 422.994737 176.835902 
L 423.450031 176.632594 
L 423.905324 176.564825 
L 424.815911 176.158209 
L 425.271204 176.124324 
L 427.092378 175.446632 
L 428.458258 174.463977 
L 428.913551 174.294554 
L 429.824138 173.786285 
L 430.279432 173.650746 
L 433.011192 172.092053 
L 433.466485 171.990399 
L 434.832366 171.177168 
L 436.198246 170.702783 
L 437.108833 170.397822 
L 438.930006 169.787898 
L 439.840593 169.482937 
L 441.661767 169.110206 
L 442.11706 168.906898 
L 442.572353 168.839129 
L 443.48294 168.432513 
L 443.938233 168.364744 
L 444.393527 168.127551 
L 445.304114 167.958128 
L 446.669994 167.449859 
L 447.580581 167.348205 
L 448.946461 167.043243 
L 451.222928 166.636628 
L 463.060556 163.112626 
L 463.51585 162.638241 
L 464.426436 162.26551 
L 468.068784 160.87624 
L 468.524077 160.605163 
L 469.889957 160.198548 
L 470.800544 159.961355 
L 471.255837 159.656394 
L 471.711131 159.55474 
L 472.166424 159.148124 
L 473.532304 158.877047 
L 474.442891 158.436547 
L 474.898185 157.894393 
L 476.719358 157.453893 
L 479.906412 156.7762 
L 480.361705 156.7762 
L 480.816999 156.572892 
L 482.638172 156.234046 
L 483.093466 156.030738 
L 484.914639 155.691892 
L 485.825226 155.285276 
L 486.735813 155.115853 
L 489.01228 154.539814 
L 490.833453 153.963776 
L 491.288747 153.862122 
L 491.74404 153.624929 
L 492.654627 153.387737 
L 493.565214 153.015006 
L 494.475801 152.67616 
L 494.931094 152.371198 
L 495.841681 152.100121 
L 499.484028 150.84639 
L 500.394615 150.77862 
L 502.215788 150.236466 
L 502.671082 149.965389 
L 503.581669 149.694312 
L 505.858136 148.643889 
L 506.313429 148.610004 
L 511.321656 146.814119 
L 513.598123 146.204195 
L 514.50871 145.763695 
L 515.87459 145.458733 
L 517.695764 143.96781 
L 519.516938 143.188463 
L 520.427524 142.781848 
L 523.159285 141.731424 
L 523.614578 141.426462 
L 525.891045 140.681 
L 527.256925 139.901654 
L 527.712219 139.8 
L 529.988686 138.546269 
L 531.354566 137.936345 
L 531.809859 137.597499 
L 532.720446 137.292537 
L 534.996913 136.14046 
L 536.362793 135.666075 
L 538.183967 134.920613 
L 539.549847 134.412344 
L 540.00514 134.242921 
L 540.915727 134.107382 
L 541.371021 133.80242 
L 543.192194 133.429689 
L 544.102781 133.056958 
L 545.923955 132.209843 
L 552.298062 129.431303 
L 553.663942 128.990803 
L 554.119236 128.685841 
L 555.029823 128.584187 
L 555.485116 128.279225 
L 556.395703 128.109802 
L 557.30629 127.669302 
L 557.761583 127.465994 
L 558.216876 127.398225 
L 559.127463 127.093263 
L 562.314517 125.975071 
L 563.680397 125.670109 
L 565.501571 124.924647 
L 566.412157 124.416378 
L 568.233331 123.501493 
L 569.143918 123.298185 
L 569.599211 123.027108 
L 570.054505 122.925454 
L 571.420385 122.146107 
L 572.330972 121.773376 
L 574.152145 121.061799 
L 576.428612 120.282453 
L 577.339199 119.808068 
L 579.615666 119.028721 
L 582.347426 117.910528 
L 584.1686 117.063413 
L 588.721534 115.301412 
L 589.176827 114.99645 
L 590.998001 114.386527 
L 591.453294 114.386527 
L 592.363881 113.979911 
L 594.185055 112.488987 
L 594.640348 112.353449 
L 595.095642 112.082372 
L 596.461522 111.709641 
L 596.916815 111.370795 
L 597.372109 111.269141 
L 598.282695 110.693102 
L 599.648576 109.981525 
L 600.559162 109.608794 
L 601.014456 109.371601 
L 602.380336 109.06664 
L 604.656803 108.287293 
L 605.56739 107.982332 
L 606.93327 107.270754 
L 607.843857 106.830254 
L 608.754443 106.593062 
L 610.120324 105.949254 
L 614.217964 104.424445 
L 615.583844 103.57733 
L 616.039138 103.475676 
L 616.949725 103.035175 
L 617.860311 102.696329 
L 618.315605 102.289714 
L 619.226192 101.916983 
L 620.592072 101.442598 
L 621.047365 101.069867 
L 621.502659 101.035982 
L 622.413245 100.764905 
L 623.323832 100.459944 
L 623.779126 100.256636 
L 624.234419 100.188866 
L 625.600299 99.680597 
L 626.966179 99.172328 
L 628.787353 98.359096 
L 629.242646 98.291327 
L 632.884994 96.766519 
L 634.250874 96.326019 
L 635.161461 96.258249 
L 636.072047 95.885518 
L 638.803808 95.072287 
L 639.714395 95.038403 
L 643.356742 93.852441 
L 644.267328 93.378056 
L 644.722622 92.97144 
L 646.088502 92.158209 
L 646.999089 91.616055 
L 649.730849 90.735054 
L 650.186143 90.362324 
L 652.917903 89.210246 
L 654.739077 88.701977 
L 655.649663 88.295361 
L 656.104957 88.058169 
L 657.015544 87.787092 
L 657.470837 87.516015 
L 658.381424 87.346591 
L 662.023771 85.787898 
L 662.479064 85.720129 
L 662.934358 85.415167 
L 663.389651 85.245744 
L 663.844945 84.839129 
L 664.300238 84.771359 
L 666.121412 84.059782 
L 667.942585 83.619282 
L 668.397879 83.551513 
L 668.853172 83.348205 
L 669.308465 83.31432 
L 670.219052 83.009359 
L 670.674346 82.975474 
L 672.040226 82.43332 
L 673.861399 81.891166 
L 674.771986 81.213473 
L 676.59316 80.196934 
L 677.95904 79.722549 
L 681.601387 77.994433 
L 682.05668 77.757241 
L 682.511974 77.316741 
L 684.788441 76.706817 
L 686.154321 76.096894 
L 687.064908 75.859701 
L 687.520201 75.622509 
L 687.975495 75.249778 
L 689.796668 74.775393 
L 690.251962 74.436547 
L 696.170776 72.301815 
L 697.081363 72.132392 
L 699.35783 71.420815 
L 700.268416 71.048084 
L 701.179003 70.709238 
L 702.08959 70.472045 
L 702.544883 70.268737 
L 703.000177 70.268737 
L 703.910764 69.896006 
L 704.82135 69.353852 
L 707.097817 68.574506 
L 708.463698 68.100121 
L 708.918991 68.032352 
L 709.829578 67.659621 
L 711.195458 67.354659 
L 712.561338 66.914159 
L 713.016632 66.812505 
L 713.471925 66.507543 
L 714.382512 66.304236 
L 723.48838 63.695119 
L 725.764847 63.288503 
L 726.675433 62.848003 
L 727.58602 62.407503 
L 728.9519 62.000887 
L 733.504834 60.272771 
L 733.960128 59.933925 
L 735.326008 59.628963 
L 736.236595 59.357886 
L 737.147182 58.917386 
L 737.602475 58.51077 
L 738.513062 58.205809 
L 738.968355 57.934732 
L 739.878942 57.833078 
L 743.065996 56.952077 
L 744.431876 56.681 
L 747.163636 55.8 
L 747.163636 55.8 
" clip-path="url(#p17d9cfa8b2)" style="fill: none; stroke: #1f77b4; stroke-width: 1.5; stroke-linecap: square"/>
   </g>
   <g id="line2d_34">
    <path d="M 138.891657 307.8 
L 142.989298 307.698346 
L 146.631645 307.528923 
L 148.452818 307.528923 
L 148.908112 307.393384 
L 151.184579 307.291731 
L 153.916339 306.986769 
L 156.6481 306.885115 
L 157.558686 306.783461 
L 160.74574 306.647923 
L 163.932794 306.546269 
L 166.209261 306.478499 
L 172.128075 306.376846 
L 174.404542 306.309076 
L 177.591596 306.207422 
L 179.868063 306.139653 
L 184.87629 306.037999 
L 186.697464 305.868576 
L 188.518637 305.834691 
L 191.250398 305.733038 
L 193.071571 305.699153 
L 195.348038 305.631384 
L 197.169212 305.46196 
L 201.266853 305.360307 
L 202.177439 305.292537 
L 203.998613 305.190883 
L 206.730373 305.08923 
L 208.551547 304.987576 
L 216.746828 304.479306 
L 219.933882 304.377652 
L 221.299762 304.242114 
L 223.576229 304.14046 
L 228.129163 303.903267 
L 232.682097 303.835498 
L 234.503271 303.63219 
L 236.324444 303.530537 
L 241.332672 303.056152 
L 244.519725 302.683421 
L 245.885605 302.615651 
L 249.527953 302.141267 
L 252.259713 302.073497 
L 253.625593 301.937959 
L 254.991473 301.836305 
L 267.739689 300.853651 
L 268.650275 300.684228 
L 271.382036 300.582574 
L 278.66673 300.142073 
L 281.853784 300.04042 
L 283.674958 299.837112 
L 285.951424 299.735458 
L 288.683185 299.633804 
L 290.959652 299.53215 
L 292.780825 299.498265 
L 295.057292 299.430496 
L 295.967879 299.294958 
L 302.341987 299.193304 
L 303.252574 299.09165 
L 308.716094 298.989996 
L 312.813735 298.786688 
L 316.000789 298.685034 
L 317.821962 298.481727 
L 321.009016 298.380073 
L 321.919603 298.210649 
L 324.19607 298.14288 
L 328.749004 298.075111 
L 330.570177 297.905688 
L 332.391351 297.871803 
L 333.757231 297.770149 
L 335.578405 297.600726 
L 340.131339 297.363534 
L 344.684273 297.26188 
L 348.781913 297.058572 
L 350.147794 297.024687 
L 351.05838 296.889149 
L 353.334847 296.787495 
L 354.245434 296.719726 
L 355.156021 296.651956 
L 356.066608 296.584187 
L 360.164248 296.516418 
L 361.530129 296.414764 
L 373.82305 295.601533 
L 376.099517 295.499879 
L 378.375984 295.43211 
L 384.750092 295.330456 
L 385.660679 295.194917 
L 392.034786 295.093263 
L 396.58772 294.856071 
L 397.498307 294.822186 
L 398.408894 294.720532 
L 400.685361 294.618879 
L 402.961828 294.551109 
L 405.238295 294.449455 
L 407.514762 294.381686 
L 411.612402 294.280032 
L 414.344163 294.178378 
L 420.71827 294.076724 
L 425.726498 293.805647 
L 427.547671 293.737878 
L 428.913551 293.636224 
L 435.287659 293.53457 
L 438.019419 293.432916 
L 446.2147 293.331263 
L 448.035874 293.297378 
L 453.499395 293.229609 
L 454.409982 293.161839 
L 460.784089 293.060186 
L 462.605263 293.026301 
L 474.442891 292.924647 
L 475.808771 292.789109 
L 496.296974 292.687455 
L 498.573441 292.619685 
L 510.41107 292.551916 
L 511.321656 292.484147 
L 513.598123 292.416378 
L 514.964004 292.280839 
L 517.695764 292.179185 
L 520.882818 292.043647 
L 524.980458 291.941993 
L 527.256925 291.874223 
L 530.443979 291.77257 
L 534.086326 291.603146 
L 536.362793 291.501493 
L 538.183967 291.467608 
L 542.281607 291.365954 
L 544.102781 291.332069 
L 550.021595 291.230415 
L 551.842769 291.196531 
L 554.119236 291.094877 
L 556.850996 290.993223 
L 560.03805 290.925454 
L 560.948637 290.857685 
L 571.875678 290.756031 
L 577.794492 290.417184 
L 580.070959 290.349415 
L 580.981546 290.247761 
L 581.892133 290.179992 
L 585.53448 290.078338 
L 588.266241 289.976684 
L 592.819175 289.87503 
L 595.095642 289.637838 
L 599.648576 289.536184 
L 600.559162 289.43453 
L 605.112096 289.332876 
L 607.388563 289.265107 
L 612.396791 289.231222 
L 613.307377 289.129568 
L 618.315605 289.027914 
L 619.226192 288.960145 
L 629.242646 288.858491 
L 631.974407 288.756837 
L 638.803808 288.655184 
L 640.624981 288.621299 
L 644.722622 288.55353 
L 645.633209 288.451876 
L 651.552023 288.350222 
L 653.82849 288.282453 
L 662.023771 288.180799 
L 663.389651 288.079145 
L 664.755531 287.977491 
L 666.121412 287.875837 
L 672.950813 287.774183 
L 675.682573 287.672529 
L 687.975495 287.570875 
L 692.073135 287.367568 
L 697.536656 287.265914 
L 698.447243 287.198144 
L 705.276644 287.130375 
L 706.187231 287.062606 
L 711.195458 286.960952 
L 713.016632 286.927067 
L 719.390739 286.825413 
L 722.122499 286.72376 
L 729.862487 286.622106 
L 731.683661 286.588221 
L 735.781301 286.486567 
L 739.423649 286.317144 
L 744.431876 286.21549 
L 747.163636 286.079952 
L 747.163636 286.079952 
" clip-path="url(#p17d9cfa8b2)" style="fill: none; stroke: #ff7f0e; stroke-width: 1.5; stroke-linecap: square"/>
   </g>
   <g id="patch_3">
    <path d="M 108 320.4 
L 108 43.2 
" style="fill: none; stroke: #a9a9a9; stroke-width: 0.8; stroke-linejoin: miter; stroke-linecap: square"/>
   </g>
   <g id="patch_4">
    <path d="M 777.6 320.4 
L 777.6 43.2 
" style="fill: none"/>
   </g>
   <g id="patch_5">
    <path d="M 108 320.4 
L 777.6 320.4 
" style="fill: none; stroke: #a9a9a9; stroke-width: 0.8; stroke-linejoin: miter; stroke-linecap: square"/>
   </g>
   <g id="patch_6">
    <path d="M 108 43.2 
L 777.6 43.2 
" style="fill: none"/>
   </g>
   <g id="text_17">
    <!-- get_subscribe history -->
    <g style="fill: #a9a9a9" transform="translate(378.6075 37.2) scale(0.12 -0.12)">
     <defs>
      <path id="DejaVuSans-67" d="M 2906 1791 
Q 2906 2416 2648 2759 
Q 2391 3103 1925 3103 
Q 1463 3103 1205 2759 
Q 947 2416 947 1791 
Q 947 1169 1205 825 
Q 1463 481 1925 481 
Q 2391 481 2648 825 
Q 2906 1169 2906 1791 
z
M 3481 434 
Q 3481 -459 3084 -895 
Q 2688 -1331 1869 -1331 
Q 1566 -1331 1297 -1286 
Q 1028 -1241 775 -1147 
L 775 -588 
Q 1028 -725 1275 -790 
Q 1522 -856 1778 -856 
Q 2344 -856 2625 -561 
Q 2906 -266 2906 331 
L 2906 616 
Q 2728 306 2450 153 
Q 2172 0 1784 0 
Q 1141 0 747 490 
Q 353 981 353 1791 
Q 353 2603 747 3093 
Q 1141 3584 1784 3584 
Q 2172 3584 2450 3431 
Q 2728 3278 2906 2969 
L 2906 3500 
L 3481 3500 
L 3481 434 
z
" transform="scale(0.015625)"/>
      <path id="DejaVuSans-65" d="M 3597 1894 
L 3597 1613 
L 953 1613 
Q 991 1019 1311 708 
Q 1631 397 2203 397 
Q 2534 397 2845 478 
Q 3156 559 3463 722 
L 3463 178 
Q 3153 47 2828 -22 
Q 2503 -91 2169 -91 
Q 1331 -91 842 396 
Q 353 884 353 1716 
Q 353 2575 817 3079 
Q 1281 3584 2069 3584 
Q 2775 3584 3186 3129 
Q 3597 2675 3597 1894 
z
M 3022 2063 
Q 3016 2534 2758 2815 
Q 2500 3097 2075 3097 
Q 1594 3097 1305 2825 
Q 1016 2553 972 2059 
L 3022 2063 
z
" transform="scale(0.015625)"/>
      <path id="DejaVuSans-74" d="M 1172 4494 
L 1172 3500 
L 2356 3500 
L 2356 3053 
L 1172 3053 
L 1172 1153 
Q 1172 725 1289 603 
Q 1406 481 1766 481 
L 2356 481 
L 2356 0 
L 1766 0 
Q 1100 0 847 248 
Q 594 497 594 1153 
L 594 3053 
L 172 3053 
L 172 3500 
L 594 3500 
L 594 4494 
L 1172 4494 
z
" transform="scale(0.015625)"/>
      <path id="DejaVuSans-5f" d="M 3263 -1063 
L 3263 -1509 
L -63 -1509 
L -63 -1063 
L 3263 -1063 
z
" transform="scale(0.015625)"/>
      <path id="DejaVuSans-73" d="M 2834 3397 
L 2834 2853 
Q 2591 2978 2328 3040 
Q 2066 3103 1784 3103 
Q 1356 3103 1142 2972 
Q 928 2841 928 2578 
Q 928 2378 1081 2264 
Q 1234 2150 1697 2047 
L 1894 2003 
Q 2506 1872 2764 1633 
Q 3022 1394 3022 966 
Q 3022 478 2636 193 
Q 2250 -91 1575 -91 
Q 1294 -91 989 -36 
Q 684 19 347 128 
L 347 722 
Q 666 556 975 473 
Q 1284 391 1588 391 
Q 1994 391 2212 530 
Q 2431 669 2431 922 
Q 2431 1156 2273 1281 
Q 2116 1406 1581 1522 
L 1381 1569 
Q 847 1681 609 1914 
Q 372 2147 372 2553 
Q 372 3047 722 3315 
Q 1072 3584 1716 3584 
Q 2034 3584 2315 3537 
Q 2597 3491 2834 3397 
z
" transform="scale(0.015625)"/>
      <path id="DejaVuSans-75" d="M 544 1381 
L 544 3500 
L 1119 3500 
L 1119 1403 
Q 1119 906 1312 657 
Q 1506 409 1894 409 
Q 2359 409 2629 706 
Q 2900 1003 2900 1516 
L 2900 3500 
L 3475 3500 
L 3475 0 
L 2900 0 
L 2900 538 
Q 2691 219 2414 64 
Q 2138 -91 1772 -91 
Q 1169 -91 856 284 
Q 544 659 544 1381 
z
M 1991 3584 
L 1991 3584 
z
" transform="scale(0.015625)"/>
      <path id="DejaVuSans-62" d="M 3116 1747 
Q 3116 2381 2855 2742 
Q 2594 3103 2138 3103 
Q 1681 3103 1420 2742 
Q 1159 2381 1159 1747 
Q 1159 1113 1420 752 
Q 1681 391 2138 391 
Q 2594 391 2855 752 
Q 3116 1113 3116 1747 
z
M 1159 2969 
Q 1341 3281 1617 3432 
Q 1894 3584 2278 3584 
Q 2916 3584 3314 3078 
Q 3713 2572 3713 1747 
Q 3713 922 3314 415 
Q 2916 -91 2278 -91 
Q 1894 -91 1617 61 
Q 1341 213 1159 525 
L 1159 0 
L 581 0 
L 581 4863 
L 1159 4863 
L 1159 2969 
z
" transform="scale(0.015625)"/>
      <path id="DejaVuSans-63" d="M 3122 3366 
L 3122 2828 
Q 2878 2963 2633 3030 
Q 2388 3097 2138 3097 
Q 1578 3097 1268 2742 
Q 959 2388 959 1747 
Q 959 1106 1268 751 
Q 1578 397 2138 397 
Q 2388 397 2633 464 
Q 2878 531 3122 666 
L 3122 134 
Q 2881 22 2623 -34 
Q 2366 -91 2075 -91 
Q 1284 -91 818 406 
Q 353 903 353 1747 
Q 353 2603 823 3093 
Q 1294 3584 2113 3584 
Q 2378 3584 2631 3529 
Q 2884 3475 3122 3366 
z
" transform="scale(0.015625)"/>
      <path id="DejaVuSans-72" d="M 2631 2963 
Q 2534 3019 2420 3045 
Q 2306 3072 2169 3072 
Q 1681 3072 1420 2755 
Q 1159 2438 1159 1844 
L 1159 0 
L 581 0 
L 581 3500 
L 1159 3500 
L 1159 2956 
Q 1341 3275 1631 3429 
Q 1922 3584 2338 3584 
Q 2397 3584 2469 3576 
Q 2541 3569 2628 3553 
L 2631 2963 
z
" transform="scale(0.015625)"/>
      <path id="DejaVuSans-69" d="M 603 3500 
L 1178 3500 
L 1178 0 
L 603 0 
L 603 3500 
z
M 603 4863 
L 1178 4863 
L 1178 4134 
L 603 4134 
L 603 4863 
z
" transform="scale(0.015625)"/>
      <path id="DejaVuSans-20" transform="scale(0.015625)"/>
      <path id="DejaVuSans-68" d="M 3513 2113 
L 3513 0 
L 2938 0 
L 2938 2094 
Q 2938 2591 2744 2837 
Q 2550 3084 2163 3084 
Q 1697 3084 1428 2787 
Q 1159 2491 1159 1978 
L 1159 0 
L 581 0 
L 581 4863 
L 1159 4863 
L 1159 2956 
Q 1366 3272 1645 3428 
Q 1925 3584 2291 3584 
Q 2894 3584 3203 3211 
Q 3513 2838 3513 2113 
z
" transform="scale(0.015625)"/>
      <path id="DejaVuSans-6f" d="M 1959 3097 
Q 1497 3097 1228 2736 
Q 959 2375 959 1747 
Q 959 1119 1226 758 
Q 1494 397 1959 397 
Q 2419 397 2687 759 
Q 2956 1122 2956 1747 
Q 2956 2369 2687 2733 
Q 2419 3097 1959 3097 
z
M 1959 3584 
Q 2709 3584 3137 3096 
Q 3566 2609 3566 1747 
Q 3566 888 3137 398 
Q 2709 -91 1959 -91 
Q 1206 -91 779 398 
Q 353 888 353 1747 
Q 353 2609 779 3096 
Q 1206 3584 1959 3584 
z
" transform="scale(0.015625)"/>
      <path id="DejaVuSans-79" d="M 2059 -325 
Q 1816 -950 1584 -1140 
Q 1353 -1331 966 -1331 
L 506 -1331 
L 506 -850 
L 844 -850 
Q 1081 -850 1212 -737 
Q 1344 -625 1503 -206 
L 1606 56 
L 191 3500 
L 800 3500 
L 1894 763 
L 2988 3500 
L 3597 3500 
L 2059 -325 
z
" transform="scale(0.015625)"/>
     </defs>
     <use xlink:href="#DejaVuSans-67"/>
     <use xlink:href="#DejaVuSans-65" transform="translate(63.476562 0)"/>
     <use xlink:href="#DejaVuSans-74" transform="translate(125 0)"/>
     <use xlink:href="#DejaVuSans-5f" transform="translate(164.208984 0)"/>
     <use xlink:href="#DejaVuSans-73" transform="translate(214.208984 0)"/>
     <use xlink:href="#DejaVuSans-75" transform="translate(266.308594 0)"/>
     <use xlink:href="#DejaVuSans-62" transform="translate(329.6875 0)"/>
     <use xlink:href="#DejaVuSans-73" transform="translate(393.164062 0)"/>
     <use xlink:href="#DejaVuSans-63" transform="translate(445.263672 0)"/>
     <use xlink:href="#DejaVuSans-72" transform="translate(500.244141 0)"/>
     <use xlink:href="#DejaVuSans-69" transform="translate(541.357422 0)"/>
     <use xlink:href="#DejaVuSans-62" transform="translate(569.140625 0)"/>
     <use xlink:href="#DejaVuSans-65" transform="translate(632.617188 0)"/>
     <use xlink:href="#DejaVuSans-20" transform="translate(694.140625 0)"/>
     <use xlink:href="#DejaVuSans-68" transform="translate(725.927734 0)"/>
     <use xlink:href="#DejaVuSans-69" transform="translate(789.306641 0)"/>
     <use xlink:href="#DejaVuSans-73" transform="translate(817.089844 0)"/>
     <use xlink:href="#DejaVuSans-74" transform="translate(869.189453 0)"/>
     <use xlink:href="#DejaVuSans-6f" transform="translate(908.398438 0)"/>
     <use xlink:href="#DejaVuSans-72" transform="translate(969.580078 0)"/>
     <use xlink:href="#DejaVuSans-79" transform="translate(1010.693359 0)"/>
    </g>
   </g>
   <g id="legend_1">
    <g id="line2d_35">
     <path d="M 815.08 328.498438 
L 825.08 328.498438 
L 835.08 328.498438 
" style="fill: none; stroke: #1f77b4; stroke-width: 1.5; stroke-linecap: square"/>
    </g>
    <g id="text_18">
     <!-- star -->
     <g style="fill: #a9a9a9" transform="translate(843.08 331.998438) scale(0.1 -0.1)">
      <defs>
       <path id="DejaVuSans-61" d="M 2194 1759 
Q 1497 1759 1228 1600 
Q 959 1441 959 1056 
Q 959 750 1161 570 
Q 1363 391 1709 391 
Q 2188 391 2477 730 
Q 2766 1069 2766 1631 
L 2766 1759 
L 2194 1759 
z
M 3341 1997 
L 3341 0 
L 2766 0 
L 2766 531 
Q 2569 213 2275 61 
Q 1981 -91 1556 -91 
Q 1019 -91 701 211 
Q 384 513 384 1019 
Q 384 1609 779 1909 
Q 1175 2209 1959 2209 
L 2766 2209 
L 2766 2266 
Q 2766 2663 2505 2880 
Q 2244 3097 1772 3097 
Q 1472 3097 1187 3025 
Q 903 2953 641 2809 
L 641 3341 
Q 956 3463 1253 3523 
Q 1550 3584 1831 3584 
Q 2591 3584 2966 3190 
Q 3341 2797 3341 1997 
z
" transform="scale(0.015625)"/>
      </defs>
      <use xlink:href="#DejaVuSans-73"/>
      <use xlink:href="#DejaVuSans-74" transform="translate(52.099609 0)"/>
      <use xlink:href="#DejaVuSans-61" transform="translate(91.308594 0)"/>
      <use xlink:href="#DejaVuSans-72" transform="translate(152.587891 0)"/>
     </g>
    </g>
    <g id="line2d_36">
     <path d="M 815.08 343.176562 
L 825.08 343.176562 
L 835.08 343.176562 
" style="fill: none; stroke: #ff7f0e; stroke-width: 1.5; stroke-linecap: square"/>
    </g>
    <g id="text_19">
     <!-- fork -->
     <g style="fill: #a9a9a9" transform="translate(843.08 346.676562) scale(0.1 -0.1)">
      <defs>
       <path id="DejaVuSans-66" d="M 2375 4863 
L 2375 4384 
L 1825 4384 
Q 1516 4384 1395 4259 
Q 1275 4134 1275 3809 
L 1275 3500 
L 2222 3500 
L 2222 3053 
L 1275 3053 
L 1275 0 
L 697 0 
L 697 3053 
L 147 3053 
L 147 3500 
L 697 3500 
L 697 3744 
Q 697 4328 969 4595 
Q 1241 4863 1831 4863 
L 2375 4863 
z
" transform="scale(0.015625)"/>
       <path id="DejaVuSans-6b" d="M 581 4863 
L 1159 4863 
L 1159 1991 
L 2875 3500 
L 3609 3500 
L 1753 1863 
L 3688 0 
L 2938 0 
L 1159 1709 
L 1159 0 
L 581 0 
L 581 4863 
z
" transform="scale(0.015625)"/>
      </defs>
      <use xlink:href="#DejaVuSans-66"/>
      <use xlink:href="#DejaVuSans-6f" transform="translate(35.205078 0)"/>
      <use xlink:href="#DejaVuSans-72" transform="translate(96.386719 0)"/>
      <use xlink:href="#DejaVuSans-6b" transform="translate(137.5 0)"/>
     </g>
    </g>
   </g>
  </g>
 </g>
 <defs>
  <clipPath id="p17d9cfa8b2">
   <rect x="108" y="43.2" width="669.6" height="277.2"/>
  </clipPath>
 </defs>
</svg>
