<?xml version="1.0" encoding="utf-8" standalone="no"?>
<!DOCTYPE svg PUBLIC "-//W3C//DTD SVG 1.1//EN"
  "http://www.w3.org/Graphics/SVG/1.1/DTD/svg11.dtd">
<svg xmlns:xlink="http://www.w3.org/1999/xlink" width="864pt" height="360pt" viewBox="0 0 864 360" xmlns="http://www.w3.org/2000/svg" version="1.1">
 <metadata>
  <rdf:RDF xmlns:dc="http://purl.org/dc/elements/1.1/" xmlns:cc="http://creativecommons.org/ns#" xmlns:rdf="http://www.w3.org/1999/02/22-rdf-syntax-ns#">
   <cc:Work>
    <dc:type rdf:resource="http://purl.org/dc/dcmitype/StillImage"/>
    <dc:date>2025-03-21T20:06:00.749316</dc:date>
    <dc:format>image/svg+xml</dc:format>
    <dc:creator>
     <cc:Agent>
      <dc:title>Matplotlib v3.10.1, https://matplotlib.org/</dc:title>
     </cc:Agent>
    </dc:creator>
   </cc:Work>
  </rdf:RDF>
 </metadata>
 <defs>
  <style type="text/css">*{stroke-linejoin: round; stroke-linecap: butt}</style>
 </defs>
 <g id="figure_1">
  <g id="patch_1">
   <path d="M 0 360 
L 864 360 
L 864 0 
L 0 0 
L 0 360 
z
" style="fill: none; opacity: 0"/>
  </g>
  <g id="axes_1">
   <g id="patch_2">
    <path d="M 108 320.4 
L 777.6 320.4 
L 777.6 43.2 
L 108 43.2 
L 108 320.4 
z
" style="fill: none; opacity: 0"/>
   </g>
   <g id="matplotlib.axis_1">
    <g id="xtick_1">
     <g id="line2d_1">
      <path d="M 127.956777 320.4 
L 127.956777 43.2 
" clip-path="url(#p401f742e20)" style="fill: none; stroke-dasharray: 5.12,1.28,0.8,1.28; stroke-dashoffset: 0; stroke: #b0b0b0; stroke-width: 0.8"/>
     </g>
     <g id="line2d_2">
      <defs>
       <path id="m372bf72f99" d="M 0 0 
L 0 3.5 
" style="stroke: #a9a9a9; stroke-width: 0.8"/>
      </defs>
      <g>
       <use xlink:href="#m372bf72f99" x="127.956777" y="320.4" style="fill: #a9a9a9; stroke: #a9a9a9; stroke-width: 0.8"/>
      </g>
     </g>
     <g id="text_1">
      <!-- 2021-07 -->
      <g style="fill: #a9a9a9" transform="translate(107.065371 334.998438) scale(0.1 -0.1)">
       <defs>
        <path id="DejaVuSans-32" d="M 1228 531 
L 3431 531 
L 3431 0 
L 469 0 
L 469 531 
Q 828 903 1448 1529 
Q 2069 2156 2228 2338 
Q 2531 2678 2651 2914 
Q 2772 3150 2772 3378 
Q 2772 3750 2511 3984 
Q 2250 4219 1831 4219 
Q 1534 4219 1204 4116 
Q 875 4013 500 3803 
L 500 4441 
Q 881 4594 1212 4672 
Q 1544 4750 1819 4750 
Q 2544 4750 2975 4387 
Q 3406 4025 3406 3419 
Q 3406 3131 3298 2873 
Q 3191 2616 2906 2266 
Q 2828 2175 2409 1742 
Q 1991 1309 1228 531 
z
" transform="scale(0.015625)"/>
        <path id="DejaVuSans-30" d="M 2034 4250 
Q 1547 4250 1301 3770 
Q 1056 3291 1056 2328 
Q 1056 1369 1301 889 
Q 1547 409 2034 409 
Q 2525 409 2770 889 
Q 3016 1369 3016 2328 
Q 3016 3291 2770 3770 
Q 2525 4250 2034 4250 
z
M 2034 4750 
Q 2819 4750 3233 4129 
Q 3647 3509 3647 2328 
Q 3647 1150 3233 529 
Q 2819 -91 2034 -91 
Q 1250 -91 836 529 
Q 422 1150 422 2328 
Q 422 3509 836 4129 
Q 1250 4750 2034 4750 
z
" transform="scale(0.015625)"/>
        <path id="DejaVuSans-31" d="M 794 531 
L 1825 531 
L 1825 4091 
L 703 3866 
L 703 4441 
L 1819 4666 
L 2450 4666 
L 2450 531 
L 3481 531 
L 3481 0 
L 794 0 
L 794 531 
z
" transform="scale(0.015625)"/>
        <path id="DejaVuSans-2d" d="M 313 2009 
L 1997 2009 
L 1997 1497 
L 313 1497 
L 313 2009 
z
" transform="scale(0.015625)"/>
        <path id="DejaVuSans-37" d="M 525 4666 
L 3525 4666 
L 3525 4397 
L 1831 0 
L 1172 0 
L 2766 4134 
L 525 4134 
L 525 4666 
z
" transform="scale(0.015625)"/>
       </defs>
       <use xlink:href="#DejaVuSans-32"/>
       <use xlink:href="#DejaVuSans-30" transform="translate(63.623047 0)"/>
       <use xlink:href="#DejaVuSans-32" transform="translate(127.246094 0)"/>
       <use xlink:href="#DejaVuSans-31" transform="translate(190.869141 0)"/>
       <use xlink:href="#DejaVuSans-2d" transform="translate(254.492188 0)"/>
       <use xlink:href="#DejaVuSans-30" transform="translate(290.576172 0)"/>
       <use xlink:href="#DejaVuSans-37" transform="translate(354.199219 0)"/>
      </g>
     </g>
    </g>
    <g id="xtick_2">
     <g id="line2d_3">
      <path d="M 211.793468 320.4 
L 211.793468 43.2 
" clip-path="url(#p401f742e20)" style="fill: none; stroke-dasharray: 5.12,1.28,0.8,1.28; stroke-dashoffset: 0; stroke: #b0b0b0; stroke-width: 0.8"/>
     </g>
     <g id="line2d_4">
      <g>
       <use xlink:href="#m372bf72f99" x="211.793468" y="320.4" style="fill: #a9a9a9; stroke: #a9a9a9; stroke-width: 0.8"/>
      </g>
     </g>
     <g id="text_2">
      <!-- 2022-01 -->
      <g style="fill: #a9a9a9" transform="translate(190.902061 334.998438) scale(0.1 -0.1)">
       <use xlink:href="#DejaVuSans-32"/>
       <use xlink:href="#DejaVuSans-30" transform="translate(63.623047 0)"/>
       <use xlink:href="#DejaVuSans-32" transform="translate(127.246094 0)"/>
       <use xlink:href="#DejaVuSans-32" transform="translate(190.869141 0)"/>
       <use xlink:href="#DejaVuSans-2d" transform="translate(254.492188 0)"/>
       <use xlink:href="#DejaVuSans-30" transform="translate(290.576172 0)"/>
       <use xlink:href="#DejaVuSans-31" transform="translate(354.199219 0)"/>
      </g>
     </g>
    </g>
    <g id="xtick_3">
     <g id="line2d_5">
      <path d="M 294.263255 320.4 
L 294.263255 43.2 
" clip-path="url(#p401f742e20)" style="fill: none; stroke-dasharray: 5.12,1.28,0.8,1.28; stroke-dashoffset: 0; stroke: #b0b0b0; stroke-width: 0.8"/>
     </g>
     <g id="line2d_6">
      <g>
       <use xlink:href="#m372bf72f99" x="294.263255" y="320.4" style="fill: #a9a9a9; stroke: #a9a9a9; stroke-width: 0.8"/>
      </g>
     </g>
     <g id="text_3">
      <!-- 2022-07 -->
      <g style="fill: #a9a9a9" transform="translate(273.371849 334.998438) scale(0.1 -0.1)">
       <use xlink:href="#DejaVuSans-32"/>
       <use xlink:href="#DejaVuSans-30" transform="translate(63.623047 0)"/>
       <use xlink:href="#DejaVuSans-32" transform="translate(127.246094 0)"/>
       <use xlink:href="#DejaVuSans-32" transform="translate(190.869141 0)"/>
       <use xlink:href="#DejaVuSans-2d" transform="translate(254.492188 0)"/>
       <use xlink:href="#DejaVuSans-30" transform="translate(290.576172 0)"/>
       <use xlink:href="#DejaVuSans-37" transform="translate(354.199219 0)"/>
      </g>
     </g>
    </g>
    <g id="xtick_4">
     <g id="line2d_7">
      <path d="M 378.099946 320.4 
L 378.099946 43.2 
" clip-path="url(#p401f742e20)" style="fill: none; stroke-dasharray: 5.12,1.28,0.8,1.28; stroke-dashoffset: 0; stroke: #b0b0b0; stroke-width: 0.8"/>
     </g>
     <g id="line2d_8">
      <g>
       <use xlink:href="#m372bf72f99" x="378.099946" y="320.4" style="fill: #a9a9a9; stroke: #a9a9a9; stroke-width: 0.8"/>
      </g>
     </g>
     <g id="text_4">
      <!-- 2023-01 -->
      <g style="fill: #a9a9a9" transform="translate(357.208539 334.998438) scale(0.1 -0.1)">
       <defs>
        <path id="DejaVuSans-33" d="M 2597 2516 
Q 3050 2419 3304 2112 
Q 3559 1806 3559 1356 
Q 3559 666 3084 287 
Q 2609 -91 1734 -91 
Q 1441 -91 1130 -33 
Q 819 25 488 141 
L 488 750 
Q 750 597 1062 519 
Q 1375 441 1716 441 
Q 2309 441 2620 675 
Q 2931 909 2931 1356 
Q 2931 1769 2642 2001 
Q 2353 2234 1838 2234 
L 1294 2234 
L 1294 2753 
L 1863 2753 
Q 2328 2753 2575 2939 
Q 2822 3125 2822 3475 
Q 2822 3834 2567 4026 
Q 2313 4219 1838 4219 
Q 1578 4219 1281 4162 
Q 984 4106 628 3988 
L 628 4550 
Q 988 4650 1302 4700 
Q 1616 4750 1894 4750 
Q 2613 4750 3031 4423 
Q 3450 4097 3450 3541 
Q 3450 3153 3228 2886 
Q 3006 2619 2597 2516 
z
" transform="scale(0.015625)"/>
       </defs>
       <use xlink:href="#DejaVuSans-32"/>
       <use xlink:href="#DejaVuSans-30" transform="translate(63.623047 0)"/>
       <use xlink:href="#DejaVuSans-32" transform="translate(127.246094 0)"/>
       <use xlink:href="#DejaVuSans-33" transform="translate(190.869141 0)"/>
       <use xlink:href="#DejaVuSans-2d" transform="translate(254.492188 0)"/>
       <use xlink:href="#DejaVuSans-30" transform="translate(290.576172 0)"/>
       <use xlink:href="#DejaVuSans-31" transform="translate(354.199219 0)"/>
      </g>
     </g>
    </g>
    <g id="xtick_5">
     <g id="line2d_9">
      <path d="M 460.569733 320.4 
L 460.569733 43.2 
" clip-path="url(#p401f742e20)" style="fill: none; stroke-dasharray: 5.12,1.28,0.8,1.28; stroke-dashoffset: 0; stroke: #b0b0b0; stroke-width: 0.8"/>
     </g>
     <g id="line2d_10">
      <g>
       <use xlink:href="#m372bf72f99" x="460.569733" y="320.4" style="fill: #a9a9a9; stroke: #a9a9a9; stroke-width: 0.8"/>
      </g>
     </g>
     <g id="text_5">
      <!-- 2023-07 -->
      <g style="fill: #a9a9a9" transform="translate(439.678327 334.998438) scale(0.1 -0.1)">
       <use xlink:href="#DejaVuSans-32"/>
       <use xlink:href="#DejaVuSans-30" transform="translate(63.623047 0)"/>
       <use xlink:href="#DejaVuSans-32" transform="translate(127.246094 0)"/>
       <use xlink:href="#DejaVuSans-33" transform="translate(190.869141 0)"/>
       <use xlink:href="#DejaVuSans-2d" transform="translate(254.492188 0)"/>
       <use xlink:href="#DejaVuSans-30" transform="translate(290.576172 0)"/>
       <use xlink:href="#DejaVuSans-37" transform="translate(354.199219 0)"/>
      </g>
     </g>
    </g>
    <g id="xtick_6">
     <g id="line2d_11">
      <path d="M 544.406424 320.4 
L 544.406424 43.2 
" clip-path="url(#p401f742e20)" style="fill: none; stroke-dasharray: 5.12,1.28,0.8,1.28; stroke-dashoffset: 0; stroke: #b0b0b0; stroke-width: 0.8"/>
     </g>
     <g id="line2d_12">
      <g>
       <use xlink:href="#m372bf72f99" x="544.406424" y="320.4" style="fill: #a9a9a9; stroke: #a9a9a9; stroke-width: 0.8"/>
      </g>
     </g>
     <g id="text_6">
      <!-- 2024-01 -->
      <g style="fill: #a9a9a9" transform="translate(523.515017 334.998438) scale(0.1 -0.1)">
       <defs>
        <path id="DejaVuSans-34" d="M 2419 4116 
L 825 1625 
L 2419 1625 
L 2419 4116 
z
M 2253 4666 
L 3047 4666 
L 3047 1625 
L 3713 1625 
L 3713 1100 
L 3047 1100 
L 3047 0 
L 2419 0 
L 2419 1100 
L 313 1100 
L 313 1709 
L 2253 4666 
z
" transform="scale(0.015625)"/>
       </defs>
       <use xlink:href="#DejaVuSans-32"/>
       <use xlink:href="#DejaVuSans-30" transform="translate(63.623047 0)"/>
       <use xlink:href="#DejaVuSans-32" transform="translate(127.246094 0)"/>
       <use xlink:href="#DejaVuSans-34" transform="translate(190.869141 0)"/>
       <use xlink:href="#DejaVuSans-2d" transform="translate(254.492188 0)"/>
       <use xlink:href="#DejaVuSans-30" transform="translate(290.576172 0)"/>
       <use xlink:href="#DejaVuSans-31" transform="translate(354.199219 0)"/>
      </g>
     </g>
    </g>
    <g id="xtick_7">
     <g id="line2d_13">
      <path d="M 627.331845 320.4 
L 627.331845 43.2 
" clip-path="url(#p401f742e20)" style="fill: none; stroke-dasharray: 5.12,1.28,0.8,1.28; stroke-dashoffset: 0; stroke: #b0b0b0; stroke-width: 0.8"/>
     </g>
     <g id="line2d_14">
      <g>
       <use xlink:href="#m372bf72f99" x="627.331845" y="320.4" style="fill: #a9a9a9; stroke: #a9a9a9; stroke-width: 0.8"/>
      </g>
     </g>
     <g id="text_7">
      <!-- 2024-07 -->
      <g style="fill: #a9a9a9" transform="translate(606.440439 334.998438) scale(0.1 -0.1)">
       <use xlink:href="#DejaVuSans-32"/>
       <use xlink:href="#DejaVuSans-30" transform="translate(63.623047 0)"/>
       <use xlink:href="#DejaVuSans-32" transform="translate(127.246094 0)"/>
       <use xlink:href="#DejaVuSans-34" transform="translate(190.869141 0)"/>
       <use xlink:href="#DejaVuSans-2d" transform="translate(254.492188 0)"/>
       <use xlink:href="#DejaVuSans-30" transform="translate(290.576172 0)"/>
       <use xlink:href="#DejaVuSans-37" transform="translate(354.199219 0)"/>
      </g>
     </g>
    </g>
    <g id="xtick_8">
     <g id="line2d_15">
      <path d="M 711.168536 320.4 
L 711.168536 43.2 
" clip-path="url(#p401f742e20)" style="fill: none; stroke-dasharray: 5.12,1.28,0.8,1.28; stroke-dashoffset: 0; stroke: #b0b0b0; stroke-width: 0.8"/>
     </g>
     <g id="line2d_16">
      <g>
       <use xlink:href="#m372bf72f99" x="711.168536" y="320.4" style="fill: #a9a9a9; stroke: #a9a9a9; stroke-width: 0.8"/>
      </g>
     </g>
     <g id="text_8">
      <!-- 2025-01 -->
      <g style="fill: #a9a9a9" transform="translate(690.277129 334.998438) scale(0.1 -0.1)">
       <defs>
        <path id="DejaVuSans-35" d="M 691 4666 
L 3169 4666 
L 3169 4134 
L 1269 4134 
L 1269 2991 
Q 1406 3038 1543 3061 
Q 1681 3084 1819 3084 
Q 2600 3084 3056 2656 
Q 3513 2228 3513 1497 
Q 3513 744 3044 326 
Q 2575 -91 1722 -91 
Q 1428 -91 1123 -41 
Q 819 9 494 109 
L 494 744 
Q 775 591 1075 516 
Q 1375 441 1709 441 
Q 2250 441 2565 725 
Q 2881 1009 2881 1497 
Q 2881 1984 2565 2268 
Q 2250 2553 1709 2553 
Q 1456 2553 1204 2497 
Q 953 2441 691 2322 
L 691 4666 
z
" transform="scale(0.015625)"/>
       </defs>
       <use xlink:href="#DejaVuSans-32"/>
       <use xlink:href="#DejaVuSans-30" transform="translate(63.623047 0)"/>
       <use xlink:href="#DejaVuSans-32" transform="translate(127.246094 0)"/>
       <use xlink:href="#DejaVuSans-35" transform="translate(190.869141 0)"/>
       <use xlink:href="#DejaVuSans-2d" transform="translate(254.492188 0)"/>
       <use xlink:href="#DejaVuSans-30" transform="translate(290.576172 0)"/>
       <use xlink:href="#DejaVuSans-31" transform="translate(354.199219 0)"/>
      </g>
     </g>
    </g>
   </g>
   <g id="matplotlib.axis_2">
    <g id="ytick_1">
     <g id="line2d_17">
      <path d="M 108 307.833921 
L 777.6 307.833921 
" clip-path="url(#p401f742e20)" style="fill: none; stroke-dasharray: 5.12,1.28,0.8,1.28; stroke-dashoffset: 0; stroke: #b0b0b0; stroke-width: 0.8"/>
     </g>
     <g id="line2d_18">
      <defs>
       <path id="ma30cc46bd0" d="M 0 0 
L -3.5 0 
" style="stroke: #a9a9a9; stroke-width: 0.8"/>
      </defs>
      <g>
       <use xlink:href="#ma30cc46bd0" x="108" y="307.833921" style="fill: #a9a9a9; stroke: #a9a9a9; stroke-width: 0.8"/>
      </g>
     </g>
     <g id="text_9">
      <!-- 0 -->
      <g style="fill: #a9a9a9" transform="translate(94.6375 311.63314) scale(0.1 -0.1)">
       <use xlink:href="#DejaVuSans-30"/>
      </g>
     </g>
    </g>
    <g id="ytick_2">
     <g id="line2d_19">
      <path d="M 108 273.912801 
L 777.6 273.912801 
" clip-path="url(#p401f742e20)" style="fill: none; stroke-dasharray: 5.12,1.28,0.8,1.28; stroke-dashoffset: 0; stroke: #b0b0b0; stroke-width: 0.8"/>
     </g>
     <g id="line2d_20">
      <g>
       <use xlink:href="#ma30cc46bd0" x="108" y="273.912801" style="fill: #a9a9a9; stroke: #a9a9a9; stroke-width: 0.8"/>
      </g>
     </g>
     <g id="text_10">
      <!-- 1000 -->
      <g style="fill: #a9a9a9" transform="translate(75.55 277.71202) scale(0.1 -0.1)">
       <use xlink:href="#DejaVuSans-31"/>
       <use xlink:href="#DejaVuSans-30" transform="translate(63.623047 0)"/>
       <use xlink:href="#DejaVuSans-30" transform="translate(127.246094 0)"/>
       <use xlink:href="#DejaVuSans-30" transform="translate(190.869141 0)"/>
      </g>
     </g>
    </g>
    <g id="ytick_3">
     <g id="line2d_21">
      <path d="M 108 239.991681 
L 777.6 239.991681 
" clip-path="url(#p401f742e20)" style="fill: none; stroke-dasharray: 5.12,1.28,0.8,1.28; stroke-dashoffset: 0; stroke: #b0b0b0; stroke-width: 0.8"/>
     </g>
     <g id="line2d_22">
      <g>
       <use xlink:href="#ma30cc46bd0" x="108" y="239.991681" style="fill: #a9a9a9; stroke: #a9a9a9; stroke-width: 0.8"/>
      </g>
     </g>
     <g id="text_11">
      <!-- 2000 -->
      <g style="fill: #a9a9a9" transform="translate(75.55 243.7909) scale(0.1 -0.1)">
       <use xlink:href="#DejaVuSans-32"/>
       <use xlink:href="#DejaVuSans-30" transform="translate(63.623047 0)"/>
       <use xlink:href="#DejaVuSans-30" transform="translate(127.246094 0)"/>
       <use xlink:href="#DejaVuSans-30" transform="translate(190.869141 0)"/>
      </g>
     </g>
    </g>
    <g id="ytick_4">
     <g id="line2d_23">
      <path d="M 108 206.070561 
L 777.6 206.070561 
" clip-path="url(#p401f742e20)" style="fill: none; stroke-dasharray: 5.12,1.28,0.8,1.28; stroke-dashoffset: 0; stroke: #b0b0b0; stroke-width: 0.8"/>
     </g>
     <g id="line2d_24">
      <g>
       <use xlink:href="#ma30cc46bd0" x="108" y="206.070561" style="fill: #a9a9a9; stroke: #a9a9a9; stroke-width: 0.8"/>
      </g>
     </g>
     <g id="text_12">
      <!-- 3000 -->
      <g style="fill: #a9a9a9" transform="translate(75.55 209.86978) scale(0.1 -0.1)">
       <use xlink:href="#DejaVuSans-33"/>
       <use xlink:href="#DejaVuSans-30" transform="translate(63.623047 0)"/>
       <use xlink:href="#DejaVuSans-30" transform="translate(127.246094 0)"/>
       <use xlink:href="#DejaVuSans-30" transform="translate(190.869141 0)"/>
      </g>
     </g>
    </g>
    <g id="ytick_5">
     <g id="line2d_25">
      <path d="M 108 172.149441 
L 777.6 172.149441 
" clip-path="url(#p401f742e20)" style="fill: none; stroke-dasharray: 5.12,1.28,0.8,1.28; stroke-dashoffset: 0; stroke: #b0b0b0; stroke-width: 0.8"/>
     </g>
     <g id="line2d_26">
      <g>
       <use xlink:href="#ma30cc46bd0" x="108" y="172.149441" style="fill: #a9a9a9; stroke: #a9a9a9; stroke-width: 0.8"/>
      </g>
     </g>
     <g id="text_13">
      <!-- 4000 -->
      <g style="fill: #a9a9a9" transform="translate(75.55 175.94866) scale(0.1 -0.1)">
       <use xlink:href="#DejaVuSans-34"/>
       <use xlink:href="#DejaVuSans-30" transform="translate(63.623047 0)"/>
       <use xlink:href="#DejaVuSans-30" transform="translate(127.246094 0)"/>
       <use xlink:href="#DejaVuSans-30" transform="translate(190.869141 0)"/>
      </g>
     </g>
    </g>
    <g id="ytick_6">
     <g id="line2d_27">
      <path d="M 108 138.228321 
L 777.6 138.228321 
" clip-path="url(#p401f742e20)" style="fill: none; stroke-dasharray: 5.12,1.28,0.8,1.28; stroke-dashoffset: 0; stroke: #b0b0b0; stroke-width: 0.8"/>
     </g>
     <g id="line2d_28">
      <g>
       <use xlink:href="#ma30cc46bd0" x="108" y="138.228321" style="fill: #a9a9a9; stroke: #a9a9a9; stroke-width: 0.8"/>
      </g>
     </g>
     <g id="text_14">
      <!-- 5000 -->
      <g style="fill: #a9a9a9" transform="translate(75.55 142.02754) scale(0.1 -0.1)">
       <use xlink:href="#DejaVuSans-35"/>
       <use xlink:href="#DejaVuSans-30" transform="translate(63.623047 0)"/>
       <use xlink:href="#DejaVuSans-30" transform="translate(127.246094 0)"/>
       <use xlink:href="#DejaVuSans-30" transform="translate(190.869141 0)"/>
      </g>
     </g>
    </g>
    <g id="ytick_7">
     <g id="line2d_29">
      <path d="M 108 104.307202 
L 777.6 104.307202 
" clip-path="url(#p401f742e20)" style="fill: none; stroke-dasharray: 5.12,1.28,0.8,1.28; stroke-dashoffset: 0; stroke: #b0b0b0; stroke-width: 0.8"/>
     </g>
     <g id="line2d_30">
      <g>
       <use xlink:href="#ma30cc46bd0" x="108" y="104.307202" style="fill: #a9a9a9; stroke: #a9a9a9; stroke-width: 0.8"/>
      </g>
     </g>
     <g id="text_15">
      <!-- 6000 -->
      <g style="fill: #a9a9a9" transform="translate(75.55 108.10642) scale(0.1 -0.1)">
       <defs>
        <path id="DejaVuSans-36" d="M 2113 2584 
Q 1688 2584 1439 2293 
Q 1191 2003 1191 1497 
Q 1191 994 1439 701 
Q 1688 409 2113 409 
Q 2538 409 2786 701 
Q 3034 994 3034 1497 
Q 3034 2003 2786 2293 
Q 2538 2584 2113 2584 
z
M 3366 4563 
L 3366 3988 
Q 3128 4100 2886 4159 
Q 2644 4219 2406 4219 
Q 1781 4219 1451 3797 
Q 1122 3375 1075 2522 
Q 1259 2794 1537 2939 
Q 1816 3084 2150 3084 
Q 2853 3084 3261 2657 
Q 3669 2231 3669 1497 
Q 3669 778 3244 343 
Q 2819 -91 2113 -91 
Q 1303 -91 875 529 
Q 447 1150 447 2328 
Q 447 3434 972 4092 
Q 1497 4750 2381 4750 
Q 2619 4750 2861 4703 
Q 3103 4656 3366 4563 
z
" transform="scale(0.015625)"/>
       </defs>
       <use xlink:href="#DejaVuSans-36"/>
       <use xlink:href="#DejaVuSans-30" transform="translate(63.623047 0)"/>
       <use xlink:href="#DejaVuSans-30" transform="translate(127.246094 0)"/>
       <use xlink:href="#DejaVuSans-30" transform="translate(190.869141 0)"/>
      </g>
     </g>
    </g>
    <g id="ytick_8">
     <g id="line2d_31">
      <path d="M 108 70.386082 
L 777.6 70.386082 
" clip-path="url(#p401f742e20)" style="fill: none; stroke-dasharray: 5.12,1.28,0.8,1.28; stroke-dashoffset: 0; stroke: #b0b0b0; stroke-width: 0.8"/>
     </g>
     <g id="line2d_32">
      <g>
       <use xlink:href="#ma30cc46bd0" x="108" y="70.386082" style="fill: #a9a9a9; stroke: #a9a9a9; stroke-width: 0.8"/>
      </g>
     </g>
     <g id="text_16">
      <!-- 7000 -->
      <g style="fill: #a9a9a9" transform="translate(75.55 74.1853) scale(0.1 -0.1)">
       <use xlink:href="#DejaVuSans-37"/>
       <use xlink:href="#DejaVuSans-30" transform="translate(63.623047 0)"/>
       <use xlink:href="#DejaVuSans-30" transform="translate(127.246094 0)"/>
       <use xlink:href="#DejaVuSans-30" transform="translate(190.869141 0)"/>
      </g>
     </g>
    </g>
   </g>
   <g id="line2d_33">
    <path d="M 138.436364 307.732158 
L 141.170169 307.49471 
L 141.625803 307.291183 
L 143.44834 307.053735 
L 145.270876 306.680603 
L 146.182145 306.544919 
L 148.460316 306.341392 
L 149.371584 305.96826 
L 149.827218 305.357679 
L 150.282852 305.052389 
L 150.738487 304.000835 
L 151.194121 303.932992 
L 151.649755 303.55986 
L 152.561023 303.084964 
L 154.38356 301.592435 
L 156.206097 300.676565 
L 157.572999 300.032064 
L 158.028634 299.285799 
L 158.939902 298.607376 
L 159.395536 298.40385 
L 163.951878 297.725427 
L 164.407512 297.521901 
L 167.596952 297.250532 
L 169.419488 296.809557 
L 173.064562 296.30074 
L 173.520196 296.063293 
L 173.97583 295.99545 
L 174.887099 295.69016 
L 178.076538 295.147422 
L 178.987806 294.876053 
L 183.088514 294.16371 
L 183.999782 293.960183 
L 184.911051 293.926262 
L 186.733587 293.485287 
L 187.189222 292.840786 
L 188.556124 292.298048 
L 189.923027 291.924916 
L 190.378661 291.687468 
L 191.289929 291.517862 
L 193.112466 290.975125 
L 194.023734 290.907282 
L 194.935003 290.669834 
L 196.757539 290.194939 
L 197.213174 290.161018 
L 198.124442 289.720043 
L 198.580076 289.652201 
L 199.03571 289.414753 
L 204.047686 288.566725 
L 205.870223 288.023987 
L 206.325857 287.718697 
L 208.604028 286.972432 
L 209.515297 286.327931 
L 210.882199 286.056562 
L 220.906151 283.105425 
L 221.361786 283.071504 
L 222.728688 282.66445 
L 223.184322 282.66445 
L 223.639956 282.460923 
L 224.551225 282.35916 
L 225.006859 282.189554 
L 226.829396 282.121712 
L 227.740664 281.952107 
L 228.651932 281.477211 
L 230.018835 280.968394 
L 230.474469 280.663104 
L 231.385738 280.256051 
L 231.841372 280.018603 
L 232.75264 279.713313 
L 233.208274 279.577628 
L 234.119543 279.000969 
L 234.575177 278.492152 
L 235.486445 277.067465 
L 235.942079 276.931781 
L 236.397714 276.931781 
L 237.764616 276.117674 
L 238.22025 275.880226 
L 238.675885 275.778463 
L 239.131519 275.337488 
L 240.042787 274.964356 
L 240.954056 274.523381 
L 243.232226 271.572244 
L 245.966032 270.079715 
L 246.8773 269.33345 
L 247.332934 269.02816 
L 247.788568 268.383659 
L 248.244203 267.332104 
L 248.699837 266.61976 
L 249.155471 266.246628 
L 249.611105 266.043101 
L 253.256179 262.650989 
L 254.167447 261.802961 
L 256.901252 260.072984 
L 257.356886 259.903379 
L 258.723789 259.089272 
L 260.090691 258.173402 
L 261.913228 256.511267 
L 262.824496 256.138134 
L 263.735765 255.493633 
L 264.191399 255.222264 
L 264.647033 255.154422 
L 266.013936 254.374236 
L 266.46957 253.865419 
L 268.747741 252.610338 
L 269.203375 252.440732 
L 270.570278 251.490941 
L 277.40479 249.04862 
L 278.316059 248.200592 
L 279.682961 247.52217 
L 280.59423 246.945511 
L 281.505498 246.674142 
L 281.961132 246.368852 
L 282.416766 246.233167 
L 283.783669 245.317297 
L 286.06184 244.774559 
L 287.428743 243.960452 
L 288.795645 243.655162 
L 289.251279 243.553399 
L 290.618182 242.501844 
L 292.440719 241.993027 
L 292.896353 241.619895 
L 295.630158 240.670104 
L 296.541426 240.500498 
L 297.452695 240.127366 
L 300.642134 238.940127 
L 301.553402 238.804442 
L 302.920305 238.329546 
L 305.198476 237.210149 
L 307.021013 236.192516 
L 310.666086 234.666065 
L 311.12172 234.598223 
L 312.032989 234.021564 
L 312.944257 233.784116 
L 314.311159 233.241378 
L 316.133696 233.003931 
L 317.044965 232.529035 
L 317.500599 232.121981 
L 317.956233 231.273953 
L 319.77877 230.765137 
L 321.145672 230.052793 
L 322.056941 229.747503 
L 322.968209 229.272607 
L 325.702014 228.15321 
L 326.613283 227.949684 
L 327.524551 227.474788 
L 327.980185 227.271261 
L 328.435819 227.203419 
L 330.71399 226.084022 
L 331.625259 225.507363 
L 332.992161 225.235994 
L 334.814698 224.727177 
L 335.270332 224.693256 
L 335.725966 224.320124 
L 336.637235 224.014834 
L 338.915406 223.098964 
L 339.37104 222.759752 
L 339.826674 222.590147 
L 340.737942 222.08133 
L 342.560479 221.504671 
L 343.471747 220.928012 
L 343.927382 220.453116 
L 344.383016 220.181747 
L 344.83865 220.079984 
L 345.749918 219.333719 
L 346.205553 219.265877 
L 346.661187 218.519612 
L 347.116821 218.316086 
L 347.572455 217.942953 
L 348.028089 217.875111 
L 348.939358 217.298452 
L 349.850626 216.993162 
L 350.30626 216.653951 
L 350.761894 216.484345 
L 352.584431 215.263185 
L 353.951334 214.550841 
L 354.862602 214.313393 
L 355.77387 213.804577 
L 356.229505 213.024391 
L 357.140773 212.345969 
L 357.596407 212.244205 
L 360.330212 210.921281 
L 361.241481 210.548149 
L 362.608383 209.394831 
L 363.519652 208.614645 
L 364.43092 208.071907 
L 364.886554 207.563091 
L 365.342188 207.257801 
L 366.253457 206.511536 
L 366.709091 206.308009 
L 367.620359 205.392139 
L 368.531628 205.086849 
L 369.442896 204.476269 
L 370.809799 203.763925 
L 371.265433 203.696083 
L 372.632335 202.949818 
L 373.543604 202.373159 
L 378.099946 200.677103 
L 378.55558 200.303971 
L 380.378116 199.591627 
L 380.833751 199.455943 
L 381.745019 198.845363 
L 382.656287 198.47223 
L 383.567556 197.827729 
L 384.478824 195.995989 
L 385.390093 194.910513 
L 386.756995 194.198169 
L 387.668263 193.825037 
L 388.123898 193.757195 
L 388.579532 193.485826 
L 390.857703 192.739561 
L 391.313337 192.536034 
L 392.224605 191.891533 
L 393.591508 191.314874 
L 394.502776 190.806057 
L 395.414045 190.263319 
L 395.869679 189.958029 
L 396.325313 189.449213 
L 397.236581 188.940396 
L 399.514752 187.685314 
L 402.248557 186.294548 
L 403.61546 185.887495 
L 404.982363 185.344757 
L 405.437997 185.005546 
L 406.349265 184.734177 
L 407.260533 184.361045 
L 407.716168 183.987912 
L 409.538704 183.343411 
L 410.449973 182.664989 
L 411.361241 182.291856 
L 412.27251 181.579513 
L 413.183778 181.308144 
L 413.639412 180.90109 
L 414.095046 180.833248 
L 415.006315 180.120905 
L 415.917583 179.646009 
L 416.373217 179.442482 
L 416.828851 178.967586 
L 420.018291 177.678584 
L 420.929559 177.27153 
L 422.296462 176.830556 
L 423.20773 176.694871 
L 423.663364 176.491345 
L 424.118998 176.423502 
L 425.030267 176.016449 
L 425.485901 175.982528 
L 427.308438 175.304106 
L 428.67534 174.320393 
L 429.130974 174.150787 
L 430.042243 173.641971 
L 430.497877 173.506286 
L 433.231682 171.945915 
L 433.687316 171.844151 
L 435.054219 171.030044 
L 436.421121 170.555149 
L 437.33239 170.249859 
L 439.154927 169.639279 
L 440.066195 169.333988 
L 441.888732 168.960856 
L 442.344366 168.757329 
L 442.8 168.689487 
L 443.711268 168.282434 
L 444.166903 168.214591 
L 444.622537 167.977144 
L 445.533805 167.807538 
L 446.900708 167.298721 
L 447.811976 167.196958 
L 449.178879 166.891668 
L 451.45705 166.484614 
L 463.303538 162.956818 
L 463.759173 162.481922 
L 464.670441 162.10879 
L 468.315514 160.718024 
L 468.771149 160.446655 
L 470.138051 160.039602 
L 471.04932 159.802154 
L 471.504954 159.496864 
L 471.960588 159.3951 
L 472.416222 158.988047 
L 473.783125 158.716678 
L 474.694393 158.275703 
L 475.150027 157.732965 
L 476.972564 157.291991 
L 480.162003 156.613568 
L 480.617637 156.613568 
L 481.073272 156.410042 
L 482.895808 156.070831 
L 483.351443 155.867304 
L 485.173979 155.528093 
L 486.085248 155.121039 
L 486.996516 154.951434 
L 489.274687 154.374775 
L 491.097224 153.798115 
L 491.552858 153.696352 
L 492.008492 153.458904 
L 492.91976 153.221456 
L 493.831029 152.848324 
L 494.742297 152.509113 
L 495.197931 152.203823 
L 496.1092 151.932454 
L 499.754273 150.677372 
L 500.665542 150.60953 
L 502.488078 150.066792 
L 502.943713 149.795423 
L 503.854981 149.524054 
L 506.133152 148.4725 
L 506.588786 148.438579 
L 511.600762 146.640759 
L 513.878933 146.030179 
L 514.790201 145.589204 
L 516.157104 145.283914 
L 517.979641 143.791385 
L 519.802177 143.011199 
L 520.713446 142.604146 
L 523.447251 141.552591 
L 523.902885 141.247301 
L 526.181056 140.501036 
L 527.547959 139.720851 
L 528.003593 139.619087 
L 530.281764 138.364006 
L 531.648666 137.753426 
L 532.1043 137.414215 
L 533.015569 137.108924 
L 535.29374 135.955606 
L 536.660642 135.480711 
L 538.483179 134.734446 
L 539.850082 134.225629 
L 540.305716 134.056024 
L 541.216984 133.920339 
L 541.672618 133.615049 
L 543.495155 133.241917 
L 544.406424 132.868784 
L 546.22896 132.020756 
L 552.607839 129.239225 
L 553.974741 128.79825 
L 554.430376 128.49296 
L 555.341644 128.391197 
L 555.797278 128.085907 
L 556.708547 127.916301 
L 557.619815 127.475326 
L 558.075449 127.2718 
L 558.531083 127.203957 
L 559.442352 126.898667 
L 562.631791 125.77927 
L 563.998694 125.47398 
L 565.82123 124.693795 
L 566.732499 124.184978 
L 568.555035 123.269108 
L 569.466304 123.065581 
L 569.921938 122.794212 
L 570.377572 122.692449 
L 571.744475 121.912263 
L 572.655743 121.53913 
L 574.47828 120.826787 
L 576.756451 120.046601 
L 577.667719 119.571705 
L 579.94589 118.79152 
L 582.679695 117.672123 
L 584.502232 116.824095 
L 589.058574 115.060197 
L 589.514208 114.754906 
L 591.336745 114.144326 
L 591.792379 114.144326 
L 592.703647 113.737273 
L 594.526184 112.244744 
L 594.981818 112.109059 
L 595.437452 111.83769 
L 596.804355 111.464558 
L 597.259989 111.125347 
L 597.715623 111.023583 
L 598.626892 110.446924 
L 599.993794 109.734581 
L 600.905063 109.361448 
L 601.360697 109.124001 
L 602.727599 108.81871 
L 605.00577 108.038525 
L 605.917039 107.733235 
L 607.283941 107.020891 
L 608.19521 106.579917 
L 609.106478 106.342469 
L 610.473381 105.697967 
L 614.574088 104.171517 
L 615.940991 103.323489 
L 616.396625 103.221726 
L 617.307893 102.780751 
L 618.219162 102.44154 
L 618.674796 102.034486 
L 619.586064 101.661354 
L 620.952967 101.186458 
L 621.408601 100.813326 
L 621.864235 100.779405 
L 622.775504 100.508036 
L 623.686772 100.202746 
L 624.142406 99.999219 
L 624.59804 99.931377 
L 625.964943 99.42256 
L 627.331845 98.913743 
L 629.154382 98.099637 
L 629.610016 98.031794 
L 633.25509 96.505344 
L 634.621992 96.064369 
L 635.533261 95.996527 
L 636.444529 95.623395 
L 639.178334 94.809288 
L 640.089603 94.775367 
L 643.734676 93.588128 
L 644.645944 93.113232 
L 645.101579 92.706178 
L 646.468481 91.892072 
L 647.37975 91.349334 
L 650.113555 90.467385 
L 650.569189 90.094252 
L 653.302994 88.940934 
L 655.125531 88.432117 
L 656.036799 88.025064 
L 656.492433 87.787616 
L 657.403702 87.516247 
L 657.859336 87.244878 
L 658.770604 87.075273 
L 662.415678 85.514901 
L 662.871312 85.447059 
L 663.326946 85.141769 
L 663.78258 84.972163 
L 664.238214 84.56511 
L 664.693849 84.497267 
L 666.516385 83.784924 
L 668.338922 83.343949 
L 668.794556 83.276107 
L 669.250191 83.07258 
L 669.705825 83.038659 
L 670.617093 82.733369 
L 671.072727 82.699448 
L 672.43963 82.15671 
L 674.262167 81.613972 
L 675.173435 80.93555 
L 676.995972 79.917916 
L 678.362874 79.443021 
L 682.007948 77.713043 
L 682.463582 77.475596 
L 682.919216 77.034621 
L 685.197387 76.424041 
L 686.56429 75.813461 
L 687.475558 75.576013 
L 687.931192 75.338565 
L 688.386826 74.965433 
L 690.209363 74.490537 
L 690.664997 74.151326 
L 696.588242 72.014295 
L 697.49951 71.84469 
L 699.777681 71.132346 
L 700.688949 70.759214 
L 701.600218 70.420003 
L 702.511486 70.182555 
L 702.96712 69.979028 
L 703.422754 69.979028 
L 704.334023 69.605896 
L 705.245291 69.063158 
L 707.523462 68.282972 
L 708.890365 67.808076 
L 709.345999 67.740234 
L 710.257267 67.367102 
L 711.62417 67.061812 
L 712.991072 66.620837 
L 713.446707 66.519074 
L 713.902341 66.213784 
L 714.813609 66.010257 
L 723.926293 63.398331 
L 726.204464 62.991277 
L 727.115732 62.550303 
L 728.027001 62.109328 
L 729.393903 61.702275 
L 733.950245 59.972298 
L 734.405879 59.633087 
L 735.772782 59.327796 
L 736.68405 59.056428 
L 737.595318 58.615453 
L 738.050953 58.2084 
L 738.962221 57.903109 
L 739.417855 57.63174 
L 740.329124 57.529977 
L 743.518563 56.648028 
L 744.885465 56.376659 
L 747.163636 55.8 
L 747.163636 55.8 
" clip-path="url(#p401f742e20)" style="fill: none; stroke: #1f77b4; stroke-width: 1.5; stroke-linecap: square"/>
   </g>
   <g id="line2d_34">
    <path d="M 138.891998 307.8 
L 142.992705 307.698237 
L 146.637779 307.528631 
L 148.460316 307.528631 
L 148.91595 307.392947 
L 151.194121 307.291183 
L 153.927926 306.985893 
L 156.661731 306.88413 
L 157.572999 306.782366 
L 160.762439 306.646682 
L 163.951878 306.544919 
L 166.230049 306.477076 
L 172.153293 306.375313 
L 174.431464 306.307471 
L 177.620904 306.205707 
L 179.899075 306.137865 
L 184.911051 306.036102 
L 186.733587 305.866496 
L 188.556124 305.832575 
L 191.289929 305.730812 
L 193.112466 305.696891 
L 195.390637 305.629048 
L 197.213174 305.459443 
L 201.313881 305.357679 
L 202.22515 305.289837 
L 204.047686 305.188074 
L 206.781492 305.08631 
L 208.604028 304.984547 
L 216.805444 304.47573 
L 219.994883 304.373967 
L 221.361786 304.238282 
L 223.639956 304.136519 
L 228.196298 303.899071 
L 232.75264 303.831229 
L 234.575177 303.627702 
L 236.397714 303.525939 
L 241.40969 303.051043 
L 244.599129 302.677911 
L 245.966032 302.610069 
L 249.611105 302.135173 
L 252.34491 302.067331 
L 253.711813 301.931646 
L 255.078715 301.829883 
L 267.836473 300.84617 
L 268.747741 300.676565 
L 271.481546 300.574801 
L 278.771693 300.133827 
L 281.961132 300.032064 
L 283.783669 299.828537 
L 286.06184 299.726773 
L 288.795645 299.62501 
L 291.073816 299.523247 
L 292.896353 299.489326 
L 295.174524 299.421483 
L 296.085792 299.285799 
L 302.464671 299.184036 
L 303.375939 299.082272 
L 308.843549 298.980509 
L 312.944257 298.776982 
L 316.133696 298.675219 
L 317.956233 298.471692 
L 321.145672 298.369929 
L 322.056941 298.200323 
L 324.335112 298.132481 
L 328.891453 298.064639 
L 330.71399 297.895033 
L 332.536527 297.861112 
L 333.90343 297.759348 
L 335.725966 297.589743 
L 340.282308 297.352295 
L 344.83865 297.250532 
L 348.939358 297.047005 
L 350.30626 297.013084 
L 351.217529 296.877399 
L 353.4957 296.775636 
L 354.406968 296.707794 
L 355.318236 296.639952 
L 356.229505 296.572109 
L 360.330212 296.504267 
L 361.697115 296.402504 
L 373.999238 295.588397 
L 376.277409 295.486633 
L 378.55558 295.418791 
L 384.934458 295.317028 
L 385.845727 295.181343 
L 392.224605 295.07958 
L 396.780947 294.842132 
L 397.692216 294.808211 
L 398.603484 294.706448 
L 400.881655 294.604684 
L 403.159826 294.536842 
L 405.437997 294.435079 
L 407.716168 294.367237 
L 411.816875 294.265473 
L 414.55068 294.16371 
L 420.929559 294.061946 
L 425.941535 293.790577 
L 427.764072 293.722735 
L 429.130974 293.620972 
L 435.509853 293.519209 
L 438.243658 293.417445 
L 446.445073 293.315682 
L 448.26761 293.281761 
L 453.73522 293.213918 
L 454.646489 293.146076 
L 461.025367 293.044313 
L 462.847904 293.010392 
L 474.694393 292.908628 
L 476.061296 292.772944 
L 496.564834 292.671181 
L 498.843005 292.603338 
L 510.689494 292.535496 
L 511.600762 292.467654 
L 513.878933 292.399812 
L 515.245836 292.264127 
L 517.979641 292.162364 
L 521.16908 292.026679 
L 525.269788 291.924916 
L 527.547959 291.857074 
L 530.737398 291.75531 
L 534.382471 291.585705 
L 536.660642 291.483941 
L 538.483179 291.45002 
L 542.583887 291.348257 
L 544.406424 291.314336 
L 550.329668 291.212572 
L 552.152205 291.178651 
L 554.430376 291.076888 
L 557.164181 290.975125 
L 560.35362 290.907282 
L 561.264888 290.83944 
L 572.200109 290.737677 
L 578.123353 290.398465 
L 580.401524 290.330623 
L 581.312793 290.22886 
L 582.224061 290.161018 
L 585.869134 290.059254 
L 588.60294 289.957491 
L 593.159281 289.855728 
L 595.437452 289.61828 
L 599.993794 289.516516 
L 600.905063 289.414753 
L 605.461404 289.31299 
L 607.739575 289.245147 
L 612.751551 289.211226 
L 613.66282 289.109463 
L 618.674796 289.0077 
L 619.586064 288.939857 
L 629.610016 288.838094 
L 632.343821 288.736331 
L 639.178334 288.634567 
L 641.000871 288.600646 
L 645.101579 288.532804 
L 646.012847 288.431041 
L 651.936091 288.329277 
L 654.214262 288.261435 
L 662.415678 288.159672 
L 663.78258 288.057908 
L 665.149483 287.956145 
L 666.516385 287.854381 
L 673.350898 287.752618 
L 676.084703 287.650855 
L 688.386826 287.549091 
L 692.487534 287.345565 
L 697.955144 287.243801 
L 698.866413 287.175959 
L 705.700925 287.108117 
L 706.612194 287.040275 
L 711.62417 286.938511 
L 713.446707 286.90459 
L 719.825585 286.802827 
L 722.55939 286.701063 
L 730.305171 286.5993 
L 732.127708 286.565379 
L 736.228416 286.463616 
L 739.873489 286.29401 
L 744.885465 286.192247 
L 747.163636 286.090483 
L 747.163636 286.090483 
" clip-path="url(#p401f742e20)" style="fill: none; stroke: #ff7f0e; stroke-width: 1.5; stroke-linecap: square"/>
   </g>
   <g id="patch_3">
    <path d="M 108 320.4 
L 108 43.2 
" style="fill: none; stroke: #a9a9a9; stroke-width: 0.8; stroke-linejoin: miter; stroke-linecap: square"/>
   </g>
   <g id="patch_4">
    <path d="M 777.6 320.4 
L 777.6 43.2 
" style="fill: none"/>
   </g>
   <g id="patch_5">
    <path d="M 108 320.4 
L 777.6 320.4 
" style="fill: none; stroke: #a9a9a9; stroke-width: 0.8; stroke-linejoin: miter; stroke-linecap: square"/>
   </g>
   <g id="patch_6">
    <path d="M 108 43.2 
L 777.6 43.2 
" style="fill: none"/>
   </g>
   <g id="text_17">
    <!-- get_subscribe history -->
    <g style="fill: #a9a9a9" transform="translate(378.6075 37.2) scale(0.12 -0.12)">
     <defs>
      <path id="DejaVuSans-67" d="M 2906 1791 
Q 2906 2416 2648 2759 
Q 2391 3103 1925 3103 
Q 1463 3103 1205 2759 
Q 947 2416 947 1791 
Q 947 1169 1205 825 
Q 1463 481 1925 481 
Q 2391 481 2648 825 
Q 2906 1169 2906 1791 
z
M 3481 434 
Q 3481 -459 3084 -895 
Q 2688 -1331 1869 -1331 
Q 1566 -1331 1297 -1286 
Q 1028 -1241 775 -1147 
L 775 -588 
Q 1028 -725 1275 -790 
Q 1522 -856 1778 -856 
Q 2344 -856 2625 -561 
Q 2906 -266 2906 331 
L 2906 616 
Q 2728 306 2450 153 
Q 2172 0 1784 0 
Q 1141 0 747 490 
Q 353 981 353 1791 
Q 353 2603 747 3093 
Q 1141 3584 1784 3584 
Q 2172 3584 2450 3431 
Q 2728 3278 2906 2969 
L 2906 3500 
L 3481 3500 
L 3481 434 
z
" transform="scale(0.015625)"/>
      <path id="DejaVuSans-65" d="M 3597 1894 
L 3597 1613 
L 953 1613 
Q 991 1019 1311 708 
Q 1631 397 2203 397 
Q 2534 397 2845 478 
Q 3156 559 3463 722 
L 3463 178 
Q 3153 47 2828 -22 
Q 2503 -91 2169 -91 
Q 1331 -91 842 396 
Q 353 884 353 1716 
Q 353 2575 817 3079 
Q 1281 3584 2069 3584 
Q 2775 3584 3186 3129 
Q 3597 2675 3597 1894 
z
M 3022 2063 
Q 3016 2534 2758 2815 
Q 2500 3097 2075 3097 
Q 1594 3097 1305 2825 
Q 1016 2553 972 2059 
L 3022 2063 
z
" transform="scale(0.015625)"/>
      <path id="DejaVuSans-74" d="M 1172 4494 
L 1172 3500 
L 2356 3500 
L 2356 3053 
L 1172 3053 
L 1172 1153 
Q 1172 725 1289 603 
Q 1406 481 1766 481 
L 2356 481 
L 2356 0 
L 1766 0 
Q 1100 0 847 248 
Q 594 497 594 1153 
L 594 3053 
L 172 3053 
L 172 3500 
L 594 3500 
L 594 4494 
L 1172 4494 
z
" transform="scale(0.015625)"/>
      <path id="DejaVuSans-5f" d="M 3263 -1063 
L 3263 -1509 
L -63 -1509 
L -63 -1063 
L 3263 -1063 
z
" transform="scale(0.015625)"/>
      <path id="DejaVuSans-73" d="M 2834 3397 
L 2834 2853 
Q 2591 2978 2328 3040 
Q 2066 3103 1784 3103 
Q 1356 3103 1142 2972 
Q 928 2841 928 2578 
Q 928 2378 1081 2264 
Q 1234 2150 1697 2047 
L 1894 2003 
Q 2506 1872 2764 1633 
Q 3022 1394 3022 966 
Q 3022 478 2636 193 
Q 2250 -91 1575 -91 
Q 1294 -91 989 -36 
Q 684 19 347 128 
L 347 722 
Q 666 556 975 473 
Q 1284 391 1588 391 
Q 1994 391 2212 530 
Q 2431 669 2431 922 
Q 2431 1156 2273 1281 
Q 2116 1406 1581 1522 
L 1381 1569 
Q 847 1681 609 1914 
Q 372 2147 372 2553 
Q 372 3047 722 3315 
Q 1072 3584 1716 3584 
Q 2034 3584 2315 3537 
Q 2597 3491 2834 3397 
z
" transform="scale(0.015625)"/>
      <path id="DejaVuSans-75" d="M 544 1381 
L 544 3500 
L 1119 3500 
L 1119 1403 
Q 1119 906 1312 657 
Q 1506 409 1894 409 
Q 2359 409 2629 706 
Q 2900 1003 2900 1516 
L 2900 3500 
L 3475 3500 
L 3475 0 
L 2900 0 
L 2900 538 
Q 2691 219 2414 64 
Q 2138 -91 1772 -91 
Q 1169 -91 856 284 
Q 544 659 544 1381 
z
M 1991 3584 
L 1991 3584 
z
" transform="scale(0.015625)"/>
      <path id="DejaVuSans-62" d="M 3116 1747 
Q 3116 2381 2855 2742 
Q 2594 3103 2138 3103 
Q 1681 3103 1420 2742 
Q 1159 2381 1159 1747 
Q 1159 1113 1420 752 
Q 1681 391 2138 391 
Q 2594 391 2855 752 
Q 3116 1113 3116 1747 
z
M 1159 2969 
Q 1341 3281 1617 3432 
Q 1894 3584 2278 3584 
Q 2916 3584 3314 3078 
Q 3713 2572 3713 1747 
Q 3713 922 3314 415 
Q 2916 -91 2278 -91 
Q 1894 -91 1617 61 
Q 1341 213 1159 525 
L 1159 0 
L 581 0 
L 581 4863 
L 1159 4863 
L 1159 2969 
z
" transform="scale(0.015625)"/>
      <path id="DejaVuSans-63" d="M 3122 3366 
L 3122 2828 
Q 2878 2963 2633 3030 
Q 2388 3097 2138 3097 
Q 1578 3097 1268 2742 
Q 959 2388 959 1747 
Q 959 1106 1268 751 
Q 1578 397 2138 397 
Q 2388 397 2633 464 
Q 2878 531 3122 666 
L 3122 134 
Q 2881 22 2623 -34 
Q 2366 -91 2075 -91 
Q 1284 -91 818 406 
Q 353 903 353 1747 
Q 353 2603 823 3093 
Q 1294 3584 2113 3584 
Q 2378 3584 2631 3529 
Q 2884 3475 3122 3366 
z
" transform="scale(0.015625)"/>
      <path id="DejaVuSans-72" d="M 2631 2963 
Q 2534 3019 2420 3045 
Q 2306 3072 2169 3072 
Q 1681 3072 1420 2755 
Q 1159 2438 1159 1844 
L 1159 0 
L 581 0 
L 581 3500 
L 1159 3500 
L 1159 2956 
Q 1341 3275 1631 3429 
Q 1922 3584 2338 3584 
Q 2397 3584 2469 3576 
Q 2541 3569 2628 3553 
L 2631 2963 
z
" transform="scale(0.015625)"/>
      <path id="DejaVuSans-69" d="M 603 3500 
L 1178 3500 
L 1178 0 
L 603 0 
L 603 3500 
z
M 603 4863 
L 1178 4863 
L 1178 4134 
L 603 4134 
L 603 4863 
z
" transform="scale(0.015625)"/>
      <path id="DejaVuSans-20" transform="scale(0.015625)"/>
      <path id="DejaVuSans-68" d="M 3513 2113 
L 3513 0 
L 2938 0 
L 2938 2094 
Q 2938 2591 2744 2837 
Q 2550 3084 2163 3084 
Q 1697 3084 1428 2787 
Q 1159 2491 1159 1978 
L 1159 0 
L 581 0 
L 581 4863 
L 1159 4863 
L 1159 2956 
Q 1366 3272 1645 3428 
Q 1925 3584 2291 3584 
Q 2894 3584 3203 3211 
Q 3513 2838 3513 2113 
z
" transform="scale(0.015625)"/>
      <path id="DejaVuSans-6f" d="M 1959 3097 
Q 1497 3097 1228 2736 
Q 959 2375 959 1747 
Q 959 1119 1226 758 
Q 1494 397 1959 397 
Q 2419 397 2687 759 
Q 2956 1122 2956 1747 
Q 2956 2369 2687 2733 
Q 2419 3097 1959 3097 
z
M 1959 3584 
Q 2709 3584 3137 3096 
Q 3566 2609 3566 1747 
Q 3566 888 3137 398 
Q 2709 -91 1959 -91 
Q 1206 -91 779 398 
Q 353 888 353 1747 
Q 353 2609 779 3096 
Q 1206 3584 1959 3584 
z
" transform="scale(0.015625)"/>
      <path id="DejaVuSans-79" d="M 2059 -325 
Q 1816 -950 1584 -1140 
Q 1353 -1331 966 -1331 
L 506 -1331 
L 506 -850 
L 844 -850 
Q 1081 -850 1212 -737 
Q 1344 -625 1503 -206 
L 1606 56 
L 191 3500 
L 800 3500 
L 1894 763 
L 2988 3500 
L 3597 3500 
L 2059 -325 
z
" transform="scale(0.015625)"/>
     </defs>
     <use xlink:href="#DejaVuSans-67"/>
     <use xlink:href="#DejaVuSans-65" transform="translate(63.476562 0)"/>
     <use xlink:href="#DejaVuSans-74" transform="translate(125 0)"/>
     <use xlink:href="#DejaVuSans-5f" transform="translate(164.208984 0)"/>
     <use xlink:href="#DejaVuSans-73" transform="translate(214.208984 0)"/>
     <use xlink:href="#DejaVuSans-75" transform="translate(266.308594 0)"/>
     <use xlink:href="#DejaVuSans-62" transform="translate(329.6875 0)"/>
     <use xlink:href="#DejaVuSans-73" transform="translate(393.164062 0)"/>
     <use xlink:href="#DejaVuSans-63" transform="translate(445.263672 0)"/>
     <use xlink:href="#DejaVuSans-72" transform="translate(500.244141 0)"/>
     <use xlink:href="#DejaVuSans-69" transform="translate(541.357422 0)"/>
     <use xlink:href="#DejaVuSans-62" transform="translate(569.140625 0)"/>
     <use xlink:href="#DejaVuSans-65" transform="translate(632.617188 0)"/>
     <use xlink:href="#DejaVuSans-20" transform="translate(694.140625 0)"/>
     <use xlink:href="#DejaVuSans-68" transform="translate(725.927734 0)"/>
     <use xlink:href="#DejaVuSans-69" transform="translate(789.306641 0)"/>
     <use xlink:href="#DejaVuSans-73" transform="translate(817.089844 0)"/>
     <use xlink:href="#DejaVuSans-74" transform="translate(869.189453 0)"/>
     <use xlink:href="#DejaVuSans-6f" transform="translate(908.398438 0)"/>
     <use xlink:href="#DejaVuSans-72" transform="translate(969.580078 0)"/>
     <use xlink:href="#DejaVuSans-79" transform="translate(1010.693359 0)"/>
    </g>
   </g>
   <g id="legend_1">
    <g id="line2d_35">
     <path d="M 815.08 328.498438 
L 825.08 328.498438 
L 835.08 328.498438 
" style="fill: none; stroke: #1f77b4; stroke-width: 1.5; stroke-linecap: square"/>
    </g>
    <g id="text_18">
     <!-- star -->
     <g style="fill: #a9a9a9" transform="translate(843.08 331.998438) scale(0.1 -0.1)">
      <defs>
       <path id="DejaVuSans-61" d="M 2194 1759 
Q 1497 1759 1228 1600 
Q 959 1441 959 1056 
Q 959 750 1161 570 
Q 1363 391 1709 391 
Q 2188 391 2477 730 
Q 2766 1069 2766 1631 
L 2766 1759 
L 2194 1759 
z
M 3341 1997 
L 3341 0 
L 2766 0 
L 2766 531 
Q 2569 213 2275 61 
Q 1981 -91 1556 -91 
Q 1019 -91 701 211 
Q 384 513 384 1019 
Q 384 1609 779 1909 
Q 1175 2209 1959 2209 
L 2766 2209 
L 2766 2266 
Q 2766 2663 2505 2880 
Q 2244 3097 1772 3097 
Q 1472 3097 1187 3025 
Q 903 2953 641 2809 
L 641 3341 
Q 956 3463 1253 3523 
Q 1550 3584 1831 3584 
Q 2591 3584 2966 3190 
Q 3341 2797 3341 1997 
z
" transform="scale(0.015625)"/>
      </defs>
      <use xlink:href="#DejaVuSans-73"/>
      <use xlink:href="#DejaVuSans-74" transform="translate(52.099609 0)"/>
      <use xlink:href="#DejaVuSans-61" transform="translate(91.308594 0)"/>
      <use xlink:href="#DejaVuSans-72" transform="translate(152.587891 0)"/>
     </g>
    </g>
    <g id="line2d_36">
     <path d="M 815.08 343.176562 
L 825.08 343.176562 
L 835.08 343.176562 
" style="fill: none; stroke: #ff7f0e; stroke-width: 1.5; stroke-linecap: square"/>
    </g>
    <g id="text_19">
     <!-- fork -->
     <g style="fill: #a9a9a9" transform="translate(843.08 346.676562) scale(0.1 -0.1)">
      <defs>
       <path id="DejaVuSans-66" d="M 2375 4863 
L 2375 4384 
L 1825 4384 
Q 1516 4384 1395 4259 
Q 1275 4134 1275 3809 
L 1275 3500 
L 2222 3500 
L 2222 3053 
L 1275 3053 
L 1275 0 
L 697 0 
L 697 3053 
L 147 3053 
L 147 3500 
L 697 3500 
L 697 3744 
Q 697 4328 969 4595 
Q 1241 4863 1831 4863 
L 2375 4863 
z
" transform="scale(0.015625)"/>
       <path id="DejaVuSans-6b" d="M 581 4863 
L 1159 4863 
L 1159 1991 
L 2875 3500 
L 3609 3500 
L 1753 1863 
L 3688 0 
L 2938 0 
L 1159 1709 
L 1159 0 
L 581 0 
L 581 4863 
z
" transform="scale(0.015625)"/>
      </defs>
      <use xlink:href="#DejaVuSans-66"/>
      <use xlink:href="#DejaVuSans-6f" transform="translate(35.205078 0)"/>
      <use xlink:href="#DejaVuSans-72" transform="translate(96.386719 0)"/>
      <use xlink:href="#DejaVuSans-6b" transform="translate(137.5 0)"/>
     </g>
    </g>
   </g>
  </g>
 </g>
 <defs>
  <clipPath id="p401f742e20">
   <rect x="108" y="43.2" width="669.6" height="277.2"/>
  </clipPath>
 </defs>
</svg>
