<?xml version="1.0" encoding="utf-8" standalone="no"?>
<!DOCTYPE svg PUBLIC "-//W3C//DTD SVG 1.1//EN"
  "http://www.w3.org/Graphics/SVG/1.1/DTD/svg11.dtd">
<svg xmlns:xlink="http://www.w3.org/1999/xlink" width="864pt" height="360pt" viewBox="0 0 864 360" xmlns="http://www.w3.org/2000/svg" version="1.1">
 <metadata>
  <rdf:RDF xmlns:dc="http://purl.org/dc/elements/1.1/" xmlns:cc="http://creativecommons.org/ns#" xmlns:rdf="http://www.w3.org/1999/02/22-rdf-syntax-ns#">
   <cc:Work>
    <dc:type rdf:resource="http://purl.org/dc/dcmitype/StillImage"/>
    <dc:date>2025-03-19T08:14:36.360713</dc:date>
    <dc:format>image/svg+xml</dc:format>
    <dc:creator>
     <cc:Agent>
      <dc:title>Matplotlib v3.10.1, https://matplotlib.org/</dc:title>
     </cc:Agent>
    </dc:creator>
   </cc:Work>
  </rdf:RDF>
 </metadata>
 <defs>
  <style type="text/css">*{stroke-linejoin: round; stroke-linecap: butt}</style>
 </defs>
 <g id="figure_1">
  <g id="patch_1">
   <path d="M 0 360 
L 864 360 
L 864 0 
L 0 0 
L 0 360 
z
" style="fill: none; opacity: 0"/>
  </g>
  <g id="axes_1">
   <g id="patch_2">
    <path d="M 108 320.4 
L 777.6 320.4 
L 777.6 43.2 
L 108 43.2 
L 108 320.4 
z
" style="fill: none; opacity: 0"/>
   </g>
   <g id="matplotlib.axis_1">
    <g id="xtick_1">
     <g id="line2d_1">
      <path d="M 127.941066 320.4 
L 127.941066 43.2 
" clip-path="url(#pdda1fae2da)" style="fill: none; stroke-dasharray: 5.12,1.28,0.8,1.28; stroke-dashoffset: 0; stroke: #b0b0b0; stroke-width: 0.8"/>
     </g>
     <g id="line2d_2">
      <defs>
       <path id="m1cf8633bf5" d="M 0 0 
L 0 3.5 
" style="stroke: #a9a9a9; stroke-width: 0.8"/>
      </defs>
      <g>
       <use xlink:href="#m1cf8633bf5" x="127.941066" y="320.4" style="fill: #a9a9a9; stroke: #a9a9a9; stroke-width: 0.8"/>
      </g>
     </g>
     <g id="text_1">
      <!-- 2021-07 -->
      <g style="fill: #a9a9a9" transform="translate(107.04966 334.998438) scale(0.1 -0.1)">
       <defs>
        <path id="DejaVuSans-32" d="M 1228 531 
L 3431 531 
L 3431 0 
L 469 0 
L 469 531 
Q 828 903 1448 1529 
Q 2069 2156 2228 2338 
Q 2531 2678 2651 2914 
Q 2772 3150 2772 3378 
Q 2772 3750 2511 3984 
Q 2250 4219 1831 4219 
Q 1534 4219 1204 4116 
Q 875 4013 500 3803 
L 500 4441 
Q 881 4594 1212 4672 
Q 1544 4750 1819 4750 
Q 2544 4750 2975 4387 
Q 3406 4025 3406 3419 
Q 3406 3131 3298 2873 
Q 3191 2616 2906 2266 
Q 2828 2175 2409 1742 
Q 1991 1309 1228 531 
z
" transform="scale(0.015625)"/>
        <path id="DejaVuSans-30" d="M 2034 4250 
Q 1547 4250 1301 3770 
Q 1056 3291 1056 2328 
Q 1056 1369 1301 889 
Q 1547 409 2034 409 
Q 2525 409 2770 889 
Q 3016 1369 3016 2328 
Q 3016 3291 2770 3770 
Q 2525 4250 2034 4250 
z
M 2034 4750 
Q 2819 4750 3233 4129 
Q 3647 3509 3647 2328 
Q 3647 1150 3233 529 
Q 2819 -91 2034 -91 
Q 1250 -91 836 529 
Q 422 1150 422 2328 
Q 422 3509 836 4129 
Q 1250 4750 2034 4750 
z
" transform="scale(0.015625)"/>
        <path id="DejaVuSans-31" d="M 794 531 
L 1825 531 
L 1825 4091 
L 703 3866 
L 703 4441 
L 1819 4666 
L 2450 4666 
L 2450 531 
L 3481 531 
L 3481 0 
L 794 0 
L 794 531 
z
" transform="scale(0.015625)"/>
        <path id="DejaVuSans-2d" d="M 313 2009 
L 1997 2009 
L 1997 1497 
L 313 1497 
L 313 2009 
z
" transform="scale(0.015625)"/>
        <path id="DejaVuSans-37" d="M 525 4666 
L 3525 4666 
L 3525 4397 
L 1831 0 
L 1172 0 
L 2766 4134 
L 525 4134 
L 525 4666 
z
" transform="scale(0.015625)"/>
       </defs>
       <use xlink:href="#DejaVuSans-32"/>
       <use xlink:href="#DejaVuSans-30" transform="translate(63.623047 0)"/>
       <use xlink:href="#DejaVuSans-32" transform="translate(127.246094 0)"/>
       <use xlink:href="#DejaVuSans-31" transform="translate(190.869141 0)"/>
       <use xlink:href="#DejaVuSans-2d" transform="translate(254.492188 0)"/>
       <use xlink:href="#DejaVuSans-30" transform="translate(290.576172 0)"/>
       <use xlink:href="#DejaVuSans-37" transform="translate(354.199219 0)"/>
      </g>
     </g>
    </g>
    <g id="xtick_2">
     <g id="line2d_3">
      <path d="M 211.903448 320.4 
L 211.903448 43.2 
" clip-path="url(#pdda1fae2da)" style="fill: none; stroke-dasharray: 5.12,1.28,0.8,1.28; stroke-dashoffset: 0; stroke: #b0b0b0; stroke-width: 0.8"/>
     </g>
     <g id="line2d_4">
      <g>
       <use xlink:href="#m1cf8633bf5" x="211.903448" y="320.4" style="fill: #a9a9a9; stroke: #a9a9a9; stroke-width: 0.8"/>
      </g>
     </g>
     <g id="text_2">
      <!-- 2022-01 -->
      <g style="fill: #a9a9a9" transform="translate(191.012042 334.998438) scale(0.1 -0.1)">
       <use xlink:href="#DejaVuSans-32"/>
       <use xlink:href="#DejaVuSans-30" transform="translate(63.623047 0)"/>
       <use xlink:href="#DejaVuSans-32" transform="translate(127.246094 0)"/>
       <use xlink:href="#DejaVuSans-32" transform="translate(190.869141 0)"/>
       <use xlink:href="#DejaVuSans-2d" transform="translate(254.492188 0)"/>
       <use xlink:href="#DejaVuSans-30" transform="translate(290.576172 0)"/>
       <use xlink:href="#DejaVuSans-31" transform="translate(354.199219 0)"/>
      </g>
     </g>
    </g>
    <g id="xtick_3">
     <g id="line2d_5">
      <path d="M 294.496879 320.4 
L 294.496879 43.2 
" clip-path="url(#pdda1fae2da)" style="fill: none; stroke-dasharray: 5.12,1.28,0.8,1.28; stroke-dashoffset: 0; stroke: #b0b0b0; stroke-width: 0.8"/>
     </g>
     <g id="line2d_6">
      <g>
       <use xlink:href="#m1cf8633bf5" x="294.496879" y="320.4" style="fill: #a9a9a9; stroke: #a9a9a9; stroke-width: 0.8"/>
      </g>
     </g>
     <g id="text_3">
      <!-- 2022-07 -->
      <g style="fill: #a9a9a9" transform="translate(273.605473 334.998438) scale(0.1 -0.1)">
       <use xlink:href="#DejaVuSans-32"/>
       <use xlink:href="#DejaVuSans-30" transform="translate(63.623047 0)"/>
       <use xlink:href="#DejaVuSans-32" transform="translate(127.246094 0)"/>
       <use xlink:href="#DejaVuSans-32" transform="translate(190.869141 0)"/>
       <use xlink:href="#DejaVuSans-2d" transform="translate(254.492188 0)"/>
       <use xlink:href="#DejaVuSans-30" transform="translate(290.576172 0)"/>
       <use xlink:href="#DejaVuSans-37" transform="translate(354.199219 0)"/>
      </g>
     </g>
    </g>
    <g id="xtick_4">
     <g id="line2d_7">
      <path d="M 378.459261 320.4 
L 378.459261 43.2 
" clip-path="url(#pdda1fae2da)" style="fill: none; stroke-dasharray: 5.12,1.28,0.8,1.28; stroke-dashoffset: 0; stroke: #b0b0b0; stroke-width: 0.8"/>
     </g>
     <g id="line2d_8">
      <g>
       <use xlink:href="#m1cf8633bf5" x="378.459261" y="320.4" style="fill: #a9a9a9; stroke: #a9a9a9; stroke-width: 0.8"/>
      </g>
     </g>
     <g id="text_4">
      <!-- 2023-01 -->
      <g style="fill: #a9a9a9" transform="translate(357.567855 334.998438) scale(0.1 -0.1)">
       <defs>
        <path id="DejaVuSans-33" d="M 2597 2516 
Q 3050 2419 3304 2112 
Q 3559 1806 3559 1356 
Q 3559 666 3084 287 
Q 2609 -91 1734 -91 
Q 1441 -91 1130 -33 
Q 819 25 488 141 
L 488 750 
Q 750 597 1062 519 
Q 1375 441 1716 441 
Q 2309 441 2620 675 
Q 2931 909 2931 1356 
Q 2931 1769 2642 2001 
Q 2353 2234 1838 2234 
L 1294 2234 
L 1294 2753 
L 1863 2753 
Q 2328 2753 2575 2939 
Q 2822 3125 2822 3475 
Q 2822 3834 2567 4026 
Q 2313 4219 1838 4219 
Q 1578 4219 1281 4162 
Q 984 4106 628 3988 
L 628 4550 
Q 988 4650 1302 4700 
Q 1616 4750 1894 4750 
Q 2613 4750 3031 4423 
Q 3450 4097 3450 3541 
Q 3450 3153 3228 2886 
Q 3006 2619 2597 2516 
z
" transform="scale(0.015625)"/>
       </defs>
       <use xlink:href="#DejaVuSans-32"/>
       <use xlink:href="#DejaVuSans-30" transform="translate(63.623047 0)"/>
       <use xlink:href="#DejaVuSans-32" transform="translate(127.246094 0)"/>
       <use xlink:href="#DejaVuSans-33" transform="translate(190.869141 0)"/>
       <use xlink:href="#DejaVuSans-2d" transform="translate(254.492188 0)"/>
       <use xlink:href="#DejaVuSans-30" transform="translate(290.576172 0)"/>
       <use xlink:href="#DejaVuSans-31" transform="translate(354.199219 0)"/>
      </g>
     </g>
    </g>
    <g id="xtick_5">
     <g id="line2d_9">
      <path d="M 461.052692 320.4 
L 461.052692 43.2 
" clip-path="url(#pdda1fae2da)" style="fill: none; stroke-dasharray: 5.12,1.28,0.8,1.28; stroke-dashoffset: 0; stroke: #b0b0b0; stroke-width: 0.8"/>
     </g>
     <g id="line2d_10">
      <g>
       <use xlink:href="#m1cf8633bf5" x="461.052692" y="320.4" style="fill: #a9a9a9; stroke: #a9a9a9; stroke-width: 0.8"/>
      </g>
     </g>
     <g id="text_5">
      <!-- 2023-07 -->
      <g style="fill: #a9a9a9" transform="translate(440.161286 334.998438) scale(0.1 -0.1)">
       <use xlink:href="#DejaVuSans-32"/>
       <use xlink:href="#DejaVuSans-30" transform="translate(63.623047 0)"/>
       <use xlink:href="#DejaVuSans-32" transform="translate(127.246094 0)"/>
       <use xlink:href="#DejaVuSans-33" transform="translate(190.869141 0)"/>
       <use xlink:href="#DejaVuSans-2d" transform="translate(254.492188 0)"/>
       <use xlink:href="#DejaVuSans-30" transform="translate(290.576172 0)"/>
       <use xlink:href="#DejaVuSans-37" transform="translate(354.199219 0)"/>
      </g>
     </g>
    </g>
    <g id="xtick_6">
     <g id="line2d_11">
      <path d="M 545.015074 320.4 
L 545.015074 43.2 
" clip-path="url(#pdda1fae2da)" style="fill: none; stroke-dasharray: 5.12,1.28,0.8,1.28; stroke-dashoffset: 0; stroke: #b0b0b0; stroke-width: 0.8"/>
     </g>
     <g id="line2d_12">
      <g>
       <use xlink:href="#m1cf8633bf5" x="545.015074" y="320.4" style="fill: #a9a9a9; stroke: #a9a9a9; stroke-width: 0.8"/>
      </g>
     </g>
     <g id="text_6">
      <!-- 2024-01 -->
      <g style="fill: #a9a9a9" transform="translate(524.123668 334.998438) scale(0.1 -0.1)">
       <defs>
        <path id="DejaVuSans-34" d="M 2419 4116 
L 825 1625 
L 2419 1625 
L 2419 4116 
z
M 2253 4666 
L 3047 4666 
L 3047 1625 
L 3713 1625 
L 3713 1100 
L 3047 1100 
L 3047 0 
L 2419 0 
L 2419 1100 
L 313 1100 
L 313 1709 
L 2253 4666 
z
" transform="scale(0.015625)"/>
       </defs>
       <use xlink:href="#DejaVuSans-32"/>
       <use xlink:href="#DejaVuSans-30" transform="translate(63.623047 0)"/>
       <use xlink:href="#DejaVuSans-32" transform="translate(127.246094 0)"/>
       <use xlink:href="#DejaVuSans-34" transform="translate(190.869141 0)"/>
       <use xlink:href="#DejaVuSans-2d" transform="translate(254.492188 0)"/>
       <use xlink:href="#DejaVuSans-30" transform="translate(290.576172 0)"/>
       <use xlink:href="#DejaVuSans-31" transform="translate(354.199219 0)"/>
      </g>
     </g>
    </g>
    <g id="xtick_7">
     <g id="line2d_13">
      <path d="M 628.064822 320.4 
L 628.064822 43.2 
" clip-path="url(#pdda1fae2da)" style="fill: none; stroke-dasharray: 5.12,1.28,0.8,1.28; stroke-dashoffset: 0; stroke: #b0b0b0; stroke-width: 0.8"/>
     </g>
     <g id="line2d_14">
      <g>
       <use xlink:href="#m1cf8633bf5" x="628.064822" y="320.4" style="fill: #a9a9a9; stroke: #a9a9a9; stroke-width: 0.8"/>
      </g>
     </g>
     <g id="text_7">
      <!-- 2024-07 -->
      <g style="fill: #a9a9a9" transform="translate(607.173416 334.998438) scale(0.1 -0.1)">
       <use xlink:href="#DejaVuSans-32"/>
       <use xlink:href="#DejaVuSans-30" transform="translate(63.623047 0)"/>
       <use xlink:href="#DejaVuSans-32" transform="translate(127.246094 0)"/>
       <use xlink:href="#DejaVuSans-34" transform="translate(190.869141 0)"/>
       <use xlink:href="#DejaVuSans-2d" transform="translate(254.492188 0)"/>
       <use xlink:href="#DejaVuSans-30" transform="translate(290.576172 0)"/>
       <use xlink:href="#DejaVuSans-37" transform="translate(354.199219 0)"/>
      </g>
     </g>
    </g>
    <g id="xtick_8">
     <g id="line2d_15">
      <path d="M 712.027205 320.4 
L 712.027205 43.2 
" clip-path="url(#pdda1fae2da)" style="fill: none; stroke-dasharray: 5.12,1.28,0.8,1.28; stroke-dashoffset: 0; stroke: #b0b0b0; stroke-width: 0.8"/>
     </g>
     <g id="line2d_16">
      <g>
       <use xlink:href="#m1cf8633bf5" x="712.027205" y="320.4" style="fill: #a9a9a9; stroke: #a9a9a9; stroke-width: 0.8"/>
      </g>
     </g>
     <g id="text_8">
      <!-- 2025-01 -->
      <g style="fill: #a9a9a9" transform="translate(691.135798 334.998438) scale(0.1 -0.1)">
       <defs>
        <path id="DejaVuSans-35" d="M 691 4666 
L 3169 4666 
L 3169 4134 
L 1269 4134 
L 1269 2991 
Q 1406 3038 1543 3061 
Q 1681 3084 1819 3084 
Q 2600 3084 3056 2656 
Q 3513 2228 3513 1497 
Q 3513 744 3044 326 
Q 2575 -91 1722 -91 
Q 1428 -91 1123 -41 
Q 819 9 494 109 
L 494 744 
Q 775 591 1075 516 
Q 1375 441 1709 441 
Q 2250 441 2565 725 
Q 2881 1009 2881 1497 
Q 2881 1984 2565 2268 
Q 2250 2553 1709 2553 
Q 1456 2553 1204 2497 
Q 953 2441 691 2322 
L 691 4666 
z
" transform="scale(0.015625)"/>
       </defs>
       <use xlink:href="#DejaVuSans-32"/>
       <use xlink:href="#DejaVuSans-30" transform="translate(63.623047 0)"/>
       <use xlink:href="#DejaVuSans-32" transform="translate(127.246094 0)"/>
       <use xlink:href="#DejaVuSans-35" transform="translate(190.869141 0)"/>
       <use xlink:href="#DejaVuSans-2d" transform="translate(254.492188 0)"/>
       <use xlink:href="#DejaVuSans-30" transform="translate(290.576172 0)"/>
       <use xlink:href="#DejaVuSans-31" transform="translate(354.199219 0)"/>
      </g>
     </g>
    </g>
   </g>
   <g id="matplotlib.axis_2">
    <g id="ytick_1">
     <g id="line2d_17">
      <path d="M 108 307.833962 
L 777.6 307.833962 
" clip-path="url(#pdda1fae2da)" style="fill: none; stroke-dasharray: 5.12,1.28,0.8,1.28; stroke-dashoffset: 0; stroke: #b0b0b0; stroke-width: 0.8"/>
     </g>
     <g id="line2d_18">
      <defs>
       <path id="m2d7b7444f9" d="M 0 0 
L -3.5 0 
" style="stroke: #a9a9a9; stroke-width: 0.8"/>
      </defs>
      <g>
       <use xlink:href="#m2d7b7444f9" x="108" y="307.833962" style="fill: #a9a9a9; stroke: #a9a9a9; stroke-width: 0.8"/>
      </g>
     </g>
     <g id="text_9">
      <!-- 0 -->
      <g style="fill: #a9a9a9" transform="translate(94.6375 311.633181) scale(0.1 -0.1)">
       <use xlink:href="#DejaVuSans-30"/>
      </g>
     </g>
    </g>
    <g id="ytick_2">
     <g id="line2d_19">
      <path d="M 108 273.871698 
L 777.6 273.871698 
" clip-path="url(#pdda1fae2da)" style="fill: none; stroke-dasharray: 5.12,1.28,0.8,1.28; stroke-dashoffset: 0; stroke: #b0b0b0; stroke-width: 0.8"/>
     </g>
     <g id="line2d_20">
      <g>
       <use xlink:href="#m2d7b7444f9" x="108" y="273.871698" style="fill: #a9a9a9; stroke: #a9a9a9; stroke-width: 0.8"/>
      </g>
     </g>
     <g id="text_10">
      <!-- 1000 -->
      <g style="fill: #a9a9a9" transform="translate(75.55 277.670917) scale(0.1 -0.1)">
       <use xlink:href="#DejaVuSans-31"/>
       <use xlink:href="#DejaVuSans-30" transform="translate(63.623047 0)"/>
       <use xlink:href="#DejaVuSans-30" transform="translate(127.246094 0)"/>
       <use xlink:href="#DejaVuSans-30" transform="translate(190.869141 0)"/>
      </g>
     </g>
    </g>
    <g id="ytick_3">
     <g id="line2d_21">
      <path d="M 108 239.909434 
L 777.6 239.909434 
" clip-path="url(#pdda1fae2da)" style="fill: none; stroke-dasharray: 5.12,1.28,0.8,1.28; stroke-dashoffset: 0; stroke: #b0b0b0; stroke-width: 0.8"/>
     </g>
     <g id="line2d_22">
      <g>
       <use xlink:href="#m2d7b7444f9" x="108" y="239.909434" style="fill: #a9a9a9; stroke: #a9a9a9; stroke-width: 0.8"/>
      </g>
     </g>
     <g id="text_11">
      <!-- 2000 -->
      <g style="fill: #a9a9a9" transform="translate(75.55 243.708653) scale(0.1 -0.1)">
       <use xlink:href="#DejaVuSans-32"/>
       <use xlink:href="#DejaVuSans-30" transform="translate(63.623047 0)"/>
       <use xlink:href="#DejaVuSans-30" transform="translate(127.246094 0)"/>
       <use xlink:href="#DejaVuSans-30" transform="translate(190.869141 0)"/>
      </g>
     </g>
    </g>
    <g id="ytick_4">
     <g id="line2d_23">
      <path d="M 108 205.94717 
L 777.6 205.94717 
" clip-path="url(#pdda1fae2da)" style="fill: none; stroke-dasharray: 5.12,1.28,0.8,1.28; stroke-dashoffset: 0; stroke: #b0b0b0; stroke-width: 0.8"/>
     </g>
     <g id="line2d_24">
      <g>
       <use xlink:href="#m2d7b7444f9" x="108" y="205.94717" style="fill: #a9a9a9; stroke: #a9a9a9; stroke-width: 0.8"/>
      </g>
     </g>
     <g id="text_12">
      <!-- 3000 -->
      <g style="fill: #a9a9a9" transform="translate(75.55 209.746389) scale(0.1 -0.1)">
       <use xlink:href="#DejaVuSans-33"/>
       <use xlink:href="#DejaVuSans-30" transform="translate(63.623047 0)"/>
       <use xlink:href="#DejaVuSans-30" transform="translate(127.246094 0)"/>
       <use xlink:href="#DejaVuSans-30" transform="translate(190.869141 0)"/>
      </g>
     </g>
    </g>
    <g id="ytick_5">
     <g id="line2d_25">
      <path d="M 108 171.984906 
L 777.6 171.984906 
" clip-path="url(#pdda1fae2da)" style="fill: none; stroke-dasharray: 5.12,1.28,0.8,1.28; stroke-dashoffset: 0; stroke: #b0b0b0; stroke-width: 0.8"/>
     </g>
     <g id="line2d_26">
      <g>
       <use xlink:href="#m2d7b7444f9" x="108" y="171.984906" style="fill: #a9a9a9; stroke: #a9a9a9; stroke-width: 0.8"/>
      </g>
     </g>
     <g id="text_13">
      <!-- 4000 -->
      <g style="fill: #a9a9a9" transform="translate(75.55 175.784124) scale(0.1 -0.1)">
       <use xlink:href="#DejaVuSans-34"/>
       <use xlink:href="#DejaVuSans-30" transform="translate(63.623047 0)"/>
       <use xlink:href="#DejaVuSans-30" transform="translate(127.246094 0)"/>
       <use xlink:href="#DejaVuSans-30" transform="translate(190.869141 0)"/>
      </g>
     </g>
    </g>
    <g id="ytick_6">
     <g id="line2d_27">
      <path d="M 108 138.022642 
L 777.6 138.022642 
" clip-path="url(#pdda1fae2da)" style="fill: none; stroke-dasharray: 5.12,1.28,0.8,1.28; stroke-dashoffset: 0; stroke: #b0b0b0; stroke-width: 0.8"/>
     </g>
     <g id="line2d_28">
      <g>
       <use xlink:href="#m2d7b7444f9" x="108" y="138.022642" style="fill: #a9a9a9; stroke: #a9a9a9; stroke-width: 0.8"/>
      </g>
     </g>
     <g id="text_14">
      <!-- 5000 -->
      <g style="fill: #a9a9a9" transform="translate(75.55 141.82186) scale(0.1 -0.1)">
       <use xlink:href="#DejaVuSans-35"/>
       <use xlink:href="#DejaVuSans-30" transform="translate(63.623047 0)"/>
       <use xlink:href="#DejaVuSans-30" transform="translate(127.246094 0)"/>
       <use xlink:href="#DejaVuSans-30" transform="translate(190.869141 0)"/>
      </g>
     </g>
    </g>
    <g id="ytick_7">
     <g id="line2d_29">
      <path d="M 108 104.060377 
L 777.6 104.060377 
" clip-path="url(#pdda1fae2da)" style="fill: none; stroke-dasharray: 5.12,1.28,0.8,1.28; stroke-dashoffset: 0; stroke: #b0b0b0; stroke-width: 0.8"/>
     </g>
     <g id="line2d_30">
      <g>
       <use xlink:href="#m2d7b7444f9" x="108" y="104.060377" style="fill: #a9a9a9; stroke: #a9a9a9; stroke-width: 0.8"/>
      </g>
     </g>
     <g id="text_15">
      <!-- 6000 -->
      <g style="fill: #a9a9a9" transform="translate(75.55 107.859596) scale(0.1 -0.1)">
       <defs>
        <path id="DejaVuSans-36" d="M 2113 2584 
Q 1688 2584 1439 2293 
Q 1191 2003 1191 1497 
Q 1191 994 1439 701 
Q 1688 409 2113 409 
Q 2538 409 2786 701 
Q 3034 994 3034 1497 
Q 3034 2003 2786 2293 
Q 2538 2584 2113 2584 
z
M 3366 4563 
L 3366 3988 
Q 3128 4100 2886 4159 
Q 2644 4219 2406 4219 
Q 1781 4219 1451 3797 
Q 1122 3375 1075 2522 
Q 1259 2794 1537 2939 
Q 1816 3084 2150 3084 
Q 2853 3084 3261 2657 
Q 3669 2231 3669 1497 
Q 3669 778 3244 343 
Q 2819 -91 2113 -91 
Q 1303 -91 875 529 
Q 447 1150 447 2328 
Q 447 3434 972 4092 
Q 1497 4750 2381 4750 
Q 2619 4750 2861 4703 
Q 3103 4656 3366 4563 
z
" transform="scale(0.015625)"/>
       </defs>
       <use xlink:href="#DejaVuSans-36"/>
       <use xlink:href="#DejaVuSans-30" transform="translate(63.623047 0)"/>
       <use xlink:href="#DejaVuSans-30" transform="translate(127.246094 0)"/>
       <use xlink:href="#DejaVuSans-30" transform="translate(190.869141 0)"/>
      </g>
     </g>
    </g>
    <g id="ytick_8">
     <g id="line2d_31">
      <path d="M 108 70.098113 
L 777.6 70.098113 
" clip-path="url(#pdda1fae2da)" style="fill: none; stroke-dasharray: 5.12,1.28,0.8,1.28; stroke-dashoffset: 0; stroke: #b0b0b0; stroke-width: 0.8"/>
     </g>
     <g id="line2d_32">
      <g>
       <use xlink:href="#m2d7b7444f9" x="108" y="70.098113" style="fill: #a9a9a9; stroke: #a9a9a9; stroke-width: 0.8"/>
      </g>
     </g>
     <g id="text_16">
      <!-- 7000 -->
      <g style="fill: #a9a9a9" transform="translate(75.55 73.897332) scale(0.1 -0.1)">
       <use xlink:href="#DejaVuSans-37"/>
       <use xlink:href="#DejaVuSans-30" transform="translate(63.623047 0)"/>
       <use xlink:href="#DejaVuSans-30" transform="translate(127.246094 0)"/>
       <use xlink:href="#DejaVuSans-30" transform="translate(190.869141 0)"/>
      </g>
     </g>
    </g>
   </g>
   <g id="line2d_33">
    <path d="M 138.436364 307.732075 
L 141.174267 307.49434 
L 141.630585 307.290566 
L 143.455854 307.05283 
L 145.281123 306.679245 
L 146.193758 306.543396 
L 148.475344 306.339623 
L 149.387979 305.966038 
L 149.844296 305.354717 
L 150.300613 305.049057 
L 150.756931 303.996226 
L 151.213248 303.928302 
L 151.669565 303.554717 
L 152.5822 303.079245 
L 154.407469 301.584906 
L 156.232738 300.667925 
L 157.60169 300.022642 
L 158.058007 299.275472 
L 158.970642 298.596226 
L 159.426959 298.392453 
L 163.990132 297.713208 
L 164.44645 297.509434 
L 167.640671 297.237736 
L 169.46594 296.796226 
L 173.116478 296.286792 
L 173.572795 296.049057 
L 174.029113 295.981132 
L 174.941747 295.675472 
L 178.135968 295.132075 
L 179.048603 294.860377 
L 183.155459 294.14717 
L 184.068093 293.943396 
L 184.980728 293.909434 
L 186.805997 293.467925 
L 187.262314 292.822642 
L 188.631266 292.279245 
L 190.000218 291.90566 
L 190.456535 291.667925 
L 191.36917 291.498113 
L 193.194439 290.954717 
L 194.107074 290.886792 
L 195.019708 290.649057 
L 196.844978 290.173585 
L 197.301295 290.139623 
L 198.213929 289.698113 
L 198.670247 289.630189 
L 199.126564 289.392453 
L 204.146054 288.543396 
L 205.971323 288 
L 206.427641 287.69434 
L 208.709227 286.94717 
L 209.621862 286.301887 
L 210.990814 286.030189 
L 221.029794 283.075472 
L 221.486111 283.041509 
L 222.855063 282.633962 
L 223.311381 282.633962 
L 223.767698 282.430189 
L 224.680333 282.328302 
L 225.13665 282.158491 
L 226.961919 282.090566 
L 227.874554 281.920755 
L 228.787188 281.445283 
L 230.15614 280.935849 
L 230.612457 280.630189 
L 231.525092 280.222642 
L 231.981409 279.984906 
L 232.894044 279.679245 
L 233.350361 279.543396 
L 234.262996 278.966038 
L 234.719313 278.456604 
L 235.631948 277.030189 
L 236.088265 276.89434 
L 236.544582 276.89434 
L 237.913534 276.079245 
L 238.369851 275.841509 
L 238.826169 275.739623 
L 239.282486 275.298113 
L 240.195121 274.924528 
L 241.107755 274.483019 
L 243.389342 271.528302 
L 246.127245 270.033962 
L 247.03988 269.286792 
L 247.496197 268.981132 
L 247.952515 268.335849 
L 248.408832 267.283019 
L 248.865149 266.569811 
L 249.321467 266.196226 
L 249.777784 265.992453 
L 253.428322 262.596226 
L 254.340957 261.74717 
L 257.078861 260.015094 
L 257.535178 259.845283 
L 258.90413 259.030189 
L 260.273082 258.113208 
L 262.098351 256.449057 
L 263.010985 256.075472 
L 263.92362 255.430189 
L 264.379937 255.158491 
L 264.836255 255.090566 
L 266.205206 254.309434 
L 266.661524 253.8 
L 268.94311 252.543396 
L 269.399428 252.373585 
L 270.768379 251.422642 
L 277.613139 248.977358 
L 278.525773 248.128302 
L 279.894725 247.449057 
L 280.80736 246.871698 
L 281.719995 246.6 
L 282.176312 246.29434 
L 282.632629 246.158491 
L 284.001581 245.241509 
L 286.283168 244.698113 
L 287.652119 243.883019 
L 289.021071 243.577358 
L 289.477389 243.475472 
L 290.84634 242.422642 
L 292.67161 241.913208 
L 293.127927 241.539623 
L 295.865831 240.588679 
L 296.778465 240.418868 
L 297.6911 240.045283 
L 300.885321 238.856604 
L 301.797956 238.720755 
L 303.166907 238.245283 
L 305.448494 237.124528 
L 307.273763 236.10566 
L 310.924301 234.577358 
L 311.380619 234.509434 
L 312.293253 233.932075 
L 313.205888 233.69434 
L 314.57484 233.150943 
L 316.400109 232.913208 
L 317.312744 232.437736 
L 317.769061 232.030189 
L 318.225378 231.181132 
L 320.050647 230.671698 
L 321.419599 229.958491 
L 322.332234 229.65283 
L 323.244868 229.177358 
L 325.982772 228.056604 
L 326.895407 227.85283 
L 327.808041 227.377358 
L 328.264359 227.173585 
L 328.720676 227.10566 
L 331.002263 225.984906 
L 331.914897 225.407547 
L 333.283849 225.135849 
L 335.109118 224.626415 
L 335.565435 224.592453 
L 336.021753 224.218868 
L 336.934387 223.913208 
L 339.215974 222.996226 
L 339.672291 222.656604 
L 340.128608 222.486792 
L 341.041243 221.977358 
L 342.866512 221.4 
L 343.779147 220.822642 
L 344.235464 220.34717 
L 344.691781 220.075472 
L 345.148099 219.973585 
L 346.060733 219.226415 
L 346.517051 219.158491 
L 346.973368 218.411321 
L 347.429685 218.207547 
L 347.886002 217.833962 
L 348.34232 217.766038 
L 349.254954 217.188679 
L 350.167589 216.883019 
L 350.623906 216.543396 
L 351.080224 216.373585 
L 352.905493 215.150943 
L 354.274445 214.437736 
L 355.187079 214.2 
L 356.099714 213.690566 
L 356.556031 212.909434 
L 357.468666 212.230189 
L 357.924983 212.128302 
L 360.662887 210.803774 
L 361.575521 210.430189 
L 362.944473 209.275472 
L 363.857108 208.49434 
L 364.769742 207.950943 
L 365.22606 207.441509 
L 365.682377 207.135849 
L 366.595012 206.388679 
L 367.051329 206.184906 
L 367.963963 205.267925 
L 368.876598 204.962264 
L 369.789233 204.350943 
L 371.158185 203.637736 
L 371.614502 203.569811 
L 372.983454 202.822642 
L 373.896088 202.245283 
L 378.459261 200.54717 
L 378.915579 200.173585 
L 380.740848 199.460377 
L 381.197165 199.324528 
L 382.1098 198.713208 
L 383.022434 198.30566 
L 383.935069 197.660377 
L 384.847703 195.826415 
L 385.760338 194.739623 
L 387.12929 194.026415 
L 388.041924 193.65283 
L 388.498242 193.584906 
L 388.954559 193.313208 
L 391.236146 192.566038 
L 391.692463 192.362264 
L 392.605097 191.716981 
L 393.974049 191.139623 
L 394.886684 190.630189 
L 395.799319 190.086792 
L 396.255636 189.781132 
L 396.711953 189.271698 
L 397.624588 188.762264 
L 399.906174 187.50566 
L 402.644078 186.113208 
L 404.01303 185.70566 
L 405.381982 185.162264 
L 405.838299 184.822642 
L 406.750934 184.550943 
L 407.663568 184.177358 
L 408.119886 183.803774 
L 409.945155 183.158491 
L 410.857789 182.479245 
L 411.770424 182.10566 
L 412.683058 181.392453 
L 413.595693 181.120755 
L 414.05201 180.713208 
L 414.508328 180.645283 
L 415.420962 179.932075 
L 416.333597 179.456604 
L 416.789914 179.25283 
L 417.246231 178.777358 
L 420.440453 177.486792 
L 421.353087 177.079245 
L 422.722039 176.637736 
L 423.634674 176.501887 
L 424.090991 176.298113 
L 424.547308 176.230189 
L 425.459943 175.822642 
L 425.91626 175.788679 
L 427.741529 175.109434 
L 429.110481 174.124528 
L 429.566798 173.954717 
L 430.479433 173.445283 
L 430.93575 173.309434 
L 433.673654 171.74717 
L 434.129971 171.645283 
L 435.498923 170.830189 
L 436.867875 170.354717 
L 437.78051 170.049057 
L 439.605779 169.437736 
L 440.518414 169.132075 
L 442.343683 168.758491 
L 442.8 168.554717 
L 443.256317 168.486792 
L 444.168952 168.079245 
L 444.625269 168.011321 
L 445.081586 167.773585 
L 445.994221 167.603774 
L 447.363173 167.09434 
L 448.275808 166.992453 
L 449.644759 166.686792 
L 451.926346 166.279245 
L 463.790596 162.74717 
L 464.246913 162.271698 
L 465.159547 161.898113 
L 468.810086 160.50566 
L 469.266403 160.233962 
L 470.635355 159.826415 
L 471.54799 159.588679 
L 472.004307 159.283019 
L 472.460624 159.181132 
L 472.916942 158.773585 
L 474.285893 158.501887 
L 475.198528 158.060377 
L 475.654845 157.516981 
L 477.480114 157.075472 
L 480.674336 156.396226 
L 481.130653 156.396226 
L 481.58697 156.192453 
L 483.412239 155.85283 
L 483.868557 155.649057 
L 485.693826 155.309434 
L 486.60646 154.901887 
L 487.519095 154.732075 
L 489.800681 154.154717 
L 491.625951 153.577358 
L 492.082268 153.475472 
L 492.538585 153.237736 
L 493.45122 153 
L 494.363854 152.626415 
L 495.276489 152.286792 
L 495.732806 151.981132 
L 496.645441 151.709434 
L 500.295979 150.45283 
L 501.208614 150.384906 
L 503.033883 149.841509 
L 503.4902 149.569811 
L 504.402835 149.298113 
L 506.684421 148.245283 
L 507.140739 148.211321 
L 512.160229 146.411321 
L 514.441815 145.8 
L 515.35445 145.358491 
L 516.723402 145.05283 
L 518.548671 143.558491 
L 520.37394 142.777358 
L 521.286575 142.369811 
L 524.024479 141.316981 
L 524.480796 141.011321 
L 526.762382 140.264151 
L 528.131334 139.483019 
L 528.587652 139.381132 
L 530.869238 138.124528 
L 532.23819 137.513208 
L 532.694507 137.173585 
L 533.607142 136.867925 
L 535.888728 135.713208 
L 537.25768 135.237736 
L 539.082949 134.490566 
L 540.451901 133.981132 
L 540.908219 133.811321 
L 541.820853 133.675472 
L 542.277171 133.369811 
L 544.10244 132.996226 
L 545.015074 132.622642 
L 546.840343 131.773585 
L 553.228786 128.988679 
L 554.597737 128.54717 
L 555.054055 128.241509 
L 555.966689 128.139623 
L 556.423007 127.833962 
L 557.335641 127.664151 
L 558.248276 127.222642 
L 558.704593 127.018868 
L 559.16091 126.950943 
L 560.073545 126.645283 
L 563.267766 125.524528 
L 564.636718 125.218868 
L 566.461987 124.437736 
L 567.374622 123.928302 
L 569.199891 123.011321 
L 570.112526 122.807547 
L 570.568843 122.535849 
L 571.02516 122.433962 
L 572.394112 121.65283 
L 573.306747 121.279245 
L 575.132016 120.566038 
L 577.413602 119.784906 
L 578.326237 119.309434 
L 580.607823 118.528302 
L 583.345727 117.407547 
L 585.170996 116.558491 
L 589.734169 114.792453 
L 590.190487 114.486792 
L 592.015756 113.875472 
L 592.472073 113.875472 
L 593.384708 113.467925 
L 595.209977 111.973585 
L 595.666294 111.837736 
L 596.122611 111.566038 
L 596.578929 111.464151 
L 597.035246 111.226415 
L 597.491563 111.158491 
L 597.947881 110.818868 
L 598.404198 110.716981 
L 599.316832 110.139623 
L 600.685784 109.426415 
L 601.598419 109.05283 
L 602.054736 108.815094 
L 603.423688 108.509434 
L 605.705275 107.728302 
L 606.617909 107.422642 
L 607.986861 106.709434 
L 608.899496 106.267925 
L 609.81213 106.030189 
L 611.181082 105.384906 
L 615.287938 103.856604 
L 616.65689 103.007547 
L 617.113207 102.90566 
L 618.025842 102.464151 
L 618.938476 102.124528 
L 619.394794 101.716981 
L 620.307428 101.343396 
L 621.67638 100.867925 
L 622.132697 100.49434 
L 622.589015 100.460377 
L 623.501649 100.188679 
L 624.414284 99.883019 
L 624.870601 99.679245 
L 625.326918 99.611321 
L 626.69587 99.101887 
L 628.064822 98.592453 
L 629.890091 97.777358 
L 630.346409 97.709434 
L 633.996947 96.181132 
L 635.365899 95.739623 
L 636.278533 95.671698 
L 637.191168 95.298113 
L 639.929072 94.483019 
L 640.841706 94.449057 
L 644.492245 93.260377 
L 645.404879 92.784906 
L 645.861197 92.377358 
L 647.230149 91.562264 
L 648.142783 91.018868 
L 650.880687 90.135849 
L 651.337004 89.762264 
L 654.074908 88.607547 
L 655.900177 88.098113 
L 656.812812 87.690566 
L 657.269129 87.45283 
L 658.181764 87.181132 
L 658.638081 86.909434 
L 659.550716 86.739623 
L 663.201254 85.177358 
L 663.657571 85.109434 
L 664.113889 84.803774 
L 664.570206 84.633962 
L 665.026523 84.226415 
L 665.48284 84.158491 
L 667.30811 83.445283 
L 669.133379 83.003774 
L 669.589696 82.935849 
L 670.046013 82.732075 
L 670.502331 82.698113 
L 671.414965 82.392453 
L 671.871283 82.358491 
L 673.240234 81.815094 
L 675.065504 81.271698 
L 675.978138 80.592453 
L 677.803407 79.573585 
L 679.172359 79.098113 
L 682.822898 77.366038 
L 683.279215 77.128302 
L 683.735532 76.686792 
L 686.017119 76.075472 
L 687.386071 75.464151 
L 688.298705 75.226415 
L 688.755022 74.988679 
L 689.21134 74.615094 
L 691.036609 74.139623 
L 691.492926 73.8 
L 697.425051 71.660377 
L 698.337686 71.490566 
L 700.619272 70.777358 
L 701.531907 70.403774 
L 702.444541 70.064151 
L 703.357176 69.826415 
L 703.813493 69.622642 
L 704.269811 69.622642 
L 705.182445 69.249057 
L 706.09508 68.70566 
L 708.376666 67.924528 
L 709.745618 67.449057 
L 710.201935 67.381132 
L 711.11457 67.007547 
L 712.483522 66.701887 
L 713.852474 66.260377 
L 714.308791 66.158491 
L 714.765108 65.85283 
L 715.677743 65.649057 
L 724.804089 63.033962 
L 727.085675 62.626415 
L 727.99831 62.184906 
L 728.910945 61.743396 
L 730.279896 61.335849 
L 734.843069 59.603774 
L 735.299387 59.264151 
L 736.668339 58.958491 
L 737.580973 58.686792 
L 738.493608 58.211321 
L 738.949925 57.803774 
L 739.86256 57.498113 
L 740.318877 57.226415 
L 741.231512 57.124528 
L 744.425733 56.241509 
L 745.794684 55.969811 
L 746.707319 55.8 
L 747.163636 55.8 
L 747.163636 55.8 
" clip-path="url(#pdda1fae2da)" style="fill: none; stroke: #1f77b4; stroke-width: 1.5; stroke-linecap: square"/>
   </g>
   <g id="line2d_34">
    <path d="M 138.892681 307.8 
L 142.999537 307.698113 
L 146.650075 307.528302 
L 148.475344 307.528302 
L 148.931661 307.392453 
L 151.213248 307.290566 
L 153.951152 306.984906 
L 156.689055 306.883019 
L 157.60169 306.781132 
L 160.795911 306.645283 
L 163.990132 306.543396 
L 166.271719 306.475472 
L 172.203844 306.373585 
L 174.48543 306.30566 
L 177.679651 306.203774 
L 179.961238 306.135849 
L 184.980728 306.033962 
L 186.805997 305.864151 
L 188.631266 305.830189 
L 191.36917 305.728302 
L 193.194439 305.69434 
L 195.476026 305.626415 
L 197.301295 305.456604 
L 201.40815 305.354717 
L 202.320785 305.286792 
L 204.146054 305.184906 
L 206.883958 305.083019 
L 208.709227 304.981132 
L 216.922939 304.471698 
L 220.11716 304.369811 
L 221.486111 304.233962 
L 223.767698 304.132075 
L 228.330871 303.89434 
L 232.894044 303.826415 
L 234.719313 303.622642 
L 236.544582 303.520755 
L 241.564073 303.045283 
L 244.758294 302.671698 
L 246.127245 302.603774 
L 249.777784 302.128302 
L 252.515688 302.060377 
L 253.884639 301.924528 
L 255.253591 301.822642 
L 268.030476 300.837736 
L 268.94311 300.667925 
L 271.681014 300.566038 
L 278.982091 300.124528 
L 282.176312 300.022642 
L 284.001581 299.818868 
L 286.283168 299.716981 
L 289.021071 299.615094 
L 291.302658 299.513208 
L 293.127927 299.479245 
L 295.409513 299.411321 
L 296.322148 299.275472 
L 302.71059 299.173585 
L 303.623225 299.071698 
L 309.099032 298.969811 
L 313.205888 298.766038 
L 316.400109 298.664151 
L 318.225378 298.460377 
L 321.419599 298.358491 
L 322.332234 298.188679 
L 324.61382 298.120755 
L 329.176993 298.05283 
L 331.002263 297.883019 
L 332.827532 297.849057 
L 334.196484 297.74717 
L 336.021753 297.577358 
L 340.584926 297.339623 
L 345.148099 297.237736 
L 349.254954 297.033962 
L 350.623906 297 
L 351.536541 296.864151 
L 353.818127 296.762264 
L 354.730762 296.69434 
L 355.643396 296.626415 
L 356.556031 296.558491 
L 360.662887 296.490566 
L 362.031839 296.388679 
L 374.352406 295.573585 
L 376.633992 295.471698 
L 378.915579 295.403774 
L 385.304021 295.301887 
L 386.216655 295.166038 
L 392.605097 295.064151 
L 397.16827 294.826415 
L 398.080905 294.792453 
L 398.99354 294.690566 
L 401.275126 294.588679 
L 403.556713 294.520755 
L 405.838299 294.418868 
L 408.119886 294.350943 
L 412.226741 294.249057 
L 414.964645 294.14717 
L 421.353087 294.045283 
L 426.372577 293.773585 
L 428.197847 293.70566 
L 429.566798 293.603774 
L 435.955241 293.501887 
L 438.693144 293.4 
L 446.906856 293.298113 
L 448.732125 293.264151 
L 454.207932 293.196226 
L 455.120567 293.128302 
L 461.509009 293.026415 
L 463.334278 292.992453 
L 475.198528 292.890566 
L 476.56748 292.754717 
L 497.101758 292.65283 
L 499.383345 292.584906 
L 511.247594 292.516981 
L 512.160229 292.449057 
L 514.441815 292.381132 
L 515.810767 292.245283 
L 518.548671 292.143396 
L 521.742892 292.007547 
L 525.849748 291.90566 
L 528.131334 291.837736 
L 531.325555 291.735849 
L 534.976094 291.566038 
L 537.25768 291.464151 
L 539.082949 291.430189 
L 543.189805 291.328302 
L 545.015074 291.29434 
L 550.947199 291.192453 
L 552.772468 291.158491 
L 555.054055 291.056604 
L 557.791959 290.954717 
L 560.98618 290.886792 
L 561.898814 290.818868 
L 572.850429 290.716981 
L 578.782554 290.377358 
L 581.064141 290.309434 
L 581.976775 290.207547 
L 582.88941 290.139623 
L 586.539948 290.037736 
L 589.277852 289.935849 
L 593.841025 289.833962 
L 596.122611 289.596226 
L 600.685784 289.49434 
L 601.598419 289.392453 
L 606.161592 289.290566 
L 608.443178 289.222642 
L 613.462669 289.188679 
L 614.375303 289.086792 
L 619.394794 288.984906 
L 620.307428 288.916981 
L 630.346409 288.815094 
L 633.084312 288.713208 
L 639.929072 288.611321 
L 641.754341 288.577358 
L 645.861197 288.509434 
L 646.773831 288.407547 
L 652.705956 288.30566 
L 654.987543 288.237736 
L 663.201254 288.135849 
L 664.570206 288.033962 
L 665.939158 287.932075 
L 667.30811 287.830189 
L 674.152869 287.728302 
L 676.890773 287.626415 
L 689.21134 287.524528 
L 693.318195 287.320755 
L 698.794003 287.218868 
L 699.706638 287.150943 
L 706.551397 287.083019 
L 707.464032 287.015094 
L 712.483522 286.913208 
L 714.308791 286.879245 
L 720.697233 286.777358 
L 723.435137 286.675472 
L 731.192531 286.573585 
L 733.0178 286.539623 
L 737.124656 286.437736 
L 740.775194 286.267925 
L 745.794684 286.166038 
L 747.163636 286.132075 
L 747.163636 286.132075 
" clip-path="url(#pdda1fae2da)" style="fill: none; stroke: #ff7f0e; stroke-width: 1.5; stroke-linecap: square"/>
   </g>
   <g id="patch_3">
    <path d="M 108 320.4 
L 108 43.2 
" style="fill: none; stroke: #a9a9a9; stroke-width: 0.8; stroke-linejoin: miter; stroke-linecap: square"/>
   </g>
   <g id="patch_4">
    <path d="M 777.6 320.4 
L 777.6 43.2 
" style="fill: none"/>
   </g>
   <g id="patch_5">
    <path d="M 108 320.4 
L 777.6 320.4 
" style="fill: none; stroke: #a9a9a9; stroke-width: 0.8; stroke-linejoin: miter; stroke-linecap: square"/>
   </g>
   <g id="patch_6">
    <path d="M 108 43.2 
L 777.6 43.2 
" style="fill: none"/>
   </g>
   <g id="text_17">
    <!-- get_subscribe history -->
    <g style="fill: #a9a9a9" transform="translate(378.6075 37.2) scale(0.12 -0.12)">
     <defs>
      <path id="DejaVuSans-67" d="M 2906 1791 
Q 2906 2416 2648 2759 
Q 2391 3103 1925 3103 
Q 1463 3103 1205 2759 
Q 947 2416 947 1791 
Q 947 1169 1205 825 
Q 1463 481 1925 481 
Q 2391 481 2648 825 
Q 2906 1169 2906 1791 
z
M 3481 434 
Q 3481 -459 3084 -895 
Q 2688 -1331 1869 -1331 
Q 1566 -1331 1297 -1286 
Q 1028 -1241 775 -1147 
L 775 -588 
Q 1028 -725 1275 -790 
Q 1522 -856 1778 -856 
Q 2344 -856 2625 -561 
Q 2906 -266 2906 331 
L 2906 616 
Q 2728 306 2450 153 
Q 2172 0 1784 0 
Q 1141 0 747 490 
Q 353 981 353 1791 
Q 353 2603 747 3093 
Q 1141 3584 1784 3584 
Q 2172 3584 2450 3431 
Q 2728 3278 2906 2969 
L 2906 3500 
L 3481 3500 
L 3481 434 
z
" transform="scale(0.015625)"/>
      <path id="DejaVuSans-65" d="M 3597 1894 
L 3597 1613 
L 953 1613 
Q 991 1019 1311 708 
Q 1631 397 2203 397 
Q 2534 397 2845 478 
Q 3156 559 3463 722 
L 3463 178 
Q 3153 47 2828 -22 
Q 2503 -91 2169 -91 
Q 1331 -91 842 396 
Q 353 884 353 1716 
Q 353 2575 817 3079 
Q 1281 3584 2069 3584 
Q 2775 3584 3186 3129 
Q 3597 2675 3597 1894 
z
M 3022 2063 
Q 3016 2534 2758 2815 
Q 2500 3097 2075 3097 
Q 1594 3097 1305 2825 
Q 1016 2553 972 2059 
L 3022 2063 
z
" transform="scale(0.015625)"/>
      <path id="DejaVuSans-74" d="M 1172 4494 
L 1172 3500 
L 2356 3500 
L 2356 3053 
L 1172 3053 
L 1172 1153 
Q 1172 725 1289 603 
Q 1406 481 1766 481 
L 2356 481 
L 2356 0 
L 1766 0 
Q 1100 0 847 248 
Q 594 497 594 1153 
L 594 3053 
L 172 3053 
L 172 3500 
L 594 3500 
L 594 4494 
L 1172 4494 
z
" transform="scale(0.015625)"/>
      <path id="DejaVuSans-5f" d="M 3263 -1063 
L 3263 -1509 
L -63 -1509 
L -63 -1063 
L 3263 -1063 
z
" transform="scale(0.015625)"/>
      <path id="DejaVuSans-73" d="M 2834 3397 
L 2834 2853 
Q 2591 2978 2328 3040 
Q 2066 3103 1784 3103 
Q 1356 3103 1142 2972 
Q 928 2841 928 2578 
Q 928 2378 1081 2264 
Q 1234 2150 1697 2047 
L 1894 2003 
Q 2506 1872 2764 1633 
Q 3022 1394 3022 966 
Q 3022 478 2636 193 
Q 2250 -91 1575 -91 
Q 1294 -91 989 -36 
Q 684 19 347 128 
L 347 722 
Q 666 556 975 473 
Q 1284 391 1588 391 
Q 1994 391 2212 530 
Q 2431 669 2431 922 
Q 2431 1156 2273 1281 
Q 2116 1406 1581 1522 
L 1381 1569 
Q 847 1681 609 1914 
Q 372 2147 372 2553 
Q 372 3047 722 3315 
Q 1072 3584 1716 3584 
Q 2034 3584 2315 3537 
Q 2597 3491 2834 3397 
z
" transform="scale(0.015625)"/>
      <path id="DejaVuSans-75" d="M 544 1381 
L 544 3500 
L 1119 3500 
L 1119 1403 
Q 1119 906 1312 657 
Q 1506 409 1894 409 
Q 2359 409 2629 706 
Q 2900 1003 2900 1516 
L 2900 3500 
L 3475 3500 
L 3475 0 
L 2900 0 
L 2900 538 
Q 2691 219 2414 64 
Q 2138 -91 1772 -91 
Q 1169 -91 856 284 
Q 544 659 544 1381 
z
M 1991 3584 
L 1991 3584 
z
" transform="scale(0.015625)"/>
      <path id="DejaVuSans-62" d="M 3116 1747 
Q 3116 2381 2855 2742 
Q 2594 3103 2138 3103 
Q 1681 3103 1420 2742 
Q 1159 2381 1159 1747 
Q 1159 1113 1420 752 
Q 1681 391 2138 391 
Q 2594 391 2855 752 
Q 3116 1113 3116 1747 
z
M 1159 2969 
Q 1341 3281 1617 3432 
Q 1894 3584 2278 3584 
Q 2916 3584 3314 3078 
Q 3713 2572 3713 1747 
Q 3713 922 3314 415 
Q 2916 -91 2278 -91 
Q 1894 -91 1617 61 
Q 1341 213 1159 525 
L 1159 0 
L 581 0 
L 581 4863 
L 1159 4863 
L 1159 2969 
z
" transform="scale(0.015625)"/>
      <path id="DejaVuSans-63" d="M 3122 3366 
L 3122 2828 
Q 2878 2963 2633 3030 
Q 2388 3097 2138 3097 
Q 1578 3097 1268 2742 
Q 959 2388 959 1747 
Q 959 1106 1268 751 
Q 1578 397 2138 397 
Q 2388 397 2633 464 
Q 2878 531 3122 666 
L 3122 134 
Q 2881 22 2623 -34 
Q 2366 -91 2075 -91 
Q 1284 -91 818 406 
Q 353 903 353 1747 
Q 353 2603 823 3093 
Q 1294 3584 2113 3584 
Q 2378 3584 2631 3529 
Q 2884 3475 3122 3366 
z
" transform="scale(0.015625)"/>
      <path id="DejaVuSans-72" d="M 2631 2963 
Q 2534 3019 2420 3045 
Q 2306 3072 2169 3072 
Q 1681 3072 1420 2755 
Q 1159 2438 1159 1844 
L 1159 0 
L 581 0 
L 581 3500 
L 1159 3500 
L 1159 2956 
Q 1341 3275 1631 3429 
Q 1922 3584 2338 3584 
Q 2397 3584 2469 3576 
Q 2541 3569 2628 3553 
L 2631 2963 
z
" transform="scale(0.015625)"/>
      <path id="DejaVuSans-69" d="M 603 3500 
L 1178 3500 
L 1178 0 
L 603 0 
L 603 3500 
z
M 603 4863 
L 1178 4863 
L 1178 4134 
L 603 4134 
L 603 4863 
z
" transform="scale(0.015625)"/>
      <path id="DejaVuSans-20" transform="scale(0.015625)"/>
      <path id="DejaVuSans-68" d="M 3513 2113 
L 3513 0 
L 2938 0 
L 2938 2094 
Q 2938 2591 2744 2837 
Q 2550 3084 2163 3084 
Q 1697 3084 1428 2787 
Q 1159 2491 1159 1978 
L 1159 0 
L 581 0 
L 581 4863 
L 1159 4863 
L 1159 2956 
Q 1366 3272 1645 3428 
Q 1925 3584 2291 3584 
Q 2894 3584 3203 3211 
Q 3513 2838 3513 2113 
z
" transform="scale(0.015625)"/>
      <path id="DejaVuSans-6f" d="M 1959 3097 
Q 1497 3097 1228 2736 
Q 959 2375 959 1747 
Q 959 1119 1226 758 
Q 1494 397 1959 397 
Q 2419 397 2687 759 
Q 2956 1122 2956 1747 
Q 2956 2369 2687 2733 
Q 2419 3097 1959 3097 
z
M 1959 3584 
Q 2709 3584 3137 3096 
Q 3566 2609 3566 1747 
Q 3566 888 3137 398 
Q 2709 -91 1959 -91 
Q 1206 -91 779 398 
Q 353 888 353 1747 
Q 353 2609 779 3096 
Q 1206 3584 1959 3584 
z
" transform="scale(0.015625)"/>
      <path id="DejaVuSans-79" d="M 2059 -325 
Q 1816 -950 1584 -1140 
Q 1353 -1331 966 -1331 
L 506 -1331 
L 506 -850 
L 844 -850 
Q 1081 -850 1212 -737 
Q 1344 -625 1503 -206 
L 1606 56 
L 191 3500 
L 800 3500 
L 1894 763 
L 2988 3500 
L 3597 3500 
L 2059 -325 
z
" transform="scale(0.015625)"/>
     </defs>
     <use xlink:href="#DejaVuSans-67"/>
     <use xlink:href="#DejaVuSans-65" transform="translate(63.476562 0)"/>
     <use xlink:href="#DejaVuSans-74" transform="translate(125 0)"/>
     <use xlink:href="#DejaVuSans-5f" transform="translate(164.208984 0)"/>
     <use xlink:href="#DejaVuSans-73" transform="translate(214.208984 0)"/>
     <use xlink:href="#DejaVuSans-75" transform="translate(266.308594 0)"/>
     <use xlink:href="#DejaVuSans-62" transform="translate(329.6875 0)"/>
     <use xlink:href="#DejaVuSans-73" transform="translate(393.164062 0)"/>
     <use xlink:href="#DejaVuSans-63" transform="translate(445.263672 0)"/>
     <use xlink:href="#DejaVuSans-72" transform="translate(500.244141 0)"/>
     <use xlink:href="#DejaVuSans-69" transform="translate(541.357422 0)"/>
     <use xlink:href="#DejaVuSans-62" transform="translate(569.140625 0)"/>
     <use xlink:href="#DejaVuSans-65" transform="translate(632.617188 0)"/>
     <use xlink:href="#DejaVuSans-20" transform="translate(694.140625 0)"/>
     <use xlink:href="#DejaVuSans-68" transform="translate(725.927734 0)"/>
     <use xlink:href="#DejaVuSans-69" transform="translate(789.306641 0)"/>
     <use xlink:href="#DejaVuSans-73" transform="translate(817.089844 0)"/>
     <use xlink:href="#DejaVuSans-74" transform="translate(869.189453 0)"/>
     <use xlink:href="#DejaVuSans-6f" transform="translate(908.398438 0)"/>
     <use xlink:href="#DejaVuSans-72" transform="translate(969.580078 0)"/>
     <use xlink:href="#DejaVuSans-79" transform="translate(1010.693359 0)"/>
    </g>
   </g>
   <g id="legend_1">
    <g id="line2d_35">
     <path d="M 815.08 328.498438 
L 825.08 328.498438 
L 835.08 328.498438 
" style="fill: none; stroke: #1f77b4; stroke-width: 1.5; stroke-linecap: square"/>
    </g>
    <g id="text_18">
     <!-- star -->
     <g style="fill: #a9a9a9" transform="translate(843.08 331.998438) scale(0.1 -0.1)">
      <defs>
       <path id="DejaVuSans-61" d="M 2194 1759 
Q 1497 1759 1228 1600 
Q 959 1441 959 1056 
Q 959 750 1161 570 
Q 1363 391 1709 391 
Q 2188 391 2477 730 
Q 2766 1069 2766 1631 
L 2766 1759 
L 2194 1759 
z
M 3341 1997 
L 3341 0 
L 2766 0 
L 2766 531 
Q 2569 213 2275 61 
Q 1981 -91 1556 -91 
Q 1019 -91 701 211 
Q 384 513 384 1019 
Q 384 1609 779 1909 
Q 1175 2209 1959 2209 
L 2766 2209 
L 2766 2266 
Q 2766 2663 2505 2880 
Q 2244 3097 1772 3097 
Q 1472 3097 1187 3025 
Q 903 2953 641 2809 
L 641 3341 
Q 956 3463 1253 3523 
Q 1550 3584 1831 3584 
Q 2591 3584 2966 3190 
Q 3341 2797 3341 1997 
z
" transform="scale(0.015625)"/>
      </defs>
      <use xlink:href="#DejaVuSans-73"/>
      <use xlink:href="#DejaVuSans-74" transform="translate(52.099609 0)"/>
      <use xlink:href="#DejaVuSans-61" transform="translate(91.308594 0)"/>
      <use xlink:href="#DejaVuSans-72" transform="translate(152.587891 0)"/>
     </g>
    </g>
    <g id="line2d_36">
     <path d="M 815.08 343.176562 
L 825.08 343.176562 
L 835.08 343.176562 
" style="fill: none; stroke: #ff7f0e; stroke-width: 1.5; stroke-linecap: square"/>
    </g>
    <g id="text_19">
     <!-- fork -->
     <g style="fill: #a9a9a9" transform="translate(843.08 346.676562) scale(0.1 -0.1)">
      <defs>
       <path id="DejaVuSans-66" d="M 2375 4863 
L 2375 4384 
L 1825 4384 
Q 1516 4384 1395 4259 
Q 1275 4134 1275 3809 
L 1275 3500 
L 2222 3500 
L 2222 3053 
L 1275 3053 
L 1275 0 
L 697 0 
L 697 3053 
L 147 3053 
L 147 3500 
L 697 3500 
L 697 3744 
Q 697 4328 969 4595 
Q 1241 4863 1831 4863 
L 2375 4863 
z
" transform="scale(0.015625)"/>
       <path id="DejaVuSans-6b" d="M 581 4863 
L 1159 4863 
L 1159 1991 
L 2875 3500 
L 3609 3500 
L 1753 1863 
L 3688 0 
L 2938 0 
L 1159 1709 
L 1159 0 
L 581 0 
L 581 4863 
z
" transform="scale(0.015625)"/>
      </defs>
      <use xlink:href="#DejaVuSans-66"/>
      <use xlink:href="#DejaVuSans-6f" transform="translate(35.205078 0)"/>
      <use xlink:href="#DejaVuSans-72" transform="translate(96.386719 0)"/>
      <use xlink:href="#DejaVuSans-6b" transform="translate(137.5 0)"/>
     </g>
    </g>
   </g>
  </g>
 </g>
 <defs>
  <clipPath id="pdda1fae2da">
   <rect x="108" y="43.2" width="669.6" height="277.2"/>
  </clipPath>
 </defs>
</svg>
