<?xml version="1.0" encoding="utf-8" standalone="no"?>
<!DOCTYPE svg PUBLIC "-//W3C//DTD SVG 1.1//EN"
  "http://www.w3.org/Graphics/SVG/1.1/DTD/svg11.dtd">
<svg xmlns:xlink="http://www.w3.org/1999/xlink" width="864pt" height="360pt" viewBox="0 0 864 360" xmlns="http://www.w3.org/2000/svg" version="1.1">
 <metadata>
  <rdf:RDF xmlns:dc="http://purl.org/dc/elements/1.1/" xmlns:cc="http://creativecommons.org/ns#" xmlns:rdf="http://www.w3.org/1999/02/22-rdf-syntax-ns#">
   <cc:Work>
    <dc:type rdf:resource="http://purl.org/dc/dcmitype/StillImage"/>
    <dc:date>2025-03-20T20:06:31.636174</dc:date>
    <dc:format>image/svg+xml</dc:format>
    <dc:creator>
     <cc:Agent>
      <dc:title>Matplotlib v3.10.1, https://matplotlib.org/</dc:title>
     </cc:Agent>
    </dc:creator>
   </cc:Work>
  </rdf:RDF>
 </metadata>
 <defs>
  <style type="text/css">*{stroke-linejoin: round; stroke-linecap: butt}</style>
 </defs>
 <g id="figure_1">
  <g id="patch_1">
   <path d="M 0 360 
L 864 360 
L 864 0 
L 0 0 
L 0 360 
z
" style="fill: none; opacity: 0"/>
  </g>
  <g id="axes_1">
   <g id="patch_2">
    <path d="M 108 320.4 
L 777.6 320.4 
L 777.6 43.2 
L 108 43.2 
L 108 320.4 
z
" style="fill: none; opacity: 0"/>
   </g>
   <g id="matplotlib.axis_1">
    <g id="xtick_1">
     <g id="line2d_1">
      <path d="M 127.948927 320.4 
L 127.948927 43.2 
" clip-path="url(#pafe3e9592c)" style="fill: none; stroke-dasharray: 5.12,1.28,0.8,1.28; stroke-dashoffset: 0; stroke: #b0b0b0; stroke-width: 0.8"/>
     </g>
     <g id="line2d_2">
      <defs>
       <path id="md9f62df480" d="M 0 0 
L 0 3.5 
" style="stroke: #a9a9a9; stroke-width: 0.8"/>
      </defs>
      <g>
       <use xlink:href="#md9f62df480" x="127.948927" y="320.4" style="fill: #a9a9a9; stroke: #a9a9a9; stroke-width: 0.8"/>
      </g>
     </g>
     <g id="text_1">
      <!-- 2021-07 -->
      <g style="fill: #a9a9a9" transform="translate(107.057521 334.998438) scale(0.1 -0.1)">
       <defs>
        <path id="DejaVuSans-32" d="M 1228 531 
L 3431 531 
L 3431 0 
L 469 0 
L 469 531 
Q 828 903 1448 1529 
Q 2069 2156 2228 2338 
Q 2531 2678 2651 2914 
Q 2772 3150 2772 3378 
Q 2772 3750 2511 3984 
Q 2250 4219 1831 4219 
Q 1534 4219 1204 4116 
Q 875 4013 500 3803 
L 500 4441 
Q 881 4594 1212 4672 
Q 1544 4750 1819 4750 
Q 2544 4750 2975 4387 
Q 3406 4025 3406 3419 
Q 3406 3131 3298 2873 
Q 3191 2616 2906 2266 
Q 2828 2175 2409 1742 
Q 1991 1309 1228 531 
z
" transform="scale(0.015625)"/>
        <path id="DejaVuSans-30" d="M 2034 4250 
Q 1547 4250 1301 3770 
Q 1056 3291 1056 2328 
Q 1056 1369 1301 889 
Q 1547 409 2034 409 
Q 2525 409 2770 889 
Q 3016 1369 3016 2328 
Q 3016 3291 2770 3770 
Q 2525 4250 2034 4250 
z
M 2034 4750 
Q 2819 4750 3233 4129 
Q 3647 3509 3647 2328 
Q 3647 1150 3233 529 
Q 2819 -91 2034 -91 
Q 1250 -91 836 529 
Q 422 1150 422 2328 
Q 422 3509 836 4129 
Q 1250 4750 2034 4750 
z
" transform="scale(0.015625)"/>
        <path id="DejaVuSans-31" d="M 794 531 
L 1825 531 
L 1825 4091 
L 703 3866 
L 703 4441 
L 1819 4666 
L 2450 4666 
L 2450 531 
L 3481 531 
L 3481 0 
L 794 0 
L 794 531 
z
" transform="scale(0.015625)"/>
        <path id="DejaVuSans-2d" d="M 313 2009 
L 1997 2009 
L 1997 1497 
L 313 1497 
L 313 2009 
z
" transform="scale(0.015625)"/>
        <path id="DejaVuSans-37" d="M 525 4666 
L 3525 4666 
L 3525 4397 
L 1831 0 
L 1172 0 
L 2766 4134 
L 525 4134 
L 525 4666 
z
" transform="scale(0.015625)"/>
       </defs>
       <use xlink:href="#DejaVuSans-32"/>
       <use xlink:href="#DejaVuSans-30" transform="translate(63.623047 0)"/>
       <use xlink:href="#DejaVuSans-32" transform="translate(127.246094 0)"/>
       <use xlink:href="#DejaVuSans-31" transform="translate(190.869141 0)"/>
       <use xlink:href="#DejaVuSans-2d" transform="translate(254.492188 0)"/>
       <use xlink:href="#DejaVuSans-30" transform="translate(290.576172 0)"/>
       <use xlink:href="#DejaVuSans-37" transform="translate(354.199219 0)"/>
      </g>
     </g>
    </g>
    <g id="xtick_2">
     <g id="line2d_3">
      <path d="M 211.848417 320.4 
L 211.848417 43.2 
" clip-path="url(#pafe3e9592c)" style="fill: none; stroke-dasharray: 5.12,1.28,0.8,1.28; stroke-dashoffset: 0; stroke: #b0b0b0; stroke-width: 0.8"/>
     </g>
     <g id="line2d_4">
      <g>
       <use xlink:href="#md9f62df480" x="211.848417" y="320.4" style="fill: #a9a9a9; stroke: #a9a9a9; stroke-width: 0.8"/>
      </g>
     </g>
     <g id="text_2">
      <!-- 2022-01 -->
      <g style="fill: #a9a9a9" transform="translate(190.957011 334.998438) scale(0.1 -0.1)">
       <use xlink:href="#DejaVuSans-32"/>
       <use xlink:href="#DejaVuSans-30" transform="translate(63.623047 0)"/>
       <use xlink:href="#DejaVuSans-32" transform="translate(127.246094 0)"/>
       <use xlink:href="#DejaVuSans-32" transform="translate(190.869141 0)"/>
       <use xlink:href="#DejaVuSans-2d" transform="translate(254.492188 0)"/>
       <use xlink:href="#DejaVuSans-30" transform="translate(290.576172 0)"/>
       <use xlink:href="#DejaVuSans-31" transform="translate(354.199219 0)"/>
      </g>
     </g>
    </g>
    <g id="xtick_3">
     <g id="line2d_5">
      <path d="M 294.37998 320.4 
L 294.37998 43.2 
" clip-path="url(#pafe3e9592c)" style="fill: none; stroke-dasharray: 5.12,1.28,0.8,1.28; stroke-dashoffset: 0; stroke: #b0b0b0; stroke-width: 0.8"/>
     </g>
     <g id="line2d_6">
      <g>
       <use xlink:href="#md9f62df480" x="294.37998" y="320.4" style="fill: #a9a9a9; stroke: #a9a9a9; stroke-width: 0.8"/>
      </g>
     </g>
     <g id="text_3">
      <!-- 2022-07 -->
      <g style="fill: #a9a9a9" transform="translate(273.488573 334.998438) scale(0.1 -0.1)">
       <use xlink:href="#DejaVuSans-32"/>
       <use xlink:href="#DejaVuSans-30" transform="translate(63.623047 0)"/>
       <use xlink:href="#DejaVuSans-32" transform="translate(127.246094 0)"/>
       <use xlink:href="#DejaVuSans-32" transform="translate(190.869141 0)"/>
       <use xlink:href="#DejaVuSans-2d" transform="translate(254.492188 0)"/>
       <use xlink:href="#DejaVuSans-30" transform="translate(290.576172 0)"/>
       <use xlink:href="#DejaVuSans-37" transform="translate(354.199219 0)"/>
      </g>
     </g>
    </g>
    <g id="xtick_4">
     <g id="line2d_7">
      <path d="M 378.279469 320.4 
L 378.279469 43.2 
" clip-path="url(#pafe3e9592c)" style="fill: none; stroke-dasharray: 5.12,1.28,0.8,1.28; stroke-dashoffset: 0; stroke: #b0b0b0; stroke-width: 0.8"/>
     </g>
     <g id="line2d_8">
      <g>
       <use xlink:href="#md9f62df480" x="378.279469" y="320.4" style="fill: #a9a9a9; stroke: #a9a9a9; stroke-width: 0.8"/>
      </g>
     </g>
     <g id="text_4">
      <!-- 2023-01 -->
      <g style="fill: #a9a9a9" transform="translate(357.388063 334.998438) scale(0.1 -0.1)">
       <defs>
        <path id="DejaVuSans-33" d="M 2597 2516 
Q 3050 2419 3304 2112 
Q 3559 1806 3559 1356 
Q 3559 666 3084 287 
Q 2609 -91 1734 -91 
Q 1441 -91 1130 -33 
Q 819 25 488 141 
L 488 750 
Q 750 597 1062 519 
Q 1375 441 1716 441 
Q 2309 441 2620 675 
Q 2931 909 2931 1356 
Q 2931 1769 2642 2001 
Q 2353 2234 1838 2234 
L 1294 2234 
L 1294 2753 
L 1863 2753 
Q 2328 2753 2575 2939 
Q 2822 3125 2822 3475 
Q 2822 3834 2567 4026 
Q 2313 4219 1838 4219 
Q 1578 4219 1281 4162 
Q 984 4106 628 3988 
L 628 4550 
Q 988 4650 1302 4700 
Q 1616 4750 1894 4750 
Q 2613 4750 3031 4423 
Q 3450 4097 3450 3541 
Q 3450 3153 3228 2886 
Q 3006 2619 2597 2516 
z
" transform="scale(0.015625)"/>
       </defs>
       <use xlink:href="#DejaVuSans-32"/>
       <use xlink:href="#DejaVuSans-30" transform="translate(63.623047 0)"/>
       <use xlink:href="#DejaVuSans-32" transform="translate(127.246094 0)"/>
       <use xlink:href="#DejaVuSans-33" transform="translate(190.869141 0)"/>
       <use xlink:href="#DejaVuSans-2d" transform="translate(254.492188 0)"/>
       <use xlink:href="#DejaVuSans-30" transform="translate(290.576172 0)"/>
       <use xlink:href="#DejaVuSans-31" transform="translate(354.199219 0)"/>
      </g>
     </g>
    </g>
    <g id="xtick_5">
     <g id="line2d_9">
      <path d="M 460.811032 320.4 
L 460.811032 43.2 
" clip-path="url(#pafe3e9592c)" style="fill: none; stroke-dasharray: 5.12,1.28,0.8,1.28; stroke-dashoffset: 0; stroke: #b0b0b0; stroke-width: 0.8"/>
     </g>
     <g id="line2d_10">
      <g>
       <use xlink:href="#md9f62df480" x="460.811032" y="320.4" style="fill: #a9a9a9; stroke: #a9a9a9; stroke-width: 0.8"/>
      </g>
     </g>
     <g id="text_5">
      <!-- 2023-07 -->
      <g style="fill: #a9a9a9" transform="translate(439.919625 334.998438) scale(0.1 -0.1)">
       <use xlink:href="#DejaVuSans-32"/>
       <use xlink:href="#DejaVuSans-30" transform="translate(63.623047 0)"/>
       <use xlink:href="#DejaVuSans-32" transform="translate(127.246094 0)"/>
       <use xlink:href="#DejaVuSans-33" transform="translate(190.869141 0)"/>
       <use xlink:href="#DejaVuSans-2d" transform="translate(254.492188 0)"/>
       <use xlink:href="#DejaVuSans-30" transform="translate(290.576172 0)"/>
       <use xlink:href="#DejaVuSans-37" transform="translate(354.199219 0)"/>
      </g>
     </g>
    </g>
    <g id="xtick_6">
     <g id="line2d_11">
      <path d="M 544.710521 320.4 
L 544.710521 43.2 
" clip-path="url(#pafe3e9592c)" style="fill: none; stroke-dasharray: 5.12,1.28,0.8,1.28; stroke-dashoffset: 0; stroke: #b0b0b0; stroke-width: 0.8"/>
     </g>
     <g id="line2d_12">
      <g>
       <use xlink:href="#md9f62df480" x="544.710521" y="320.4" style="fill: #a9a9a9; stroke: #a9a9a9; stroke-width: 0.8"/>
      </g>
     </g>
     <g id="text_6">
      <!-- 2024-01 -->
      <g style="fill: #a9a9a9" transform="translate(523.819115 334.998438) scale(0.1 -0.1)">
       <defs>
        <path id="DejaVuSans-34" d="M 2419 4116 
L 825 1625 
L 2419 1625 
L 2419 4116 
z
M 2253 4666 
L 3047 4666 
L 3047 1625 
L 3713 1625 
L 3713 1100 
L 3047 1100 
L 3047 0 
L 2419 0 
L 2419 1100 
L 313 1100 
L 313 1709 
L 2253 4666 
z
" transform="scale(0.015625)"/>
       </defs>
       <use xlink:href="#DejaVuSans-32"/>
       <use xlink:href="#DejaVuSans-30" transform="translate(63.623047 0)"/>
       <use xlink:href="#DejaVuSans-32" transform="translate(127.246094 0)"/>
       <use xlink:href="#DejaVuSans-34" transform="translate(190.869141 0)"/>
       <use xlink:href="#DejaVuSans-2d" transform="translate(254.492188 0)"/>
       <use xlink:href="#DejaVuSans-30" transform="translate(290.576172 0)"/>
       <use xlink:href="#DejaVuSans-31" transform="translate(354.199219 0)"/>
      </g>
     </g>
    </g>
    <g id="xtick_7">
     <g id="line2d_13">
      <path d="M 627.698059 320.4 
L 627.698059 43.2 
" clip-path="url(#pafe3e9592c)" style="fill: none; stroke-dasharray: 5.12,1.28,0.8,1.28; stroke-dashoffset: 0; stroke: #b0b0b0; stroke-width: 0.8"/>
     </g>
     <g id="line2d_14">
      <g>
       <use xlink:href="#md9f62df480" x="627.698059" y="320.4" style="fill: #a9a9a9; stroke: #a9a9a9; stroke-width: 0.8"/>
      </g>
     </g>
     <g id="text_7">
      <!-- 2024-07 -->
      <g style="fill: #a9a9a9" transform="translate(606.806653 334.998438) scale(0.1 -0.1)">
       <use xlink:href="#DejaVuSans-32"/>
       <use xlink:href="#DejaVuSans-30" transform="translate(63.623047 0)"/>
       <use xlink:href="#DejaVuSans-32" transform="translate(127.246094 0)"/>
       <use xlink:href="#DejaVuSans-34" transform="translate(190.869141 0)"/>
       <use xlink:href="#DejaVuSans-2d" transform="translate(254.492188 0)"/>
       <use xlink:href="#DejaVuSans-30" transform="translate(290.576172 0)"/>
       <use xlink:href="#DejaVuSans-37" transform="translate(354.199219 0)"/>
      </g>
     </g>
    </g>
    <g id="xtick_8">
     <g id="line2d_15">
      <path d="M 711.597549 320.4 
L 711.597549 43.2 
" clip-path="url(#pafe3e9592c)" style="fill: none; stroke-dasharray: 5.12,1.28,0.8,1.28; stroke-dashoffset: 0; stroke: #b0b0b0; stroke-width: 0.8"/>
     </g>
     <g id="line2d_16">
      <g>
       <use xlink:href="#md9f62df480" x="711.597549" y="320.4" style="fill: #a9a9a9; stroke: #a9a9a9; stroke-width: 0.8"/>
      </g>
     </g>
     <g id="text_8">
      <!-- 2025-01 -->
      <g style="fill: #a9a9a9" transform="translate(690.706142 334.998438) scale(0.1 -0.1)">
       <defs>
        <path id="DejaVuSans-35" d="M 691 4666 
L 3169 4666 
L 3169 4134 
L 1269 4134 
L 1269 2991 
Q 1406 3038 1543 3061 
Q 1681 3084 1819 3084 
Q 2600 3084 3056 2656 
Q 3513 2228 3513 1497 
Q 3513 744 3044 326 
Q 2575 -91 1722 -91 
Q 1428 -91 1123 -41 
Q 819 9 494 109 
L 494 744 
Q 775 591 1075 516 
Q 1375 441 1709 441 
Q 2250 441 2565 725 
Q 2881 1009 2881 1497 
Q 2881 1984 2565 2268 
Q 2250 2553 1709 2553 
Q 1456 2553 1204 2497 
Q 953 2441 691 2322 
L 691 4666 
z
" transform="scale(0.015625)"/>
       </defs>
       <use xlink:href="#DejaVuSans-32"/>
       <use xlink:href="#DejaVuSans-30" transform="translate(63.623047 0)"/>
       <use xlink:href="#DejaVuSans-32" transform="translate(127.246094 0)"/>
       <use xlink:href="#DejaVuSans-35" transform="translate(190.869141 0)"/>
       <use xlink:href="#DejaVuSans-2d" transform="translate(254.492188 0)"/>
       <use xlink:href="#DejaVuSans-30" transform="translate(290.576172 0)"/>
       <use xlink:href="#DejaVuSans-31" transform="translate(354.199219 0)"/>
      </g>
     </g>
    </g>
   </g>
   <g id="matplotlib.axis_2">
    <g id="ytick_1">
     <g id="line2d_17">
      <path d="M 108 307.833926 
L 777.6 307.833926 
" clip-path="url(#pafe3e9592c)" style="fill: none; stroke-dasharray: 5.12,1.28,0.8,1.28; stroke-dashoffset: 0; stroke: #b0b0b0; stroke-width: 0.8"/>
     </g>
     <g id="line2d_18">
      <defs>
       <path id="m179390e63b" d="M 0 0 
L -3.5 0 
" style="stroke: #a9a9a9; stroke-width: 0.8"/>
      </defs>
      <g>
       <use xlink:href="#m179390e63b" x="108" y="307.833926" style="fill: #a9a9a9; stroke: #a9a9a9; stroke-width: 0.8"/>
      </g>
     </g>
     <g id="text_9">
      <!-- 0 -->
      <g style="fill: #a9a9a9" transform="translate(94.6375 311.633144) scale(0.1 -0.1)">
       <use xlink:href="#DejaVuSans-30"/>
      </g>
     </g>
    </g>
    <g id="ytick_2">
     <g id="line2d_19">
      <path d="M 108 273.908239 
L 777.6 273.908239 
" clip-path="url(#pafe3e9592c)" style="fill: none; stroke-dasharray: 5.12,1.28,0.8,1.28; stroke-dashoffset: 0; stroke: #b0b0b0; stroke-width: 0.8"/>
     </g>
     <g id="line2d_20">
      <g>
       <use xlink:href="#m179390e63b" x="108" y="273.908239" style="fill: #a9a9a9; stroke: #a9a9a9; stroke-width: 0.8"/>
      </g>
     </g>
     <g id="text_10">
      <!-- 1000 -->
      <g style="fill: #a9a9a9" transform="translate(75.55 277.707458) scale(0.1 -0.1)">
       <use xlink:href="#DejaVuSans-31"/>
       <use xlink:href="#DejaVuSans-30" transform="translate(63.623047 0)"/>
       <use xlink:href="#DejaVuSans-30" transform="translate(127.246094 0)"/>
       <use xlink:href="#DejaVuSans-30" transform="translate(190.869141 0)"/>
      </g>
     </g>
    </g>
    <g id="ytick_3">
     <g id="line2d_21">
      <path d="M 108 239.982553 
L 777.6 239.982553 
" clip-path="url(#pafe3e9592c)" style="fill: none; stroke-dasharray: 5.12,1.28,0.8,1.28; stroke-dashoffset: 0; stroke: #b0b0b0; stroke-width: 0.8"/>
     </g>
     <g id="line2d_22">
      <g>
       <use xlink:href="#m179390e63b" x="108" y="239.982553" style="fill: #a9a9a9; stroke: #a9a9a9; stroke-width: 0.8"/>
      </g>
     </g>
     <g id="text_11">
      <!-- 2000 -->
      <g style="fill: #a9a9a9" transform="translate(75.55 243.781771) scale(0.1 -0.1)">
       <use xlink:href="#DejaVuSans-32"/>
       <use xlink:href="#DejaVuSans-30" transform="translate(63.623047 0)"/>
       <use xlink:href="#DejaVuSans-30" transform="translate(127.246094 0)"/>
       <use xlink:href="#DejaVuSans-30" transform="translate(190.869141 0)"/>
      </g>
     </g>
    </g>
    <g id="ytick_4">
     <g id="line2d_23">
      <path d="M 108 206.056866 
L 777.6 206.056866 
" clip-path="url(#pafe3e9592c)" style="fill: none; stroke-dasharray: 5.12,1.28,0.8,1.28; stroke-dashoffset: 0; stroke: #b0b0b0; stroke-width: 0.8"/>
     </g>
     <g id="line2d_24">
      <g>
       <use xlink:href="#m179390e63b" x="108" y="206.056866" style="fill: #a9a9a9; stroke: #a9a9a9; stroke-width: 0.8"/>
      </g>
     </g>
     <g id="text_12">
      <!-- 3000 -->
      <g style="fill: #a9a9a9" transform="translate(75.55 209.856085) scale(0.1 -0.1)">
       <use xlink:href="#DejaVuSans-33"/>
       <use xlink:href="#DejaVuSans-30" transform="translate(63.623047 0)"/>
       <use xlink:href="#DejaVuSans-30" transform="translate(127.246094 0)"/>
       <use xlink:href="#DejaVuSans-30" transform="translate(190.869141 0)"/>
      </g>
     </g>
    </g>
    <g id="ytick_5">
     <g id="line2d_25">
      <path d="M 108 172.131179 
L 777.6 172.131179 
" clip-path="url(#pafe3e9592c)" style="fill: none; stroke-dasharray: 5.12,1.28,0.8,1.28; stroke-dashoffset: 0; stroke: #b0b0b0; stroke-width: 0.8"/>
     </g>
     <g id="line2d_26">
      <g>
       <use xlink:href="#m179390e63b" x="108" y="172.131179" style="fill: #a9a9a9; stroke: #a9a9a9; stroke-width: 0.8"/>
      </g>
     </g>
     <g id="text_13">
      <!-- 4000 -->
      <g style="fill: #a9a9a9" transform="translate(75.55 175.930398) scale(0.1 -0.1)">
       <use xlink:href="#DejaVuSans-34"/>
       <use xlink:href="#DejaVuSans-30" transform="translate(63.623047 0)"/>
       <use xlink:href="#DejaVuSans-30" transform="translate(127.246094 0)"/>
       <use xlink:href="#DejaVuSans-30" transform="translate(190.869141 0)"/>
      </g>
     </g>
    </g>
    <g id="ytick_6">
     <g id="line2d_27">
      <path d="M 108 138.205493 
L 777.6 138.205493 
" clip-path="url(#pafe3e9592c)" style="fill: none; stroke-dasharray: 5.12,1.28,0.8,1.28; stroke-dashoffset: 0; stroke: #b0b0b0; stroke-width: 0.8"/>
     </g>
     <g id="line2d_28">
      <g>
       <use xlink:href="#m179390e63b" x="108" y="138.205493" style="fill: #a9a9a9; stroke: #a9a9a9; stroke-width: 0.8"/>
      </g>
     </g>
     <g id="text_14">
      <!-- 5000 -->
      <g style="fill: #a9a9a9" transform="translate(75.55 142.004711) scale(0.1 -0.1)">
       <use xlink:href="#DejaVuSans-35"/>
       <use xlink:href="#DejaVuSans-30" transform="translate(63.623047 0)"/>
       <use xlink:href="#DejaVuSans-30" transform="translate(127.246094 0)"/>
       <use xlink:href="#DejaVuSans-30" transform="translate(190.869141 0)"/>
      </g>
     </g>
    </g>
    <g id="ytick_7">
     <g id="line2d_29">
      <path d="M 108 104.279806 
L 777.6 104.279806 
" clip-path="url(#pafe3e9592c)" style="fill: none; stroke-dasharray: 5.12,1.28,0.8,1.28; stroke-dashoffset: 0; stroke: #b0b0b0; stroke-width: 0.8"/>
     </g>
     <g id="line2d_30">
      <g>
       <use xlink:href="#m179390e63b" x="108" y="104.279806" style="fill: #a9a9a9; stroke: #a9a9a9; stroke-width: 0.8"/>
      </g>
     </g>
     <g id="text_15">
      <!-- 6000 -->
      <g style="fill: #a9a9a9" transform="translate(75.55 108.079025) scale(0.1 -0.1)">
       <defs>
        <path id="DejaVuSans-36" d="M 2113 2584 
Q 1688 2584 1439 2293 
Q 1191 2003 1191 1497 
Q 1191 994 1439 701 
Q 1688 409 2113 409 
Q 2538 409 2786 701 
Q 3034 994 3034 1497 
Q 3034 2003 2786 2293 
Q 2538 2584 2113 2584 
z
M 3366 4563 
L 3366 3988 
Q 3128 4100 2886 4159 
Q 2644 4219 2406 4219 
Q 1781 4219 1451 3797 
Q 1122 3375 1075 2522 
Q 1259 2794 1537 2939 
Q 1816 3084 2150 3084 
Q 2853 3084 3261 2657 
Q 3669 2231 3669 1497 
Q 3669 778 3244 343 
Q 2819 -91 2113 -91 
Q 1303 -91 875 529 
Q 447 1150 447 2328 
Q 447 3434 972 4092 
Q 1497 4750 2381 4750 
Q 2619 4750 2861 4703 
Q 3103 4656 3366 4563 
z
" transform="scale(0.015625)"/>
       </defs>
       <use xlink:href="#DejaVuSans-36"/>
       <use xlink:href="#DejaVuSans-30" transform="translate(63.623047 0)"/>
       <use xlink:href="#DejaVuSans-30" transform="translate(127.246094 0)"/>
       <use xlink:href="#DejaVuSans-30" transform="translate(190.869141 0)"/>
      </g>
     </g>
    </g>
    <g id="ytick_8">
     <g id="line2d_31">
      <path d="M 108 70.35412 
L 777.6 70.35412 
" clip-path="url(#pafe3e9592c)" style="fill: none; stroke-dasharray: 5.12,1.28,0.8,1.28; stroke-dashoffset: 0; stroke: #b0b0b0; stroke-width: 0.8"/>
     </g>
     <g id="line2d_32">
      <g>
       <use xlink:href="#m179390e63b" x="108" y="70.35412" style="fill: #a9a9a9; stroke: #a9a9a9; stroke-width: 0.8"/>
      </g>
     </g>
     <g id="text_16">
      <!-- 7000 -->
      <g style="fill: #a9a9a9" transform="translate(75.55 74.153338) scale(0.1 -0.1)">
       <use xlink:href="#DejaVuSans-37"/>
       <use xlink:href="#DejaVuSans-30" transform="translate(63.623047 0)"/>
       <use xlink:href="#DejaVuSans-30" transform="translate(127.246094 0)"/>
       <use xlink:href="#DejaVuSans-30" transform="translate(190.869141 0)"/>
      </g>
     </g>
    </g>
   </g>
   <g id="line2d_33">
    <path d="M 138.436364 307.732149 
L 141.172217 307.494669 
L 141.628192 307.291115 
L 143.452094 307.053635 
L 145.275996 306.680452 
L 146.187947 306.54475 
L 148.467824 306.341195 
L 149.379775 305.968013 
L 149.835751 305.357351 
L 150.291726 305.052019 
L 150.747702 304.000323 
L 151.203677 303.932472 
L 151.659653 303.559289 
L 152.571604 303.08433 
L 154.395506 301.591599 
L 156.219408 300.675606 
L 157.587334 300.031018 
L 158.043309 299.284653 
L 158.95526 298.606139 
L 159.411236 298.402585 
L 163.970991 297.724071 
L 164.426966 297.520517 
L 167.618795 297.249111 
L 169.442697 296.808078 
L 173.090501 296.299192 
L 173.546476 296.061712 
L 174.002451 295.993861 
L 174.914402 295.68853 
L 178.106231 295.145719 
L 179.018182 294.874313 
L 183.121961 294.161874 
L 184.033912 293.95832 
L 184.945863 293.924394 
L 186.769765 293.48336 
L 187.225741 292.838772 
L 188.593667 292.295961 
L 189.961593 291.922779 
L 190.417569 291.685299 
L 191.32952 291.51567 
L 193.153422 290.972859 
L 194.065373 290.905008 
L 194.977324 290.667528 
L 196.801226 290.192569 
L 197.257201 290.158643 
L 198.169152 289.717609 
L 198.625128 289.649758 
L 199.081103 289.412278 
L 204.096834 288.564136 
L 205.920735 288.021325 
L 206.376711 287.715994 
L 208.656588 286.969628 
L 209.568539 286.32504 
L 210.936466 286.053635 
L 220.967926 283.1021 
L 221.423902 283.068174 
L 222.791828 282.661066 
L 223.247804 282.661066 
L 223.703779 282.457512 
L 224.61573 282.355735 
L 225.071706 282.186107 
L 226.895608 282.118255 
L 227.807559 281.948627 
L 228.71951 281.473667 
L 230.087436 280.964782 
L 230.543412 280.659451 
L 231.455363 280.252342 
L 231.911338 280.014863 
L 232.823289 279.709532 
L 233.279265 279.573829 
L 234.191216 278.997092 
L 234.647191 278.488207 
L 235.559142 277.063328 
L 236.015117 276.927625 
L 236.471093 276.927625 
L 237.839019 276.113409 
L 238.294995 275.875929 
L 238.75097 275.774152 
L 239.206946 275.333118 
L 240.118897 274.959935 
L 241.030848 274.518901 
L 243.310725 271.567367 
L 246.046578 270.074637 
L 246.958529 269.328271 
L 247.414505 269.02294 
L 247.87048 268.378352 
L 248.326456 267.326656 
L 248.782431 266.614216 
L 249.238407 266.241034 
L 249.694382 266.03748 
L 253.342186 262.644911 
L 254.254137 261.796769 
L 256.98999 260.066559 
L 257.445965 259.896931 
L 258.813892 259.082714 
L 260.181818 258.166721 
L 262.00572 256.504362 
L 262.917671 256.131179 
L 263.829622 255.486591 
L 264.285598 255.215186 
L 264.741573 255.147334 
L 266.109499 254.367044 
L 266.565475 253.858158 
L 268.845352 252.602908 
L 269.301328 252.433279 
L 270.669254 251.48336 
L 277.508887 249.040711 
L 278.420838 248.192569 
L 279.788764 247.514055 
L 280.700715 246.937318 
L 281.612666 246.665913 
L 282.068641 246.360582 
L 282.524617 246.224879 
L 283.892543 245.308885 
L 286.172421 244.766074 
L 287.540347 243.951858 
L 288.908274 243.646527 
L 289.364249 243.54475 
L 290.732176 242.493053 
L 292.556078 241.984168 
L 293.012053 241.610985 
L 295.747906 240.661066 
L 296.659857 240.491438 
L 297.571808 240.118255 
L 300.763636 238.930856 
L 301.675587 238.795153 
L 303.043514 238.320194 
L 305.323391 237.200646 
L 307.147293 236.182876 
L 310.795097 234.65622 
L 311.251073 234.588368 
L 312.163023 234.011632 
L 313.074974 233.774152 
L 314.442901 233.231341 
L 316.266803 232.993861 
L 317.178754 232.518901 
L 317.634729 232.111793 
L 318.090705 231.263651 
L 319.914607 230.754766 
L 321.282533 230.042326 
L 322.194484 229.736995 
L 323.106435 229.262036 
L 325.842288 228.142488 
L 326.754239 227.938934 
L 327.66619 227.463974 
L 328.122165 227.26042 
L 328.578141 227.192569 
L 330.858018 226.073021 
L 331.769969 225.496284 
L 333.137896 225.224879 
L 334.961798 224.715994 
L 335.417773 224.682068 
L 335.873749 224.308885 
L 336.7857 224.003554 
L 339.065577 223.087561 
L 339.521553 222.748304 
L 339.977528 222.578675 
L 340.889479 222.06979 
L 342.713381 221.493053 
L 343.625332 220.916317 
L 344.081307 220.441357 
L 344.537283 220.169952 
L 344.993258 220.068174 
L 345.905209 219.321809 
L 346.361185 219.253958 
L 346.81716 218.507593 
L 347.273136 218.304039 
L 347.729111 217.930856 
L 348.185087 217.863005 
L 349.097038 217.286268 
L 350.008989 216.980937 
L 350.464964 216.64168 
L 350.92094 216.472052 
L 352.744842 215.250727 
L 354.112768 214.538288 
L 355.024719 214.300808 
L 355.93667 213.791922 
L 356.392646 213.011632 
L 357.304597 212.333118 
L 357.760572 212.231341 
L 360.496425 210.908239 
L 361.408376 210.535057 
L 362.776302 209.381583 
L 363.688253 208.601292 
L 364.600204 208.058481 
L 365.05618 207.549596 
L 365.512155 207.244265 
L 366.424106 206.4979 
L 366.880082 206.294346 
L 367.792033 205.378352 
L 368.703984 205.073021 
L 369.615935 204.462359 
L 370.983861 203.749919 
L 371.439837 203.682068 
L 372.807763 202.935703 
L 373.719714 202.358966 
L 378.279469 200.662682 
L 378.735444 200.289499 
L 380.559346 199.57706 
L 381.015322 199.441357 
L 381.927273 198.830695 
L 382.839224 198.423586 
L 383.751175 197.778998 
L 384.663126 195.947011 
L 385.575077 194.861389 
L 386.943003 194.14895 
L 387.854954 193.775767 
L 388.31093 193.707916 
L 388.766905 193.436511 
L 391.046782 192.690145 
L 391.502758 192.486591 
L 392.414709 191.842003 
L 393.782635 191.265267 
L 394.694586 190.756381 
L 395.606537 190.21357 
L 396.062513 189.908239 
L 396.518488 189.399354 
L 397.430439 188.890468 
L 399.710317 187.635218 
L 402.44617 186.244265 
L 403.814096 185.837157 
L 405.182022 185.294346 
L 405.637998 184.955089 
L 406.549949 184.683683 
L 407.4619 184.310501 
L 407.917875 183.937318 
L 409.741777 183.29273 
L 410.653728 182.614216 
L 411.565679 182.241034 
L 412.47763 181.528595 
L 413.389581 181.257189 
L 413.845557 180.850081 
L 414.301532 180.782229 
L 415.213483 180.06979 
L 416.125434 179.59483 
L 416.58141 179.391276 
L 417.037385 178.916317 
L 420.229213 177.627141 
L 421.141164 177.220032 
L 422.509091 176.778998 
L 423.421042 176.643296 
L 423.877017 176.439742 
L 424.332993 176.37189 
L 425.244944 175.964782 
L 425.700919 175.930856 
L 427.524821 175.252342 
L 428.892748 174.268498 
L 429.348723 174.098869 
L 430.260674 173.589984 
L 430.71665 173.454281 
L 433.452503 171.8937 
L 433.908478 171.791922 
L 435.276404 170.977706 
L 436.644331 170.502746 
L 437.556282 170.197415 
L 439.380184 169.586753 
L 440.292135 169.281422 
L 442.116037 168.908239 
L 442.572012 168.704685 
L 443.027988 168.636834 
L 443.939939 168.229725 
L 444.395914 168.161874 
L 444.85189 167.924394 
L 445.763841 167.754766 
L 447.131767 167.24588 
L 448.043718 167.144103 
L 449.411645 166.838772 
L 451.691522 166.431664 
L 463.546885 162.903393 
L 464.00286 162.428433 
L 464.914811 162.05525 
L 468.562615 160.664297 
L 469.01859 160.392892 
L 470.386517 159.985784 
L 471.298468 159.748304 
L 471.754443 159.442973 
L 472.210419 159.341195 
L 472.666394 158.934087 
L 474.034321 158.662682 
L 474.946272 158.221648 
L 475.402247 157.678837 
L 477.226149 157.237803 
L 480.417978 156.559289 
L 480.873953 156.559289 
L 481.329928 156.355735 
L 483.15383 156.016478 
L 483.609806 155.812924 
L 485.433708 155.473667 
L 486.345659 155.066559 
L 487.25761 154.896931 
L 489.537487 154.320194 
L 491.361389 153.743457 
L 491.817365 153.64168 
L 492.27334 153.4042 
L 493.185291 153.166721 
L 494.097242 152.793538 
L 495.009193 152.454281 
L 495.465169 152.14895 
L 496.37712 151.877544 
L 500.024923 150.622294 
L 500.936874 150.554443 
L 502.760776 150.011632 
L 503.216752 149.740226 
L 504.128703 149.468821 
L 506.40858 148.417124 
L 506.864556 148.383199 
L 511.880286 146.585137 
L 514.160163 145.974475 
L 515.072114 145.533441 
L 516.440041 145.22811 
L 518.263943 143.73538 
L 520.087845 142.955089 
L 520.999796 142.547981 
L 523.735649 141.496284 
L 524.191624 141.190953 
L 526.471502 140.444588 
L 527.839428 139.664297 
L 528.295403 139.56252 
L 530.575281 138.30727 
L 531.943207 137.696607 
L 532.399183 137.357351 
L 533.311134 137.052019 
L 535.591011 135.898546 
L 536.958938 135.423586 
L 538.78284 134.677221 
L 540.150766 134.168336 
L 540.606742 133.998708 
L 541.518693 133.863005 
L 541.974668 133.557674 
L 543.79857 133.184491 
L 544.710521 132.811309 
L 546.534423 131.963166 
L 552.91808 129.18126 
L 554.286006 128.740226 
L 554.741982 128.434895 
L 555.653933 128.333118 
L 556.109908 128.027787 
L 557.021859 127.858158 
L 557.93381 127.417124 
L 558.389785 127.21357 
L 558.845761 127.145719 
L 559.757712 126.840388 
L 562.94954 125.72084 
L 564.317467 125.415509 
L 566.141369 124.635218 
L 567.05332 124.126333 
L 568.877222 123.210339 
L 569.789173 123.006785 
L 570.245148 122.73538 
L 570.701124 122.633603 
L 572.06905 121.853312 
L 572.981001 121.480129 
L 574.804903 120.76769 
L 577.08478 119.987399 
L 577.996731 119.512439 
L 580.276609 118.732149 
L 583.012462 117.612601 
L 584.836364 116.764459 
L 589.396118 115.000323 
L 589.852094 114.694992 
L 591.675996 114.08433 
L 592.131971 114.08433 
L 593.043922 113.677221 
L 594.867824 112.184491 
L 595.3238 112.048788 
L 595.779775 111.777383 
L 596.235751 111.675606 
L 596.691726 111.438126 
L 597.147702 111.370275 
L 597.603677 111.031018 
L 598.059653 110.929241 
L 598.971604 110.352504 
L 600.33953 109.640065 
L 601.251481 109.266882 
L 601.707457 109.029402 
L 603.075383 108.724071 
L 605.35526 107.94378 
L 606.267211 107.638449 
L 607.635138 106.92601 
L 608.547089 106.484976 
L 609.45904 106.247496 
L 610.826966 105.602908 
L 614.930746 104.076252 
L 616.298672 103.22811 
L 616.754648 103.126333 
L 617.666599 102.685299 
L 618.57855 102.346042 
L 619.034525 101.938934 
L 619.946476 101.565751 
L 621.314402 101.090792 
L 621.770378 100.717609 
L 622.226353 100.683683 
L 623.138304 100.412278 
L 624.050255 100.106947 
L 624.506231 99.903393 
L 624.962206 99.835541 
L 626.330133 99.326656 
L 627.698059 98.817771 
L 629.521961 98.003554 
L 629.977937 97.935703 
L 633.625741 96.409047 
L 634.993667 95.968013 
L 635.905618 95.900162 
L 636.817569 95.526979 
L 639.553422 94.712763 
L 640.465373 94.678837 
L 644.113177 93.491438 
L 645.025128 93.016478 
L 645.481103 92.60937 
L 646.84903 91.795153 
L 647.760981 91.252342 
L 650.496834 90.370275 
L 650.952809 89.997092 
L 653.688662 88.843619 
L 655.512564 88.334733 
L 656.424515 87.927625 
L 656.88049 87.690145 
L 657.792441 87.41874 
L 658.248417 87.147334 
L 659.160368 86.977706 
L 662.808172 85.417124 
L 663.264147 85.349273 
L 663.720123 85.043942 
L 664.176098 84.874313 
L 664.632074 84.467205 
L 665.088049 84.399354 
L 666.911951 83.686914 
L 668.735853 83.24588 
L 669.191828 83.178029 
L 669.647804 82.974475 
L 670.103779 82.940549 
L 671.01573 82.635218 
L 671.471706 82.601292 
L 672.839632 82.058481 
L 674.663534 81.51567 
L 675.575485 80.837157 
L 677.399387 79.819386 
L 678.767314 79.344426 
L 682.415117 77.614216 
L 682.871093 77.376737 
L 683.327068 76.935703 
L 685.606946 76.32504 
L 686.974872 75.714378 
L 687.886823 75.476898 
L 688.342799 75.239418 
L 688.798774 74.866236 
L 690.622676 74.391276 
L 691.078652 74.052019 
L 697.006333 71.914701 
L 697.918284 71.745073 
L 700.198161 71.032633 
L 701.110112 70.659451 
L 702.022063 70.320194 
L 702.934014 70.082714 
L 703.38999 69.87916 
L 703.845965 69.87916 
L 704.757916 69.505977 
L 705.669867 68.963166 
L 707.949745 68.182876 
L 709.317671 67.707916 
L 709.773647 67.640065 
L 710.685598 67.266882 
L 712.053524 66.961551 
L 713.42145 66.520517 
L 713.877426 66.41874 
L 714.333401 66.113409 
L 715.245352 65.909855 
L 724.364862 63.297577 
L 726.64474 62.890468 
L 727.556691 62.449435 
L 728.468641 62.008401 
L 729.836568 61.601292 
L 734.396323 59.871082 
L 734.852298 59.531826 
L 736.220225 59.226494 
L 737.132176 58.955089 
L 738.044127 58.480129 
L 738.500102 58.073021 
L 739.412053 57.76769 
L 739.868029 57.496284 
L 740.77998 57.394507 
L 743.971808 56.512439 
L 745.339734 56.241034 
L 747.163636 55.8 
L 747.163636 55.8 
" clip-path="url(#pafe3e9592c)" style="fill: none; stroke: #1f77b4; stroke-width: 1.5; stroke-linecap: square"/>
   </g>
   <g id="line2d_34">
    <path d="M 138.892339 307.8 
L 142.996118 307.698223 
L 146.643922 307.528595 
L 148.467824 307.528595 
L 148.9238 307.392892 
L 151.203677 307.291115 
L 153.93953 306.985784 
L 156.675383 306.884006 
L 157.587334 306.782229 
L 160.779162 306.646527 
L 163.970991 306.54475 
L 166.250868 306.476898 
L 172.17855 306.375121 
L 174.458427 306.30727 
L 177.650255 306.205493 
L 179.930133 306.137641 
L 184.945863 306.035864 
L 186.769765 305.866236 
L 188.593667 305.83231 
L 191.32952 305.730533 
L 193.153422 305.696607 
L 195.433299 305.628756 
L 197.257201 305.459128 
L 201.360981 305.357351 
L 202.272932 305.289499 
L 204.096834 305.187722 
L 206.832686 305.085945 
L 208.656588 304.984168 
L 216.864147 304.475283 
L 220.055975 304.373506 
L 221.423902 304.237803 
L 223.703779 304.136026 
L 228.263534 303.898546 
L 232.823289 303.830695 
L 234.647191 303.627141 
L 236.471093 303.525363 
L 241.486823 303.050404 
L 244.678652 302.677221 
L 246.046578 302.60937 
L 249.694382 302.13441 
L 252.430235 302.066559 
L 253.798161 301.930856 
L 255.166088 301.829079 
L 267.933401 300.845234 
L 268.845352 300.675606 
L 271.581205 300.573829 
L 278.876813 300.132795 
L 282.068641 300.031018 
L 283.892543 299.827464 
L 286.172421 299.725687 
L 288.908274 299.62391 
L 291.188151 299.522132 
L 293.012053 299.488207 
L 295.291931 299.420355 
L 296.203882 299.284653 
L 302.587538 299.182876 
L 303.499489 299.081099 
L 308.971195 298.979321 
L 313.074974 298.775767 
L 316.266803 298.67399 
L 318.090705 298.470436 
L 321.282533 298.368659 
L 322.194484 298.199031 
L 324.474362 298.131179 
L 329.034116 298.063328 
L 330.858018 297.8937 
L 332.68192 297.859774 
L 334.049847 297.757997 
L 335.873749 297.588368 
L 340.433504 297.350889 
L 344.993258 297.249111 
L 349.097038 297.045557 
L 350.464964 297.011632 
L 351.376915 296.875929 
L 353.656793 296.774152 
L 354.568744 296.7063 
L 355.480695 296.638449 
L 356.392646 296.570598 
L 360.496425 296.502746 
L 361.864351 296.400969 
L 374.175689 295.586753 
L 376.455567 295.484976 
L 378.735444 295.417124 
L 385.119101 295.315347 
L 386.031052 295.179645 
L 392.414709 295.077868 
L 396.974464 294.840388 
L 397.886415 294.806462 
L 398.798366 294.704685 
L 401.078243 294.602908 
L 403.358121 294.535057 
L 405.637998 294.433279 
L 407.917875 294.365428 
L 412.021655 294.263651 
L 414.757508 294.161874 
L 421.141164 294.060097 
L 426.156895 293.788691 
L 427.980797 293.72084 
L 429.348723 293.619063 
L 435.73238 293.517286 
L 438.468233 293.415509 
L 446.675792 293.313732 
L 448.499694 293.279806 
L 453.971399 293.211955 
L 454.88335 293.144103 
L 461.267007 293.042326 
L 463.090909 293.008401 
L 474.946272 292.906624 
L 476.314198 292.770921 
L 496.833095 292.669144 
L 499.112972 292.601292 
L 510.968335 292.533441 
L 511.880286 292.46559 
L 514.160163 292.397738 
L 515.52809 292.262036 
L 518.263943 292.160258 
L 521.455771 292.024556 
L 525.559551 291.922779 
L 527.839428 291.854927 
L 531.031256 291.75315 
L 534.67906 291.583522 
L 536.958938 291.481745 
L 538.78284 291.447819 
L 542.886619 291.346042 
L 544.710521 291.312116 
L 550.638202 291.210339 
L 552.462104 291.176414 
L 554.741982 291.074637 
L 557.477835 290.972859 
L 560.669663 290.905008 
L 561.581614 290.837157 
L 572.525026 290.73538 
L 578.452707 290.396123 
L 580.732584 290.328271 
L 581.644535 290.226494 
L 582.556486 290.158643 
L 586.20429 290.056866 
L 588.940143 289.955089 
L 593.499898 289.853312 
L 595.779775 289.615832 
L 600.33953 289.514055 
L 601.251481 289.412278 
L 605.811236 289.310501 
L 608.091113 289.242649 
L 613.106844 289.208724 
L 614.018795 289.106947 
L 619.034525 289.00517 
L 619.946476 288.937318 
L 629.977937 288.835541 
L 632.71379 288.733764 
L 639.553422 288.631987 
L 641.377324 288.598061 
L 645.481103 288.53021 
L 646.393054 288.428433 
L 652.320735 288.326656 
L 654.600613 288.258805 
L 662.808172 288.157027 
L 664.176098 288.05525 
L 665.544025 287.953473 
L 666.911951 287.851696 
L 673.751583 287.749919 
L 676.487436 287.648142 
L 688.798774 287.546365 
L 692.902554 287.342811 
L 698.374259 287.241034 
L 699.28621 287.173183 
L 706.125843 287.105331 
L 707.037794 287.03748 
L 712.053524 286.935703 
L 713.877426 286.901777 
L 720.261083 286.8 
L 722.996936 286.698223 
L 730.748519 286.596446 
L 732.572421 286.56252 
L 736.6762 286.460743 
L 740.324004 286.291115 
L 745.339734 286.189338 
L 747.163636 286.121486 
L 747.163636 286.121486 
" clip-path="url(#pafe3e9592c)" style="fill: none; stroke: #ff7f0e; stroke-width: 1.5; stroke-linecap: square"/>
   </g>
   <g id="patch_3">
    <path d="M 108 320.4 
L 108 43.2 
" style="fill: none; stroke: #a9a9a9; stroke-width: 0.8; stroke-linejoin: miter; stroke-linecap: square"/>
   </g>
   <g id="patch_4">
    <path d="M 777.6 320.4 
L 777.6 43.2 
" style="fill: none"/>
   </g>
   <g id="patch_5">
    <path d="M 108 320.4 
L 777.6 320.4 
" style="fill: none; stroke: #a9a9a9; stroke-width: 0.8; stroke-linejoin: miter; stroke-linecap: square"/>
   </g>
   <g id="patch_6">
    <path d="M 108 43.2 
L 777.6 43.2 
" style="fill: none"/>
   </g>
   <g id="text_17">
    <!-- get_subscribe history -->
    <g style="fill: #a9a9a9" transform="translate(378.6075 37.2) scale(0.12 -0.12)">
     <defs>
      <path id="DejaVuSans-67" d="M 2906 1791 
Q 2906 2416 2648 2759 
Q 2391 3103 1925 3103 
Q 1463 3103 1205 2759 
Q 947 2416 947 1791 
Q 947 1169 1205 825 
Q 1463 481 1925 481 
Q 2391 481 2648 825 
Q 2906 1169 2906 1791 
z
M 3481 434 
Q 3481 -459 3084 -895 
Q 2688 -1331 1869 -1331 
Q 1566 -1331 1297 -1286 
Q 1028 -1241 775 -1147 
L 775 -588 
Q 1028 -725 1275 -790 
Q 1522 -856 1778 -856 
Q 2344 -856 2625 -561 
Q 2906 -266 2906 331 
L 2906 616 
Q 2728 306 2450 153 
Q 2172 0 1784 0 
Q 1141 0 747 490 
Q 353 981 353 1791 
Q 353 2603 747 3093 
Q 1141 3584 1784 3584 
Q 2172 3584 2450 3431 
Q 2728 3278 2906 2969 
L 2906 3500 
L 3481 3500 
L 3481 434 
z
" transform="scale(0.015625)"/>
      <path id="DejaVuSans-65" d="M 3597 1894 
L 3597 1613 
L 953 1613 
Q 991 1019 1311 708 
Q 1631 397 2203 397 
Q 2534 397 2845 478 
Q 3156 559 3463 722 
L 3463 178 
Q 3153 47 2828 -22 
Q 2503 -91 2169 -91 
Q 1331 -91 842 396 
Q 353 884 353 1716 
Q 353 2575 817 3079 
Q 1281 3584 2069 3584 
Q 2775 3584 3186 3129 
Q 3597 2675 3597 1894 
z
M 3022 2063 
Q 3016 2534 2758 2815 
Q 2500 3097 2075 3097 
Q 1594 3097 1305 2825 
Q 1016 2553 972 2059 
L 3022 2063 
z
" transform="scale(0.015625)"/>
      <path id="DejaVuSans-74" d="M 1172 4494 
L 1172 3500 
L 2356 3500 
L 2356 3053 
L 1172 3053 
L 1172 1153 
Q 1172 725 1289 603 
Q 1406 481 1766 481 
L 2356 481 
L 2356 0 
L 1766 0 
Q 1100 0 847 248 
Q 594 497 594 1153 
L 594 3053 
L 172 3053 
L 172 3500 
L 594 3500 
L 594 4494 
L 1172 4494 
z
" transform="scale(0.015625)"/>
      <path id="DejaVuSans-5f" d="M 3263 -1063 
L 3263 -1509 
L -63 -1509 
L -63 -1063 
L 3263 -1063 
z
" transform="scale(0.015625)"/>
      <path id="DejaVuSans-73" d="M 2834 3397 
L 2834 2853 
Q 2591 2978 2328 3040 
Q 2066 3103 1784 3103 
Q 1356 3103 1142 2972 
Q 928 2841 928 2578 
Q 928 2378 1081 2264 
Q 1234 2150 1697 2047 
L 1894 2003 
Q 2506 1872 2764 1633 
Q 3022 1394 3022 966 
Q 3022 478 2636 193 
Q 2250 -91 1575 -91 
Q 1294 -91 989 -36 
Q 684 19 347 128 
L 347 722 
Q 666 556 975 473 
Q 1284 391 1588 391 
Q 1994 391 2212 530 
Q 2431 669 2431 922 
Q 2431 1156 2273 1281 
Q 2116 1406 1581 1522 
L 1381 1569 
Q 847 1681 609 1914 
Q 372 2147 372 2553 
Q 372 3047 722 3315 
Q 1072 3584 1716 3584 
Q 2034 3584 2315 3537 
Q 2597 3491 2834 3397 
z
" transform="scale(0.015625)"/>
      <path id="DejaVuSans-75" d="M 544 1381 
L 544 3500 
L 1119 3500 
L 1119 1403 
Q 1119 906 1312 657 
Q 1506 409 1894 409 
Q 2359 409 2629 706 
Q 2900 1003 2900 1516 
L 2900 3500 
L 3475 3500 
L 3475 0 
L 2900 0 
L 2900 538 
Q 2691 219 2414 64 
Q 2138 -91 1772 -91 
Q 1169 -91 856 284 
Q 544 659 544 1381 
z
M 1991 3584 
L 1991 3584 
z
" transform="scale(0.015625)"/>
      <path id="DejaVuSans-62" d="M 3116 1747 
Q 3116 2381 2855 2742 
Q 2594 3103 2138 3103 
Q 1681 3103 1420 2742 
Q 1159 2381 1159 1747 
Q 1159 1113 1420 752 
Q 1681 391 2138 391 
Q 2594 391 2855 752 
Q 3116 1113 3116 1747 
z
M 1159 2969 
Q 1341 3281 1617 3432 
Q 1894 3584 2278 3584 
Q 2916 3584 3314 3078 
Q 3713 2572 3713 1747 
Q 3713 922 3314 415 
Q 2916 -91 2278 -91 
Q 1894 -91 1617 61 
Q 1341 213 1159 525 
L 1159 0 
L 581 0 
L 581 4863 
L 1159 4863 
L 1159 2969 
z
" transform="scale(0.015625)"/>
      <path id="DejaVuSans-63" d="M 3122 3366 
L 3122 2828 
Q 2878 2963 2633 3030 
Q 2388 3097 2138 3097 
Q 1578 3097 1268 2742 
Q 959 2388 959 1747 
Q 959 1106 1268 751 
Q 1578 397 2138 397 
Q 2388 397 2633 464 
Q 2878 531 3122 666 
L 3122 134 
Q 2881 22 2623 -34 
Q 2366 -91 2075 -91 
Q 1284 -91 818 406 
Q 353 903 353 1747 
Q 353 2603 823 3093 
Q 1294 3584 2113 3584 
Q 2378 3584 2631 3529 
Q 2884 3475 3122 3366 
z
" transform="scale(0.015625)"/>
      <path id="DejaVuSans-72" d="M 2631 2963 
Q 2534 3019 2420 3045 
Q 2306 3072 2169 3072 
Q 1681 3072 1420 2755 
Q 1159 2438 1159 1844 
L 1159 0 
L 581 0 
L 581 3500 
L 1159 3500 
L 1159 2956 
Q 1341 3275 1631 3429 
Q 1922 3584 2338 3584 
Q 2397 3584 2469 3576 
Q 2541 3569 2628 3553 
L 2631 2963 
z
" transform="scale(0.015625)"/>
      <path id="DejaVuSans-69" d="M 603 3500 
L 1178 3500 
L 1178 0 
L 603 0 
L 603 3500 
z
M 603 4863 
L 1178 4863 
L 1178 4134 
L 603 4134 
L 603 4863 
z
" transform="scale(0.015625)"/>
      <path id="DejaVuSans-20" transform="scale(0.015625)"/>
      <path id="DejaVuSans-68" d="M 3513 2113 
L 3513 0 
L 2938 0 
L 2938 2094 
Q 2938 2591 2744 2837 
Q 2550 3084 2163 3084 
Q 1697 3084 1428 2787 
Q 1159 2491 1159 1978 
L 1159 0 
L 581 0 
L 581 4863 
L 1159 4863 
L 1159 2956 
Q 1366 3272 1645 3428 
Q 1925 3584 2291 3584 
Q 2894 3584 3203 3211 
Q 3513 2838 3513 2113 
z
" transform="scale(0.015625)"/>
      <path id="DejaVuSans-6f" d="M 1959 3097 
Q 1497 3097 1228 2736 
Q 959 2375 959 1747 
Q 959 1119 1226 758 
Q 1494 397 1959 397 
Q 2419 397 2687 759 
Q 2956 1122 2956 1747 
Q 2956 2369 2687 2733 
Q 2419 3097 1959 3097 
z
M 1959 3584 
Q 2709 3584 3137 3096 
Q 3566 2609 3566 1747 
Q 3566 888 3137 398 
Q 2709 -91 1959 -91 
Q 1206 -91 779 398 
Q 353 888 353 1747 
Q 353 2609 779 3096 
Q 1206 3584 1959 3584 
z
" transform="scale(0.015625)"/>
      <path id="DejaVuSans-79" d="M 2059 -325 
Q 1816 -950 1584 -1140 
Q 1353 -1331 966 -1331 
L 506 -1331 
L 506 -850 
L 844 -850 
Q 1081 -850 1212 -737 
Q 1344 -625 1503 -206 
L 1606 56 
L 191 3500 
L 800 3500 
L 1894 763 
L 2988 3500 
L 3597 3500 
L 2059 -325 
z
" transform="scale(0.015625)"/>
     </defs>
     <use xlink:href="#DejaVuSans-67"/>
     <use xlink:href="#DejaVuSans-65" transform="translate(63.476562 0)"/>
     <use xlink:href="#DejaVuSans-74" transform="translate(125 0)"/>
     <use xlink:href="#DejaVuSans-5f" transform="translate(164.208984 0)"/>
     <use xlink:href="#DejaVuSans-73" transform="translate(214.208984 0)"/>
     <use xlink:href="#DejaVuSans-75" transform="translate(266.308594 0)"/>
     <use xlink:href="#DejaVuSans-62" transform="translate(329.6875 0)"/>
     <use xlink:href="#DejaVuSans-73" transform="translate(393.164062 0)"/>
     <use xlink:href="#DejaVuSans-63" transform="translate(445.263672 0)"/>
     <use xlink:href="#DejaVuSans-72" transform="translate(500.244141 0)"/>
     <use xlink:href="#DejaVuSans-69" transform="translate(541.357422 0)"/>
     <use xlink:href="#DejaVuSans-62" transform="translate(569.140625 0)"/>
     <use xlink:href="#DejaVuSans-65" transform="translate(632.617188 0)"/>
     <use xlink:href="#DejaVuSans-20" transform="translate(694.140625 0)"/>
     <use xlink:href="#DejaVuSans-68" transform="translate(725.927734 0)"/>
     <use xlink:href="#DejaVuSans-69" transform="translate(789.306641 0)"/>
     <use xlink:href="#DejaVuSans-73" transform="translate(817.089844 0)"/>
     <use xlink:href="#DejaVuSans-74" transform="translate(869.189453 0)"/>
     <use xlink:href="#DejaVuSans-6f" transform="translate(908.398438 0)"/>
     <use xlink:href="#DejaVuSans-72" transform="translate(969.580078 0)"/>
     <use xlink:href="#DejaVuSans-79" transform="translate(1010.693359 0)"/>
    </g>
   </g>
   <g id="legend_1">
    <g id="line2d_35">
     <path d="M 815.08 328.498438 
L 825.08 328.498438 
L 835.08 328.498438 
" style="fill: none; stroke: #1f77b4; stroke-width: 1.5; stroke-linecap: square"/>
    </g>
    <g id="text_18">
     <!-- star -->
     <g style="fill: #a9a9a9" transform="translate(843.08 331.998438) scale(0.1 -0.1)">
      <defs>
       <path id="DejaVuSans-61" d="M 2194 1759 
Q 1497 1759 1228 1600 
Q 959 1441 959 1056 
Q 959 750 1161 570 
Q 1363 391 1709 391 
Q 2188 391 2477 730 
Q 2766 1069 2766 1631 
L 2766 1759 
L 2194 1759 
z
M 3341 1997 
L 3341 0 
L 2766 0 
L 2766 531 
Q 2569 213 2275 61 
Q 1981 -91 1556 -91 
Q 1019 -91 701 211 
Q 384 513 384 1019 
Q 384 1609 779 1909 
Q 1175 2209 1959 2209 
L 2766 2209 
L 2766 2266 
Q 2766 2663 2505 2880 
Q 2244 3097 1772 3097 
Q 1472 3097 1187 3025 
Q 903 2953 641 2809 
L 641 3341 
Q 956 3463 1253 3523 
Q 1550 3584 1831 3584 
Q 2591 3584 2966 3190 
Q 3341 2797 3341 1997 
z
" transform="scale(0.015625)"/>
      </defs>
      <use xlink:href="#DejaVuSans-73"/>
      <use xlink:href="#DejaVuSans-74" transform="translate(52.099609 0)"/>
      <use xlink:href="#DejaVuSans-61" transform="translate(91.308594 0)"/>
      <use xlink:href="#DejaVuSans-72" transform="translate(152.587891 0)"/>
     </g>
    </g>
    <g id="line2d_36">
     <path d="M 815.08 343.176562 
L 825.08 343.176562 
L 835.08 343.176562 
" style="fill: none; stroke: #ff7f0e; stroke-width: 1.5; stroke-linecap: square"/>
    </g>
    <g id="text_19">
     <!-- fork -->
     <g style="fill: #a9a9a9" transform="translate(843.08 346.676562) scale(0.1 -0.1)">
      <defs>
       <path id="DejaVuSans-66" d="M 2375 4863 
L 2375 4384 
L 1825 4384 
Q 1516 4384 1395 4259 
Q 1275 4134 1275 3809 
L 1275 3500 
L 2222 3500 
L 2222 3053 
L 1275 3053 
L 1275 0 
L 697 0 
L 697 3053 
L 147 3053 
L 147 3500 
L 697 3500 
L 697 3744 
Q 697 4328 969 4595 
Q 1241 4863 1831 4863 
L 2375 4863 
z
" transform="scale(0.015625)"/>
       <path id="DejaVuSans-6b" d="M 581 4863 
L 1159 4863 
L 1159 1991 
L 2875 3500 
L 3609 3500 
L 1753 1863 
L 3688 0 
L 2938 0 
L 1159 1709 
L 1159 0 
L 581 0 
L 581 4863 
z
" transform="scale(0.015625)"/>
      </defs>
      <use xlink:href="#DejaVuSans-66"/>
      <use xlink:href="#DejaVuSans-6f" transform="translate(35.205078 0)"/>
      <use xlink:href="#DejaVuSans-72" transform="translate(96.386719 0)"/>
      <use xlink:href="#DejaVuSans-6b" transform="translate(137.5 0)"/>
     </g>
    </g>
   </g>
  </g>
 </g>
 <defs>
  <clipPath id="pafe3e9592c">
   <rect x="108" y="43.2" width="669.6" height="277.2"/>
  </clipPath>
 </defs>
</svg>
