<?xml version="1.0" encoding="utf-8" standalone="no"?>
<!DOCTYPE svg PUBLIC "-//W3C//DTD SVG 1.1//EN"
  "http://www.w3.org/Graphics/SVG/1.1/DTD/svg11.dtd">
<svg xmlns:xlink="http://www.w3.org/1999/xlink" width="864pt" height="360pt" viewBox="0 0 864 360" xmlns="http://www.w3.org/2000/svg" version="1.1">
 <metadata>
  <rdf:RDF xmlns:dc="http://purl.org/dc/elements/1.1/" xmlns:cc="http://creativecommons.org/ns#" xmlns:rdf="http://www.w3.org/1999/02/22-rdf-syntax-ns#">
   <cc:Work>
    <dc:type rdf:resource="http://purl.org/dc/dcmitype/StillImage"/>
    <dc:date>2025-03-22T08:14:16.555819</dc:date>
    <dc:format>image/svg+xml</dc:format>
    <dc:creator>
     <cc:Agent>
      <dc:title>Matplotlib v3.10.1, https://matplotlib.org/</dc:title>
     </cc:Agent>
    </dc:creator>
   </cc:Work>
  </rdf:RDF>
 </metadata>
 <defs>
  <style type="text/css">*{stroke-linejoin: round; stroke-linecap: butt}</style>
 </defs>
 <g id="figure_1">
  <g id="patch_1">
   <path d="M 0 360 
L 864 360 
L 864 0 
L 0 0 
L 0 360 
z
" style="fill: none; opacity: 0"/>
  </g>
  <g id="axes_1">
   <g id="patch_2">
    <path d="M 108 320.4 
L 777.6 320.4 
L 777.6 43.2 
L 108 43.2 
L 108 320.4 
z
" style="fill: none; opacity: 0"/>
   </g>
   <g id="matplotlib.axis_1">
    <g id="xtick_1">
     <g id="line2d_1">
      <path d="M 127.964615 320.4 
L 127.964615 43.2 
" clip-path="url(#p54574e3918)" style="fill: none; stroke-dasharray: 5.12,1.28,0.8,1.28; stroke-dashoffset: 0; stroke: #b0b0b0; stroke-width: 0.8"/>
     </g>
     <g id="line2d_2">
      <defs>
       <path id="mfc4e9b04d8" d="M 0 0 
L 0 3.5 
" style="stroke: #a9a9a9; stroke-width: 0.8"/>
      </defs>
      <g>
       <use xlink:href="#mfc4e9b04d8" x="127.964615" y="320.4" style="fill: #a9a9a9; stroke: #a9a9a9; stroke-width: 0.8"/>
      </g>
     </g>
     <g id="text_1">
      <!-- 2021-07 -->
      <g style="fill: #a9a9a9" transform="translate(107.073209 334.998438) scale(0.1 -0.1)">
       <defs>
        <path id="DejaVuSans-32" d="M 1228 531 
L 3431 531 
L 3431 0 
L 469 0 
L 469 531 
Q 828 903 1448 1529 
Q 2069 2156 2228 2338 
Q 2531 2678 2651 2914 
Q 2772 3150 2772 3378 
Q 2772 3750 2511 3984 
Q 2250 4219 1831 4219 
Q 1534 4219 1204 4116 
Q 875 4013 500 3803 
L 500 4441 
Q 881 4594 1212 4672 
Q 1544 4750 1819 4750 
Q 2544 4750 2975 4387 
Q 3406 4025 3406 3419 
Q 3406 3131 3298 2873 
Q 3191 2616 2906 2266 
Q 2828 2175 2409 1742 
Q 1991 1309 1228 531 
z
" transform="scale(0.015625)"/>
        <path id="DejaVuSans-30" d="M 2034 4250 
Q 1547 4250 1301 3770 
Q 1056 3291 1056 2328 
Q 1056 1369 1301 889 
Q 1547 409 2034 409 
Q 2525 409 2770 889 
Q 3016 1369 3016 2328 
Q 3016 3291 2770 3770 
Q 2525 4250 2034 4250 
z
M 2034 4750 
Q 2819 4750 3233 4129 
Q 3647 3509 3647 2328 
Q 3647 1150 3233 529 
Q 2819 -91 2034 -91 
Q 1250 -91 836 529 
Q 422 1150 422 2328 
Q 422 3509 836 4129 
Q 1250 4750 2034 4750 
z
" transform="scale(0.015625)"/>
        <path id="DejaVuSans-31" d="M 794 531 
L 1825 531 
L 1825 4091 
L 703 3866 
L 703 4441 
L 1819 4666 
L 2450 4666 
L 2450 531 
L 3481 531 
L 3481 0 
L 794 0 
L 794 531 
z
" transform="scale(0.015625)"/>
        <path id="DejaVuSans-2d" d="M 313 2009 
L 1997 2009 
L 1997 1497 
L 313 1497 
L 313 2009 
z
" transform="scale(0.015625)"/>
        <path id="DejaVuSans-37" d="M 525 4666 
L 3525 4666 
L 3525 4397 
L 1831 0 
L 1172 0 
L 2766 4134 
L 525 4134 
L 525 4666 
z
" transform="scale(0.015625)"/>
       </defs>
       <use xlink:href="#DejaVuSans-32"/>
       <use xlink:href="#DejaVuSans-30" transform="translate(63.623047 0)"/>
       <use xlink:href="#DejaVuSans-32" transform="translate(127.246094 0)"/>
       <use xlink:href="#DejaVuSans-31" transform="translate(190.869141 0)"/>
       <use xlink:href="#DejaVuSans-2d" transform="translate(254.492188 0)"/>
       <use xlink:href="#DejaVuSans-30" transform="translate(290.576172 0)"/>
       <use xlink:href="#DejaVuSans-37" transform="translate(354.199219 0)"/>
      </g>
     </g>
    </g>
    <g id="xtick_2">
     <g id="line2d_3">
      <path d="M 211.738601 320.4 
L 211.738601 43.2 
" clip-path="url(#p54574e3918)" style="fill: none; stroke-dasharray: 5.12,1.28,0.8,1.28; stroke-dashoffset: 0; stroke: #b0b0b0; stroke-width: 0.8"/>
     </g>
     <g id="line2d_4">
      <g>
       <use xlink:href="#mfc4e9b04d8" x="211.738601" y="320.4" style="fill: #a9a9a9; stroke: #a9a9a9; stroke-width: 0.8"/>
      </g>
     </g>
     <g id="text_2">
      <!-- 2022-01 -->
      <g style="fill: #a9a9a9" transform="translate(190.847194 334.998438) scale(0.1 -0.1)">
       <use xlink:href="#DejaVuSans-32"/>
       <use xlink:href="#DejaVuSans-30" transform="translate(63.623047 0)"/>
       <use xlink:href="#DejaVuSans-32" transform="translate(127.246094 0)"/>
       <use xlink:href="#DejaVuSans-32" transform="translate(190.869141 0)"/>
       <use xlink:href="#DejaVuSans-2d" transform="translate(254.492188 0)"/>
       <use xlink:href="#DejaVuSans-30" transform="translate(290.576172 0)"/>
       <use xlink:href="#DejaVuSans-31" transform="translate(354.199219 0)"/>
      </g>
     </g>
    </g>
    <g id="xtick_3">
     <g id="line2d_5">
      <path d="M 294.146706 320.4 
L 294.146706 43.2 
" clip-path="url(#p54574e3918)" style="fill: none; stroke-dasharray: 5.12,1.28,0.8,1.28; stroke-dashoffset: 0; stroke: #b0b0b0; stroke-width: 0.8"/>
     </g>
     <g id="line2d_6">
      <g>
       <use xlink:href="#mfc4e9b04d8" x="294.146706" y="320.4" style="fill: #a9a9a9; stroke: #a9a9a9; stroke-width: 0.8"/>
      </g>
     </g>
     <g id="text_3">
      <!-- 2022-07 -->
      <g style="fill: #a9a9a9" transform="translate(273.255299 334.998438) scale(0.1 -0.1)">
       <use xlink:href="#DejaVuSans-32"/>
       <use xlink:href="#DejaVuSans-30" transform="translate(63.623047 0)"/>
       <use xlink:href="#DejaVuSans-32" transform="translate(127.246094 0)"/>
       <use xlink:href="#DejaVuSans-32" transform="translate(190.869141 0)"/>
       <use xlink:href="#DejaVuSans-2d" transform="translate(254.492188 0)"/>
       <use xlink:href="#DejaVuSans-30" transform="translate(290.576172 0)"/>
       <use xlink:href="#DejaVuSans-37" transform="translate(354.199219 0)"/>
      </g>
     </g>
    </g>
    <g id="xtick_4">
     <g id="line2d_7">
      <path d="M 377.920691 320.4 
L 377.920691 43.2 
" clip-path="url(#p54574e3918)" style="fill: none; stroke-dasharray: 5.12,1.28,0.8,1.28; stroke-dashoffset: 0; stroke: #b0b0b0; stroke-width: 0.8"/>
     </g>
     <g id="line2d_8">
      <g>
       <use xlink:href="#mfc4e9b04d8" x="377.920691" y="320.4" style="fill: #a9a9a9; stroke: #a9a9a9; stroke-width: 0.8"/>
      </g>
     </g>
     <g id="text_4">
      <!-- 2023-01 -->
      <g style="fill: #a9a9a9" transform="translate(357.029285 334.998438) scale(0.1 -0.1)">
       <defs>
        <path id="DejaVuSans-33" d="M 2597 2516 
Q 3050 2419 3304 2112 
Q 3559 1806 3559 1356 
Q 3559 666 3084 287 
Q 2609 -91 1734 -91 
Q 1441 -91 1130 -33 
Q 819 25 488 141 
L 488 750 
Q 750 597 1062 519 
Q 1375 441 1716 441 
Q 2309 441 2620 675 
Q 2931 909 2931 1356 
Q 2931 1769 2642 2001 
Q 2353 2234 1838 2234 
L 1294 2234 
L 1294 2753 
L 1863 2753 
Q 2328 2753 2575 2939 
Q 2822 3125 2822 3475 
Q 2822 3834 2567 4026 
Q 2313 4219 1838 4219 
Q 1578 4219 1281 4162 
Q 984 4106 628 3988 
L 628 4550 
Q 988 4650 1302 4700 
Q 1616 4750 1894 4750 
Q 2613 4750 3031 4423 
Q 3450 4097 3450 3541 
Q 3450 3153 3228 2886 
Q 3006 2619 2597 2516 
z
" transform="scale(0.015625)"/>
       </defs>
       <use xlink:href="#DejaVuSans-32"/>
       <use xlink:href="#DejaVuSans-30" transform="translate(63.623047 0)"/>
       <use xlink:href="#DejaVuSans-32" transform="translate(127.246094 0)"/>
       <use xlink:href="#DejaVuSans-33" transform="translate(190.869141 0)"/>
       <use xlink:href="#DejaVuSans-2d" transform="translate(254.492188 0)"/>
       <use xlink:href="#DejaVuSans-30" transform="translate(290.576172 0)"/>
       <use xlink:href="#DejaVuSans-31" transform="translate(354.199219 0)"/>
      </g>
     </g>
    </g>
    <g id="xtick_5">
     <g id="line2d_9">
      <path d="M 460.328796 320.4 
L 460.328796 43.2 
" clip-path="url(#p54574e3918)" style="fill: none; stroke-dasharray: 5.12,1.28,0.8,1.28; stroke-dashoffset: 0; stroke: #b0b0b0; stroke-width: 0.8"/>
     </g>
     <g id="line2d_10">
      <g>
       <use xlink:href="#mfc4e9b04d8" x="460.328796" y="320.4" style="fill: #a9a9a9; stroke: #a9a9a9; stroke-width: 0.8"/>
      </g>
     </g>
     <g id="text_5">
      <!-- 2023-07 -->
      <g style="fill: #a9a9a9" transform="translate(439.43739 334.998438) scale(0.1 -0.1)">
       <use xlink:href="#DejaVuSans-32"/>
       <use xlink:href="#DejaVuSans-30" transform="translate(63.623047 0)"/>
       <use xlink:href="#DejaVuSans-32" transform="translate(127.246094 0)"/>
       <use xlink:href="#DejaVuSans-33" transform="translate(190.869141 0)"/>
       <use xlink:href="#DejaVuSans-2d" transform="translate(254.492188 0)"/>
       <use xlink:href="#DejaVuSans-30" transform="translate(290.576172 0)"/>
       <use xlink:href="#DejaVuSans-37" transform="translate(354.199219 0)"/>
      </g>
     </g>
    </g>
    <g id="xtick_6">
     <g id="line2d_11">
      <path d="M 544.102781 320.4 
L 544.102781 43.2 
" clip-path="url(#p54574e3918)" style="fill: none; stroke-dasharray: 5.12,1.28,0.8,1.28; stroke-dashoffset: 0; stroke: #b0b0b0; stroke-width: 0.8"/>
     </g>
     <g id="line2d_12">
      <g>
       <use xlink:href="#mfc4e9b04d8" x="544.102781" y="320.4" style="fill: #a9a9a9; stroke: #a9a9a9; stroke-width: 0.8"/>
      </g>
     </g>
     <g id="text_6">
      <!-- 2024-01 -->
      <g style="fill: #a9a9a9" transform="translate(523.211375 334.998438) scale(0.1 -0.1)">
       <defs>
        <path id="DejaVuSans-34" d="M 2419 4116 
L 825 1625 
L 2419 1625 
L 2419 4116 
z
M 2253 4666 
L 3047 4666 
L 3047 1625 
L 3713 1625 
L 3713 1100 
L 3047 1100 
L 3047 0 
L 2419 0 
L 2419 1100 
L 313 1100 
L 313 1709 
L 2253 4666 
z
" transform="scale(0.015625)"/>
       </defs>
       <use xlink:href="#DejaVuSans-32"/>
       <use xlink:href="#DejaVuSans-30" transform="translate(63.623047 0)"/>
       <use xlink:href="#DejaVuSans-32" transform="translate(127.246094 0)"/>
       <use xlink:href="#DejaVuSans-34" transform="translate(190.869141 0)"/>
       <use xlink:href="#DejaVuSans-2d" transform="translate(254.492188 0)"/>
       <use xlink:href="#DejaVuSans-30" transform="translate(290.576172 0)"/>
       <use xlink:href="#DejaVuSans-31" transform="translate(354.199219 0)"/>
      </g>
     </g>
    </g>
    <g id="xtick_7">
     <g id="line2d_13">
      <path d="M 626.966179 320.4 
L 626.966179 43.2 
" clip-path="url(#p54574e3918)" style="fill: none; stroke-dasharray: 5.12,1.28,0.8,1.28; stroke-dashoffset: 0; stroke: #b0b0b0; stroke-width: 0.8"/>
     </g>
     <g id="line2d_14">
      <g>
       <use xlink:href="#mfc4e9b04d8" x="626.966179" y="320.4" style="fill: #a9a9a9; stroke: #a9a9a9; stroke-width: 0.8"/>
      </g>
     </g>
     <g id="text_7">
      <!-- 2024-07 -->
      <g style="fill: #a9a9a9" transform="translate(606.074773 334.998438) scale(0.1 -0.1)">
       <use xlink:href="#DejaVuSans-32"/>
       <use xlink:href="#DejaVuSans-30" transform="translate(63.623047 0)"/>
       <use xlink:href="#DejaVuSans-32" transform="translate(127.246094 0)"/>
       <use xlink:href="#DejaVuSans-34" transform="translate(190.869141 0)"/>
       <use xlink:href="#DejaVuSans-2d" transform="translate(254.492188 0)"/>
       <use xlink:href="#DejaVuSans-30" transform="translate(290.576172 0)"/>
       <use xlink:href="#DejaVuSans-37" transform="translate(354.199219 0)"/>
      </g>
     </g>
    </g>
    <g id="xtick_8">
     <g id="line2d_15">
      <path d="M 710.740165 320.4 
L 710.740165 43.2 
" clip-path="url(#p54574e3918)" style="fill: none; stroke-dasharray: 5.12,1.28,0.8,1.28; stroke-dashoffset: 0; stroke: #b0b0b0; stroke-width: 0.8"/>
     </g>
     <g id="line2d_16">
      <g>
       <use xlink:href="#mfc4e9b04d8" x="710.740165" y="320.4" style="fill: #a9a9a9; stroke: #a9a9a9; stroke-width: 0.8"/>
      </g>
     </g>
     <g id="text_8">
      <!-- 2025-01 -->
      <g style="fill: #a9a9a9" transform="translate(689.848758 334.998438) scale(0.1 -0.1)">
       <defs>
        <path id="DejaVuSans-35" d="M 691 4666 
L 3169 4666 
L 3169 4134 
L 1269 4134 
L 1269 2991 
Q 1406 3038 1543 3061 
Q 1681 3084 1819 3084 
Q 2600 3084 3056 2656 
Q 3513 2228 3513 1497 
Q 3513 744 3044 326 
Q 2575 -91 1722 -91 
Q 1428 -91 1123 -41 
Q 819 9 494 109 
L 494 744 
Q 775 591 1075 516 
Q 1375 441 1709 441 
Q 2250 441 2565 725 
Q 2881 1009 2881 1497 
Q 2881 1984 2565 2268 
Q 2250 2553 1709 2553 
Q 1456 2553 1204 2497 
Q 953 2441 691 2322 
L 691 4666 
z
" transform="scale(0.015625)"/>
       </defs>
       <use xlink:href="#DejaVuSans-32"/>
       <use xlink:href="#DejaVuSans-30" transform="translate(63.623047 0)"/>
       <use xlink:href="#DejaVuSans-32" transform="translate(127.246094 0)"/>
       <use xlink:href="#DejaVuSans-35" transform="translate(190.869141 0)"/>
       <use xlink:href="#DejaVuSans-2d" transform="translate(254.492188 0)"/>
       <use xlink:href="#DejaVuSans-30" transform="translate(290.576172 0)"/>
       <use xlink:href="#DejaVuSans-31" transform="translate(354.199219 0)"/>
      </g>
     </g>
    </g>
   </g>
   <g id="matplotlib.axis_2">
    <g id="ytick_1">
     <g id="line2d_17">
      <path d="M 108 307.833917 
L 777.6 307.833917 
" clip-path="url(#p54574e3918)" style="fill: none; stroke-dasharray: 5.12,1.28,0.8,1.28; stroke-dashoffset: 0; stroke: #b0b0b0; stroke-width: 0.8"/>
     </g>
     <g id="line2d_18">
      <defs>
       <path id="m67e9f50ee1" d="M 0 0 
L -3.5 0 
" style="stroke: #a9a9a9; stroke-width: 0.8"/>
      </defs>
      <g>
       <use xlink:href="#m67e9f50ee1" x="108" y="307.833917" style="fill: #a9a9a9; stroke: #a9a9a9; stroke-width: 0.8"/>
      </g>
     </g>
     <g id="text_9">
      <!-- 0 -->
      <g style="fill: #a9a9a9" transform="translate(94.6375 311.633135) scale(0.1 -0.1)">
       <use xlink:href="#DejaVuSans-30"/>
      </g>
     </g>
    </g>
    <g id="ytick_2">
     <g id="line2d_19">
      <path d="M 108 273.917362 
L 777.6 273.917362 
" clip-path="url(#p54574e3918)" style="fill: none; stroke-dasharray: 5.12,1.28,0.8,1.28; stroke-dashoffset: 0; stroke: #b0b0b0; stroke-width: 0.8"/>
     </g>
     <g id="line2d_20">
      <g>
       <use xlink:href="#m67e9f50ee1" x="108" y="273.917362" style="fill: #a9a9a9; stroke: #a9a9a9; stroke-width: 0.8"/>
      </g>
     </g>
     <g id="text_10">
      <!-- 1000 -->
      <g style="fill: #a9a9a9" transform="translate(75.55 277.716581) scale(0.1 -0.1)">
       <use xlink:href="#DejaVuSans-31"/>
       <use xlink:href="#DejaVuSans-30" transform="translate(63.623047 0)"/>
       <use xlink:href="#DejaVuSans-30" transform="translate(127.246094 0)"/>
       <use xlink:href="#DejaVuSans-30" transform="translate(190.869141 0)"/>
      </g>
     </g>
    </g>
    <g id="ytick_3">
     <g id="line2d_21">
      <path d="M 108 240.000808 
L 777.6 240.000808 
" clip-path="url(#p54574e3918)" style="fill: none; stroke-dasharray: 5.12,1.28,0.8,1.28; stroke-dashoffset: 0; stroke: #b0b0b0; stroke-width: 0.8"/>
     </g>
     <g id="line2d_22">
      <g>
       <use xlink:href="#m67e9f50ee1" x="108" y="240.000808" style="fill: #a9a9a9; stroke: #a9a9a9; stroke-width: 0.8"/>
      </g>
     </g>
     <g id="text_11">
      <!-- 2000 -->
      <g style="fill: #a9a9a9" transform="translate(75.55 243.800026) scale(0.1 -0.1)">
       <use xlink:href="#DejaVuSans-32"/>
       <use xlink:href="#DejaVuSans-30" transform="translate(63.623047 0)"/>
       <use xlink:href="#DejaVuSans-30" transform="translate(127.246094 0)"/>
       <use xlink:href="#DejaVuSans-30" transform="translate(190.869141 0)"/>
      </g>
     </g>
    </g>
    <g id="ytick_4">
     <g id="line2d_23">
      <path d="M 108 206.084253 
L 777.6 206.084253 
" clip-path="url(#p54574e3918)" style="fill: none; stroke-dasharray: 5.12,1.28,0.8,1.28; stroke-dashoffset: 0; stroke: #b0b0b0; stroke-width: 0.8"/>
     </g>
     <g id="line2d_24">
      <g>
       <use xlink:href="#m67e9f50ee1" x="108" y="206.084253" style="fill: #a9a9a9; stroke: #a9a9a9; stroke-width: 0.8"/>
      </g>
     </g>
     <g id="text_12">
      <!-- 3000 -->
      <g style="fill: #a9a9a9" transform="translate(75.55 209.883472) scale(0.1 -0.1)">
       <use xlink:href="#DejaVuSans-33"/>
       <use xlink:href="#DejaVuSans-30" transform="translate(63.623047 0)"/>
       <use xlink:href="#DejaVuSans-30" transform="translate(127.246094 0)"/>
       <use xlink:href="#DejaVuSans-30" transform="translate(190.869141 0)"/>
      </g>
     </g>
    </g>
    <g id="ytick_5">
     <g id="line2d_25">
      <path d="M 108 172.167699 
L 777.6 172.167699 
" clip-path="url(#p54574e3918)" style="fill: none; stroke-dasharray: 5.12,1.28,0.8,1.28; stroke-dashoffset: 0; stroke: #b0b0b0; stroke-width: 0.8"/>
     </g>
     <g id="line2d_26">
      <g>
       <use xlink:href="#m67e9f50ee1" x="108" y="172.167699" style="fill: #a9a9a9; stroke: #a9a9a9; stroke-width: 0.8"/>
      </g>
     </g>
     <g id="text_13">
      <!-- 4000 -->
      <g style="fill: #a9a9a9" transform="translate(75.55 175.966917) scale(0.1 -0.1)">
       <use xlink:href="#DejaVuSans-34"/>
       <use xlink:href="#DejaVuSans-30" transform="translate(63.623047 0)"/>
       <use xlink:href="#DejaVuSans-30" transform="translate(127.246094 0)"/>
       <use xlink:href="#DejaVuSans-30" transform="translate(190.869141 0)"/>
      </g>
     </g>
    </g>
    <g id="ytick_6">
     <g id="line2d_27">
      <path d="M 108 138.251144 
L 777.6 138.251144 
" clip-path="url(#p54574e3918)" style="fill: none; stroke-dasharray: 5.12,1.28,0.8,1.28; stroke-dashoffset: 0; stroke: #b0b0b0; stroke-width: 0.8"/>
     </g>
     <g id="line2d_28">
      <g>
       <use xlink:href="#m67e9f50ee1" x="108" y="138.251144" style="fill: #a9a9a9; stroke: #a9a9a9; stroke-width: 0.8"/>
      </g>
     </g>
     <g id="text_14">
      <!-- 5000 -->
      <g style="fill: #a9a9a9" transform="translate(75.55 142.050363) scale(0.1 -0.1)">
       <use xlink:href="#DejaVuSans-35"/>
       <use xlink:href="#DejaVuSans-30" transform="translate(63.623047 0)"/>
       <use xlink:href="#DejaVuSans-30" transform="translate(127.246094 0)"/>
       <use xlink:href="#DejaVuSans-30" transform="translate(190.869141 0)"/>
      </g>
     </g>
    </g>
    <g id="ytick_7">
     <g id="line2d_29">
      <path d="M 108 104.33459 
L 777.6 104.33459 
" clip-path="url(#p54574e3918)" style="fill: none; stroke-dasharray: 5.12,1.28,0.8,1.28; stroke-dashoffset: 0; stroke: #b0b0b0; stroke-width: 0.8"/>
     </g>
     <g id="line2d_30">
      <g>
       <use xlink:href="#m67e9f50ee1" x="108" y="104.33459" style="fill: #a9a9a9; stroke: #a9a9a9; stroke-width: 0.8"/>
      </g>
     </g>
     <g id="text_15">
      <!-- 6000 -->
      <g style="fill: #a9a9a9" transform="translate(75.55 108.133808) scale(0.1 -0.1)">
       <defs>
        <path id="DejaVuSans-36" d="M 2113 2584 
Q 1688 2584 1439 2293 
Q 1191 2003 1191 1497 
Q 1191 994 1439 701 
Q 1688 409 2113 409 
Q 2538 409 2786 701 
Q 3034 994 3034 1497 
Q 3034 2003 2786 2293 
Q 2538 2584 2113 2584 
z
M 3366 4563 
L 3366 3988 
Q 3128 4100 2886 4159 
Q 2644 4219 2406 4219 
Q 1781 4219 1451 3797 
Q 1122 3375 1075 2522 
Q 1259 2794 1537 2939 
Q 1816 3084 2150 3084 
Q 2853 3084 3261 2657 
Q 3669 2231 3669 1497 
Q 3669 778 3244 343 
Q 2819 -91 2113 -91 
Q 1303 -91 875 529 
Q 447 1150 447 2328 
Q 447 3434 972 4092 
Q 1497 4750 2381 4750 
Q 2619 4750 2861 4703 
Q 3103 4656 3366 4563 
z
" transform="scale(0.015625)"/>
       </defs>
       <use xlink:href="#DejaVuSans-36"/>
       <use xlink:href="#DejaVuSans-30" transform="translate(63.623047 0)"/>
       <use xlink:href="#DejaVuSans-30" transform="translate(127.246094 0)"/>
       <use xlink:href="#DejaVuSans-30" transform="translate(190.869141 0)"/>
      </g>
     </g>
    </g>
    <g id="ytick_8">
     <g id="line2d_31">
      <path d="M 108 70.418035 
L 777.6 70.418035 
" clip-path="url(#p54574e3918)" style="fill: none; stroke-dasharray: 5.12,1.28,0.8,1.28; stroke-dashoffset: 0; stroke: #b0b0b0; stroke-width: 0.8"/>
     </g>
     <g id="line2d_32">
      <g>
       <use xlink:href="#m67e9f50ee1" x="108" y="70.418035" style="fill: #a9a9a9; stroke: #a9a9a9; stroke-width: 0.8"/>
      </g>
     </g>
     <g id="text_16">
      <!-- 7000 -->
      <g style="fill: #a9a9a9" transform="translate(75.55 74.217254) scale(0.1 -0.1)">
       <use xlink:href="#DejaVuSans-37"/>
       <use xlink:href="#DejaVuSans-30" transform="translate(63.623047 0)"/>
       <use xlink:href="#DejaVuSans-30" transform="translate(127.246094 0)"/>
       <use xlink:href="#DejaVuSans-30" transform="translate(190.869141 0)"/>
      </g>
     </g>
    </g>
   </g>
   <g id="line2d_33">
    <path d="M 138.436364 307.732167 
L 141.168124 307.494751 
L 141.623417 307.291252 
L 143.444591 307.053836 
L 145.265765 306.680754 
L 146.176351 306.545087 
L 148.452818 306.341588 
L 149.363405 305.968506 
L 149.818699 305.358008 
L 150.273992 305.052759 
L 150.729285 304.001346 
L 151.184579 303.933513 
L 151.639872 303.560431 
L 152.550459 303.085599 
L 154.371633 301.593271 
L 156.192806 300.677524 
L 157.558686 300.033109 
L 158.01398 299.286945 
L 158.924567 298.608614 
L 159.37986 298.405114 
L 163.932794 297.726783 
L 164.388087 297.523284 
L 167.575141 297.251952 
L 169.396315 296.811036 
L 173.038662 296.302288 
L 173.493955 296.064872 
L 173.949249 295.997039 
L 174.859835 295.69179 
L 178.046889 295.149125 
L 178.957476 294.877793 
L 183.055117 294.165545 
L 183.965703 293.962046 
L 184.87629 293.928129 
L 186.697464 293.487214 
L 187.152757 292.842799 
L 188.518637 292.300135 
L 189.884518 291.927052 
L 190.339811 291.689637 
L 191.250398 291.520054 
L 193.071571 290.977389 
L 193.982158 290.909556 
L 194.892745 290.67214 
L 196.713919 290.197308 
L 197.169212 290.163392 
L 198.079799 289.722476 
L 198.535092 289.654643 
L 198.990386 289.417227 
L 203.998613 288.569314 
L 205.819786 288.026649 
L 206.27508 287.7214 
L 208.551547 286.975236 
L 209.462134 286.330821 
L 210.828014 286.059489 
L 220.844469 283.108748 
L 221.299762 283.074832 
L 222.665642 282.667833 
L 223.120936 282.667833 
L 223.576229 282.464334 
L 224.486816 282.362584 
L 224.942109 282.193001 
L 226.763283 282.125168 
L 227.67387 281.955585 
L 228.584456 281.480754 
L 229.950337 280.972005 
L 230.40563 280.666756 
L 231.316217 280.259758 
L 231.77151 280.022342 
L 232.682097 279.717093 
L 233.13739 279.581427 
L 234.047977 279.004845 
L 234.503271 278.496097 
L 235.413857 277.071602 
L 235.869151 276.935935 
L 236.324444 276.935935 
L 237.690324 276.121938 
L 238.145618 275.884522 
L 238.600911 275.782773 
L 239.056205 275.341857 
L 239.966791 274.968775 
L 240.877378 274.52786 
L 243.153845 271.57712 
L 245.885605 270.084791 
L 246.796192 269.338627 
L 247.251486 269.033378 
L 247.706779 268.388964 
L 248.162072 267.33755 
L 248.617366 266.625303 
L 249.072659 266.252221 
L 249.527953 266.048721 
L 253.1703 262.657066 
L 254.080887 261.809152 
L 256.812647 260.079408 
L 257.26794 259.909825 
L 258.633821 259.095828 
L 259.999701 258.180081 
L 261.820874 256.51817 
L 262.731461 256.145087 
L 263.642048 255.500673 
L 264.097341 255.229341 
L 264.552635 255.161507 
L 265.918515 254.381427 
L 266.373808 253.872678 
L 268.650275 252.617766 
L 269.105569 252.448183 
L 270.471449 251.49852 
L 277.30085 249.056528 
L 278.211437 248.208614 
L 279.577317 247.530283 
L 280.487904 246.953701 
L 281.398491 246.682369 
L 281.853784 246.37712 
L 282.309077 246.241454 
L 283.674958 245.325707 
L 285.951424 244.783042 
L 287.317305 243.969044 
L 288.683185 243.663795 
L 289.138478 243.562046 
L 290.504358 242.510633 
L 292.325532 242.001884 
L 292.780825 241.628802 
L 295.512586 240.679139 
L 296.423173 240.509556 
L 297.333759 240.136474 
L 300.520813 238.949394 
L 301.4314 238.813728 
L 302.79728 238.338896 
L 305.073747 237.21965 
L 306.894921 236.202153 
L 310.537268 234.675908 
L 310.992561 234.608075 
L 311.903148 234.031494 
L 312.813735 233.794078 
L 314.179615 233.251413 
L 316.000789 233.013997 
L 316.911376 232.539166 
L 317.366669 232.132167 
L 317.821962 231.284253 
L 319.643136 230.775505 
L 321.009016 230.063257 
L 321.919603 229.758008 
L 322.83019 229.283176 
L 325.56195 228.16393 
L 326.472537 227.960431 
L 327.383124 227.485599 
L 327.838417 227.2821 
L 328.29371 227.214266 
L 330.570177 226.09502 
L 331.480764 225.518439 
L 332.846644 225.247106 
L 334.667818 224.738358 
L 335.123111 224.704441 
L 335.578405 224.331359 
L 336.488992 224.02611 
L 338.765459 223.110363 
L 339.220752 222.771198 
L 339.676045 222.601615 
L 340.586632 222.092867 
L 342.407806 221.516285 
L 343.318393 220.939704 
L 343.773686 220.464872 
L 344.228979 220.19354 
L 344.684273 220.09179 
L 345.59486 219.345626 
L 346.050153 219.277793 
L 346.505446 218.531629 
L 346.96074 218.328129 
L 347.416033 217.955047 
L 347.871327 217.887214 
L 348.781913 217.310633 
L 349.6925 217.005384 
L 350.147794 216.666218 
L 350.603087 216.496635 
L 352.424261 215.275639 
L 353.790141 214.563392 
L 354.700728 214.325976 
L 355.611314 213.817227 
L 356.066608 213.037147 
L 356.977195 212.358816 
L 357.432488 212.257066 
L 360.164248 210.93432 
L 361.074835 210.561238 
L 362.440715 209.408075 
L 363.351302 208.627995 
L 364.261889 208.08533 
L 364.717182 207.576581 
L 365.172476 207.271332 
L 366.083062 206.525168 
L 366.538356 206.321669 
L 367.448943 205.405922 
L 368.359529 205.100673 
L 369.270116 204.490175 
L 370.635996 203.777927 
L 371.09129 203.710094 
L 372.45717 202.96393 
L 373.367757 202.387349 
L 377.920691 200.691521 
L 378.375984 200.318439 
L 380.197158 199.606191 
L 380.652451 199.470525 
L 381.563038 198.860027 
L 382.473625 198.486945 
L 383.384212 197.84253 
L 384.294798 196.011036 
L 385.205385 194.925707 
L 386.571265 194.213459 
L 387.481852 193.840377 
L 387.937146 193.772544 
L 388.392439 193.501211 
L 390.668906 192.755047 
L 391.124199 192.551548 
L 392.034786 191.907133 
L 393.400666 191.330552 
L 394.311253 190.821803 
L 395.22184 190.279139 
L 395.677133 189.97389 
L 396.132427 189.465141 
L 397.043014 188.956393 
L 399.319481 187.70148 
L 402.051241 186.310902 
L 403.417121 185.903903 
L 404.783001 185.361238 
L 405.238295 185.022073 
L 406.148881 184.75074 
L 407.059468 184.377658 
L 407.514762 184.004576 
L 409.335935 183.360162 
L 410.246522 182.68183 
L 411.157109 182.308748 
L 412.067696 181.596501 
L 412.978282 181.325168 
L 413.433576 180.91817 
L 413.888869 180.850336 
L 414.799456 180.138089 
L 415.710043 179.663257 
L 416.165336 179.459758 
L 416.62063 178.984926 
L 419.807683 177.696097 
L 420.71827 177.289098 
L 422.08415 176.848183 
L 422.994737 176.712517 
L 423.450031 176.509017 
L 423.905324 176.441184 
L 424.815911 176.034186 
L 425.271204 176.000269 
L 427.092378 175.321938 
L 428.458258 174.338358 
L 428.913551 174.168775 
L 429.824138 173.660027 
L 430.279432 173.524361 
L 433.011192 171.964199 
L 433.466485 171.86245 
L 434.832366 171.048452 
L 436.198246 170.57362 
L 437.108833 170.268371 
L 438.930006 169.657873 
L 439.840593 169.352624 
L 441.661767 168.979542 
L 442.11706 168.776043 
L 442.572353 168.70821 
L 443.48294 168.301211 
L 443.938233 168.233378 
L 444.393527 167.995962 
L 445.304114 167.82638 
L 446.669994 167.317631 
L 447.580581 167.215882 
L 448.946461 166.910633 
L 451.222928 166.503634 
L 463.060556 162.976312 
L 463.51585 162.50148 
L 464.426436 162.128398 
L 468.068784 160.73782 
L 468.524077 160.466487 
L 469.889957 160.059489 
L 470.800544 159.822073 
L 471.255837 159.516824 
L 471.711131 159.415074 
L 472.166424 159.008075 
L 473.532304 158.736743 
L 474.442891 158.295828 
L 474.898185 157.753163 
L 476.719358 157.312248 
L 479.906412 156.633917 
L 480.361705 156.633917 
L 480.816999 156.430417 
L 482.638172 156.091252 
L 483.093466 155.887752 
L 484.914639 155.548587 
L 485.825226 155.141588 
L 486.735813 154.972005 
L 489.01228 154.395424 
L 490.833453 153.818843 
L 491.288747 153.717093 
L 491.74404 153.479677 
L 492.654627 153.242261 
L 493.565214 152.869179 
L 494.475801 152.530013 
L 494.931094 152.224764 
L 495.841681 151.953432 
L 499.484028 150.69852 
L 500.394615 150.630686 
L 502.215788 150.088022 
L 502.671082 149.816689 
L 503.581669 149.545357 
L 505.858136 148.493943 
L 506.313429 148.460027 
L 511.321656 146.66245 
L 513.598123 146.051952 
L 514.50871 145.611036 
L 515.87459 145.305787 
L 517.695764 143.813459 
L 519.516938 143.033378 
L 520.427524 142.62638 
L 523.159285 141.574966 
L 523.614578 141.269717 
L 525.891045 140.523553 
L 527.256925 139.743472 
L 527.712219 139.641723 
L 529.988686 138.38681 
L 531.354566 137.776312 
L 531.809859 137.437147 
L 532.720446 137.131898 
L 534.996913 135.978735 
L 536.362793 135.503903 
L 538.183967 134.757739 
L 539.549847 134.248991 
L 540.00514 134.079408 
L 540.915727 133.943742 
L 541.371021 133.638493 
L 543.192194 133.26541 
L 544.102781 132.892328 
L 545.923955 132.044415 
L 552.298062 129.263257 
L 553.663942 128.822342 
L 554.119236 128.517093 
L 555.029823 128.415343 
L 555.485116 128.110094 
L 556.395703 127.940511 
L 557.30629 127.499596 
L 557.761583 127.296097 
L 558.216876 127.228264 
L 559.127463 126.923015 
L 562.314517 125.803769 
L 563.680397 125.49852 
L 565.501571 124.752355 
L 566.412157 124.243607 
L 568.233331 123.32786 
L 569.143918 123.124361 
L 569.599211 122.853028 
L 570.054505 122.751279 
L 571.420385 121.971198 
L 572.330972 121.598116 
L 574.152145 120.885868 
L 576.428612 120.105787 
L 577.339199 119.630956 
L 579.615666 118.850875 
L 582.347426 117.731629 
L 584.1686 116.883715 
L 588.721534 115.120054 
L 589.176827 114.814805 
L 590.998001 114.204307 
L 591.453294 114.204307 
L 592.363881 113.797308 
L 594.185055 112.30498 
L 594.640348 112.169314 
L 595.095642 111.897981 
L 596.461522 111.524899 
L 596.916815 111.185734 
L 597.372109 111.083984 
L 598.282695 110.507402 
L 599.648576 109.795155 
L 600.559162 109.422073 
L 601.014456 109.184657 
L 602.380336 108.879408 
L 604.656803 108.099327 
L 605.56739 107.794078 
L 606.93327 107.08183 
L 607.843857 106.640915 
L 608.754443 106.403499 
L 610.120324 105.759085 
L 614.217964 104.23284 
L 615.583844 103.384926 
L 616.039138 103.283176 
L 616.949725 102.842261 
L 617.860311 102.503096 
L 618.315605 102.096097 
L 619.226192 101.723015 
L 620.592072 101.248183 
L 621.047365 100.875101 
L 621.502659 100.841184 
L 622.413245 100.569852 
L 623.323832 100.264603 
L 623.779126 100.061104 
L 624.234419 99.993271 
L 625.600299 99.484522 
L 626.966179 98.975774 
L 628.787353 98.161777 
L 629.242646 98.093943 
L 632.884994 96.567699 
L 634.250874 96.126783 
L 635.161461 96.05895 
L 636.072047 95.685868 
L 638.803808 94.871871 
L 639.714395 94.837954 
L 643.356742 93.650875 
L 644.267328 93.176043 
L 644.722622 92.769044 
L 646.088502 91.955047 
L 646.999089 91.412382 
L 649.730849 90.530552 
L 650.186143 90.15747 
L 652.917903 89.004307 
L 654.739077 88.495559 
L 655.649663 88.08856 
L 656.104957 87.851144 
L 657.015544 87.579812 
L 657.470837 87.308479 
L 658.381424 87.138896 
L 662.023771 85.578735 
L 662.479064 85.510902 
L 662.934358 85.205653 
L 663.389651 85.03607 
L 663.844945 84.629071 
L 664.300238 84.561238 
L 666.121412 83.848991 
L 667.942585 83.408075 
L 668.397879 83.340242 
L 668.853172 83.136743 
L 669.308465 83.102826 
L 670.219052 82.797577 
L 670.674346 82.763661 
L 672.040226 82.220996 
L 673.861399 81.678331 
L 674.771986 81 
L 676.59316 79.982503 
L 677.95904 79.507672 
L 681.601387 77.777927 
L 682.05668 77.540511 
L 682.511974 77.099596 
L 684.788441 76.489098 
L 686.154321 75.8786 
L 687.064908 75.641184 
L 687.520201 75.403769 
L 687.975495 75.030686 
L 689.796668 74.555855 
L 690.251962 74.216689 
L 696.170776 72.079946 
L 697.081363 71.910363 
L 699.35783 71.198116 
L 700.268416 70.825034 
L 701.179003 70.485868 
L 702.08959 70.248452 
L 702.544883 70.044953 
L 703.000177 70.044953 
L 703.910764 69.671871 
L 704.82135 69.129206 
L 707.097817 68.349125 
L 708.463698 67.874293 
L 708.918991 67.80646 
L 709.829578 67.433378 
L 711.195458 67.128129 
L 712.561338 66.687214 
L 713.016632 66.585464 
L 713.471925 66.280215 
L 714.382512 66.076716 
L 723.48838 63.465141 
L 725.764847 63.058143 
L 726.675433 62.617227 
L 727.58602 62.176312 
L 728.9519 61.769314 
L 733.504834 60.039569 
L 733.960128 59.700404 
L 735.326008 59.395155 
L 736.236595 59.123822 
L 737.147182 58.682907 
L 737.602475 58.275908 
L 738.513062 57.970659 
L 738.968355 57.699327 
L 739.878942 57.597577 
L 743.065996 56.715747 
L 744.431876 56.444415 
L 746.708343 55.8 
L 747.163636 55.8 
L 747.163636 55.8 
" clip-path="url(#p54574e3918)" style="fill: none; stroke: #1f77b4; stroke-width: 1.5; stroke-linecap: square"/>
   </g>
   <g id="line2d_34">
    <path d="M 138.891657 307.8 
L 142.989298 307.69825 
L 146.631645 307.528668 
L 148.452818 307.528668 
L 148.908112 307.393001 
L 151.184579 307.291252 
L 153.916339 306.986003 
L 156.6481 306.884253 
L 157.558686 306.782503 
L 160.74574 306.646837 
L 163.932794 306.545087 
L 166.209261 306.477254 
L 172.128075 306.375505 
L 174.404542 306.307672 
L 177.591596 306.205922 
L 179.868063 306.138089 
L 184.87629 306.036339 
L 186.697464 305.866756 
L 188.518637 305.83284 
L 191.250398 305.73109 
L 193.071571 305.697174 
L 195.348038 305.629341 
L 197.169212 305.459758 
L 201.266853 305.358008 
L 202.177439 305.290175 
L 203.998613 305.188425 
L 206.730373 305.086676 
L 208.551547 304.984926 
L 216.746828 304.476178 
L 219.933882 304.374428 
L 221.299762 304.238762 
L 223.576229 304.137012 
L 228.129163 303.899596 
L 232.682097 303.831763 
L 234.503271 303.628264 
L 236.324444 303.526514 
L 241.332672 303.051682 
L 244.519725 302.6786 
L 245.885605 302.610767 
L 249.527953 302.135935 
L 252.259713 302.068102 
L 253.625593 301.932436 
L 254.991473 301.830686 
L 267.739689 300.847106 
L 268.650275 300.677524 
L 271.382036 300.575774 
L 278.66673 300.134859 
L 281.853784 300.033109 
L 283.674958 299.82961 
L 285.951424 299.72786 
L 288.683185 299.62611 
L 290.959652 299.524361 
L 292.780825 299.490444 
L 295.057292 299.422611 
L 295.967879 299.286945 
L 302.341987 299.185195 
L 303.252574 299.083445 
L 308.716094 298.981696 
L 312.813735 298.778197 
L 316.000789 298.676447 
L 317.821962 298.472948 
L 321.009016 298.371198 
L 321.919603 298.201615 
L 324.19607 298.133782 
L 328.749004 298.065949 
L 330.570177 297.896366 
L 332.391351 297.86245 
L 333.757231 297.7607 
L 335.578405 297.591117 
L 340.131339 297.353701 
L 344.684273 297.251952 
L 348.781913 297.048452 
L 350.147794 297.014536 
L 351.05838 296.878869 
L 353.334847 296.77712 
L 354.245434 296.709287 
L 355.156021 296.641454 
L 356.066608 296.57362 
L 360.164248 296.505787 
L 361.530129 296.404038 
L 373.82305 295.59004 
L 376.099517 295.488291 
L 378.375984 295.420458 
L 384.750092 295.318708 
L 385.660679 295.183042 
L 392.034786 295.081292 
L 396.58772 294.843876 
L 397.498307 294.80996 
L 398.408894 294.70821 
L 400.685361 294.60646 
L 402.961828 294.538627 
L 405.238295 294.436878 
L 407.514762 294.369044 
L 411.612402 294.267295 
L 414.344163 294.165545 
L 420.71827 294.063795 
L 425.726498 293.792463 
L 427.547671 293.72463 
L 428.913551 293.62288 
L 435.287659 293.521131 
L 438.019419 293.419381 
L 446.2147 293.317631 
L 448.035874 293.283715 
L 453.499395 293.215882 
L 454.409982 293.148048 
L 460.784089 293.046299 
L 462.605263 293.012382 
L 474.442891 292.910633 
L 475.808771 292.774966 
L 496.296974 292.673217 
L 498.573441 292.605384 
L 510.41107 292.53755 
L 511.321656 292.469717 
L 513.598123 292.401884 
L 514.964004 292.266218 
L 517.695764 292.164468 
L 520.882818 292.028802 
L 524.980458 291.927052 
L 527.256925 291.859219 
L 530.443979 291.75747 
L 534.086326 291.587887 
L 536.362793 291.486137 
L 538.183967 291.452221 
L 542.281607 291.350471 
L 544.102781 291.316555 
L 550.021595 291.214805 
L 551.842769 291.180888 
L 554.119236 291.079139 
L 556.850996 290.977389 
L 560.03805 290.909556 
L 560.948637 290.841723 
L 571.875678 290.739973 
L 577.794492 290.400808 
L 580.070959 290.332974 
L 580.981546 290.231225 
L 581.892133 290.163392 
L 585.53448 290.061642 
L 588.266241 289.959892 
L 592.819175 289.858143 
L 595.095642 289.620727 
L 599.648576 289.518977 
L 600.559162 289.417227 
L 605.112096 289.315478 
L 607.388563 289.247645 
L 612.396791 289.213728 
L 613.307377 289.111978 
L 618.315605 289.010229 
L 619.226192 288.942396 
L 629.242646 288.840646 
L 631.974407 288.738896 
L 638.803808 288.637147 
L 640.624981 288.60323 
L 644.722622 288.535397 
L 645.633209 288.433647 
L 651.552023 288.331898 
L 653.82849 288.264065 
L 662.023771 288.162315 
L 663.389651 288.060565 
L 664.755531 287.958816 
L 666.121412 287.857066 
L 672.950813 287.755316 
L 675.682573 287.653567 
L 687.975495 287.551817 
L 692.073135 287.348318 
L 697.536656 287.246568 
L 698.447243 287.178735 
L 705.276644 287.110902 
L 706.187231 287.043069 
L 711.195458 286.941319 
L 713.016632 286.907402 
L 719.390739 286.805653 
L 722.122499 286.703903 
L 729.862487 286.602153 
L 731.683661 286.568237 
L 735.781301 286.466487 
L 739.423649 286.296904 
L 744.431876 286.195155 
L 747.163636 286.093405 
L 747.163636 286.093405 
" clip-path="url(#p54574e3918)" style="fill: none; stroke: #ff7f0e; stroke-width: 1.5; stroke-linecap: square"/>
   </g>
   <g id="patch_3">
    <path d="M 108 320.4 
L 108 43.2 
" style="fill: none; stroke: #a9a9a9; stroke-width: 0.8; stroke-linejoin: miter; stroke-linecap: square"/>
   </g>
   <g id="patch_4">
    <path d="M 777.6 320.4 
L 777.6 43.2 
" style="fill: none"/>
   </g>
   <g id="patch_5">
    <path d="M 108 320.4 
L 777.6 320.4 
" style="fill: none; stroke: #a9a9a9; stroke-width: 0.8; stroke-linejoin: miter; stroke-linecap: square"/>
   </g>
   <g id="patch_6">
    <path d="M 108 43.2 
L 777.6 43.2 
" style="fill: none"/>
   </g>
   <g id="text_17">
    <!-- get_subscribe history -->
    <g style="fill: #a9a9a9" transform="translate(378.6075 37.2) scale(0.12 -0.12)">
     <defs>
      <path id="DejaVuSans-67" d="M 2906 1791 
Q 2906 2416 2648 2759 
Q 2391 3103 1925 3103 
Q 1463 3103 1205 2759 
Q 947 2416 947 1791 
Q 947 1169 1205 825 
Q 1463 481 1925 481 
Q 2391 481 2648 825 
Q 2906 1169 2906 1791 
z
M 3481 434 
Q 3481 -459 3084 -895 
Q 2688 -1331 1869 -1331 
Q 1566 -1331 1297 -1286 
Q 1028 -1241 775 -1147 
L 775 -588 
Q 1028 -725 1275 -790 
Q 1522 -856 1778 -856 
Q 2344 -856 2625 -561 
Q 2906 -266 2906 331 
L 2906 616 
Q 2728 306 2450 153 
Q 2172 0 1784 0 
Q 1141 0 747 490 
Q 353 981 353 1791 
Q 353 2603 747 3093 
Q 1141 3584 1784 3584 
Q 2172 3584 2450 3431 
Q 2728 3278 2906 2969 
L 2906 3500 
L 3481 3500 
L 3481 434 
z
" transform="scale(0.015625)"/>
      <path id="DejaVuSans-65" d="M 3597 1894 
L 3597 1613 
L 953 1613 
Q 991 1019 1311 708 
Q 1631 397 2203 397 
Q 2534 397 2845 478 
Q 3156 559 3463 722 
L 3463 178 
Q 3153 47 2828 -22 
Q 2503 -91 2169 -91 
Q 1331 -91 842 396 
Q 353 884 353 1716 
Q 353 2575 817 3079 
Q 1281 3584 2069 3584 
Q 2775 3584 3186 3129 
Q 3597 2675 3597 1894 
z
M 3022 2063 
Q 3016 2534 2758 2815 
Q 2500 3097 2075 3097 
Q 1594 3097 1305 2825 
Q 1016 2553 972 2059 
L 3022 2063 
z
" transform="scale(0.015625)"/>
      <path id="DejaVuSans-74" d="M 1172 4494 
L 1172 3500 
L 2356 3500 
L 2356 3053 
L 1172 3053 
L 1172 1153 
Q 1172 725 1289 603 
Q 1406 481 1766 481 
L 2356 481 
L 2356 0 
L 1766 0 
Q 1100 0 847 248 
Q 594 497 594 1153 
L 594 3053 
L 172 3053 
L 172 3500 
L 594 3500 
L 594 4494 
L 1172 4494 
z
" transform="scale(0.015625)"/>
      <path id="DejaVuSans-5f" d="M 3263 -1063 
L 3263 -1509 
L -63 -1509 
L -63 -1063 
L 3263 -1063 
z
" transform="scale(0.015625)"/>
      <path id="DejaVuSans-73" d="M 2834 3397 
L 2834 2853 
Q 2591 2978 2328 3040 
Q 2066 3103 1784 3103 
Q 1356 3103 1142 2972 
Q 928 2841 928 2578 
Q 928 2378 1081 2264 
Q 1234 2150 1697 2047 
L 1894 2003 
Q 2506 1872 2764 1633 
Q 3022 1394 3022 966 
Q 3022 478 2636 193 
Q 2250 -91 1575 -91 
Q 1294 -91 989 -36 
Q 684 19 347 128 
L 347 722 
Q 666 556 975 473 
Q 1284 391 1588 391 
Q 1994 391 2212 530 
Q 2431 669 2431 922 
Q 2431 1156 2273 1281 
Q 2116 1406 1581 1522 
L 1381 1569 
Q 847 1681 609 1914 
Q 372 2147 372 2553 
Q 372 3047 722 3315 
Q 1072 3584 1716 3584 
Q 2034 3584 2315 3537 
Q 2597 3491 2834 3397 
z
" transform="scale(0.015625)"/>
      <path id="DejaVuSans-75" d="M 544 1381 
L 544 3500 
L 1119 3500 
L 1119 1403 
Q 1119 906 1312 657 
Q 1506 409 1894 409 
Q 2359 409 2629 706 
Q 2900 1003 2900 1516 
L 2900 3500 
L 3475 3500 
L 3475 0 
L 2900 0 
L 2900 538 
Q 2691 219 2414 64 
Q 2138 -91 1772 -91 
Q 1169 -91 856 284 
Q 544 659 544 1381 
z
M 1991 3584 
L 1991 3584 
z
" transform="scale(0.015625)"/>
      <path id="DejaVuSans-62" d="M 3116 1747 
Q 3116 2381 2855 2742 
Q 2594 3103 2138 3103 
Q 1681 3103 1420 2742 
Q 1159 2381 1159 1747 
Q 1159 1113 1420 752 
Q 1681 391 2138 391 
Q 2594 391 2855 752 
Q 3116 1113 3116 1747 
z
M 1159 2969 
Q 1341 3281 1617 3432 
Q 1894 3584 2278 3584 
Q 2916 3584 3314 3078 
Q 3713 2572 3713 1747 
Q 3713 922 3314 415 
Q 2916 -91 2278 -91 
Q 1894 -91 1617 61 
Q 1341 213 1159 525 
L 1159 0 
L 581 0 
L 581 4863 
L 1159 4863 
L 1159 2969 
z
" transform="scale(0.015625)"/>
      <path id="DejaVuSans-63" d="M 3122 3366 
L 3122 2828 
Q 2878 2963 2633 3030 
Q 2388 3097 2138 3097 
Q 1578 3097 1268 2742 
Q 959 2388 959 1747 
Q 959 1106 1268 751 
Q 1578 397 2138 397 
Q 2388 397 2633 464 
Q 2878 531 3122 666 
L 3122 134 
Q 2881 22 2623 -34 
Q 2366 -91 2075 -91 
Q 1284 -91 818 406 
Q 353 903 353 1747 
Q 353 2603 823 3093 
Q 1294 3584 2113 3584 
Q 2378 3584 2631 3529 
Q 2884 3475 3122 3366 
z
" transform="scale(0.015625)"/>
      <path id="DejaVuSans-72" d="M 2631 2963 
Q 2534 3019 2420 3045 
Q 2306 3072 2169 3072 
Q 1681 3072 1420 2755 
Q 1159 2438 1159 1844 
L 1159 0 
L 581 0 
L 581 3500 
L 1159 3500 
L 1159 2956 
Q 1341 3275 1631 3429 
Q 1922 3584 2338 3584 
Q 2397 3584 2469 3576 
Q 2541 3569 2628 3553 
L 2631 2963 
z
" transform="scale(0.015625)"/>
      <path id="DejaVuSans-69" d="M 603 3500 
L 1178 3500 
L 1178 0 
L 603 0 
L 603 3500 
z
M 603 4863 
L 1178 4863 
L 1178 4134 
L 603 4134 
L 603 4863 
z
" transform="scale(0.015625)"/>
      <path id="DejaVuSans-20" transform="scale(0.015625)"/>
      <path id="DejaVuSans-68" d="M 3513 2113 
L 3513 0 
L 2938 0 
L 2938 2094 
Q 2938 2591 2744 2837 
Q 2550 3084 2163 3084 
Q 1697 3084 1428 2787 
Q 1159 2491 1159 1978 
L 1159 0 
L 581 0 
L 581 4863 
L 1159 4863 
L 1159 2956 
Q 1366 3272 1645 3428 
Q 1925 3584 2291 3584 
Q 2894 3584 3203 3211 
Q 3513 2838 3513 2113 
z
" transform="scale(0.015625)"/>
      <path id="DejaVuSans-6f" d="M 1959 3097 
Q 1497 3097 1228 2736 
Q 959 2375 959 1747 
Q 959 1119 1226 758 
Q 1494 397 1959 397 
Q 2419 397 2687 759 
Q 2956 1122 2956 1747 
Q 2956 2369 2687 2733 
Q 2419 3097 1959 3097 
z
M 1959 3584 
Q 2709 3584 3137 3096 
Q 3566 2609 3566 1747 
Q 3566 888 3137 398 
Q 2709 -91 1959 -91 
Q 1206 -91 779 398 
Q 353 888 353 1747 
Q 353 2609 779 3096 
Q 1206 3584 1959 3584 
z
" transform="scale(0.015625)"/>
      <path id="DejaVuSans-79" d="M 2059 -325 
Q 1816 -950 1584 -1140 
Q 1353 -1331 966 -1331 
L 506 -1331 
L 506 -850 
L 844 -850 
Q 1081 -850 1212 -737 
Q 1344 -625 1503 -206 
L 1606 56 
L 191 3500 
L 800 3500 
L 1894 763 
L 2988 3500 
L 3597 3500 
L 2059 -325 
z
" transform="scale(0.015625)"/>
     </defs>
     <use xlink:href="#DejaVuSans-67"/>
     <use xlink:href="#DejaVuSans-65" transform="translate(63.476562 0)"/>
     <use xlink:href="#DejaVuSans-74" transform="translate(125 0)"/>
     <use xlink:href="#DejaVuSans-5f" transform="translate(164.208984 0)"/>
     <use xlink:href="#DejaVuSans-73" transform="translate(214.208984 0)"/>
     <use xlink:href="#DejaVuSans-75" transform="translate(266.308594 0)"/>
     <use xlink:href="#DejaVuSans-62" transform="translate(329.6875 0)"/>
     <use xlink:href="#DejaVuSans-73" transform="translate(393.164062 0)"/>
     <use xlink:href="#DejaVuSans-63" transform="translate(445.263672 0)"/>
     <use xlink:href="#DejaVuSans-72" transform="translate(500.244141 0)"/>
     <use xlink:href="#DejaVuSans-69" transform="translate(541.357422 0)"/>
     <use xlink:href="#DejaVuSans-62" transform="translate(569.140625 0)"/>
     <use xlink:href="#DejaVuSans-65" transform="translate(632.617188 0)"/>
     <use xlink:href="#DejaVuSans-20" transform="translate(694.140625 0)"/>
     <use xlink:href="#DejaVuSans-68" transform="translate(725.927734 0)"/>
     <use xlink:href="#DejaVuSans-69" transform="translate(789.306641 0)"/>
     <use xlink:href="#DejaVuSans-73" transform="translate(817.089844 0)"/>
     <use xlink:href="#DejaVuSans-74" transform="translate(869.189453 0)"/>
     <use xlink:href="#DejaVuSans-6f" transform="translate(908.398438 0)"/>
     <use xlink:href="#DejaVuSans-72" transform="translate(969.580078 0)"/>
     <use xlink:href="#DejaVuSans-79" transform="translate(1010.693359 0)"/>
    </g>
   </g>
   <g id="legend_1">
    <g id="line2d_35">
     <path d="M 815.08 328.498438 
L 825.08 328.498438 
L 835.08 328.498438 
" style="fill: none; stroke: #1f77b4; stroke-width: 1.5; stroke-linecap: square"/>
    </g>
    <g id="text_18">
     <!-- star -->
     <g style="fill: #a9a9a9" transform="translate(843.08 331.998438) scale(0.1 -0.1)">
      <defs>
       <path id="DejaVuSans-61" d="M 2194 1759 
Q 1497 1759 1228 1600 
Q 959 1441 959 1056 
Q 959 750 1161 570 
Q 1363 391 1709 391 
Q 2188 391 2477 730 
Q 2766 1069 2766 1631 
L 2766 1759 
L 2194 1759 
z
M 3341 1997 
L 3341 0 
L 2766 0 
L 2766 531 
Q 2569 213 2275 61 
Q 1981 -91 1556 -91 
Q 1019 -91 701 211 
Q 384 513 384 1019 
Q 384 1609 779 1909 
Q 1175 2209 1959 2209 
L 2766 2209 
L 2766 2266 
Q 2766 2663 2505 2880 
Q 2244 3097 1772 3097 
Q 1472 3097 1187 3025 
Q 903 2953 641 2809 
L 641 3341 
Q 956 3463 1253 3523 
Q 1550 3584 1831 3584 
Q 2591 3584 2966 3190 
Q 3341 2797 3341 1997 
z
" transform="scale(0.015625)"/>
      </defs>
      <use xlink:href="#DejaVuSans-73"/>
      <use xlink:href="#DejaVuSans-74" transform="translate(52.099609 0)"/>
      <use xlink:href="#DejaVuSans-61" transform="translate(91.308594 0)"/>
      <use xlink:href="#DejaVuSans-72" transform="translate(152.587891 0)"/>
     </g>
    </g>
    <g id="line2d_36">
     <path d="M 815.08 343.176562 
L 825.08 343.176562 
L 835.08 343.176562 
" style="fill: none; stroke: #ff7f0e; stroke-width: 1.5; stroke-linecap: square"/>
    </g>
    <g id="text_19">
     <!-- fork -->
     <g style="fill: #a9a9a9" transform="translate(843.08 346.676562) scale(0.1 -0.1)">
      <defs>
       <path id="DejaVuSans-66" d="M 2375 4863 
L 2375 4384 
L 1825 4384 
Q 1516 4384 1395 4259 
Q 1275 4134 1275 3809 
L 1275 3500 
L 2222 3500 
L 2222 3053 
L 1275 3053 
L 1275 0 
L 697 0 
L 697 3053 
L 147 3053 
L 147 3500 
L 697 3500 
L 697 3744 
Q 697 4328 969 4595 
Q 1241 4863 1831 4863 
L 2375 4863 
z
" transform="scale(0.015625)"/>
       <path id="DejaVuSans-6b" d="M 581 4863 
L 1159 4863 
L 1159 1991 
L 2875 3500 
L 3609 3500 
L 1753 1863 
L 3688 0 
L 2938 0 
L 1159 1709 
L 1159 0 
L 581 0 
L 581 4863 
z
" transform="scale(0.015625)"/>
      </defs>
      <use xlink:href="#DejaVuSans-66"/>
      <use xlink:href="#DejaVuSans-6f" transform="translate(35.205078 0)"/>
      <use xlink:href="#DejaVuSans-72" transform="translate(96.386719 0)"/>
      <use xlink:href="#DejaVuSans-6b" transform="translate(137.5 0)"/>
     </g>
    </g>
   </g>
  </g>
 </g>
 <defs>
  <clipPath id="p54574e3918">
   <rect x="108" y="43.2" width="669.6" height="277.2"/>
  </clipPath>
 </defs>
</svg>
