<?xml version="1.0" encoding="utf-8" standalone="no"?>
<!DOCTYPE svg PUBLIC "-//W3C//DTD SVG 1.1//EN"
  "http://www.w3.org/Graphics/SVG/1.1/DTD/svg11.dtd">
<svg xmlns:xlink="http://www.w3.org/1999/xlink" width="864pt" height="360pt" viewBox="0 0 864 360" xmlns="http://www.w3.org/2000/svg" version="1.1">
 <metadata>
  <rdf:RDF xmlns:dc="http://purl.org/dc/elements/1.1/" xmlns:cc="http://creativecommons.org/ns#" xmlns:rdf="http://www.w3.org/1999/02/22-rdf-syntax-ns#">
   <cc:Work>
    <dc:type rdf:resource="http://purl.org/dc/dcmitype/StillImage"/>
    <dc:date>2025-03-17T20:06:24.692520</dc:date>
    <dc:format>image/svg+xml</dc:format>
    <dc:creator>
     <cc:Agent>
      <dc:title>Matplotlib v3.10.1, https://matplotlib.org/</dc:title>
     </cc:Agent>
    </dc:creator>
   </cc:Work>
  </rdf:RDF>
 </metadata>
 <defs>
  <style type="text/css">*{stroke-linejoin: round; stroke-linecap: butt}</style>
 </defs>
 <g id="figure_1">
  <g id="patch_1">
   <path d="M 0 360 
L 864 360 
L 864 0 
L 0 0 
L 0 360 
z
" style="fill: none; opacity: 0"/>
  </g>
  <g id="axes_1">
   <g id="patch_2">
    <path d="M 108 320.4 
L 777.6 320.4 
L 777.6 43.2 
L 108 43.2 
L 108 320.4 
z
" style="fill: none; opacity: 0"/>
   </g>
   <g id="matplotlib.axis_1">
    <g id="xtick_1">
     <g id="line2d_1">
      <path d="M 127.925307 320.4 
L 127.925307 43.2 
" clip-path="url(#p3f10482e82)" style="fill: none; stroke-dasharray: 5.12,1.28,0.8,1.28; stroke-dashoffset: 0; stroke: #b0b0b0; stroke-width: 0.8"/>
     </g>
     <g id="line2d_2">
      <defs>
       <path id="m986ccc25aa" d="M 0 0 
L 0 3.5 
" style="stroke: #a9a9a9; stroke-width: 0.8"/>
      </defs>
      <g>
       <use xlink:href="#m986ccc25aa" x="127.925307" y="320.4" style="fill: #a9a9a9; stroke: #a9a9a9; stroke-width: 0.8"/>
      </g>
     </g>
     <g id="text_1">
      <!-- 2021-07 -->
      <g style="fill: #a9a9a9" transform="translate(107.033901 334.998438) scale(0.1 -0.1)">
       <defs>
        <path id="DejaVuSans-32" d="M 1228 531 
L 3431 531 
L 3431 0 
L 469 0 
L 469 531 
Q 828 903 1448 1529 
Q 2069 2156 2228 2338 
Q 2531 2678 2651 2914 
Q 2772 3150 2772 3378 
Q 2772 3750 2511 3984 
Q 2250 4219 1831 4219 
Q 1534 4219 1204 4116 
Q 875 4013 500 3803 
L 500 4441 
Q 881 4594 1212 4672 
Q 1544 4750 1819 4750 
Q 2544 4750 2975 4387 
Q 3406 4025 3406 3419 
Q 3406 3131 3298 2873 
Q 3191 2616 2906 2266 
Q 2828 2175 2409 1742 
Q 1991 1309 1228 531 
z
" transform="scale(0.015625)"/>
        <path id="DejaVuSans-30" d="M 2034 4250 
Q 1547 4250 1301 3770 
Q 1056 3291 1056 2328 
Q 1056 1369 1301 889 
Q 1547 409 2034 409 
Q 2525 409 2770 889 
Q 3016 1369 3016 2328 
Q 3016 3291 2770 3770 
Q 2525 4250 2034 4250 
z
M 2034 4750 
Q 2819 4750 3233 4129 
Q 3647 3509 3647 2328 
Q 3647 1150 3233 529 
Q 2819 -91 2034 -91 
Q 1250 -91 836 529 
Q 422 1150 422 2328 
Q 422 3509 836 4129 
Q 1250 4750 2034 4750 
z
" transform="scale(0.015625)"/>
        <path id="DejaVuSans-31" d="M 794 531 
L 1825 531 
L 1825 4091 
L 703 3866 
L 703 4441 
L 1819 4666 
L 2450 4666 
L 2450 531 
L 3481 531 
L 3481 0 
L 794 0 
L 794 531 
z
" transform="scale(0.015625)"/>
        <path id="DejaVuSans-2d" d="M 313 2009 
L 1997 2009 
L 1997 1497 
L 313 1497 
L 313 2009 
z
" transform="scale(0.015625)"/>
        <path id="DejaVuSans-37" d="M 525 4666 
L 3525 4666 
L 3525 4397 
L 1831 0 
L 1172 0 
L 2766 4134 
L 525 4134 
L 525 4666 
z
" transform="scale(0.015625)"/>
       </defs>
       <use xlink:href="#DejaVuSans-32"/>
       <use xlink:href="#DejaVuSans-30" transform="translate(63.623047 0)"/>
       <use xlink:href="#DejaVuSans-32" transform="translate(127.246094 0)"/>
       <use xlink:href="#DejaVuSans-31" transform="translate(190.869141 0)"/>
       <use xlink:href="#DejaVuSans-2d" transform="translate(254.492188 0)"/>
       <use xlink:href="#DejaVuSans-30" transform="translate(290.576172 0)"/>
       <use xlink:href="#DejaVuSans-37" transform="translate(354.199219 0)"/>
      </g>
     </g>
    </g>
    <g id="xtick_2">
     <g id="line2d_3">
      <path d="M 212.013759 320.4 
L 212.013759 43.2 
" clip-path="url(#p3f10482e82)" style="fill: none; stroke-dasharray: 5.12,1.28,0.8,1.28; stroke-dashoffset: 0; stroke: #b0b0b0; stroke-width: 0.8"/>
     </g>
     <g id="line2d_4">
      <g>
       <use xlink:href="#m986ccc25aa" x="212.013759" y="320.4" style="fill: #a9a9a9; stroke: #a9a9a9; stroke-width: 0.8"/>
      </g>
     </g>
     <g id="text_2">
      <!-- 2022-01 -->
      <g style="fill: #a9a9a9" transform="translate(191.122353 334.998438) scale(0.1 -0.1)">
       <use xlink:href="#DejaVuSans-32"/>
       <use xlink:href="#DejaVuSans-30" transform="translate(63.623047 0)"/>
       <use xlink:href="#DejaVuSans-32" transform="translate(127.246094 0)"/>
       <use xlink:href="#DejaVuSans-32" transform="translate(190.869141 0)"/>
       <use xlink:href="#DejaVuSans-2d" transform="translate(254.492188 0)"/>
       <use xlink:href="#DejaVuSans-30" transform="translate(290.576172 0)"/>
       <use xlink:href="#DejaVuSans-31" transform="translate(354.199219 0)"/>
      </g>
     </g>
    </g>
    <g id="xtick_3">
     <g id="line2d_5">
      <path d="M 294.731204 320.4 
L 294.731204 43.2 
" clip-path="url(#p3f10482e82)" style="fill: none; stroke-dasharray: 5.12,1.28,0.8,1.28; stroke-dashoffset: 0; stroke: #b0b0b0; stroke-width: 0.8"/>
     </g>
     <g id="line2d_6">
      <g>
       <use xlink:href="#m986ccc25aa" x="294.731204" y="320.4" style="fill: #a9a9a9; stroke: #a9a9a9; stroke-width: 0.8"/>
      </g>
     </g>
     <g id="text_3">
      <!-- 2022-07 -->
      <g style="fill: #a9a9a9" transform="translate(273.839798 334.998438) scale(0.1 -0.1)">
       <use xlink:href="#DejaVuSans-32"/>
       <use xlink:href="#DejaVuSans-30" transform="translate(63.623047 0)"/>
       <use xlink:href="#DejaVuSans-32" transform="translate(127.246094 0)"/>
       <use xlink:href="#DejaVuSans-32" transform="translate(190.869141 0)"/>
       <use xlink:href="#DejaVuSans-2d" transform="translate(254.492188 0)"/>
       <use xlink:href="#DejaVuSans-30" transform="translate(290.576172 0)"/>
       <use xlink:href="#DejaVuSans-37" transform="translate(354.199219 0)"/>
      </g>
     </g>
    </g>
    <g id="xtick_4">
     <g id="line2d_7">
      <path d="M 378.819656 320.4 
L 378.819656 43.2 
" clip-path="url(#p3f10482e82)" style="fill: none; stroke-dasharray: 5.12,1.28,0.8,1.28; stroke-dashoffset: 0; stroke: #b0b0b0; stroke-width: 0.8"/>
     </g>
     <g id="line2d_8">
      <g>
       <use xlink:href="#m986ccc25aa" x="378.819656" y="320.4" style="fill: #a9a9a9; stroke: #a9a9a9; stroke-width: 0.8"/>
      </g>
     </g>
     <g id="text_4">
      <!-- 2023-01 -->
      <g style="fill: #a9a9a9" transform="translate(357.92825 334.998438) scale(0.1 -0.1)">
       <defs>
        <path id="DejaVuSans-33" d="M 2597 2516 
Q 3050 2419 3304 2112 
Q 3559 1806 3559 1356 
Q 3559 666 3084 287 
Q 2609 -91 1734 -91 
Q 1441 -91 1130 -33 
Q 819 25 488 141 
L 488 750 
Q 750 597 1062 519 
Q 1375 441 1716 441 
Q 2309 441 2620 675 
Q 2931 909 2931 1356 
Q 2931 1769 2642 2001 
Q 2353 2234 1838 2234 
L 1294 2234 
L 1294 2753 
L 1863 2753 
Q 2328 2753 2575 2939 
Q 2822 3125 2822 3475 
Q 2822 3834 2567 4026 
Q 2313 4219 1838 4219 
Q 1578 4219 1281 4162 
Q 984 4106 628 3988 
L 628 4550 
Q 988 4650 1302 4700 
Q 1616 4750 1894 4750 
Q 2613 4750 3031 4423 
Q 3450 4097 3450 3541 
Q 3450 3153 3228 2886 
Q 3006 2619 2597 2516 
z
" transform="scale(0.015625)"/>
       </defs>
       <use xlink:href="#DejaVuSans-32"/>
       <use xlink:href="#DejaVuSans-30" transform="translate(63.623047 0)"/>
       <use xlink:href="#DejaVuSans-32" transform="translate(127.246094 0)"/>
       <use xlink:href="#DejaVuSans-33" transform="translate(190.869141 0)"/>
       <use xlink:href="#DejaVuSans-2d" transform="translate(254.492188 0)"/>
       <use xlink:href="#DejaVuSans-30" transform="translate(290.576172 0)"/>
       <use xlink:href="#DejaVuSans-31" transform="translate(354.199219 0)"/>
      </g>
     </g>
    </g>
    <g id="xtick_5">
     <g id="line2d_9">
      <path d="M 461.537101 320.4 
L 461.537101 43.2 
" clip-path="url(#p3f10482e82)" style="fill: none; stroke-dasharray: 5.12,1.28,0.8,1.28; stroke-dashoffset: 0; stroke: #b0b0b0; stroke-width: 0.8"/>
     </g>
     <g id="line2d_10">
      <g>
       <use xlink:href="#m986ccc25aa" x="461.537101" y="320.4" style="fill: #a9a9a9; stroke: #a9a9a9; stroke-width: 0.8"/>
      </g>
     </g>
     <g id="text_5">
      <!-- 2023-07 -->
      <g style="fill: #a9a9a9" transform="translate(440.645694 334.998438) scale(0.1 -0.1)">
       <use xlink:href="#DejaVuSans-32"/>
       <use xlink:href="#DejaVuSans-30" transform="translate(63.623047 0)"/>
       <use xlink:href="#DejaVuSans-32" transform="translate(127.246094 0)"/>
       <use xlink:href="#DejaVuSans-33" transform="translate(190.869141 0)"/>
       <use xlink:href="#DejaVuSans-2d" transform="translate(254.492188 0)"/>
       <use xlink:href="#DejaVuSans-30" transform="translate(290.576172 0)"/>
       <use xlink:href="#DejaVuSans-37" transform="translate(354.199219 0)"/>
      </g>
     </g>
    </g>
    <g id="xtick_6">
     <g id="line2d_11">
      <path d="M 545.625553 320.4 
L 545.625553 43.2 
" clip-path="url(#p3f10482e82)" style="fill: none; stroke-dasharray: 5.12,1.28,0.8,1.28; stroke-dashoffset: 0; stroke: #b0b0b0; stroke-width: 0.8"/>
     </g>
     <g id="line2d_12">
      <g>
       <use xlink:href="#m986ccc25aa" x="545.625553" y="320.4" style="fill: #a9a9a9; stroke: #a9a9a9; stroke-width: 0.8"/>
      </g>
     </g>
     <g id="text_6">
      <!-- 2024-01 -->
      <g style="fill: #a9a9a9" transform="translate(524.734147 334.998438) scale(0.1 -0.1)">
       <defs>
        <path id="DejaVuSans-34" d="M 2419 4116 
L 825 1625 
L 2419 1625 
L 2419 4116 
z
M 2253 4666 
L 3047 4666 
L 3047 1625 
L 3713 1625 
L 3713 1100 
L 3047 1100 
L 3047 0 
L 2419 0 
L 2419 1100 
L 313 1100 
L 313 1709 
L 2253 4666 
z
" transform="scale(0.015625)"/>
       </defs>
       <use xlink:href="#DejaVuSans-32"/>
       <use xlink:href="#DejaVuSans-30" transform="translate(63.623047 0)"/>
       <use xlink:href="#DejaVuSans-32" transform="translate(127.246094 0)"/>
       <use xlink:href="#DejaVuSans-34" transform="translate(190.869141 0)"/>
       <use xlink:href="#DejaVuSans-2d" transform="translate(254.492188 0)"/>
       <use xlink:href="#DejaVuSans-30" transform="translate(290.576172 0)"/>
       <use xlink:href="#DejaVuSans-31" transform="translate(354.199219 0)"/>
      </g>
     </g>
    </g>
    <g id="xtick_7">
     <g id="line2d_13">
      <path d="M 628.8 320.4 
L 628.8 43.2 
" clip-path="url(#p3f10482e82)" style="fill: none; stroke-dasharray: 5.12,1.28,0.8,1.28; stroke-dashoffset: 0; stroke: #b0b0b0; stroke-width: 0.8"/>
     </g>
     <g id="line2d_14">
      <g>
       <use xlink:href="#m986ccc25aa" x="628.8" y="320.4" style="fill: #a9a9a9; stroke: #a9a9a9; stroke-width: 0.8"/>
      </g>
     </g>
     <g id="text_7">
      <!-- 2024-07 -->
      <g style="fill: #a9a9a9" transform="translate(607.908594 334.998438) scale(0.1 -0.1)">
       <use xlink:href="#DejaVuSans-32"/>
       <use xlink:href="#DejaVuSans-30" transform="translate(63.623047 0)"/>
       <use xlink:href="#DejaVuSans-32" transform="translate(127.246094 0)"/>
       <use xlink:href="#DejaVuSans-34" transform="translate(190.869141 0)"/>
       <use xlink:href="#DejaVuSans-2d" transform="translate(254.492188 0)"/>
       <use xlink:href="#DejaVuSans-30" transform="translate(290.576172 0)"/>
       <use xlink:href="#DejaVuSans-37" transform="translate(354.199219 0)"/>
      </g>
     </g>
    </g>
    <g id="xtick_8">
     <g id="line2d_15">
      <path d="M 712.888452 320.4 
L 712.888452 43.2 
" clip-path="url(#p3f10482e82)" style="fill: none; stroke-dasharray: 5.12,1.28,0.8,1.28; stroke-dashoffset: 0; stroke: #b0b0b0; stroke-width: 0.8"/>
     </g>
     <g id="line2d_16">
      <g>
       <use xlink:href="#m986ccc25aa" x="712.888452" y="320.4" style="fill: #a9a9a9; stroke: #a9a9a9; stroke-width: 0.8"/>
      </g>
     </g>
     <g id="text_8">
      <!-- 2025-01 -->
      <g style="fill: #a9a9a9" transform="translate(691.997046 334.998438) scale(0.1 -0.1)">
       <defs>
        <path id="DejaVuSans-35" d="M 691 4666 
L 3169 4666 
L 3169 4134 
L 1269 4134 
L 1269 2991 
Q 1406 3038 1543 3061 
Q 1681 3084 1819 3084 
Q 2600 3084 3056 2656 
Q 3513 2228 3513 1497 
Q 3513 744 3044 326 
Q 2575 -91 1722 -91 
Q 1428 -91 1123 -41 
Q 819 9 494 109 
L 494 744 
Q 775 591 1075 516 
Q 1375 441 1709 441 
Q 2250 441 2565 725 
Q 2881 1009 2881 1497 
Q 2881 1984 2565 2268 
Q 2250 2553 1709 2553 
Q 1456 2553 1204 2497 
Q 953 2441 691 2322 
L 691 4666 
z
" transform="scale(0.015625)"/>
       </defs>
       <use xlink:href="#DejaVuSans-32"/>
       <use xlink:href="#DejaVuSans-30" transform="translate(63.623047 0)"/>
       <use xlink:href="#DejaVuSans-32" transform="translate(127.246094 0)"/>
       <use xlink:href="#DejaVuSans-35" transform="translate(190.869141 0)"/>
       <use xlink:href="#DejaVuSans-2d" transform="translate(254.492188 0)"/>
       <use xlink:href="#DejaVuSans-30" transform="translate(290.576172 0)"/>
       <use xlink:href="#DejaVuSans-31" transform="translate(354.199219 0)"/>
      </g>
     </g>
    </g>
   </g>
   <g id="matplotlib.axis_2">
    <g id="ytick_1">
     <g id="line2d_17">
      <path d="M 108 307.833967 
L 777.6 307.833967 
" clip-path="url(#p3f10482e82)" style="fill: none; stroke-dasharray: 5.12,1.28,0.8,1.28; stroke-dashoffset: 0; stroke: #b0b0b0; stroke-width: 0.8"/>
     </g>
     <g id="line2d_18">
      <defs>
       <path id="m54d4d72218" d="M 0 0 
L -3.5 0 
" style="stroke: #a9a9a9; stroke-width: 0.8"/>
      </defs>
      <g>
       <use xlink:href="#m54d4d72218" x="108" y="307.833967" style="fill: #a9a9a9; stroke: #a9a9a9; stroke-width: 0.8"/>
      </g>
     </g>
     <g id="text_9">
      <!-- 0 -->
      <g style="fill: #a9a9a9" transform="translate(94.6375 311.633186) scale(0.1 -0.1)">
       <use xlink:href="#DejaVuSans-30"/>
      </g>
     </g>
    </g>
    <g id="ytick_2">
     <g id="line2d_19">
      <path d="M 108 273.867125 
L 777.6 273.867125 
" clip-path="url(#p3f10482e82)" style="fill: none; stroke-dasharray: 5.12,1.28,0.8,1.28; stroke-dashoffset: 0; stroke: #b0b0b0; stroke-width: 0.8"/>
     </g>
     <g id="line2d_20">
      <g>
       <use xlink:href="#m54d4d72218" x="108" y="273.867125" style="fill: #a9a9a9; stroke: #a9a9a9; stroke-width: 0.8"/>
      </g>
     </g>
     <g id="text_10">
      <!-- 1000 -->
      <g style="fill: #a9a9a9" transform="translate(75.55 277.666344) scale(0.1 -0.1)">
       <use xlink:href="#DejaVuSans-31"/>
       <use xlink:href="#DejaVuSans-30" transform="translate(63.623047 0)"/>
       <use xlink:href="#DejaVuSans-30" transform="translate(127.246094 0)"/>
       <use xlink:href="#DejaVuSans-30" transform="translate(190.869141 0)"/>
      </g>
     </g>
    </g>
    <g id="ytick_3">
     <g id="line2d_21">
      <path d="M 108 239.900283 
L 777.6 239.900283 
" clip-path="url(#p3f10482e82)" style="fill: none; stroke-dasharray: 5.12,1.28,0.8,1.28; stroke-dashoffset: 0; stroke: #b0b0b0; stroke-width: 0.8"/>
     </g>
     <g id="line2d_22">
      <g>
       <use xlink:href="#m54d4d72218" x="108" y="239.900283" style="fill: #a9a9a9; stroke: #a9a9a9; stroke-width: 0.8"/>
      </g>
     </g>
     <g id="text_11">
      <!-- 2000 -->
      <g style="fill: #a9a9a9" transform="translate(75.55 243.699502) scale(0.1 -0.1)">
       <use xlink:href="#DejaVuSans-32"/>
       <use xlink:href="#DejaVuSans-30" transform="translate(63.623047 0)"/>
       <use xlink:href="#DejaVuSans-30" transform="translate(127.246094 0)"/>
       <use xlink:href="#DejaVuSans-30" transform="translate(190.869141 0)"/>
      </g>
     </g>
    </g>
    <g id="ytick_4">
     <g id="line2d_23">
      <path d="M 108 205.933441 
L 777.6 205.933441 
" clip-path="url(#p3f10482e82)" style="fill: none; stroke-dasharray: 5.12,1.28,0.8,1.28; stroke-dashoffset: 0; stroke: #b0b0b0; stroke-width: 0.8"/>
     </g>
     <g id="line2d_24">
      <g>
       <use xlink:href="#m54d4d72218" x="108" y="205.933441" style="fill: #a9a9a9; stroke: #a9a9a9; stroke-width: 0.8"/>
      </g>
     </g>
     <g id="text_12">
      <!-- 3000 -->
      <g style="fill: #a9a9a9" transform="translate(75.55 209.73266) scale(0.1 -0.1)">
       <use xlink:href="#DejaVuSans-33"/>
       <use xlink:href="#DejaVuSans-30" transform="translate(63.623047 0)"/>
       <use xlink:href="#DejaVuSans-30" transform="translate(127.246094 0)"/>
       <use xlink:href="#DejaVuSans-30" transform="translate(190.869141 0)"/>
      </g>
     </g>
    </g>
    <g id="ytick_5">
     <g id="line2d_25">
      <path d="M 108 171.966599 
L 777.6 171.966599 
" clip-path="url(#p3f10482e82)" style="fill: none; stroke-dasharray: 5.12,1.28,0.8,1.28; stroke-dashoffset: 0; stroke: #b0b0b0; stroke-width: 0.8"/>
     </g>
     <g id="line2d_26">
      <g>
       <use xlink:href="#m54d4d72218" x="108" y="171.966599" style="fill: #a9a9a9; stroke: #a9a9a9; stroke-width: 0.8"/>
      </g>
     </g>
     <g id="text_13">
      <!-- 4000 -->
      <g style="fill: #a9a9a9" transform="translate(75.55 175.765818) scale(0.1 -0.1)">
       <use xlink:href="#DejaVuSans-34"/>
       <use xlink:href="#DejaVuSans-30" transform="translate(63.623047 0)"/>
       <use xlink:href="#DejaVuSans-30" transform="translate(127.246094 0)"/>
       <use xlink:href="#DejaVuSans-30" transform="translate(190.869141 0)"/>
      </g>
     </g>
    </g>
    <g id="ytick_6">
     <g id="line2d_27">
      <path d="M 108 137.999757 
L 777.6 137.999757 
" clip-path="url(#p3f10482e82)" style="fill: none; stroke-dasharray: 5.12,1.28,0.8,1.28; stroke-dashoffset: 0; stroke: #b0b0b0; stroke-width: 0.8"/>
     </g>
     <g id="line2d_28">
      <g>
       <use xlink:href="#m54d4d72218" x="108" y="137.999757" style="fill: #a9a9a9; stroke: #a9a9a9; stroke-width: 0.8"/>
      </g>
     </g>
     <g id="text_14">
      <!-- 5000 -->
      <g style="fill: #a9a9a9" transform="translate(75.55 141.798976) scale(0.1 -0.1)">
       <use xlink:href="#DejaVuSans-35"/>
       <use xlink:href="#DejaVuSans-30" transform="translate(63.623047 0)"/>
       <use xlink:href="#DejaVuSans-30" transform="translate(127.246094 0)"/>
       <use xlink:href="#DejaVuSans-30" transform="translate(190.869141 0)"/>
      </g>
     </g>
    </g>
    <g id="ytick_7">
     <g id="line2d_29">
      <path d="M 108 104.032915 
L 777.6 104.032915 
" clip-path="url(#p3f10482e82)" style="fill: none; stroke-dasharray: 5.12,1.28,0.8,1.28; stroke-dashoffset: 0; stroke: #b0b0b0; stroke-width: 0.8"/>
     </g>
     <g id="line2d_30">
      <g>
       <use xlink:href="#m54d4d72218" x="108" y="104.032915" style="fill: #a9a9a9; stroke: #a9a9a9; stroke-width: 0.8"/>
      </g>
     </g>
     <g id="text_15">
      <!-- 6000 -->
      <g style="fill: #a9a9a9" transform="translate(75.55 107.832134) scale(0.1 -0.1)">
       <defs>
        <path id="DejaVuSans-36" d="M 2113 2584 
Q 1688 2584 1439 2293 
Q 1191 2003 1191 1497 
Q 1191 994 1439 701 
Q 1688 409 2113 409 
Q 2538 409 2786 701 
Q 3034 994 3034 1497 
Q 3034 2003 2786 2293 
Q 2538 2584 2113 2584 
z
M 3366 4563 
L 3366 3988 
Q 3128 4100 2886 4159 
Q 2644 4219 2406 4219 
Q 1781 4219 1451 3797 
Q 1122 3375 1075 2522 
Q 1259 2794 1537 2939 
Q 1816 3084 2150 3084 
Q 2853 3084 3261 2657 
Q 3669 2231 3669 1497 
Q 3669 778 3244 343 
Q 2819 -91 2113 -91 
Q 1303 -91 875 529 
Q 447 1150 447 2328 
Q 447 3434 972 4092 
Q 1497 4750 2381 4750 
Q 2619 4750 2861 4703 
Q 3103 4656 3366 4563 
z
" transform="scale(0.015625)"/>
       </defs>
       <use xlink:href="#DejaVuSans-36"/>
       <use xlink:href="#DejaVuSans-30" transform="translate(63.623047 0)"/>
       <use xlink:href="#DejaVuSans-30" transform="translate(127.246094 0)"/>
       <use xlink:href="#DejaVuSans-30" transform="translate(190.869141 0)"/>
      </g>
     </g>
    </g>
    <g id="ytick_8">
     <g id="line2d_31">
      <path d="M 108 70.066074 
L 777.6 70.066074 
" clip-path="url(#p3f10482e82)" style="fill: none; stroke-dasharray: 5.12,1.28,0.8,1.28; stroke-dashoffset: 0; stroke: #b0b0b0; stroke-width: 0.8"/>
     </g>
     <g id="line2d_32">
      <g>
       <use xlink:href="#m54d4d72218" x="108" y="70.066074" style="fill: #a9a9a9; stroke: #a9a9a9; stroke-width: 0.8"/>
      </g>
     </g>
     <g id="text_16">
      <!-- 7000 -->
      <g style="fill: #a9a9a9" transform="translate(75.55 73.865292) scale(0.1 -0.1)">
       <use xlink:href="#DejaVuSans-37"/>
       <use xlink:href="#DejaVuSans-30" transform="translate(63.623047 0)"/>
       <use xlink:href="#DejaVuSans-30" transform="translate(127.246094 0)"/>
       <use xlink:href="#DejaVuSans-30" transform="translate(190.869141 0)"/>
      </g>
     </g>
    </g>
   </g>
   <g id="line2d_33">
    <path d="M 138.436364 307.732066 
L 141.178378 307.494298 
L 141.635381 307.290497 
L 143.463391 307.052729 
L 145.2914 306.679094 
L 146.205405 306.543227 
L 148.490418 306.339426 
L 149.404423 305.965791 
L 149.861425 305.354387 
L 150.318428 305.048686 
L 150.77543 303.995714 
L 151.232432 303.92778 
L 151.689435 303.554145 
L 152.60344 303.078609 
L 154.43145 301.584068 
L 156.259459 300.666963 
L 157.630467 300.021593 
L 158.087469 299.274323 
L 159.001474 298.594986 
L 159.458477 298.391185 
L 164.028501 297.711848 
L 164.485504 297.508047 
L 167.684521 297.236312 
L 169.512531 296.794743 
L 173.16855 296.285241 
L 173.625553 296.047473 
L 174.082555 295.979539 
L 174.99656 295.673837 
L 178.195577 295.130368 
L 179.109582 294.858633 
L 183.222604 294.14533 
L 184.136609 293.941529 
L 185.050614 293.907562 
L 186.878624 293.465993 
L 187.335627 292.820623 
L 188.706634 292.277153 
L 190.077641 291.903518 
L 190.534644 291.66575 
L 191.448649 291.495916 
L 193.276658 290.952446 
L 194.190663 290.884513 
L 195.104668 290.646745 
L 196.932678 290.171209 
L 197.389681 290.137242 
L 198.303686 289.695673 
L 198.760688 289.62774 
L 199.21769 289.389972 
L 204.244717 288.540801 
L 206.072727 287.997331 
L 206.52973 287.69163 
L 208.814742 286.944359 
L 209.728747 286.298989 
L 211.099754 286.027254 
L 221.153808 283.072139 
L 221.610811 283.038172 
L 222.981818 282.63057 
L 223.438821 282.63057 
L 223.895823 282.426769 
L 224.809828 282.324869 
L 225.26683 282.155034 
L 227.09484 282.087101 
L 228.008845 281.917266 
L 228.92285 281.441731 
L 230.293857 280.932228 
L 230.75086 280.626526 
L 231.664865 280.218924 
L 232.121867 279.981156 
L 233.035872 279.675455 
L 233.492875 279.539588 
L 234.40688 278.962151 
L 234.863882 278.452649 
L 235.777887 277.026041 
L 236.234889 276.890174 
L 236.691892 276.890174 
L 238.062899 276.07497 
L 238.519902 275.837202 
L 238.976904 275.735301 
L 239.433907 275.293732 
L 240.347912 274.920097 
L 241.261916 274.478528 
L 243.546929 271.523413 
L 246.288943 270.028872 
L 247.202948 269.281601 
L 247.659951 268.9759 
L 248.116953 268.33053 
L 248.573956 267.277558 
L 249.030958 266.564254 
L 249.487961 266.190619 
L 249.944963 265.986818 
L 253.600983 262.590133 
L 254.514988 261.740962 
L 257.257002 260.008653 
L 257.714005 259.838819 
L 259.085012 259.023615 
L 260.45602 258.10651 
L 262.284029 256.442135 
L 263.198034 256.0685 
L 264.112039 255.42313 
L 264.569042 255.151395 
L 265.026044 255.083461 
L 266.397052 254.302224 
L 266.854054 253.792721 
L 269.139066 252.535948 
L 269.596069 252.366114 
L 270.967076 251.415042 
L 277.822113 248.96943 
L 278.736118 248.120259 
L 280.107125 247.440922 
L 281.02113 246.863486 
L 281.935135 246.591751 
L 282.392138 246.286049 
L 282.84914 246.150182 
L 284.220147 245.233077 
L 286.50516 244.689608 
L 287.876167 243.874404 
L 289.247174 243.568702 
L 289.704177 243.466801 
L 291.075184 242.413829 
L 292.903194 241.904327 
L 293.360197 241.530691 
L 296.102211 240.57962 
L 297.016216 240.409786 
L 297.930221 240.03615 
L 301.129238 238.847311 
L 302.043243 238.711444 
L 303.414251 238.235908 
L 305.699263 237.115002 
L 307.527273 236.095997 
L 311.183292 234.567489 
L 311.640295 234.499555 
L 312.5543 233.922119 
L 313.468305 233.684351 
L 314.839312 233.140882 
L 316.667322 232.903114 
L 317.581327 232.427578 
L 318.038329 232.019976 
L 318.495332 231.170805 
L 320.323342 230.661302 
L 321.694349 229.947998 
L 322.608354 229.642297 
L 323.522359 229.166761 
L 326.264373 228.045855 
L 327.178378 227.842054 
L 328.092383 227.366518 
L 328.549386 227.162717 
L 329.006388 227.094784 
L 331.2914 225.973878 
L 332.205405 225.396442 
L 333.576413 225.124707 
L 335.404423 224.615204 
L 335.861425 224.581237 
L 336.318428 224.207602 
L 337.232432 223.901901 
L 339.517445 222.984796 
L 339.974447 222.645127 
L 340.43145 222.475293 
L 341.345455 221.965791 
L 343.173464 221.388354 
L 344.087469 220.810918 
L 344.544472 220.335382 
L 345.001474 220.063647 
L 345.458477 219.961747 
L 346.372482 219.214476 
L 346.829484 219.146543 
L 347.286486 218.399272 
L 347.743489 218.195471 
L 348.200491 217.821836 
L 348.657494 217.753902 
L 349.571499 217.176466 
L 350.485504 216.870764 
L 350.942506 216.531096 
L 351.399509 216.361262 
L 353.227518 215.138455 
L 354.598526 214.425152 
L 355.512531 214.187384 
L 356.426536 213.677881 
L 356.883538 212.896644 
L 357.797543 212.217307 
L 358.254545 212.115406 
L 360.99656 210.7907 
L 361.910565 210.417064 
L 363.281572 209.262192 
L 364.195577 208.480954 
L 365.109582 207.937485 
L 365.566585 207.427982 
L 366.023587 207.122281 
L 366.937592 206.37501 
L 367.394595 206.171209 
L 368.3086 205.254104 
L 369.222604 204.948403 
L 370.136609 204.337 
L 371.507617 203.623696 
L 371.964619 203.555762 
L 373.335627 202.808492 
L 374.249631 202.231055 
L 378.819656 200.532713 
L 379.276658 200.159078 
L 381.104668 199.445774 
L 381.561671 199.309907 
L 382.475676 198.698504 
L 383.389681 198.290902 
L 384.303686 197.645532 
L 385.21769 195.811322 
L 386.131695 194.724383 
L 387.502703 194.01108 
L 388.416708 193.637444 
L 388.87371 193.569511 
L 389.330713 193.297776 
L 391.615725 192.550505 
L 392.072727 192.346704 
L 392.986732 191.701334 
L 394.35774 191.123898 
L 395.271744 190.614395 
L 396.185749 190.070926 
L 396.642752 189.765224 
L 397.099754 189.255722 
L 398.013759 188.746219 
L 400.298771 187.489446 
L 403.040786 186.096805 
L 404.411794 185.689203 
L 405.782801 185.145734 
L 406.239803 184.806066 
L 407.153808 184.534331 
L 408.067813 184.160696 
L 408.524816 183.78706 
L 410.352826 183.14169 
L 411.26683 182.462353 
L 412.180835 182.088718 
L 413.09484 181.375414 
L 414.008845 181.10368 
L 414.465848 180.696078 
L 414.92285 180.628144 
L 415.836855 179.91484 
L 416.75086 179.439304 
L 417.207862 179.235503 
L 417.664865 178.759968 
L 420.863882 177.469228 
L 421.777887 177.061626 
L 423.148894 176.620057 
L 424.062899 176.484189 
L 424.519902 176.280388 
L 424.976904 176.212455 
L 425.890909 175.804852 
L 426.347912 175.770886 
L 428.175921 175.091549 
L 429.546929 174.10651 
L 430.003931 173.936676 
L 430.917936 173.427173 
L 431.374939 173.291306 
L 434.116953 171.728831 
L 434.573956 171.626931 
L 435.944963 170.811727 
L 437.315971 170.336191 
L 438.229975 170.030489 
L 440.057985 169.419086 
L 440.97199 169.113385 
L 442.8 168.739749 
L 443.257002 168.535948 
L 443.714005 168.468015 
L 444.62801 168.060412 
L 445.085012 167.992479 
L 445.542015 167.754711 
L 446.45602 167.584877 
L 447.827027 167.075374 
L 448.741032 166.973474 
L 450.112039 166.667772 
L 452.397052 166.26017 
L 464.279115 162.727618 
L 464.736118 162.252082 
L 465.650123 161.878447 
L 469.306143 160.485807 
L 469.763145 160.214072 
L 471.134152 159.80647 
L 472.048157 159.568702 
L 472.50516 159.263 
L 472.962162 159.1611 
L 473.419165 158.753498 
L 474.790172 158.481763 
L 475.704177 158.040194 
L 476.161179 157.496725 
L 477.989189 157.055156 
L 481.188206 156.375819 
L 481.645209 156.375819 
L 482.102211 156.172018 
L 483.930221 155.832349 
L 484.387224 155.628548 
L 486.215233 155.28888 
L 487.129238 154.881278 
L 488.043243 154.711444 
L 490.328256 154.134007 
L 492.156265 153.556571 
L 492.613268 153.45467 
L 493.07027 153.216903 
L 493.984275 152.979135 
L 494.89828 152.605499 
L 495.812285 152.265831 
L 496.269287 151.960129 
L 497.183292 151.688395 
L 500.839312 150.431622 
L 501.753317 150.363688 
L 503.581327 149.820218 
L 504.038329 149.548484 
L 504.952334 149.276749 
L 507.237346 148.223777 
L 507.694349 148.18981 
L 512.721376 146.389567 
L 515.006388 145.778164 
L 515.920393 145.336595 
L 517.2914 145.030894 
L 519.11941 143.536353 
L 520.033415 143.264618 
L 520.490418 142.890983 
L 523.232432 141.838011 
L 523.689435 141.532309 
L 524.60344 141.260574 
L 525.060442 140.954873 
L 527.345455 140.207602 
L 528.716462 139.426365 
L 529.173464 139.324464 
L 531.458477 138.067691 
L 532.829484 137.456288 
L 533.286486 137.116619 
L 534.200491 136.810918 
L 536.485504 135.656045 
L 537.856511 135.18051 
L 539.684521 134.433239 
L 541.055528 133.923736 
L 541.512531 133.753902 
L 542.426536 133.618035 
L 542.883538 133.312333 
L 544.711548 132.938698 
L 545.625553 132.565063 
L 547.453563 131.715892 
L 553.851597 128.930611 
L 555.222604 128.489042 
L 555.679607 128.18334 
L 556.593612 128.08144 
L 557.050614 127.775738 
L 557.964619 127.605904 
L 558.878624 127.164335 
L 559.335627 126.960534 
L 559.792629 126.8926 
L 560.706634 126.586899 
L 563.905651 125.465993 
L 565.276658 125.160291 
L 567.104668 124.379054 
L 568.018673 123.869551 
L 569.846683 122.952446 
L 570.760688 122.748645 
L 571.21769 122.476911 
L 571.674693 122.37501 
L 573.0457 121.593773 
L 573.959705 121.220137 
L 575.787715 120.506834 
L 578.072727 119.725596 
L 578.986732 119.250061 
L 581.271744 118.468823 
L 584.013759 117.347918 
L 585.841769 116.498746 
L 590.411794 114.732471 
L 590.868796 114.426769 
L 592.696806 113.815366 
L 593.153808 113.815366 
L 594.067813 113.407764 
L 595.895823 111.913223 
L 596.352826 111.777355 
L 596.809828 111.505621 
L 597.26683 111.40372 
L 597.723833 111.165952 
L 598.180835 111.098019 
L 598.637838 110.75835 
L 599.09484 110.65645 
L 600.008845 110.079013 
L 601.379853 109.36571 
L 602.293857 108.992074 
L 602.75086 108.754307 
L 604.121867 108.448605 
L 606.40688 107.667368 
L 607.320885 107.361666 
L 608.691892 106.648362 
L 609.605897 106.206793 
L 610.519902 105.969025 
L 611.890909 105.323655 
L 616.003931 103.795148 
L 617.374939 102.945977 
L 617.831941 102.844076 
L 618.745946 102.402507 
L 619.659951 102.062839 
L 620.116953 101.655237 
L 621.030958 101.281601 
L 622.401966 100.806066 
L 622.858968 100.43243 
L 623.315971 100.398463 
L 624.229975 100.126729 
L 625.14398 99.821027 
L 625.600983 99.617226 
L 626.057985 99.549292 
L 627.428993 99.03979 
L 628.8 98.530287 
L 630.62801 97.715083 
L 631.085012 97.647149 
L 634.741032 96.118641 
L 636.112039 95.677072 
L 637.026044 95.609139 
L 637.940049 95.235503 
L 640.682064 94.420299 
L 641.596069 94.386332 
L 645.252088 93.197493 
L 646.166093 92.68799 
L 646.623096 92.280388 
L 647.994103 91.465184 
L 648.908108 90.921715 
L 651.650123 90.038577 
L 652.107125 89.664941 
L 654.84914 88.510069 
L 656.67715 88.000566 
L 657.591155 87.592964 
L 658.048157 87.355196 
L 658.962162 87.083461 
L 659.419165 86.811727 
L 660.33317 86.641892 
L 663.989189 85.079418 
L 664.446192 85.011484 
L 664.903194 84.705782 
L 665.360197 84.535948 
L 665.817199 84.128346 
L 666.274201 84.060412 
L 668.102211 83.347109 
L 669.930221 82.90554 
L 670.387224 82.837606 
L 670.844226 82.633805 
L 671.301229 82.599838 
L 672.215233 82.294137 
L 672.672236 82.26017 
L 674.043243 81.7167 
L 675.871253 81.173231 
L 676.785258 80.493894 
L 678.613268 79.474889 
L 679.984275 78.999353 
L 683.640295 77.267044 
L 684.097297 77.029276 
L 684.5543 76.587707 
L 686.839312 75.976304 
L 688.210319 75.364901 
L 689.124324 75.127133 
L 689.581327 74.889365 
L 690.038329 74.51573 
L 691.866339 74.040194 
L 692.323342 73.700526 
L 698.264373 71.526648 
L 699.178378 71.356814 
L 701.463391 70.64351 
L 702.377396 70.269875 
L 703.2914 69.930206 
L 704.205405 69.692438 
L 704.662408 69.488637 
L 705.11941 69.488637 
L 706.033415 69.115002 
L 706.94742 68.571533 
L 709.232432 67.790295 
L 710.60344 67.314759 
L 711.060442 67.246826 
L 711.974447 66.87319 
L 713.345455 66.567489 
L 714.716462 66.12592 
L 715.173464 66.024019 
L 715.630467 65.718318 
L 716.544472 65.514517 
L 725.684521 62.89907 
L 727.969533 62.491468 
L 728.883538 62.049899 
L 729.797543 61.60833 
L 731.16855 61.200728 
L 735.738575 59.468419 
L 736.195577 59.128751 
L 737.566585 58.823049 
L 738.48059 58.551314 
L 739.394595 58.075778 
L 739.851597 57.668176 
L 740.765602 57.362475 
L 741.222604 57.09074 
L 742.136609 56.988839 
L 745.335627 56.105702 
L 747.163636 55.8 
L 747.163636 55.8 
" clip-path="url(#p3f10482e82)" style="fill: none; stroke: #1f77b4; stroke-width: 1.5; stroke-linecap: square"/>
   </g>
   <g id="line2d_34">
    <path d="M 138.893366 307.8 
L 143.006388 307.698099 
L 146.662408 307.528265 
L 148.490418 307.528265 
L 148.94742 307.392398 
L 151.232432 307.290497 
L 153.974447 306.984796 
L 156.716462 306.882895 
L 157.630467 306.780995 
L 160.829484 306.645127 
L 164.028501 306.543227 
L 166.313514 306.475293 
L 172.254545 306.373393 
L 174.539558 306.305459 
L 177.738575 306.203558 
L 180.023587 306.135625 
L 185.050614 306.033724 
L 186.878624 305.86389 
L 188.706634 305.829923 
L 191.448649 305.728023 
L 193.276658 305.694056 
L 195.561671 305.626122 
L 197.389681 305.456288 
L 201.502703 305.354387 
L 202.416708 305.286454 
L 204.244717 305.184553 
L 206.986732 305.082653 
L 208.814742 304.980752 
L 217.040786 304.471249 
L 220.239803 304.369349 
L 221.610811 304.233482 
L 223.895823 304.131581 
L 228.465848 303.893813 
L 233.035872 303.825879 
L 234.863882 303.622078 
L 236.691892 303.520178 
L 241.718919 303.044642 
L 244.917936 302.671007 
L 246.288943 302.603073 
L 249.944963 302.127537 
L 252.686978 302.059604 
L 254.057985 301.923736 
L 255.428993 301.821836 
L 268.225061 300.836797 
L 269.139066 300.666963 
L 271.881081 300.565063 
L 279.19312 300.123494 
L 282.392138 300.021593 
L 284.220147 299.817792 
L 286.50516 299.715892 
L 289.247174 299.613991 
L 291.532187 299.512091 
L 293.360197 299.478124 
L 295.645209 299.41019 
L 296.559214 299.274323 
L 302.957248 299.172422 
L 303.871253 299.070522 
L 309.355283 298.968621 
L 313.468305 298.76482 
L 316.667322 298.66292 
L 318.495332 298.459118 
L 321.694349 298.357218 
L 322.608354 298.187384 
L 324.893366 298.11945 
L 329.463391 298.051516 
L 331.2914 297.881682 
L 333.11941 297.847715 
L 334.490418 297.745815 
L 336.318428 297.575981 
L 340.888452 297.338213 
L 345.458477 297.236312 
L 349.571499 297.032511 
L 350.942506 296.998544 
L 351.856511 296.862677 
L 354.141523 296.760776 
L 355.055528 296.692843 
L 355.969533 296.624909 
L 356.883538 296.556975 
L 360.99656 296.489042 
L 362.367568 296.387141 
L 374.706634 295.571937 
L 376.991646 295.470036 
L 379.276658 295.402103 
L 385.674693 295.300202 
L 386.588698 295.164335 
L 392.986732 295.062434 
L 397.556757 294.824666 
L 398.470762 294.7907 
L 399.384767 294.688799 
L 401.669779 294.586899 
L 403.954791 294.518965 
L 406.239803 294.417064 
L 408.524816 294.349131 
L 412.637838 294.24723 
L 415.379853 294.14533 
L 421.777887 294.043429 
L 426.804914 293.771694 
L 428.632924 293.703761 
L 430.003931 293.60186 
L 436.401966 293.49996 
L 439.14398 293.398059 
L 447.370025 293.296159 
L 449.198034 293.262192 
L 454.682064 293.194258 
L 455.596069 293.126324 
L 461.994103 293.024424 
L 463.822113 292.990457 
L 475.704177 292.888556 
L 477.075184 292.752689 
L 497.640295 292.650789 
L 499.925307 292.582855 
L 511.807371 292.514921 
L 512.721376 292.446987 
L 515.006388 292.379054 
L 516.377396 292.243186 
L 519.11941 292.141286 
L 522.318428 292.005419 
L 526.43145 291.903518 
L 528.716462 291.835584 
L 531.915479 291.733684 
L 535.571499 291.56385 
L 537.856511 291.461949 
L 539.684521 291.427982 
L 543.797543 291.326082 
L 545.625553 291.292115 
L 551.566585 291.190214 
L 553.394595 291.156247 
L 555.679607 291.054347 
L 558.421622 290.952446 
L 561.620639 290.884513 
L 562.534644 290.816579 
L 573.502703 290.714679 
L 579.443735 290.37501 
L 581.728747 290.307076 
L 582.642752 290.205176 
L 583.556757 290.137242 
L 587.212776 290.035342 
L 589.954791 289.933441 
L 594.524816 289.831541 
L 596.809828 289.593773 
L 601.379853 289.491872 
L 602.293857 289.389972 
L 606.863882 289.288071 
L 609.148894 289.220137 
L 614.175921 289.186171 
L 615.089926 289.08427 
L 620.116953 288.98237 
L 621.030958 288.914436 
L 631.085012 288.812535 
L 633.827027 288.710635 
L 640.682064 288.608734 
L 642.510074 288.574767 
L 646.623096 288.506834 
L 647.537101 288.404933 
L 653.478133 288.303033 
L 655.763145 288.235099 
L 663.989189 288.133199 
L 665.360197 288.031298 
L 666.731204 287.929397 
L 668.102211 287.827497 
L 674.957248 287.725596 
L 677.699263 287.623696 
L 690.038329 287.521795 
L 694.151351 287.317994 
L 699.635381 287.216094 
L 700.549386 287.14816 
L 707.404423 287.080226 
L 708.318428 287.012293 
L 713.345455 286.910392 
L 715.173464 286.876425 
L 721.571499 286.774525 
L 724.313514 286.672624 
L 732.082555 286.570724 
L 733.910565 286.536757 
L 738.023587 286.434856 
L 741.679607 286.265022 
L 746.706634 286.163122 
L 747.163636 286.129155 
L 747.163636 286.129155 
" clip-path="url(#p3f10482e82)" style="fill: none; stroke: #ff7f0e; stroke-width: 1.5; stroke-linecap: square"/>
   </g>
   <g id="patch_3">
    <path d="M 108 320.4 
L 108 43.2 
" style="fill: none; stroke: #a9a9a9; stroke-width: 0.8; stroke-linejoin: miter; stroke-linecap: square"/>
   </g>
   <g id="patch_4">
    <path d="M 777.6 320.4 
L 777.6 43.2 
" style="fill: none"/>
   </g>
   <g id="patch_5">
    <path d="M 108 320.4 
L 777.6 320.4 
" style="fill: none; stroke: #a9a9a9; stroke-width: 0.8; stroke-linejoin: miter; stroke-linecap: square"/>
   </g>
   <g id="patch_6">
    <path d="M 108 43.2 
L 777.6 43.2 
" style="fill: none"/>
   </g>
   <g id="text_17">
    <!-- get_subscribe history -->
    <g style="fill: #a9a9a9" transform="translate(378.6075 37.2) scale(0.12 -0.12)">
     <defs>
      <path id="DejaVuSans-67" d="M 2906 1791 
Q 2906 2416 2648 2759 
Q 2391 3103 1925 3103 
Q 1463 3103 1205 2759 
Q 947 2416 947 1791 
Q 947 1169 1205 825 
Q 1463 481 1925 481 
Q 2391 481 2648 825 
Q 2906 1169 2906 1791 
z
M 3481 434 
Q 3481 -459 3084 -895 
Q 2688 -1331 1869 -1331 
Q 1566 -1331 1297 -1286 
Q 1028 -1241 775 -1147 
L 775 -588 
Q 1028 -725 1275 -790 
Q 1522 -856 1778 -856 
Q 2344 -856 2625 -561 
Q 2906 -266 2906 331 
L 2906 616 
Q 2728 306 2450 153 
Q 2172 0 1784 0 
Q 1141 0 747 490 
Q 353 981 353 1791 
Q 353 2603 747 3093 
Q 1141 3584 1784 3584 
Q 2172 3584 2450 3431 
Q 2728 3278 2906 2969 
L 2906 3500 
L 3481 3500 
L 3481 434 
z
" transform="scale(0.015625)"/>
      <path id="DejaVuSans-65" d="M 3597 1894 
L 3597 1613 
L 953 1613 
Q 991 1019 1311 708 
Q 1631 397 2203 397 
Q 2534 397 2845 478 
Q 3156 559 3463 722 
L 3463 178 
Q 3153 47 2828 -22 
Q 2503 -91 2169 -91 
Q 1331 -91 842 396 
Q 353 884 353 1716 
Q 353 2575 817 3079 
Q 1281 3584 2069 3584 
Q 2775 3584 3186 3129 
Q 3597 2675 3597 1894 
z
M 3022 2063 
Q 3016 2534 2758 2815 
Q 2500 3097 2075 3097 
Q 1594 3097 1305 2825 
Q 1016 2553 972 2059 
L 3022 2063 
z
" transform="scale(0.015625)"/>
      <path id="DejaVuSans-74" d="M 1172 4494 
L 1172 3500 
L 2356 3500 
L 2356 3053 
L 1172 3053 
L 1172 1153 
Q 1172 725 1289 603 
Q 1406 481 1766 481 
L 2356 481 
L 2356 0 
L 1766 0 
Q 1100 0 847 248 
Q 594 497 594 1153 
L 594 3053 
L 172 3053 
L 172 3500 
L 594 3500 
L 594 4494 
L 1172 4494 
z
" transform="scale(0.015625)"/>
      <path id="DejaVuSans-5f" d="M 3263 -1063 
L 3263 -1509 
L -63 -1509 
L -63 -1063 
L 3263 -1063 
z
" transform="scale(0.015625)"/>
      <path id="DejaVuSans-73" d="M 2834 3397 
L 2834 2853 
Q 2591 2978 2328 3040 
Q 2066 3103 1784 3103 
Q 1356 3103 1142 2972 
Q 928 2841 928 2578 
Q 928 2378 1081 2264 
Q 1234 2150 1697 2047 
L 1894 2003 
Q 2506 1872 2764 1633 
Q 3022 1394 3022 966 
Q 3022 478 2636 193 
Q 2250 -91 1575 -91 
Q 1294 -91 989 -36 
Q 684 19 347 128 
L 347 722 
Q 666 556 975 473 
Q 1284 391 1588 391 
Q 1994 391 2212 530 
Q 2431 669 2431 922 
Q 2431 1156 2273 1281 
Q 2116 1406 1581 1522 
L 1381 1569 
Q 847 1681 609 1914 
Q 372 2147 372 2553 
Q 372 3047 722 3315 
Q 1072 3584 1716 3584 
Q 2034 3584 2315 3537 
Q 2597 3491 2834 3397 
z
" transform="scale(0.015625)"/>
      <path id="DejaVuSans-75" d="M 544 1381 
L 544 3500 
L 1119 3500 
L 1119 1403 
Q 1119 906 1312 657 
Q 1506 409 1894 409 
Q 2359 409 2629 706 
Q 2900 1003 2900 1516 
L 2900 3500 
L 3475 3500 
L 3475 0 
L 2900 0 
L 2900 538 
Q 2691 219 2414 64 
Q 2138 -91 1772 -91 
Q 1169 -91 856 284 
Q 544 659 544 1381 
z
M 1991 3584 
L 1991 3584 
z
" transform="scale(0.015625)"/>
      <path id="DejaVuSans-62" d="M 3116 1747 
Q 3116 2381 2855 2742 
Q 2594 3103 2138 3103 
Q 1681 3103 1420 2742 
Q 1159 2381 1159 1747 
Q 1159 1113 1420 752 
Q 1681 391 2138 391 
Q 2594 391 2855 752 
Q 3116 1113 3116 1747 
z
M 1159 2969 
Q 1341 3281 1617 3432 
Q 1894 3584 2278 3584 
Q 2916 3584 3314 3078 
Q 3713 2572 3713 1747 
Q 3713 922 3314 415 
Q 2916 -91 2278 -91 
Q 1894 -91 1617 61 
Q 1341 213 1159 525 
L 1159 0 
L 581 0 
L 581 4863 
L 1159 4863 
L 1159 2969 
z
" transform="scale(0.015625)"/>
      <path id="DejaVuSans-63" d="M 3122 3366 
L 3122 2828 
Q 2878 2963 2633 3030 
Q 2388 3097 2138 3097 
Q 1578 3097 1268 2742 
Q 959 2388 959 1747 
Q 959 1106 1268 751 
Q 1578 397 2138 397 
Q 2388 397 2633 464 
Q 2878 531 3122 666 
L 3122 134 
Q 2881 22 2623 -34 
Q 2366 -91 2075 -91 
Q 1284 -91 818 406 
Q 353 903 353 1747 
Q 353 2603 823 3093 
Q 1294 3584 2113 3584 
Q 2378 3584 2631 3529 
Q 2884 3475 3122 3366 
z
" transform="scale(0.015625)"/>
      <path id="DejaVuSans-72" d="M 2631 2963 
Q 2534 3019 2420 3045 
Q 2306 3072 2169 3072 
Q 1681 3072 1420 2755 
Q 1159 2438 1159 1844 
L 1159 0 
L 581 0 
L 581 3500 
L 1159 3500 
L 1159 2956 
Q 1341 3275 1631 3429 
Q 1922 3584 2338 3584 
Q 2397 3584 2469 3576 
Q 2541 3569 2628 3553 
L 2631 2963 
z
" transform="scale(0.015625)"/>
      <path id="DejaVuSans-69" d="M 603 3500 
L 1178 3500 
L 1178 0 
L 603 0 
L 603 3500 
z
M 603 4863 
L 1178 4863 
L 1178 4134 
L 603 4134 
L 603 4863 
z
" transform="scale(0.015625)"/>
      <path id="DejaVuSans-20" transform="scale(0.015625)"/>
      <path id="DejaVuSans-68" d="M 3513 2113 
L 3513 0 
L 2938 0 
L 2938 2094 
Q 2938 2591 2744 2837 
Q 2550 3084 2163 3084 
Q 1697 3084 1428 2787 
Q 1159 2491 1159 1978 
L 1159 0 
L 581 0 
L 581 4863 
L 1159 4863 
L 1159 2956 
Q 1366 3272 1645 3428 
Q 1925 3584 2291 3584 
Q 2894 3584 3203 3211 
Q 3513 2838 3513 2113 
z
" transform="scale(0.015625)"/>
      <path id="DejaVuSans-6f" d="M 1959 3097 
Q 1497 3097 1228 2736 
Q 959 2375 959 1747 
Q 959 1119 1226 758 
Q 1494 397 1959 397 
Q 2419 397 2687 759 
Q 2956 1122 2956 1747 
Q 2956 2369 2687 2733 
Q 2419 3097 1959 3097 
z
M 1959 3584 
Q 2709 3584 3137 3096 
Q 3566 2609 3566 1747 
Q 3566 888 3137 398 
Q 2709 -91 1959 -91 
Q 1206 -91 779 398 
Q 353 888 353 1747 
Q 353 2609 779 3096 
Q 1206 3584 1959 3584 
z
" transform="scale(0.015625)"/>
      <path id="DejaVuSans-79" d="M 2059 -325 
Q 1816 -950 1584 -1140 
Q 1353 -1331 966 -1331 
L 506 -1331 
L 506 -850 
L 844 -850 
Q 1081 -850 1212 -737 
Q 1344 -625 1503 -206 
L 1606 56 
L 191 3500 
L 800 3500 
L 1894 763 
L 2988 3500 
L 3597 3500 
L 2059 -325 
z
" transform="scale(0.015625)"/>
     </defs>
     <use xlink:href="#DejaVuSans-67"/>
     <use xlink:href="#DejaVuSans-65" transform="translate(63.476562 0)"/>
     <use xlink:href="#DejaVuSans-74" transform="translate(125 0)"/>
     <use xlink:href="#DejaVuSans-5f" transform="translate(164.208984 0)"/>
     <use xlink:href="#DejaVuSans-73" transform="translate(214.208984 0)"/>
     <use xlink:href="#DejaVuSans-75" transform="translate(266.308594 0)"/>
     <use xlink:href="#DejaVuSans-62" transform="translate(329.6875 0)"/>
     <use xlink:href="#DejaVuSans-73" transform="translate(393.164062 0)"/>
     <use xlink:href="#DejaVuSans-63" transform="translate(445.263672 0)"/>
     <use xlink:href="#DejaVuSans-72" transform="translate(500.244141 0)"/>
     <use xlink:href="#DejaVuSans-69" transform="translate(541.357422 0)"/>
     <use xlink:href="#DejaVuSans-62" transform="translate(569.140625 0)"/>
     <use xlink:href="#DejaVuSans-65" transform="translate(632.617188 0)"/>
     <use xlink:href="#DejaVuSans-20" transform="translate(694.140625 0)"/>
     <use xlink:href="#DejaVuSans-68" transform="translate(725.927734 0)"/>
     <use xlink:href="#DejaVuSans-69" transform="translate(789.306641 0)"/>
     <use xlink:href="#DejaVuSans-73" transform="translate(817.089844 0)"/>
     <use xlink:href="#DejaVuSans-74" transform="translate(869.189453 0)"/>
     <use xlink:href="#DejaVuSans-6f" transform="translate(908.398438 0)"/>
     <use xlink:href="#DejaVuSans-72" transform="translate(969.580078 0)"/>
     <use xlink:href="#DejaVuSans-79" transform="translate(1010.693359 0)"/>
    </g>
   </g>
   <g id="legend_1">
    <g id="line2d_35">
     <path d="M 815.08 328.498438 
L 825.08 328.498438 
L 835.08 328.498438 
" style="fill: none; stroke: #1f77b4; stroke-width: 1.5; stroke-linecap: square"/>
    </g>
    <g id="text_18">
     <!-- star -->
     <g style="fill: #a9a9a9" transform="translate(843.08 331.998438) scale(0.1 -0.1)">
      <defs>
       <path id="DejaVuSans-61" d="M 2194 1759 
Q 1497 1759 1228 1600 
Q 959 1441 959 1056 
Q 959 750 1161 570 
Q 1363 391 1709 391 
Q 2188 391 2477 730 
Q 2766 1069 2766 1631 
L 2766 1759 
L 2194 1759 
z
M 3341 1997 
L 3341 0 
L 2766 0 
L 2766 531 
Q 2569 213 2275 61 
Q 1981 -91 1556 -91 
Q 1019 -91 701 211 
Q 384 513 384 1019 
Q 384 1609 779 1909 
Q 1175 2209 1959 2209 
L 2766 2209 
L 2766 2266 
Q 2766 2663 2505 2880 
Q 2244 3097 1772 3097 
Q 1472 3097 1187 3025 
Q 903 2953 641 2809 
L 641 3341 
Q 956 3463 1253 3523 
Q 1550 3584 1831 3584 
Q 2591 3584 2966 3190 
Q 3341 2797 3341 1997 
z
" transform="scale(0.015625)"/>
      </defs>
      <use xlink:href="#DejaVuSans-73"/>
      <use xlink:href="#DejaVuSans-74" transform="translate(52.099609 0)"/>
      <use xlink:href="#DejaVuSans-61" transform="translate(91.308594 0)"/>
      <use xlink:href="#DejaVuSans-72" transform="translate(152.587891 0)"/>
     </g>
    </g>
    <g id="line2d_36">
     <path d="M 815.08 343.176562 
L 825.08 343.176562 
L 835.08 343.176562 
" style="fill: none; stroke: #ff7f0e; stroke-width: 1.5; stroke-linecap: square"/>
    </g>
    <g id="text_19">
     <!-- fork -->
     <g style="fill: #a9a9a9" transform="translate(843.08 346.676562) scale(0.1 -0.1)">
      <defs>
       <path id="DejaVuSans-66" d="M 2375 4863 
L 2375 4384 
L 1825 4384 
Q 1516 4384 1395 4259 
Q 1275 4134 1275 3809 
L 1275 3500 
L 2222 3500 
L 2222 3053 
L 1275 3053 
L 1275 0 
L 697 0 
L 697 3053 
L 147 3053 
L 147 3500 
L 697 3500 
L 697 3744 
Q 697 4328 969 4595 
Q 1241 4863 1831 4863 
L 2375 4863 
z
" transform="scale(0.015625)"/>
       <path id="DejaVuSans-6b" d="M 581 4863 
L 1159 4863 
L 1159 1991 
L 2875 3500 
L 3609 3500 
L 1753 1863 
L 3688 0 
L 2938 0 
L 1159 1709 
L 1159 0 
L 581 0 
L 581 4863 
z
" transform="scale(0.015625)"/>
      </defs>
      <use xlink:href="#DejaVuSans-66"/>
      <use xlink:href="#DejaVuSans-6f" transform="translate(35.205078 0)"/>
      <use xlink:href="#DejaVuSans-72" transform="translate(96.386719 0)"/>
      <use xlink:href="#DejaVuSans-6b" transform="translate(137.5 0)"/>
     </g>
    </g>
   </g>
  </g>
 </g>
 <defs>
  <clipPath id="p3f10482e82">
   <rect x="108" y="43.2" width="669.6" height="277.2"/>
  </clipPath>
 </defs>
</svg>
