<?xml version="1.0" encoding="utf-8" standalone="no"?>
<!DOCTYPE svg PUBLIC "-//W3C//DTD SVG 1.1//EN"
  "http://www.w3.org/Graphics/SVG/1.1/DTD/svg11.dtd">
<svg xmlns:xlink="http://www.w3.org/1999/xlink" width="864pt" height="360pt" viewBox="0 0 864 360" xmlns="http://www.w3.org/2000/svg" version="1.1">
 <metadata>
  <rdf:RDF xmlns:dc="http://purl.org/dc/elements/1.1/" xmlns:cc="http://creativecommons.org/ns#" xmlns:rdf="http://www.w3.org/1999/02/22-rdf-syntax-ns#">
   <cc:Work>
    <dc:type rdf:resource="http://purl.org/dc/dcmitype/StillImage"/>
    <dc:date>2025-03-21T08:14:43.370694</dc:date>
    <dc:format>image/svg+xml</dc:format>
    <dc:creator>
     <cc:Agent>
      <dc:title>Matplotlib v3.10.1, https://matplotlib.org/</dc:title>
     </cc:Agent>
    </dc:creator>
   </cc:Work>
  </rdf:RDF>
 </metadata>
 <defs>
  <style type="text/css">*{stroke-linejoin: round; stroke-linecap: butt}</style>
 </defs>
 <g id="figure_1">
  <g id="patch_1">
   <path d="M 0 360 
L 864 360 
L 864 0 
L 0 0 
L 0 360 
z
" style="fill: none; opacity: 0"/>
  </g>
  <g id="axes_1">
   <g id="patch_2">
    <path d="M 108 320.4 
L 777.6 320.4 
L 777.6 43.2 
L 108 43.2 
L 108 320.4 
z
" style="fill: none; opacity: 0"/>
   </g>
   <g id="matplotlib.axis_1">
    <g id="xtick_1">
     <g id="line2d_1">
      <path d="M 127.956777 320.4 
L 127.956777 43.2 
" clip-path="url(#p5c4b7e820b)" style="fill: none; stroke-dasharray: 5.12,1.28,0.8,1.28; stroke-dashoffset: 0; stroke: #b0b0b0; stroke-width: 0.8"/>
     </g>
     <g id="line2d_2">
      <defs>
       <path id="m8f066a90a9" d="M 0 0 
L 0 3.5 
" style="stroke: #a9a9a9; stroke-width: 0.8"/>
      </defs>
      <g>
       <use xlink:href="#m8f066a90a9" x="127.956777" y="320.4" style="fill: #a9a9a9; stroke: #a9a9a9; stroke-width: 0.8"/>
      </g>
     </g>
     <g id="text_1">
      <!-- 2021-07 -->
      <g style="fill: #a9a9a9" transform="translate(107.065371 334.998438) scale(0.1 -0.1)">
       <defs>
        <path id="DejaVuSans-32" d="M 1228 531 
L 3431 531 
L 3431 0 
L 469 0 
L 469 531 
Q 828 903 1448 1529 
Q 2069 2156 2228 2338 
Q 2531 2678 2651 2914 
Q 2772 3150 2772 3378 
Q 2772 3750 2511 3984 
Q 2250 4219 1831 4219 
Q 1534 4219 1204 4116 
Q 875 4013 500 3803 
L 500 4441 
Q 881 4594 1212 4672 
Q 1544 4750 1819 4750 
Q 2544 4750 2975 4387 
Q 3406 4025 3406 3419 
Q 3406 3131 3298 2873 
Q 3191 2616 2906 2266 
Q 2828 2175 2409 1742 
Q 1991 1309 1228 531 
z
" transform="scale(0.015625)"/>
        <path id="DejaVuSans-30" d="M 2034 4250 
Q 1547 4250 1301 3770 
Q 1056 3291 1056 2328 
Q 1056 1369 1301 889 
Q 1547 409 2034 409 
Q 2525 409 2770 889 
Q 3016 1369 3016 2328 
Q 3016 3291 2770 3770 
Q 2525 4250 2034 4250 
z
M 2034 4750 
Q 2819 4750 3233 4129 
Q 3647 3509 3647 2328 
Q 3647 1150 3233 529 
Q 2819 -91 2034 -91 
Q 1250 -91 836 529 
Q 422 1150 422 2328 
Q 422 3509 836 4129 
Q 1250 4750 2034 4750 
z
" transform="scale(0.015625)"/>
        <path id="DejaVuSans-31" d="M 794 531 
L 1825 531 
L 1825 4091 
L 703 3866 
L 703 4441 
L 1819 4666 
L 2450 4666 
L 2450 531 
L 3481 531 
L 3481 0 
L 794 0 
L 794 531 
z
" transform="scale(0.015625)"/>
        <path id="DejaVuSans-2d" d="M 313 2009 
L 1997 2009 
L 1997 1497 
L 313 1497 
L 313 2009 
z
" transform="scale(0.015625)"/>
        <path id="DejaVuSans-37" d="M 525 4666 
L 3525 4666 
L 3525 4397 
L 1831 0 
L 1172 0 
L 2766 4134 
L 525 4134 
L 525 4666 
z
" transform="scale(0.015625)"/>
       </defs>
       <use xlink:href="#DejaVuSans-32"/>
       <use xlink:href="#DejaVuSans-30" transform="translate(63.623047 0)"/>
       <use xlink:href="#DejaVuSans-32" transform="translate(127.246094 0)"/>
       <use xlink:href="#DejaVuSans-31" transform="translate(190.869141 0)"/>
       <use xlink:href="#DejaVuSans-2d" transform="translate(254.492188 0)"/>
       <use xlink:href="#DejaVuSans-30" transform="translate(290.576172 0)"/>
       <use xlink:href="#DejaVuSans-37" transform="translate(354.199219 0)"/>
      </g>
     </g>
    </g>
    <g id="xtick_2">
     <g id="line2d_3">
      <path d="M 211.793468 320.4 
L 211.793468 43.2 
" clip-path="url(#p5c4b7e820b)" style="fill: none; stroke-dasharray: 5.12,1.28,0.8,1.28; stroke-dashoffset: 0; stroke: #b0b0b0; stroke-width: 0.8"/>
     </g>
     <g id="line2d_4">
      <g>
       <use xlink:href="#m8f066a90a9" x="211.793468" y="320.4" style="fill: #a9a9a9; stroke: #a9a9a9; stroke-width: 0.8"/>
      </g>
     </g>
     <g id="text_2">
      <!-- 2022-01 -->
      <g style="fill: #a9a9a9" transform="translate(190.902061 334.998438) scale(0.1 -0.1)">
       <use xlink:href="#DejaVuSans-32"/>
       <use xlink:href="#DejaVuSans-30" transform="translate(63.623047 0)"/>
       <use xlink:href="#DejaVuSans-32" transform="translate(127.246094 0)"/>
       <use xlink:href="#DejaVuSans-32" transform="translate(190.869141 0)"/>
       <use xlink:href="#DejaVuSans-2d" transform="translate(254.492188 0)"/>
       <use xlink:href="#DejaVuSans-30" transform="translate(290.576172 0)"/>
       <use xlink:href="#DejaVuSans-31" transform="translate(354.199219 0)"/>
      </g>
     </g>
    </g>
    <g id="xtick_3">
     <g id="line2d_5">
      <path d="M 294.263255 320.4 
L 294.263255 43.2 
" clip-path="url(#p5c4b7e820b)" style="fill: none; stroke-dasharray: 5.12,1.28,0.8,1.28; stroke-dashoffset: 0; stroke: #b0b0b0; stroke-width: 0.8"/>
     </g>
     <g id="line2d_6">
      <g>
       <use xlink:href="#m8f066a90a9" x="294.263255" y="320.4" style="fill: #a9a9a9; stroke: #a9a9a9; stroke-width: 0.8"/>
      </g>
     </g>
     <g id="text_3">
      <!-- 2022-07 -->
      <g style="fill: #a9a9a9" transform="translate(273.371849 334.998438) scale(0.1 -0.1)">
       <use xlink:href="#DejaVuSans-32"/>
       <use xlink:href="#DejaVuSans-30" transform="translate(63.623047 0)"/>
       <use xlink:href="#DejaVuSans-32" transform="translate(127.246094 0)"/>
       <use xlink:href="#DejaVuSans-32" transform="translate(190.869141 0)"/>
       <use xlink:href="#DejaVuSans-2d" transform="translate(254.492188 0)"/>
       <use xlink:href="#DejaVuSans-30" transform="translate(290.576172 0)"/>
       <use xlink:href="#DejaVuSans-37" transform="translate(354.199219 0)"/>
      </g>
     </g>
    </g>
    <g id="xtick_4">
     <g id="line2d_7">
      <path d="M 378.099946 320.4 
L 378.099946 43.2 
" clip-path="url(#p5c4b7e820b)" style="fill: none; stroke-dasharray: 5.12,1.28,0.8,1.28; stroke-dashoffset: 0; stroke: #b0b0b0; stroke-width: 0.8"/>
     </g>
     <g id="line2d_8">
      <g>
       <use xlink:href="#m8f066a90a9" x="378.099946" y="320.4" style="fill: #a9a9a9; stroke: #a9a9a9; stroke-width: 0.8"/>
      </g>
     </g>
     <g id="text_4">
      <!-- 2023-01 -->
      <g style="fill: #a9a9a9" transform="translate(357.208539 334.998438) scale(0.1 -0.1)">
       <defs>
        <path id="DejaVuSans-33" d="M 2597 2516 
Q 3050 2419 3304 2112 
Q 3559 1806 3559 1356 
Q 3559 666 3084 287 
Q 2609 -91 1734 -91 
Q 1441 -91 1130 -33 
Q 819 25 488 141 
L 488 750 
Q 750 597 1062 519 
Q 1375 441 1716 441 
Q 2309 441 2620 675 
Q 2931 909 2931 1356 
Q 2931 1769 2642 2001 
Q 2353 2234 1838 2234 
L 1294 2234 
L 1294 2753 
L 1863 2753 
Q 2328 2753 2575 2939 
Q 2822 3125 2822 3475 
Q 2822 3834 2567 4026 
Q 2313 4219 1838 4219 
Q 1578 4219 1281 4162 
Q 984 4106 628 3988 
L 628 4550 
Q 988 4650 1302 4700 
Q 1616 4750 1894 4750 
Q 2613 4750 3031 4423 
Q 3450 4097 3450 3541 
Q 3450 3153 3228 2886 
Q 3006 2619 2597 2516 
z
" transform="scale(0.015625)"/>
       </defs>
       <use xlink:href="#DejaVuSans-32"/>
       <use xlink:href="#DejaVuSans-30" transform="translate(63.623047 0)"/>
       <use xlink:href="#DejaVuSans-32" transform="translate(127.246094 0)"/>
       <use xlink:href="#DejaVuSans-33" transform="translate(190.869141 0)"/>
       <use xlink:href="#DejaVuSans-2d" transform="translate(254.492188 0)"/>
       <use xlink:href="#DejaVuSans-30" transform="translate(290.576172 0)"/>
       <use xlink:href="#DejaVuSans-31" transform="translate(354.199219 0)"/>
      </g>
     </g>
    </g>
    <g id="xtick_5">
     <g id="line2d_9">
      <path d="M 460.569733 320.4 
L 460.569733 43.2 
" clip-path="url(#p5c4b7e820b)" style="fill: none; stroke-dasharray: 5.12,1.28,0.8,1.28; stroke-dashoffset: 0; stroke: #b0b0b0; stroke-width: 0.8"/>
     </g>
     <g id="line2d_10">
      <g>
       <use xlink:href="#m8f066a90a9" x="460.569733" y="320.4" style="fill: #a9a9a9; stroke: #a9a9a9; stroke-width: 0.8"/>
      </g>
     </g>
     <g id="text_5">
      <!-- 2023-07 -->
      <g style="fill: #a9a9a9" transform="translate(439.678327 334.998438) scale(0.1 -0.1)">
       <use xlink:href="#DejaVuSans-32"/>
       <use xlink:href="#DejaVuSans-30" transform="translate(63.623047 0)"/>
       <use xlink:href="#DejaVuSans-32" transform="translate(127.246094 0)"/>
       <use xlink:href="#DejaVuSans-33" transform="translate(190.869141 0)"/>
       <use xlink:href="#DejaVuSans-2d" transform="translate(254.492188 0)"/>
       <use xlink:href="#DejaVuSans-30" transform="translate(290.576172 0)"/>
       <use xlink:href="#DejaVuSans-37" transform="translate(354.199219 0)"/>
      </g>
     </g>
    </g>
    <g id="xtick_6">
     <g id="line2d_11">
      <path d="M 544.406424 320.4 
L 544.406424 43.2 
" clip-path="url(#p5c4b7e820b)" style="fill: none; stroke-dasharray: 5.12,1.28,0.8,1.28; stroke-dashoffset: 0; stroke: #b0b0b0; stroke-width: 0.8"/>
     </g>
     <g id="line2d_12">
      <g>
       <use xlink:href="#m8f066a90a9" x="544.406424" y="320.4" style="fill: #a9a9a9; stroke: #a9a9a9; stroke-width: 0.8"/>
      </g>
     </g>
     <g id="text_6">
      <!-- 2024-01 -->
      <g style="fill: #a9a9a9" transform="translate(523.515017 334.998438) scale(0.1 -0.1)">
       <defs>
        <path id="DejaVuSans-34" d="M 2419 4116 
L 825 1625 
L 2419 1625 
L 2419 4116 
z
M 2253 4666 
L 3047 4666 
L 3047 1625 
L 3713 1625 
L 3713 1100 
L 3047 1100 
L 3047 0 
L 2419 0 
L 2419 1100 
L 313 1100 
L 313 1709 
L 2253 4666 
z
" transform="scale(0.015625)"/>
       </defs>
       <use xlink:href="#DejaVuSans-32"/>
       <use xlink:href="#DejaVuSans-30" transform="translate(63.623047 0)"/>
       <use xlink:href="#DejaVuSans-32" transform="translate(127.246094 0)"/>
       <use xlink:href="#DejaVuSans-34" transform="translate(190.869141 0)"/>
       <use xlink:href="#DejaVuSans-2d" transform="translate(254.492188 0)"/>
       <use xlink:href="#DejaVuSans-30" transform="translate(290.576172 0)"/>
       <use xlink:href="#DejaVuSans-31" transform="translate(354.199219 0)"/>
      </g>
     </g>
    </g>
    <g id="xtick_7">
     <g id="line2d_13">
      <path d="M 627.331845 320.4 
L 627.331845 43.2 
" clip-path="url(#p5c4b7e820b)" style="fill: none; stroke-dasharray: 5.12,1.28,0.8,1.28; stroke-dashoffset: 0; stroke: #b0b0b0; stroke-width: 0.8"/>
     </g>
     <g id="line2d_14">
      <g>
       <use xlink:href="#m8f066a90a9" x="627.331845" y="320.4" style="fill: #a9a9a9; stroke: #a9a9a9; stroke-width: 0.8"/>
      </g>
     </g>
     <g id="text_7">
      <!-- 2024-07 -->
      <g style="fill: #a9a9a9" transform="translate(606.440439 334.998438) scale(0.1 -0.1)">
       <use xlink:href="#DejaVuSans-32"/>
       <use xlink:href="#DejaVuSans-30" transform="translate(63.623047 0)"/>
       <use xlink:href="#DejaVuSans-32" transform="translate(127.246094 0)"/>
       <use xlink:href="#DejaVuSans-34" transform="translate(190.869141 0)"/>
       <use xlink:href="#DejaVuSans-2d" transform="translate(254.492188 0)"/>
       <use xlink:href="#DejaVuSans-30" transform="translate(290.576172 0)"/>
       <use xlink:href="#DejaVuSans-37" transform="translate(354.199219 0)"/>
      </g>
     </g>
    </g>
    <g id="xtick_8">
     <g id="line2d_15">
      <path d="M 711.168536 320.4 
L 711.168536 43.2 
" clip-path="url(#p5c4b7e820b)" style="fill: none; stroke-dasharray: 5.12,1.28,0.8,1.28; stroke-dashoffset: 0; stroke: #b0b0b0; stroke-width: 0.8"/>
     </g>
     <g id="line2d_16">
      <g>
       <use xlink:href="#m8f066a90a9" x="711.168536" y="320.4" style="fill: #a9a9a9; stroke: #a9a9a9; stroke-width: 0.8"/>
      </g>
     </g>
     <g id="text_8">
      <!-- 2025-01 -->
      <g style="fill: #a9a9a9" transform="translate(690.277129 334.998438) scale(0.1 -0.1)">
       <defs>
        <path id="DejaVuSans-35" d="M 691 4666 
L 3169 4666 
L 3169 4134 
L 1269 4134 
L 1269 2991 
Q 1406 3038 1543 3061 
Q 1681 3084 1819 3084 
Q 2600 3084 3056 2656 
Q 3513 2228 3513 1497 
Q 3513 744 3044 326 
Q 2575 -91 1722 -91 
Q 1428 -91 1123 -41 
Q 819 9 494 109 
L 494 744 
Q 775 591 1075 516 
Q 1375 441 1709 441 
Q 2250 441 2565 725 
Q 2881 1009 2881 1497 
Q 2881 1984 2565 2268 
Q 2250 2553 1709 2553 
Q 1456 2553 1204 2497 
Q 953 2441 691 2322 
L 691 4666 
z
" transform="scale(0.015625)"/>
       </defs>
       <use xlink:href="#DejaVuSans-32"/>
       <use xlink:href="#DejaVuSans-30" transform="translate(63.623047 0)"/>
       <use xlink:href="#DejaVuSans-32" transform="translate(127.246094 0)"/>
       <use xlink:href="#DejaVuSans-35" transform="translate(190.869141 0)"/>
       <use xlink:href="#DejaVuSans-2d" transform="translate(254.492188 0)"/>
       <use xlink:href="#DejaVuSans-30" transform="translate(290.576172 0)"/>
       <use xlink:href="#DejaVuSans-31" transform="translate(354.199219 0)"/>
      </g>
     </g>
    </g>
   </g>
   <g id="matplotlib.axis_2">
    <g id="ytick_1">
     <g id="line2d_17">
      <path d="M 108 307.833926 
L 777.6 307.833926 
" clip-path="url(#p5c4b7e820b)" style="fill: none; stroke-dasharray: 5.12,1.28,0.8,1.28; stroke-dashoffset: 0; stroke: #b0b0b0; stroke-width: 0.8"/>
     </g>
     <g id="line2d_18">
      <defs>
       <path id="mf2aaef2467" d="M 0 0 
L -3.5 0 
" style="stroke: #a9a9a9; stroke-width: 0.8"/>
      </defs>
      <g>
       <use xlink:href="#mf2aaef2467" x="108" y="307.833926" style="fill: #a9a9a9; stroke: #a9a9a9; stroke-width: 0.8"/>
      </g>
     </g>
     <g id="text_9">
      <!-- 0 -->
      <g style="fill: #a9a9a9" transform="translate(94.6375 311.633144) scale(0.1 -0.1)">
       <use xlink:href="#DejaVuSans-30"/>
      </g>
     </g>
    </g>
    <g id="ytick_2">
     <g id="line2d_19">
      <path d="M 108 273.908239 
L 777.6 273.908239 
" clip-path="url(#p5c4b7e820b)" style="fill: none; stroke-dasharray: 5.12,1.28,0.8,1.28; stroke-dashoffset: 0; stroke: #b0b0b0; stroke-width: 0.8"/>
     </g>
     <g id="line2d_20">
      <g>
       <use xlink:href="#mf2aaef2467" x="108" y="273.908239" style="fill: #a9a9a9; stroke: #a9a9a9; stroke-width: 0.8"/>
      </g>
     </g>
     <g id="text_10">
      <!-- 1000 -->
      <g style="fill: #a9a9a9" transform="translate(75.55 277.707458) scale(0.1 -0.1)">
       <use xlink:href="#DejaVuSans-31"/>
       <use xlink:href="#DejaVuSans-30" transform="translate(63.623047 0)"/>
       <use xlink:href="#DejaVuSans-30" transform="translate(127.246094 0)"/>
       <use xlink:href="#DejaVuSans-30" transform="translate(190.869141 0)"/>
      </g>
     </g>
    </g>
    <g id="ytick_3">
     <g id="line2d_21">
      <path d="M 108 239.982553 
L 777.6 239.982553 
" clip-path="url(#p5c4b7e820b)" style="fill: none; stroke-dasharray: 5.12,1.28,0.8,1.28; stroke-dashoffset: 0; stroke: #b0b0b0; stroke-width: 0.8"/>
     </g>
     <g id="line2d_22">
      <g>
       <use xlink:href="#mf2aaef2467" x="108" y="239.982553" style="fill: #a9a9a9; stroke: #a9a9a9; stroke-width: 0.8"/>
      </g>
     </g>
     <g id="text_11">
      <!-- 2000 -->
      <g style="fill: #a9a9a9" transform="translate(75.55 243.781771) scale(0.1 -0.1)">
       <use xlink:href="#DejaVuSans-32"/>
       <use xlink:href="#DejaVuSans-30" transform="translate(63.623047 0)"/>
       <use xlink:href="#DejaVuSans-30" transform="translate(127.246094 0)"/>
       <use xlink:href="#DejaVuSans-30" transform="translate(190.869141 0)"/>
      </g>
     </g>
    </g>
    <g id="ytick_4">
     <g id="line2d_23">
      <path d="M 108 206.056866 
L 777.6 206.056866 
" clip-path="url(#p5c4b7e820b)" style="fill: none; stroke-dasharray: 5.12,1.28,0.8,1.28; stroke-dashoffset: 0; stroke: #b0b0b0; stroke-width: 0.8"/>
     </g>
     <g id="line2d_24">
      <g>
       <use xlink:href="#mf2aaef2467" x="108" y="206.056866" style="fill: #a9a9a9; stroke: #a9a9a9; stroke-width: 0.8"/>
      </g>
     </g>
     <g id="text_12">
      <!-- 3000 -->
      <g style="fill: #a9a9a9" transform="translate(75.55 209.856085) scale(0.1 -0.1)">
       <use xlink:href="#DejaVuSans-33"/>
       <use xlink:href="#DejaVuSans-30" transform="translate(63.623047 0)"/>
       <use xlink:href="#DejaVuSans-30" transform="translate(127.246094 0)"/>
       <use xlink:href="#DejaVuSans-30" transform="translate(190.869141 0)"/>
      </g>
     </g>
    </g>
    <g id="ytick_5">
     <g id="line2d_25">
      <path d="M 108 172.131179 
L 777.6 172.131179 
" clip-path="url(#p5c4b7e820b)" style="fill: none; stroke-dasharray: 5.12,1.28,0.8,1.28; stroke-dashoffset: 0; stroke: #b0b0b0; stroke-width: 0.8"/>
     </g>
     <g id="line2d_26">
      <g>
       <use xlink:href="#mf2aaef2467" x="108" y="172.131179" style="fill: #a9a9a9; stroke: #a9a9a9; stroke-width: 0.8"/>
      </g>
     </g>
     <g id="text_13">
      <!-- 4000 -->
      <g style="fill: #a9a9a9" transform="translate(75.55 175.930398) scale(0.1 -0.1)">
       <use xlink:href="#DejaVuSans-34"/>
       <use xlink:href="#DejaVuSans-30" transform="translate(63.623047 0)"/>
       <use xlink:href="#DejaVuSans-30" transform="translate(127.246094 0)"/>
       <use xlink:href="#DejaVuSans-30" transform="translate(190.869141 0)"/>
      </g>
     </g>
    </g>
    <g id="ytick_6">
     <g id="line2d_27">
      <path d="M 108 138.205493 
L 777.6 138.205493 
" clip-path="url(#p5c4b7e820b)" style="fill: none; stroke-dasharray: 5.12,1.28,0.8,1.28; stroke-dashoffset: 0; stroke: #b0b0b0; stroke-width: 0.8"/>
     </g>
     <g id="line2d_28">
      <g>
       <use xlink:href="#mf2aaef2467" x="108" y="138.205493" style="fill: #a9a9a9; stroke: #a9a9a9; stroke-width: 0.8"/>
      </g>
     </g>
     <g id="text_14">
      <!-- 5000 -->
      <g style="fill: #a9a9a9" transform="translate(75.55 142.004711) scale(0.1 -0.1)">
       <use xlink:href="#DejaVuSans-35"/>
       <use xlink:href="#DejaVuSans-30" transform="translate(63.623047 0)"/>
       <use xlink:href="#DejaVuSans-30" transform="translate(127.246094 0)"/>
       <use xlink:href="#DejaVuSans-30" transform="translate(190.869141 0)"/>
      </g>
     </g>
    </g>
    <g id="ytick_7">
     <g id="line2d_29">
      <path d="M 108 104.279806 
L 777.6 104.279806 
" clip-path="url(#p5c4b7e820b)" style="fill: none; stroke-dasharray: 5.12,1.28,0.8,1.28; stroke-dashoffset: 0; stroke: #b0b0b0; stroke-width: 0.8"/>
     </g>
     <g id="line2d_30">
      <g>
       <use xlink:href="#mf2aaef2467" x="108" y="104.279806" style="fill: #a9a9a9; stroke: #a9a9a9; stroke-width: 0.8"/>
      </g>
     </g>
     <g id="text_15">
      <!-- 6000 -->
      <g style="fill: #a9a9a9" transform="translate(75.55 108.079025) scale(0.1 -0.1)">
       <defs>
        <path id="DejaVuSans-36" d="M 2113 2584 
Q 1688 2584 1439 2293 
Q 1191 2003 1191 1497 
Q 1191 994 1439 701 
Q 1688 409 2113 409 
Q 2538 409 2786 701 
Q 3034 994 3034 1497 
Q 3034 2003 2786 2293 
Q 2538 2584 2113 2584 
z
M 3366 4563 
L 3366 3988 
Q 3128 4100 2886 4159 
Q 2644 4219 2406 4219 
Q 1781 4219 1451 3797 
Q 1122 3375 1075 2522 
Q 1259 2794 1537 2939 
Q 1816 3084 2150 3084 
Q 2853 3084 3261 2657 
Q 3669 2231 3669 1497 
Q 3669 778 3244 343 
Q 2819 -91 2113 -91 
Q 1303 -91 875 529 
Q 447 1150 447 2328 
Q 447 3434 972 4092 
Q 1497 4750 2381 4750 
Q 2619 4750 2861 4703 
Q 3103 4656 3366 4563 
z
" transform="scale(0.015625)"/>
       </defs>
       <use xlink:href="#DejaVuSans-36"/>
       <use xlink:href="#DejaVuSans-30" transform="translate(63.623047 0)"/>
       <use xlink:href="#DejaVuSans-30" transform="translate(127.246094 0)"/>
       <use xlink:href="#DejaVuSans-30" transform="translate(190.869141 0)"/>
      </g>
     </g>
    </g>
    <g id="ytick_8">
     <g id="line2d_31">
      <path d="M 108 70.35412 
L 777.6 70.35412 
" clip-path="url(#p5c4b7e820b)" style="fill: none; stroke-dasharray: 5.12,1.28,0.8,1.28; stroke-dashoffset: 0; stroke: #b0b0b0; stroke-width: 0.8"/>
     </g>
     <g id="line2d_32">
      <g>
       <use xlink:href="#mf2aaef2467" x="108" y="70.35412" style="fill: #a9a9a9; stroke: #a9a9a9; stroke-width: 0.8"/>
      </g>
     </g>
     <g id="text_16">
      <!-- 7000 -->
      <g style="fill: #a9a9a9" transform="translate(75.55 74.153338) scale(0.1 -0.1)">
       <use xlink:href="#DejaVuSans-37"/>
       <use xlink:href="#DejaVuSans-30" transform="translate(63.623047 0)"/>
       <use xlink:href="#DejaVuSans-30" transform="translate(127.246094 0)"/>
       <use xlink:href="#DejaVuSans-30" transform="translate(190.869141 0)"/>
      </g>
     </g>
    </g>
   </g>
   <g id="line2d_33">
    <path d="M 138.436364 307.732149 
L 141.170169 307.494669 
L 141.625803 307.291115 
L 143.44834 307.053635 
L 145.270876 306.680452 
L 146.182145 306.54475 
L 148.460316 306.341195 
L 149.371584 305.968013 
L 149.827218 305.357351 
L 150.282852 305.052019 
L 150.738487 304.000323 
L 151.194121 303.932472 
L 151.649755 303.559289 
L 152.561023 303.08433 
L 154.38356 301.591599 
L 156.206097 300.675606 
L 157.572999 300.031018 
L 158.028634 299.284653 
L 158.939902 298.606139 
L 159.395536 298.402585 
L 163.951878 297.724071 
L 164.407512 297.520517 
L 167.596952 297.249111 
L 169.419488 296.808078 
L 173.064562 296.299192 
L 173.520196 296.061712 
L 173.97583 295.993861 
L 174.887099 295.68853 
L 178.076538 295.145719 
L 178.987806 294.874313 
L 183.088514 294.161874 
L 183.999782 293.95832 
L 184.911051 293.924394 
L 186.733587 293.48336 
L 187.189222 292.838772 
L 188.556124 292.295961 
L 189.923027 291.922779 
L 190.378661 291.685299 
L 191.289929 291.51567 
L 193.112466 290.972859 
L 194.023734 290.905008 
L 194.935003 290.667528 
L 196.757539 290.192569 
L 197.213174 290.158643 
L 198.124442 289.717609 
L 198.580076 289.649758 
L 199.03571 289.412278 
L 204.047686 288.564136 
L 205.870223 288.021325 
L 206.325857 287.715994 
L 208.604028 286.969628 
L 209.515297 286.32504 
L 210.882199 286.053635 
L 220.906151 283.1021 
L 221.361786 283.068174 
L 222.728688 282.661066 
L 223.184322 282.661066 
L 223.639956 282.457512 
L 224.551225 282.355735 
L 225.006859 282.186107 
L 226.829396 282.118255 
L 227.740664 281.948627 
L 228.651932 281.473667 
L 230.018835 280.964782 
L 230.474469 280.659451 
L 231.385738 280.252342 
L 231.841372 280.014863 
L 232.75264 279.709532 
L 233.208274 279.573829 
L 234.119543 278.997092 
L 234.575177 278.488207 
L 235.486445 277.063328 
L 235.942079 276.927625 
L 236.397714 276.927625 
L 237.764616 276.113409 
L 238.22025 275.875929 
L 238.675885 275.774152 
L 239.131519 275.333118 
L 240.042787 274.959935 
L 240.954056 274.518901 
L 243.232226 271.567367 
L 245.966032 270.074637 
L 246.8773 269.328271 
L 247.332934 269.02294 
L 247.788568 268.378352 
L 248.244203 267.326656 
L 248.699837 266.614216 
L 249.155471 266.241034 
L 249.611105 266.03748 
L 253.256179 262.644911 
L 254.167447 261.796769 
L 256.901252 260.066559 
L 257.356886 259.896931 
L 258.723789 259.082714 
L 260.090691 258.166721 
L 261.913228 256.504362 
L 262.824496 256.131179 
L 263.735765 255.486591 
L 264.191399 255.215186 
L 264.647033 255.147334 
L 266.013936 254.367044 
L 266.46957 253.858158 
L 268.747741 252.602908 
L 269.203375 252.433279 
L 270.570278 251.48336 
L 277.40479 249.040711 
L 278.316059 248.192569 
L 279.682961 247.514055 
L 280.59423 246.937318 
L 281.505498 246.665913 
L 281.961132 246.360582 
L 282.416766 246.224879 
L 283.783669 245.308885 
L 286.06184 244.766074 
L 287.428743 243.951858 
L 288.795645 243.646527 
L 289.251279 243.54475 
L 290.618182 242.493053 
L 292.440719 241.984168 
L 292.896353 241.610985 
L 295.630158 240.661066 
L 296.541426 240.491438 
L 297.452695 240.118255 
L 300.642134 238.930856 
L 301.553402 238.795153 
L 302.920305 238.320194 
L 305.198476 237.200646 
L 307.021013 236.182876 
L 310.666086 234.65622 
L 311.12172 234.588368 
L 312.032989 234.011632 
L 312.944257 233.774152 
L 314.311159 233.231341 
L 316.133696 232.993861 
L 317.044965 232.518901 
L 317.500599 232.111793 
L 317.956233 231.263651 
L 319.77877 230.754766 
L 321.145672 230.042326 
L 322.056941 229.736995 
L 322.968209 229.262036 
L 325.702014 228.142488 
L 326.613283 227.938934 
L 327.524551 227.463974 
L 327.980185 227.26042 
L 328.435819 227.192569 
L 330.71399 226.073021 
L 331.625259 225.496284 
L 332.992161 225.224879 
L 334.814698 224.715994 
L 335.270332 224.682068 
L 335.725966 224.308885 
L 336.637235 224.003554 
L 338.915406 223.087561 
L 339.37104 222.748304 
L 339.826674 222.578675 
L 340.737942 222.06979 
L 342.560479 221.493053 
L 343.471747 220.916317 
L 343.927382 220.441357 
L 344.383016 220.169952 
L 344.83865 220.068174 
L 345.749918 219.321809 
L 346.205553 219.253958 
L 346.661187 218.507593 
L 347.116821 218.304039 
L 347.572455 217.930856 
L 348.028089 217.863005 
L 348.939358 217.286268 
L 349.850626 216.980937 
L 350.30626 216.64168 
L 350.761894 216.472052 
L 352.584431 215.250727 
L 353.951334 214.538288 
L 354.862602 214.300808 
L 355.77387 213.791922 
L 356.229505 213.011632 
L 357.140773 212.333118 
L 357.596407 212.231341 
L 360.330212 210.908239 
L 361.241481 210.535057 
L 362.608383 209.381583 
L 363.519652 208.601292 
L 364.43092 208.058481 
L 364.886554 207.549596 
L 365.342188 207.244265 
L 366.253457 206.4979 
L 366.709091 206.294346 
L 367.620359 205.378352 
L 368.531628 205.073021 
L 369.442896 204.462359 
L 370.809799 203.749919 
L 371.265433 203.682068 
L 372.632335 202.935703 
L 373.543604 202.358966 
L 378.099946 200.662682 
L 378.55558 200.289499 
L 380.378116 199.57706 
L 380.833751 199.441357 
L 381.745019 198.830695 
L 382.656287 198.457512 
L 383.567556 197.812924 
L 384.478824 195.980937 
L 385.390093 194.895315 
L 386.756995 194.182876 
L 387.668263 193.809693 
L 388.123898 193.741842 
L 388.579532 193.470436 
L 390.857703 192.724071 
L 391.313337 192.520517 
L 392.224605 191.875929 
L 393.591508 191.299192 
L 394.502776 190.790307 
L 395.414045 190.247496 
L 395.869679 189.942165 
L 396.325313 189.433279 
L 397.236581 188.924394 
L 399.514752 187.669144 
L 402.248557 186.278191 
L 403.61546 185.871082 
L 404.982363 185.328271 
L 405.437997 184.989015 
L 406.349265 184.717609 
L 407.260533 184.344426 
L 407.716168 183.971244 
L 409.538704 183.326656 
L 410.449973 182.648142 
L 411.361241 182.27496 
L 412.27251 181.56252 
L 413.183778 181.291115 
L 413.639412 180.884006 
L 414.095046 180.816155 
L 415.006315 180.103716 
L 415.917583 179.628756 
L 416.373217 179.425202 
L 416.828851 178.950242 
L 420.018291 177.661066 
L 420.929559 177.253958 
L 422.296462 176.812924 
L 423.20773 176.677221 
L 423.663364 176.473667 
L 424.118998 176.405816 
L 425.030267 175.998708 
L 425.485901 175.964782 
L 427.308438 175.286268 
L 428.67534 174.302423 
L 429.130974 174.132795 
L 430.042243 173.62391 
L 430.497877 173.488207 
L 433.231682 171.927625 
L 433.687316 171.825848 
L 435.054219 171.011632 
L 436.421121 170.536672 
L 437.33239 170.231341 
L 439.154927 169.620679 
L 440.066195 169.315347 
L 441.888732 168.942165 
L 442.344366 168.738611 
L 442.8 168.670759 
L 443.711268 168.263651 
L 444.166903 168.1958 
L 444.622537 167.95832 
L 445.533805 167.788691 
L 446.900708 167.279806 
L 447.811976 167.178029 
L 449.178879 166.872698 
L 451.45705 166.46559 
L 463.303538 162.937318 
L 463.759173 162.462359 
L 464.670441 162.089176 
L 468.315514 160.698223 
L 468.771149 160.426817 
L 470.138051 160.019709 
L 471.04932 159.782229 
L 471.504954 159.476898 
L 471.960588 159.375121 
L 472.416222 158.968013 
L 473.783125 158.696607 
L 474.694393 158.255574 
L 475.150027 157.712763 
L 476.972564 157.271729 
L 480.162003 156.593215 
L 480.617637 156.593215 
L 481.073272 156.389661 
L 482.895808 156.050404 
L 483.351443 155.84685 
L 485.173979 155.507593 
L 486.085248 155.100485 
L 486.996516 154.930856 
L 489.274687 154.35412 
L 491.097224 153.777383 
L 491.552858 153.675606 
L 492.008492 153.438126 
L 492.91976 153.200646 
L 493.831029 152.827464 
L 494.742297 152.488207 
L 495.197931 152.182876 
L 496.1092 151.91147 
L 499.754273 150.65622 
L 500.665542 150.588368 
L 502.488078 150.045557 
L 502.943713 149.774152 
L 503.854981 149.502746 
L 506.133152 148.45105 
L 506.588786 148.417124 
L 511.600762 146.619063 
L 513.878933 146.008401 
L 514.790201 145.567367 
L 516.157104 145.262036 
L 517.979641 143.769305 
L 519.802177 142.989015 
L 520.713446 142.581906 
L 523.447251 141.53021 
L 523.902885 141.224879 
L 526.181056 140.478514 
L 527.547959 139.698223 
L 528.003593 139.596446 
L 530.281764 138.341195 
L 531.648666 137.730533 
L 532.1043 137.391276 
L 533.015569 137.085945 
L 535.29374 135.932472 
L 536.660642 135.457512 
L 538.483179 134.711147 
L 539.850082 134.202262 
L 540.305716 134.032633 
L 541.216984 133.896931 
L 541.672618 133.591599 
L 543.495155 133.218417 
L 544.406424 132.845234 
L 546.22896 131.997092 
L 552.607839 129.215186 
L 553.974741 128.774152 
L 554.430376 128.468821 
L 555.341644 128.367044 
L 555.797278 128.061712 
L 556.708547 127.892084 
L 557.619815 127.45105 
L 558.075449 127.247496 
L 558.531083 127.179645 
L 559.442352 126.874313 
L 562.631791 125.754766 
L 563.998694 125.449435 
L 565.82123 124.669144 
L 566.732499 124.160258 
L 568.555035 123.244265 
L 569.466304 123.040711 
L 569.921938 122.769305 
L 570.377572 122.667528 
L 571.744475 121.887237 
L 572.655743 121.514055 
L 574.47828 120.801616 
L 576.756451 120.021325 
L 577.667719 119.546365 
L 579.94589 118.766074 
L 582.679695 117.646527 
L 584.502232 116.798384 
L 589.058574 115.034249 
L 589.514208 114.728918 
L 591.336745 114.118255 
L 591.792379 114.118255 
L 592.703647 113.711147 
L 594.526184 112.218417 
L 594.981818 112.082714 
L 595.437452 111.811309 
L 595.893087 111.709532 
L 596.348721 111.472052 
L 596.804355 111.4042 
L 597.259989 111.064943 
L 597.715623 110.963166 
L 598.626892 110.38643 
L 599.993794 109.67399 
L 600.905063 109.300808 
L 601.360697 109.063328 
L 602.727599 108.757997 
L 605.00577 107.977706 
L 605.917039 107.672375 
L 607.283941 106.959935 
L 608.19521 106.518901 
L 609.106478 106.281422 
L 610.473381 105.636834 
L 614.574088 104.110178 
L 615.940991 103.262036 
L 616.396625 103.160258 
L 617.307893 102.719225 
L 618.219162 102.379968 
L 618.674796 101.972859 
L 619.586064 101.599677 
L 620.952967 101.124717 
L 621.408601 100.751535 
L 621.864235 100.717609 
L 622.775504 100.446204 
L 623.686772 100.140872 
L 624.142406 99.937318 
L 624.59804 99.869467 
L 625.964943 99.360582 
L 627.331845 98.851696 
L 629.154382 98.03748 
L 629.610016 97.969628 
L 633.25509 96.442973 
L 634.621992 96.001939 
L 635.533261 95.934087 
L 636.444529 95.560905 
L 639.178334 94.746688 
L 640.089603 94.712763 
L 643.734676 93.525363 
L 644.645944 93.050404 
L 645.101579 92.643296 
L 646.468481 91.829079 
L 647.37975 91.286268 
L 650.113555 90.4042 
L 650.569189 90.031018 
L 653.302994 88.877544 
L 655.125531 88.368659 
L 656.036799 87.961551 
L 656.492433 87.724071 
L 657.403702 87.452666 
L 657.859336 87.18126 
L 658.770604 87.011632 
L 662.415678 85.45105 
L 662.871312 85.383199 
L 663.326946 85.077868 
L 663.78258 84.908239 
L 664.238214 84.501131 
L 664.693849 84.433279 
L 666.516385 83.72084 
L 668.338922 83.279806 
L 668.794556 83.211955 
L 669.250191 83.008401 
L 669.705825 82.974475 
L 670.617093 82.669144 
L 671.072727 82.635218 
L 672.43963 82.092407 
L 674.262167 81.549596 
L 675.173435 80.871082 
L 676.995972 79.853312 
L 678.362874 79.378352 
L 682.007948 77.648142 
L 682.463582 77.410662 
L 682.919216 76.969628 
L 685.197387 76.358966 
L 686.56429 75.748304 
L 687.475558 75.510824 
L 687.931192 75.273344 
L 688.386826 74.900162 
L 690.209363 74.425202 
L 690.664997 74.085945 
L 696.588242 71.948627 
L 697.49951 71.778998 
L 699.777681 71.066559 
L 700.688949 70.693376 
L 701.600218 70.35412 
L 702.511486 70.11664 
L 702.96712 69.913086 
L 703.422754 69.913086 
L 704.334023 69.539903 
L 705.245291 68.997092 
L 707.523462 68.216801 
L 708.890365 67.741842 
L 709.345999 67.67399 
L 710.257267 67.300808 
L 711.62417 66.995477 
L 712.991072 66.554443 
L 713.446707 66.452666 
L 713.902341 66.147334 
L 714.813609 65.94378 
L 723.926293 63.331502 
L 726.204464 62.924394 
L 727.115732 62.48336 
L 728.027001 62.042326 
L 729.393903 61.635218 
L 733.950245 59.905008 
L 734.405879 59.565751 
L 735.772782 59.26042 
L 736.68405 58.989015 
L 737.595318 58.514055 
L 738.050953 58.106947 
L 738.962221 57.801616 
L 739.417855 57.53021 
L 740.329124 57.428433 
L 743.518563 56.546365 
L 744.885465 56.27496 
L 746.708002 55.8 
L 747.163636 55.8 
L 747.163636 55.8 
" clip-path="url(#p5c4b7e820b)" style="fill: none; stroke: #1f77b4; stroke-width: 1.5; stroke-linecap: square"/>
   </g>
   <g id="line2d_34">
    <path d="M 138.891998 307.8 
L 142.992705 307.698223 
L 146.637779 307.528595 
L 148.460316 307.528595 
L 148.91595 307.392892 
L 151.194121 307.291115 
L 153.927926 306.985784 
L 156.661731 306.884006 
L 157.572999 306.782229 
L 160.762439 306.646527 
L 163.951878 306.54475 
L 166.230049 306.476898 
L 172.153293 306.375121 
L 174.431464 306.30727 
L 177.620904 306.205493 
L 179.899075 306.137641 
L 184.911051 306.035864 
L 186.733587 305.866236 
L 188.556124 305.83231 
L 191.289929 305.730533 
L 193.112466 305.696607 
L 195.390637 305.628756 
L 197.213174 305.459128 
L 201.313881 305.357351 
L 202.22515 305.289499 
L 204.047686 305.187722 
L 206.781492 305.085945 
L 208.604028 304.984168 
L 216.805444 304.475283 
L 219.994883 304.373506 
L 221.361786 304.237803 
L 223.639956 304.136026 
L 228.196298 303.898546 
L 232.75264 303.830695 
L 234.575177 303.627141 
L 236.397714 303.525363 
L 241.40969 303.050404 
L 244.599129 302.677221 
L 245.966032 302.60937 
L 249.611105 302.13441 
L 252.34491 302.066559 
L 253.711813 301.930856 
L 255.078715 301.829079 
L 267.836473 300.845234 
L 268.747741 300.675606 
L 271.481546 300.573829 
L 278.771693 300.132795 
L 281.961132 300.031018 
L 283.783669 299.827464 
L 286.06184 299.725687 
L 288.795645 299.62391 
L 291.073816 299.522132 
L 292.896353 299.488207 
L 295.174524 299.420355 
L 296.085792 299.284653 
L 302.464671 299.182876 
L 303.375939 299.081099 
L 308.843549 298.979321 
L 312.944257 298.775767 
L 316.133696 298.67399 
L 317.956233 298.470436 
L 321.145672 298.368659 
L 322.056941 298.199031 
L 324.335112 298.131179 
L 328.891453 298.063328 
L 330.71399 297.8937 
L 332.536527 297.859774 
L 333.90343 297.757997 
L 335.725966 297.588368 
L 340.282308 297.350889 
L 344.83865 297.249111 
L 348.939358 297.045557 
L 350.30626 297.011632 
L 351.217529 296.875929 
L 353.4957 296.774152 
L 354.406968 296.7063 
L 355.318236 296.638449 
L 356.229505 296.570598 
L 360.330212 296.502746 
L 361.697115 296.400969 
L 373.999238 295.586753 
L 376.277409 295.484976 
L 378.55558 295.417124 
L 384.934458 295.315347 
L 385.845727 295.179645 
L 392.224605 295.077868 
L 396.780947 294.840388 
L 397.692216 294.806462 
L 398.603484 294.704685 
L 400.881655 294.602908 
L 403.159826 294.535057 
L 405.437997 294.433279 
L 407.716168 294.365428 
L 411.816875 294.263651 
L 414.55068 294.161874 
L 420.929559 294.060097 
L 425.941535 293.788691 
L 427.764072 293.72084 
L 429.130974 293.619063 
L 435.509853 293.517286 
L 438.243658 293.415509 
L 446.445073 293.313732 
L 448.26761 293.279806 
L 453.73522 293.211955 
L 454.646489 293.144103 
L 461.025367 293.042326 
L 462.847904 293.008401 
L 474.694393 292.906624 
L 476.061296 292.770921 
L 496.564834 292.669144 
L 498.843005 292.601292 
L 510.689494 292.533441 
L 511.600762 292.46559 
L 513.878933 292.397738 
L 515.245836 292.262036 
L 517.979641 292.160258 
L 521.16908 292.024556 
L 525.269788 291.922779 
L 527.547959 291.854927 
L 530.737398 291.75315 
L 534.382471 291.583522 
L 536.660642 291.481745 
L 538.483179 291.447819 
L 542.583887 291.346042 
L 544.406424 291.312116 
L 550.329668 291.210339 
L 552.152205 291.176414 
L 554.430376 291.074637 
L 557.164181 290.972859 
L 560.35362 290.905008 
L 561.264888 290.837157 
L 572.200109 290.73538 
L 578.123353 290.396123 
L 580.401524 290.328271 
L 581.312793 290.226494 
L 582.224061 290.158643 
L 585.869134 290.056866 
L 588.60294 289.955089 
L 593.159281 289.853312 
L 595.437452 289.615832 
L 599.993794 289.514055 
L 600.905063 289.412278 
L 605.461404 289.310501 
L 607.739575 289.242649 
L 612.751551 289.208724 
L 613.66282 289.106947 
L 618.674796 289.00517 
L 619.586064 288.937318 
L 629.610016 288.835541 
L 632.343821 288.733764 
L 639.178334 288.631987 
L 641.000871 288.598061 
L 645.101579 288.53021 
L 646.012847 288.428433 
L 651.936091 288.326656 
L 654.214262 288.258805 
L 662.415678 288.157027 
L 663.78258 288.05525 
L 665.149483 287.953473 
L 666.516385 287.851696 
L 673.350898 287.749919 
L 676.084703 287.648142 
L 688.386826 287.546365 
L 692.487534 287.342811 
L 697.955144 287.241034 
L 698.866413 287.173183 
L 705.700925 287.105331 
L 706.612194 287.03748 
L 711.62417 286.935703 
L 713.446707 286.901777 
L 719.825585 286.8 
L 722.55939 286.698223 
L 730.305171 286.596446 
L 732.127708 286.56252 
L 736.228416 286.460743 
L 739.873489 286.291115 
L 744.885465 286.189338 
L 747.163636 286.121486 
L 747.163636 286.121486 
" clip-path="url(#p5c4b7e820b)" style="fill: none; stroke: #ff7f0e; stroke-width: 1.5; stroke-linecap: square"/>
   </g>
   <g id="patch_3">
    <path d="M 108 320.4 
L 108 43.2 
" style="fill: none; stroke: #a9a9a9; stroke-width: 0.8; stroke-linejoin: miter; stroke-linecap: square"/>
   </g>
   <g id="patch_4">
    <path d="M 777.6 320.4 
L 777.6 43.2 
" style="fill: none"/>
   </g>
   <g id="patch_5">
    <path d="M 108 320.4 
L 777.6 320.4 
" style="fill: none; stroke: #a9a9a9; stroke-width: 0.8; stroke-linejoin: miter; stroke-linecap: square"/>
   </g>
   <g id="patch_6">
    <path d="M 108 43.2 
L 777.6 43.2 
" style="fill: none"/>
   </g>
   <g id="text_17">
    <!-- get_subscribe history -->
    <g style="fill: #a9a9a9" transform="translate(378.6075 37.2) scale(0.12 -0.12)">
     <defs>
      <path id="DejaVuSans-67" d="M 2906 1791 
Q 2906 2416 2648 2759 
Q 2391 3103 1925 3103 
Q 1463 3103 1205 2759 
Q 947 2416 947 1791 
Q 947 1169 1205 825 
Q 1463 481 1925 481 
Q 2391 481 2648 825 
Q 2906 1169 2906 1791 
z
M 3481 434 
Q 3481 -459 3084 -895 
Q 2688 -1331 1869 -1331 
Q 1566 -1331 1297 -1286 
Q 1028 -1241 775 -1147 
L 775 -588 
Q 1028 -725 1275 -790 
Q 1522 -856 1778 -856 
Q 2344 -856 2625 -561 
Q 2906 -266 2906 331 
L 2906 616 
Q 2728 306 2450 153 
Q 2172 0 1784 0 
Q 1141 0 747 490 
Q 353 981 353 1791 
Q 353 2603 747 3093 
Q 1141 3584 1784 3584 
Q 2172 3584 2450 3431 
Q 2728 3278 2906 2969 
L 2906 3500 
L 3481 3500 
L 3481 434 
z
" transform="scale(0.015625)"/>
      <path id="DejaVuSans-65" d="M 3597 1894 
L 3597 1613 
L 953 1613 
Q 991 1019 1311 708 
Q 1631 397 2203 397 
Q 2534 397 2845 478 
Q 3156 559 3463 722 
L 3463 178 
Q 3153 47 2828 -22 
Q 2503 -91 2169 -91 
Q 1331 -91 842 396 
Q 353 884 353 1716 
Q 353 2575 817 3079 
Q 1281 3584 2069 3584 
Q 2775 3584 3186 3129 
Q 3597 2675 3597 1894 
z
M 3022 2063 
Q 3016 2534 2758 2815 
Q 2500 3097 2075 3097 
Q 1594 3097 1305 2825 
Q 1016 2553 972 2059 
L 3022 2063 
z
" transform="scale(0.015625)"/>
      <path id="DejaVuSans-74" d="M 1172 4494 
L 1172 3500 
L 2356 3500 
L 2356 3053 
L 1172 3053 
L 1172 1153 
Q 1172 725 1289 603 
Q 1406 481 1766 481 
L 2356 481 
L 2356 0 
L 1766 0 
Q 1100 0 847 248 
Q 594 497 594 1153 
L 594 3053 
L 172 3053 
L 172 3500 
L 594 3500 
L 594 4494 
L 1172 4494 
z
" transform="scale(0.015625)"/>
      <path id="DejaVuSans-5f" d="M 3263 -1063 
L 3263 -1509 
L -63 -1509 
L -63 -1063 
L 3263 -1063 
z
" transform="scale(0.015625)"/>
      <path id="DejaVuSans-73" d="M 2834 3397 
L 2834 2853 
Q 2591 2978 2328 3040 
Q 2066 3103 1784 3103 
Q 1356 3103 1142 2972 
Q 928 2841 928 2578 
Q 928 2378 1081 2264 
Q 1234 2150 1697 2047 
L 1894 2003 
Q 2506 1872 2764 1633 
Q 3022 1394 3022 966 
Q 3022 478 2636 193 
Q 2250 -91 1575 -91 
Q 1294 -91 989 -36 
Q 684 19 347 128 
L 347 722 
Q 666 556 975 473 
Q 1284 391 1588 391 
Q 1994 391 2212 530 
Q 2431 669 2431 922 
Q 2431 1156 2273 1281 
Q 2116 1406 1581 1522 
L 1381 1569 
Q 847 1681 609 1914 
Q 372 2147 372 2553 
Q 372 3047 722 3315 
Q 1072 3584 1716 3584 
Q 2034 3584 2315 3537 
Q 2597 3491 2834 3397 
z
" transform="scale(0.015625)"/>
      <path id="DejaVuSans-75" d="M 544 1381 
L 544 3500 
L 1119 3500 
L 1119 1403 
Q 1119 906 1312 657 
Q 1506 409 1894 409 
Q 2359 409 2629 706 
Q 2900 1003 2900 1516 
L 2900 3500 
L 3475 3500 
L 3475 0 
L 2900 0 
L 2900 538 
Q 2691 219 2414 64 
Q 2138 -91 1772 -91 
Q 1169 -91 856 284 
Q 544 659 544 1381 
z
M 1991 3584 
L 1991 3584 
z
" transform="scale(0.015625)"/>
      <path id="DejaVuSans-62" d="M 3116 1747 
Q 3116 2381 2855 2742 
Q 2594 3103 2138 3103 
Q 1681 3103 1420 2742 
Q 1159 2381 1159 1747 
Q 1159 1113 1420 752 
Q 1681 391 2138 391 
Q 2594 391 2855 752 
Q 3116 1113 3116 1747 
z
M 1159 2969 
Q 1341 3281 1617 3432 
Q 1894 3584 2278 3584 
Q 2916 3584 3314 3078 
Q 3713 2572 3713 1747 
Q 3713 922 3314 415 
Q 2916 -91 2278 -91 
Q 1894 -91 1617 61 
Q 1341 213 1159 525 
L 1159 0 
L 581 0 
L 581 4863 
L 1159 4863 
L 1159 2969 
z
" transform="scale(0.015625)"/>
      <path id="DejaVuSans-63" d="M 3122 3366 
L 3122 2828 
Q 2878 2963 2633 3030 
Q 2388 3097 2138 3097 
Q 1578 3097 1268 2742 
Q 959 2388 959 1747 
Q 959 1106 1268 751 
Q 1578 397 2138 397 
Q 2388 397 2633 464 
Q 2878 531 3122 666 
L 3122 134 
Q 2881 22 2623 -34 
Q 2366 -91 2075 -91 
Q 1284 -91 818 406 
Q 353 903 353 1747 
Q 353 2603 823 3093 
Q 1294 3584 2113 3584 
Q 2378 3584 2631 3529 
Q 2884 3475 3122 3366 
z
" transform="scale(0.015625)"/>
      <path id="DejaVuSans-72" d="M 2631 2963 
Q 2534 3019 2420 3045 
Q 2306 3072 2169 3072 
Q 1681 3072 1420 2755 
Q 1159 2438 1159 1844 
L 1159 0 
L 581 0 
L 581 3500 
L 1159 3500 
L 1159 2956 
Q 1341 3275 1631 3429 
Q 1922 3584 2338 3584 
Q 2397 3584 2469 3576 
Q 2541 3569 2628 3553 
L 2631 2963 
z
" transform="scale(0.015625)"/>
      <path id="DejaVuSans-69" d="M 603 3500 
L 1178 3500 
L 1178 0 
L 603 0 
L 603 3500 
z
M 603 4863 
L 1178 4863 
L 1178 4134 
L 603 4134 
L 603 4863 
z
" transform="scale(0.015625)"/>
      <path id="DejaVuSans-20" transform="scale(0.015625)"/>
      <path id="DejaVuSans-68" d="M 3513 2113 
L 3513 0 
L 2938 0 
L 2938 2094 
Q 2938 2591 2744 2837 
Q 2550 3084 2163 3084 
Q 1697 3084 1428 2787 
Q 1159 2491 1159 1978 
L 1159 0 
L 581 0 
L 581 4863 
L 1159 4863 
L 1159 2956 
Q 1366 3272 1645 3428 
Q 1925 3584 2291 3584 
Q 2894 3584 3203 3211 
Q 3513 2838 3513 2113 
z
" transform="scale(0.015625)"/>
      <path id="DejaVuSans-6f" d="M 1959 3097 
Q 1497 3097 1228 2736 
Q 959 2375 959 1747 
Q 959 1119 1226 758 
Q 1494 397 1959 397 
Q 2419 397 2687 759 
Q 2956 1122 2956 1747 
Q 2956 2369 2687 2733 
Q 2419 3097 1959 3097 
z
M 1959 3584 
Q 2709 3584 3137 3096 
Q 3566 2609 3566 1747 
Q 3566 888 3137 398 
Q 2709 -91 1959 -91 
Q 1206 -91 779 398 
Q 353 888 353 1747 
Q 353 2609 779 3096 
Q 1206 3584 1959 3584 
z
" transform="scale(0.015625)"/>
      <path id="DejaVuSans-79" d="M 2059 -325 
Q 1816 -950 1584 -1140 
Q 1353 -1331 966 -1331 
L 506 -1331 
L 506 -850 
L 844 -850 
Q 1081 -850 1212 -737 
Q 1344 -625 1503 -206 
L 1606 56 
L 191 3500 
L 800 3500 
L 1894 763 
L 2988 3500 
L 3597 3500 
L 2059 -325 
z
" transform="scale(0.015625)"/>
     </defs>
     <use xlink:href="#DejaVuSans-67"/>
     <use xlink:href="#DejaVuSans-65" transform="translate(63.476562 0)"/>
     <use xlink:href="#DejaVuSans-74" transform="translate(125 0)"/>
     <use xlink:href="#DejaVuSans-5f" transform="translate(164.208984 0)"/>
     <use xlink:href="#DejaVuSans-73" transform="translate(214.208984 0)"/>
     <use xlink:href="#DejaVuSans-75" transform="translate(266.308594 0)"/>
     <use xlink:href="#DejaVuSans-62" transform="translate(329.6875 0)"/>
     <use xlink:href="#DejaVuSans-73" transform="translate(393.164062 0)"/>
     <use xlink:href="#DejaVuSans-63" transform="translate(445.263672 0)"/>
     <use xlink:href="#DejaVuSans-72" transform="translate(500.244141 0)"/>
     <use xlink:href="#DejaVuSans-69" transform="translate(541.357422 0)"/>
     <use xlink:href="#DejaVuSans-62" transform="translate(569.140625 0)"/>
     <use xlink:href="#DejaVuSans-65" transform="translate(632.617188 0)"/>
     <use xlink:href="#DejaVuSans-20" transform="translate(694.140625 0)"/>
     <use xlink:href="#DejaVuSans-68" transform="translate(725.927734 0)"/>
     <use xlink:href="#DejaVuSans-69" transform="translate(789.306641 0)"/>
     <use xlink:href="#DejaVuSans-73" transform="translate(817.089844 0)"/>
     <use xlink:href="#DejaVuSans-74" transform="translate(869.189453 0)"/>
     <use xlink:href="#DejaVuSans-6f" transform="translate(908.398438 0)"/>
     <use xlink:href="#DejaVuSans-72" transform="translate(969.580078 0)"/>
     <use xlink:href="#DejaVuSans-79" transform="translate(1010.693359 0)"/>
    </g>
   </g>
   <g id="legend_1">
    <g id="line2d_35">
     <path d="M 815.08 328.498438 
L 825.08 328.498438 
L 835.08 328.498438 
" style="fill: none; stroke: #1f77b4; stroke-width: 1.5; stroke-linecap: square"/>
    </g>
    <g id="text_18">
     <!-- star -->
     <g style="fill: #a9a9a9" transform="translate(843.08 331.998438) scale(0.1 -0.1)">
      <defs>
       <path id="DejaVuSans-61" d="M 2194 1759 
Q 1497 1759 1228 1600 
Q 959 1441 959 1056 
Q 959 750 1161 570 
Q 1363 391 1709 391 
Q 2188 391 2477 730 
Q 2766 1069 2766 1631 
L 2766 1759 
L 2194 1759 
z
M 3341 1997 
L 3341 0 
L 2766 0 
L 2766 531 
Q 2569 213 2275 61 
Q 1981 -91 1556 -91 
Q 1019 -91 701 211 
Q 384 513 384 1019 
Q 384 1609 779 1909 
Q 1175 2209 1959 2209 
L 2766 2209 
L 2766 2266 
Q 2766 2663 2505 2880 
Q 2244 3097 1772 3097 
Q 1472 3097 1187 3025 
Q 903 2953 641 2809 
L 641 3341 
Q 956 3463 1253 3523 
Q 1550 3584 1831 3584 
Q 2591 3584 2966 3190 
Q 3341 2797 3341 1997 
z
" transform="scale(0.015625)"/>
      </defs>
      <use xlink:href="#DejaVuSans-73"/>
      <use xlink:href="#DejaVuSans-74" transform="translate(52.099609 0)"/>
      <use xlink:href="#DejaVuSans-61" transform="translate(91.308594 0)"/>
      <use xlink:href="#DejaVuSans-72" transform="translate(152.587891 0)"/>
     </g>
    </g>
    <g id="line2d_36">
     <path d="M 815.08 343.176562 
L 825.08 343.176562 
L 835.08 343.176562 
" style="fill: none; stroke: #ff7f0e; stroke-width: 1.5; stroke-linecap: square"/>
    </g>
    <g id="text_19">
     <!-- fork -->
     <g style="fill: #a9a9a9" transform="translate(843.08 346.676562) scale(0.1 -0.1)">
      <defs>
       <path id="DejaVuSans-66" d="M 2375 4863 
L 2375 4384 
L 1825 4384 
Q 1516 4384 1395 4259 
Q 1275 4134 1275 3809 
L 1275 3500 
L 2222 3500 
L 2222 3053 
L 1275 3053 
L 1275 0 
L 697 0 
L 697 3053 
L 147 3053 
L 147 3500 
L 697 3500 
L 697 3744 
Q 697 4328 969 4595 
Q 1241 4863 1831 4863 
L 2375 4863 
z
" transform="scale(0.015625)"/>
       <path id="DejaVuSans-6b" d="M 581 4863 
L 1159 4863 
L 1159 1991 
L 2875 3500 
L 3609 3500 
L 1753 1863 
L 3688 0 
L 2938 0 
L 1159 1709 
L 1159 0 
L 581 0 
L 581 4863 
z
" transform="scale(0.015625)"/>
      </defs>
      <use xlink:href="#DejaVuSans-66"/>
      <use xlink:href="#DejaVuSans-6f" transform="translate(35.205078 0)"/>
      <use xlink:href="#DejaVuSans-72" transform="translate(96.386719 0)"/>
      <use xlink:href="#DejaVuSans-6b" transform="translate(137.5 0)"/>
     </g>
    </g>
   </g>
  </g>
 </g>
 <defs>
  <clipPath id="p5c4b7e820b">
   <rect x="108" y="43.2" width="669.6" height="277.2"/>
  </clipPath>
 </defs>
</svg>
