<?xml version="1.0" encoding="utf-8" standalone="no"?>
<!DOCTYPE svg PUBLIC "-//W3C//DTD SVG 1.1//EN"
  "http://www.w3.org/Graphics/SVG/1.1/DTD/svg11.dtd">
<svg xmlns:xlink="http://www.w3.org/1999/xlink" width="864pt" height="360pt" viewBox="0 0 864 360" xmlns="http://www.w3.org/2000/svg" version="1.1">
 <metadata>
  <rdf:RDF xmlns:dc="http://purl.org/dc/elements/1.1/" xmlns:cc="http://creativecommons.org/ns#" xmlns:rdf="http://www.w3.org/1999/02/22-rdf-syntax-ns#">
   <cc:Work>
    <dc:type rdf:resource="http://purl.org/dc/dcmitype/StillImage"/>
    <dc:date>2025-03-20T08:14:50.416196</dc:date>
    <dc:format>image/svg+xml</dc:format>
    <dc:creator>
     <cc:Agent>
      <dc:title>Matplotlib v3.10.1, https://matplotlib.org/</dc:title>
     </cc:Agent>
    </dc:creator>
   </cc:Work>
  </rdf:RDF>
 </metadata>
 <defs>
  <style type="text/css">*{stroke-linejoin: round; stroke-linecap: butt}</style>
 </defs>
 <g id="figure_1">
  <g id="patch_1">
   <path d="M 0 360 
L 864 360 
L 864 0 
L 0 0 
L 0 360 
z
" style="fill: none; opacity: 0"/>
  </g>
  <g id="axes_1">
   <g id="patch_2">
    <path d="M 108 320.4 
L 777.6 320.4 
L 777.6 43.2 
L 108 43.2 
L 108 320.4 
z
" style="fill: none; opacity: 0"/>
   </g>
   <g id="matplotlib.axis_1">
    <g id="xtick_1">
     <g id="line2d_1">
      <path d="M 127.948927 320.4 
L 127.948927 43.2 
" clip-path="url(#pfe321dcad8)" style="fill: none; stroke-dasharray: 5.12,1.28,0.8,1.28; stroke-dashoffset: 0; stroke: #b0b0b0; stroke-width: 0.8"/>
     </g>
     <g id="line2d_2">
      <defs>
       <path id="m5ce0981d8b" d="M 0 0 
L 0 3.5 
" style="stroke: #a9a9a9; stroke-width: 0.8"/>
      </defs>
      <g>
       <use xlink:href="#m5ce0981d8b" x="127.948927" y="320.4" style="fill: #a9a9a9; stroke: #a9a9a9; stroke-width: 0.8"/>
      </g>
     </g>
     <g id="text_1">
      <!-- 2021-07 -->
      <g style="fill: #a9a9a9" transform="translate(107.057521 334.998438) scale(0.1 -0.1)">
       <defs>
        <path id="DejaVuSans-32" d="M 1228 531 
L 3431 531 
L 3431 0 
L 469 0 
L 469 531 
Q 828 903 1448 1529 
Q 2069 2156 2228 2338 
Q 2531 2678 2651 2914 
Q 2772 3150 2772 3378 
Q 2772 3750 2511 3984 
Q 2250 4219 1831 4219 
Q 1534 4219 1204 4116 
Q 875 4013 500 3803 
L 500 4441 
Q 881 4594 1212 4672 
Q 1544 4750 1819 4750 
Q 2544 4750 2975 4387 
Q 3406 4025 3406 3419 
Q 3406 3131 3298 2873 
Q 3191 2616 2906 2266 
Q 2828 2175 2409 1742 
Q 1991 1309 1228 531 
z
" transform="scale(0.015625)"/>
        <path id="DejaVuSans-30" d="M 2034 4250 
Q 1547 4250 1301 3770 
Q 1056 3291 1056 2328 
Q 1056 1369 1301 889 
Q 1547 409 2034 409 
Q 2525 409 2770 889 
Q 3016 1369 3016 2328 
Q 3016 3291 2770 3770 
Q 2525 4250 2034 4250 
z
M 2034 4750 
Q 2819 4750 3233 4129 
Q 3647 3509 3647 2328 
Q 3647 1150 3233 529 
Q 2819 -91 2034 -91 
Q 1250 -91 836 529 
Q 422 1150 422 2328 
Q 422 3509 836 4129 
Q 1250 4750 2034 4750 
z
" transform="scale(0.015625)"/>
        <path id="DejaVuSans-31" d="M 794 531 
L 1825 531 
L 1825 4091 
L 703 3866 
L 703 4441 
L 1819 4666 
L 2450 4666 
L 2450 531 
L 3481 531 
L 3481 0 
L 794 0 
L 794 531 
z
" transform="scale(0.015625)"/>
        <path id="DejaVuSans-2d" d="M 313 2009 
L 1997 2009 
L 1997 1497 
L 313 1497 
L 313 2009 
z
" transform="scale(0.015625)"/>
        <path id="DejaVuSans-37" d="M 525 4666 
L 3525 4666 
L 3525 4397 
L 1831 0 
L 1172 0 
L 2766 4134 
L 525 4134 
L 525 4666 
z
" transform="scale(0.015625)"/>
       </defs>
       <use xlink:href="#DejaVuSans-32"/>
       <use xlink:href="#DejaVuSans-30" transform="translate(63.623047 0)"/>
       <use xlink:href="#DejaVuSans-32" transform="translate(127.246094 0)"/>
       <use xlink:href="#DejaVuSans-31" transform="translate(190.869141 0)"/>
       <use xlink:href="#DejaVuSans-2d" transform="translate(254.492188 0)"/>
       <use xlink:href="#DejaVuSans-30" transform="translate(290.576172 0)"/>
       <use xlink:href="#DejaVuSans-37" transform="translate(354.199219 0)"/>
      </g>
     </g>
    </g>
    <g id="xtick_2">
     <g id="line2d_3">
      <path d="M 211.848417 320.4 
L 211.848417 43.2 
" clip-path="url(#pfe321dcad8)" style="fill: none; stroke-dasharray: 5.12,1.28,0.8,1.28; stroke-dashoffset: 0; stroke: #b0b0b0; stroke-width: 0.8"/>
     </g>
     <g id="line2d_4">
      <g>
       <use xlink:href="#m5ce0981d8b" x="211.848417" y="320.4" style="fill: #a9a9a9; stroke: #a9a9a9; stroke-width: 0.8"/>
      </g>
     </g>
     <g id="text_2">
      <!-- 2022-01 -->
      <g style="fill: #a9a9a9" transform="translate(190.957011 334.998438) scale(0.1 -0.1)">
       <use xlink:href="#DejaVuSans-32"/>
       <use xlink:href="#DejaVuSans-30" transform="translate(63.623047 0)"/>
       <use xlink:href="#DejaVuSans-32" transform="translate(127.246094 0)"/>
       <use xlink:href="#DejaVuSans-32" transform="translate(190.869141 0)"/>
       <use xlink:href="#DejaVuSans-2d" transform="translate(254.492188 0)"/>
       <use xlink:href="#DejaVuSans-30" transform="translate(290.576172 0)"/>
       <use xlink:href="#DejaVuSans-31" transform="translate(354.199219 0)"/>
      </g>
     </g>
    </g>
    <g id="xtick_3">
     <g id="line2d_5">
      <path d="M 294.37998 320.4 
L 294.37998 43.2 
" clip-path="url(#pfe321dcad8)" style="fill: none; stroke-dasharray: 5.12,1.28,0.8,1.28; stroke-dashoffset: 0; stroke: #b0b0b0; stroke-width: 0.8"/>
     </g>
     <g id="line2d_6">
      <g>
       <use xlink:href="#m5ce0981d8b" x="294.37998" y="320.4" style="fill: #a9a9a9; stroke: #a9a9a9; stroke-width: 0.8"/>
      </g>
     </g>
     <g id="text_3">
      <!-- 2022-07 -->
      <g style="fill: #a9a9a9" transform="translate(273.488573 334.998438) scale(0.1 -0.1)">
       <use xlink:href="#DejaVuSans-32"/>
       <use xlink:href="#DejaVuSans-30" transform="translate(63.623047 0)"/>
       <use xlink:href="#DejaVuSans-32" transform="translate(127.246094 0)"/>
       <use xlink:href="#DejaVuSans-32" transform="translate(190.869141 0)"/>
       <use xlink:href="#DejaVuSans-2d" transform="translate(254.492188 0)"/>
       <use xlink:href="#DejaVuSans-30" transform="translate(290.576172 0)"/>
       <use xlink:href="#DejaVuSans-37" transform="translate(354.199219 0)"/>
      </g>
     </g>
    </g>
    <g id="xtick_4">
     <g id="line2d_7">
      <path d="M 378.279469 320.4 
L 378.279469 43.2 
" clip-path="url(#pfe321dcad8)" style="fill: none; stroke-dasharray: 5.12,1.28,0.8,1.28; stroke-dashoffset: 0; stroke: #b0b0b0; stroke-width: 0.8"/>
     </g>
     <g id="line2d_8">
      <g>
       <use xlink:href="#m5ce0981d8b" x="378.279469" y="320.4" style="fill: #a9a9a9; stroke: #a9a9a9; stroke-width: 0.8"/>
      </g>
     </g>
     <g id="text_4">
      <!-- 2023-01 -->
      <g style="fill: #a9a9a9" transform="translate(357.388063 334.998438) scale(0.1 -0.1)">
       <defs>
        <path id="DejaVuSans-33" d="M 2597 2516 
Q 3050 2419 3304 2112 
Q 3559 1806 3559 1356 
Q 3559 666 3084 287 
Q 2609 -91 1734 -91 
Q 1441 -91 1130 -33 
Q 819 25 488 141 
L 488 750 
Q 750 597 1062 519 
Q 1375 441 1716 441 
Q 2309 441 2620 675 
Q 2931 909 2931 1356 
Q 2931 1769 2642 2001 
Q 2353 2234 1838 2234 
L 1294 2234 
L 1294 2753 
L 1863 2753 
Q 2328 2753 2575 2939 
Q 2822 3125 2822 3475 
Q 2822 3834 2567 4026 
Q 2313 4219 1838 4219 
Q 1578 4219 1281 4162 
Q 984 4106 628 3988 
L 628 4550 
Q 988 4650 1302 4700 
Q 1616 4750 1894 4750 
Q 2613 4750 3031 4423 
Q 3450 4097 3450 3541 
Q 3450 3153 3228 2886 
Q 3006 2619 2597 2516 
z
" transform="scale(0.015625)"/>
       </defs>
       <use xlink:href="#DejaVuSans-32"/>
       <use xlink:href="#DejaVuSans-30" transform="translate(63.623047 0)"/>
       <use xlink:href="#DejaVuSans-32" transform="translate(127.246094 0)"/>
       <use xlink:href="#DejaVuSans-33" transform="translate(190.869141 0)"/>
       <use xlink:href="#DejaVuSans-2d" transform="translate(254.492188 0)"/>
       <use xlink:href="#DejaVuSans-30" transform="translate(290.576172 0)"/>
       <use xlink:href="#DejaVuSans-31" transform="translate(354.199219 0)"/>
      </g>
     </g>
    </g>
    <g id="xtick_5">
     <g id="line2d_9">
      <path d="M 460.811032 320.4 
L 460.811032 43.2 
" clip-path="url(#pfe321dcad8)" style="fill: none; stroke-dasharray: 5.12,1.28,0.8,1.28; stroke-dashoffset: 0; stroke: #b0b0b0; stroke-width: 0.8"/>
     </g>
     <g id="line2d_10">
      <g>
       <use xlink:href="#m5ce0981d8b" x="460.811032" y="320.4" style="fill: #a9a9a9; stroke: #a9a9a9; stroke-width: 0.8"/>
      </g>
     </g>
     <g id="text_5">
      <!-- 2023-07 -->
      <g style="fill: #a9a9a9" transform="translate(439.919625 334.998438) scale(0.1 -0.1)">
       <use xlink:href="#DejaVuSans-32"/>
       <use xlink:href="#DejaVuSans-30" transform="translate(63.623047 0)"/>
       <use xlink:href="#DejaVuSans-32" transform="translate(127.246094 0)"/>
       <use xlink:href="#DejaVuSans-33" transform="translate(190.869141 0)"/>
       <use xlink:href="#DejaVuSans-2d" transform="translate(254.492188 0)"/>
       <use xlink:href="#DejaVuSans-30" transform="translate(290.576172 0)"/>
       <use xlink:href="#DejaVuSans-37" transform="translate(354.199219 0)"/>
      </g>
     </g>
    </g>
    <g id="xtick_6">
     <g id="line2d_11">
      <path d="M 544.710521 320.4 
L 544.710521 43.2 
" clip-path="url(#pfe321dcad8)" style="fill: none; stroke-dasharray: 5.12,1.28,0.8,1.28; stroke-dashoffset: 0; stroke: #b0b0b0; stroke-width: 0.8"/>
     </g>
     <g id="line2d_12">
      <g>
       <use xlink:href="#m5ce0981d8b" x="544.710521" y="320.4" style="fill: #a9a9a9; stroke: #a9a9a9; stroke-width: 0.8"/>
      </g>
     </g>
     <g id="text_6">
      <!-- 2024-01 -->
      <g style="fill: #a9a9a9" transform="translate(523.819115 334.998438) scale(0.1 -0.1)">
       <defs>
        <path id="DejaVuSans-34" d="M 2419 4116 
L 825 1625 
L 2419 1625 
L 2419 4116 
z
M 2253 4666 
L 3047 4666 
L 3047 1625 
L 3713 1625 
L 3713 1100 
L 3047 1100 
L 3047 0 
L 2419 0 
L 2419 1100 
L 313 1100 
L 313 1709 
L 2253 4666 
z
" transform="scale(0.015625)"/>
       </defs>
       <use xlink:href="#DejaVuSans-32"/>
       <use xlink:href="#DejaVuSans-30" transform="translate(63.623047 0)"/>
       <use xlink:href="#DejaVuSans-32" transform="translate(127.246094 0)"/>
       <use xlink:href="#DejaVuSans-34" transform="translate(190.869141 0)"/>
       <use xlink:href="#DejaVuSans-2d" transform="translate(254.492188 0)"/>
       <use xlink:href="#DejaVuSans-30" transform="translate(290.576172 0)"/>
       <use xlink:href="#DejaVuSans-31" transform="translate(354.199219 0)"/>
      </g>
     </g>
    </g>
    <g id="xtick_7">
     <g id="line2d_13">
      <path d="M 627.698059 320.4 
L 627.698059 43.2 
" clip-path="url(#pfe321dcad8)" style="fill: none; stroke-dasharray: 5.12,1.28,0.8,1.28; stroke-dashoffset: 0; stroke: #b0b0b0; stroke-width: 0.8"/>
     </g>
     <g id="line2d_14">
      <g>
       <use xlink:href="#m5ce0981d8b" x="627.698059" y="320.4" style="fill: #a9a9a9; stroke: #a9a9a9; stroke-width: 0.8"/>
      </g>
     </g>
     <g id="text_7">
      <!-- 2024-07 -->
      <g style="fill: #a9a9a9" transform="translate(606.806653 334.998438) scale(0.1 -0.1)">
       <use xlink:href="#DejaVuSans-32"/>
       <use xlink:href="#DejaVuSans-30" transform="translate(63.623047 0)"/>
       <use xlink:href="#DejaVuSans-32" transform="translate(127.246094 0)"/>
       <use xlink:href="#DejaVuSans-34" transform="translate(190.869141 0)"/>
       <use xlink:href="#DejaVuSans-2d" transform="translate(254.492188 0)"/>
       <use xlink:href="#DejaVuSans-30" transform="translate(290.576172 0)"/>
       <use xlink:href="#DejaVuSans-37" transform="translate(354.199219 0)"/>
      </g>
     </g>
    </g>
    <g id="xtick_8">
     <g id="line2d_15">
      <path d="M 711.597549 320.4 
L 711.597549 43.2 
" clip-path="url(#pfe321dcad8)" style="fill: none; stroke-dasharray: 5.12,1.28,0.8,1.28; stroke-dashoffset: 0; stroke: #b0b0b0; stroke-width: 0.8"/>
     </g>
     <g id="line2d_16">
      <g>
       <use xlink:href="#m5ce0981d8b" x="711.597549" y="320.4" style="fill: #a9a9a9; stroke: #a9a9a9; stroke-width: 0.8"/>
      </g>
     </g>
     <g id="text_8">
      <!-- 2025-01 -->
      <g style="fill: #a9a9a9" transform="translate(690.706142 334.998438) scale(0.1 -0.1)">
       <defs>
        <path id="DejaVuSans-35" d="M 691 4666 
L 3169 4666 
L 3169 4134 
L 1269 4134 
L 1269 2991 
Q 1406 3038 1543 3061 
Q 1681 3084 1819 3084 
Q 2600 3084 3056 2656 
Q 3513 2228 3513 1497 
Q 3513 744 3044 326 
Q 2575 -91 1722 -91 
Q 1428 -91 1123 -41 
Q 819 9 494 109 
L 494 744 
Q 775 591 1075 516 
Q 1375 441 1709 441 
Q 2250 441 2565 725 
Q 2881 1009 2881 1497 
Q 2881 1984 2565 2268 
Q 2250 2553 1709 2553 
Q 1456 2553 1204 2497 
Q 953 2441 691 2322 
L 691 4666 
z
" transform="scale(0.015625)"/>
       </defs>
       <use xlink:href="#DejaVuSans-32"/>
       <use xlink:href="#DejaVuSans-30" transform="translate(63.623047 0)"/>
       <use xlink:href="#DejaVuSans-32" transform="translate(127.246094 0)"/>
       <use xlink:href="#DejaVuSans-35" transform="translate(190.869141 0)"/>
       <use xlink:href="#DejaVuSans-2d" transform="translate(254.492188 0)"/>
       <use xlink:href="#DejaVuSans-30" transform="translate(290.576172 0)"/>
       <use xlink:href="#DejaVuSans-31" transform="translate(354.199219 0)"/>
      </g>
     </g>
    </g>
   </g>
   <g id="matplotlib.axis_2">
    <g id="ytick_1">
     <g id="line2d_17">
      <path d="M 108 307.833935 
L 777.6 307.833935 
" clip-path="url(#pfe321dcad8)" style="fill: none; stroke-dasharray: 5.12,1.28,0.8,1.28; stroke-dashoffset: 0; stroke: #b0b0b0; stroke-width: 0.8"/>
     </g>
     <g id="line2d_18">
      <defs>
       <path id="maed363d5c7" d="M 0 0 
L -3.5 0 
" style="stroke: #a9a9a9; stroke-width: 0.8"/>
      </defs>
      <g>
       <use xlink:href="#maed363d5c7" x="108" y="307.833935" style="fill: #a9a9a9; stroke: #a9a9a9; stroke-width: 0.8"/>
      </g>
     </g>
     <g id="text_9">
      <!-- 0 -->
      <g style="fill: #a9a9a9" transform="translate(94.6375 311.633154) scale(0.1 -0.1)">
       <use xlink:href="#DejaVuSans-30"/>
      </g>
     </g>
    </g>
    <g id="ytick_2">
     <g id="line2d_19">
      <path d="M 108 273.899111 
L 777.6 273.899111 
" clip-path="url(#pfe321dcad8)" style="fill: none; stroke-dasharray: 5.12,1.28,0.8,1.28; stroke-dashoffset: 0; stroke: #b0b0b0; stroke-width: 0.8"/>
     </g>
     <g id="line2d_20">
      <g>
       <use xlink:href="#maed363d5c7" x="108" y="273.899111" style="fill: #a9a9a9; stroke: #a9a9a9; stroke-width: 0.8"/>
      </g>
     </g>
     <g id="text_10">
      <!-- 1000 -->
      <g style="fill: #a9a9a9" transform="translate(75.55 277.69833) scale(0.1 -0.1)">
       <use xlink:href="#DejaVuSans-31"/>
       <use xlink:href="#DejaVuSans-30" transform="translate(63.623047 0)"/>
       <use xlink:href="#DejaVuSans-30" transform="translate(127.246094 0)"/>
       <use xlink:href="#DejaVuSans-30" transform="translate(190.869141 0)"/>
      </g>
     </g>
    </g>
    <g id="ytick_3">
     <g id="line2d_21">
      <path d="M 108 239.964288 
L 777.6 239.964288 
" clip-path="url(#pfe321dcad8)" style="fill: none; stroke-dasharray: 5.12,1.28,0.8,1.28; stroke-dashoffset: 0; stroke: #b0b0b0; stroke-width: 0.8"/>
     </g>
     <g id="line2d_22">
      <g>
       <use xlink:href="#maed363d5c7" x="108" y="239.964288" style="fill: #a9a9a9; stroke: #a9a9a9; stroke-width: 0.8"/>
      </g>
     </g>
     <g id="text_11">
      <!-- 2000 -->
      <g style="fill: #a9a9a9" transform="translate(75.55 243.763506) scale(0.1 -0.1)">
       <use xlink:href="#DejaVuSans-32"/>
       <use xlink:href="#DejaVuSans-30" transform="translate(63.623047 0)"/>
       <use xlink:href="#DejaVuSans-30" transform="translate(127.246094 0)"/>
       <use xlink:href="#DejaVuSans-30" transform="translate(190.869141 0)"/>
      </g>
     </g>
    </g>
    <g id="ytick_4">
     <g id="line2d_23">
      <path d="M 108 206.029464 
L 777.6 206.029464 
" clip-path="url(#pfe321dcad8)" style="fill: none; stroke-dasharray: 5.12,1.28,0.8,1.28; stroke-dashoffset: 0; stroke: #b0b0b0; stroke-width: 0.8"/>
     </g>
     <g id="line2d_24">
      <g>
       <use xlink:href="#maed363d5c7" x="108" y="206.029464" style="fill: #a9a9a9; stroke: #a9a9a9; stroke-width: 0.8"/>
      </g>
     </g>
     <g id="text_12">
      <!-- 3000 -->
      <g style="fill: #a9a9a9" transform="translate(75.55 209.828683) scale(0.1 -0.1)">
       <use xlink:href="#DejaVuSans-33"/>
       <use xlink:href="#DejaVuSans-30" transform="translate(63.623047 0)"/>
       <use xlink:href="#DejaVuSans-30" transform="translate(127.246094 0)"/>
       <use xlink:href="#DejaVuSans-30" transform="translate(190.869141 0)"/>
      </g>
     </g>
    </g>
    <g id="ytick_5">
     <g id="line2d_25">
      <path d="M 108 172.09464 
L 777.6 172.09464 
" clip-path="url(#pfe321dcad8)" style="fill: none; stroke-dasharray: 5.12,1.28,0.8,1.28; stroke-dashoffset: 0; stroke: #b0b0b0; stroke-width: 0.8"/>
     </g>
     <g id="line2d_26">
      <g>
       <use xlink:href="#maed363d5c7" x="108" y="172.09464" style="fill: #a9a9a9; stroke: #a9a9a9; stroke-width: 0.8"/>
      </g>
     </g>
     <g id="text_13">
      <!-- 4000 -->
      <g style="fill: #a9a9a9" transform="translate(75.55 175.893859) scale(0.1 -0.1)">
       <use xlink:href="#DejaVuSans-34"/>
       <use xlink:href="#DejaVuSans-30" transform="translate(63.623047 0)"/>
       <use xlink:href="#DejaVuSans-30" transform="translate(127.246094 0)"/>
       <use xlink:href="#DejaVuSans-30" transform="translate(190.869141 0)"/>
      </g>
     </g>
    </g>
    <g id="ytick_6">
     <g id="line2d_27">
      <path d="M 108 138.159817 
L 777.6 138.159817 
" clip-path="url(#pfe321dcad8)" style="fill: none; stroke-dasharray: 5.12,1.28,0.8,1.28; stroke-dashoffset: 0; stroke: #b0b0b0; stroke-width: 0.8"/>
     </g>
     <g id="line2d_28">
      <g>
       <use xlink:href="#maed363d5c7" x="108" y="138.159817" style="fill: #a9a9a9; stroke: #a9a9a9; stroke-width: 0.8"/>
      </g>
     </g>
     <g id="text_14">
      <!-- 5000 -->
      <g style="fill: #a9a9a9" transform="translate(75.55 141.959036) scale(0.1 -0.1)">
       <use xlink:href="#DejaVuSans-35"/>
       <use xlink:href="#DejaVuSans-30" transform="translate(63.623047 0)"/>
       <use xlink:href="#DejaVuSans-30" transform="translate(127.246094 0)"/>
       <use xlink:href="#DejaVuSans-30" transform="translate(190.869141 0)"/>
      </g>
     </g>
    </g>
    <g id="ytick_7">
     <g id="line2d_29">
      <path d="M 108 104.224993 
L 777.6 104.224993 
" clip-path="url(#pfe321dcad8)" style="fill: none; stroke-dasharray: 5.12,1.28,0.8,1.28; stroke-dashoffset: 0; stroke: #b0b0b0; stroke-width: 0.8"/>
     </g>
     <g id="line2d_30">
      <g>
       <use xlink:href="#maed363d5c7" x="108" y="104.224993" style="fill: #a9a9a9; stroke: #a9a9a9; stroke-width: 0.8"/>
      </g>
     </g>
     <g id="text_15">
      <!-- 6000 -->
      <g style="fill: #a9a9a9" transform="translate(75.55 108.024212) scale(0.1 -0.1)">
       <defs>
        <path id="DejaVuSans-36" d="M 2113 2584 
Q 1688 2584 1439 2293 
Q 1191 2003 1191 1497 
Q 1191 994 1439 701 
Q 1688 409 2113 409 
Q 2538 409 2786 701 
Q 3034 994 3034 1497 
Q 3034 2003 2786 2293 
Q 2538 2584 2113 2584 
z
M 3366 4563 
L 3366 3988 
Q 3128 4100 2886 4159 
Q 2644 4219 2406 4219 
Q 1781 4219 1451 3797 
Q 1122 3375 1075 2522 
Q 1259 2794 1537 2939 
Q 1816 3084 2150 3084 
Q 2853 3084 3261 2657 
Q 3669 2231 3669 1497 
Q 3669 778 3244 343 
Q 2819 -91 2113 -91 
Q 1303 -91 875 529 
Q 447 1150 447 2328 
Q 447 3434 972 4092 
Q 1497 4750 2381 4750 
Q 2619 4750 2861 4703 
Q 3103 4656 3366 4563 
z
" transform="scale(0.015625)"/>
       </defs>
       <use xlink:href="#DejaVuSans-36"/>
       <use xlink:href="#DejaVuSans-30" transform="translate(63.623047 0)"/>
       <use xlink:href="#DejaVuSans-30" transform="translate(127.246094 0)"/>
       <use xlink:href="#DejaVuSans-30" transform="translate(190.869141 0)"/>
      </g>
     </g>
    </g>
    <g id="ytick_8">
     <g id="line2d_31">
      <path d="M 108 70.29017 
L 777.6 70.29017 
" clip-path="url(#pfe321dcad8)" style="fill: none; stroke-dasharray: 5.12,1.28,0.8,1.28; stroke-dashoffset: 0; stroke: #b0b0b0; stroke-width: 0.8"/>
     </g>
     <g id="line2d_32">
      <g>
       <use xlink:href="#maed363d5c7" x="108" y="70.29017" style="fill: #a9a9a9; stroke: #a9a9a9; stroke-width: 0.8"/>
      </g>
     </g>
     <g id="text_16">
      <!-- 7000 -->
      <g style="fill: #a9a9a9" transform="translate(75.55 74.089388) scale(0.1 -0.1)">
       <use xlink:href="#DejaVuSans-37"/>
       <use xlink:href="#DejaVuSans-30" transform="translate(63.623047 0)"/>
       <use xlink:href="#DejaVuSans-30" transform="translate(127.246094 0)"/>
       <use xlink:href="#DejaVuSans-30" transform="translate(190.869141 0)"/>
      </g>
     </g>
    </g>
   </g>
   <g id="line2d_33">
    <path d="M 138.436364 307.73213 
L 141.172217 307.494587 
L 141.628192 307.290978 
L 143.452094 307.053434 
L 145.275996 306.680151 
L 146.187947 306.544412 
L 148.467824 306.340803 
L 149.379775 305.96752 
L 149.835751 305.356693 
L 150.291726 305.051279 
L 150.747702 303.9993 
L 151.203677 303.93143 
L 151.659653 303.558147 
L 152.571604 303.08306 
L 154.395506 301.589927 
L 156.219408 300.673687 
L 157.587334 300.028925 
L 158.043309 299.282359 
L 158.95526 298.603663 
L 159.411236 298.400054 
L 163.970991 297.721357 
L 164.426966 297.517748 
L 167.618795 297.24627 
L 169.442697 296.805117 
L 173.090501 296.296095 
L 173.546476 296.058551 
L 174.002451 295.990681 
L 174.914402 295.685268 
L 178.106231 295.142311 
L 179.018182 294.870832 
L 183.121961 294.158201 
L 184.033912 293.954592 
L 184.945863 293.920657 
L 186.769765 293.479504 
L 187.225741 292.834743 
L 188.593667 292.291786 
L 189.961593 291.918503 
L 190.417569 291.680959 
L 191.32952 291.511285 
L 193.153422 290.968327 
L 194.065373 290.900458 
L 194.977324 290.662914 
L 196.801226 290.187827 
L 197.257201 290.153892 
L 198.169152 289.712739 
L 198.625128 289.644869 
L 199.081103 289.407326 
L 204.096834 288.558955 
L 205.920735 288.015998 
L 206.376711 287.710584 
L 208.656588 286.964018 
L 209.568539 286.319257 
L 210.936466 286.047778 
L 220.967926 283.095448 
L 221.423902 283.061514 
L 222.791828 282.654296 
L 223.247804 282.654296 
L 223.703779 282.450687 
L 224.61573 282.348882 
L 225.071706 282.179208 
L 226.895608 282.111339 
L 227.807559 281.941664 
L 228.71951 281.466577 
L 230.087436 280.957555 
L 230.543412 280.652141 
L 231.455363 280.244923 
L 231.911338 280.007379 
L 232.823289 279.701966 
L 233.279265 279.566227 
L 234.191216 278.989335 
L 234.647191 278.480312 
L 235.559142 277.05505 
L 236.015117 276.919311 
L 236.471093 276.919311 
L 237.839019 276.104875 
L 238.294995 275.867331 
L 238.75097 275.765527 
L 239.206946 275.324374 
L 240.118897 274.951091 
L 241.030848 274.509938 
L 243.310725 271.557608 
L 246.046578 270.064476 
L 246.958529 269.31791 
L 247.414505 269.012497 
L 247.87048 268.367735 
L 248.326456 267.315755 
L 248.782431 266.603124 
L 249.238407 266.229841 
L 249.694382 266.026232 
L 253.342186 262.63275 
L 254.254137 261.784379 
L 256.98999 260.053703 
L 257.445965 259.884029 
L 258.813892 259.069593 
L 260.181818 258.153353 
L 262.00572 256.490547 
L 262.917671 256.117264 
L 263.829622 255.472502 
L 264.285598 255.201023 
L 264.741573 255.133154 
L 266.109499 254.352653 
L 266.565475 253.84363 
L 268.845352 252.588042 
L 269.301328 252.418368 
L 270.669254 251.468193 
L 277.508887 249.024886 
L 278.420838 248.176515 
L 279.788764 247.497818 
L 280.700715 246.920926 
L 281.612666 246.649448 
L 282.068641 246.344034 
L 282.524617 246.208295 
L 283.892543 245.292055 
L 286.172421 244.749098 
L 287.540347 243.934662 
L 288.908274 243.629249 
L 289.364249 243.527444 
L 290.732176 242.475465 
L 292.556078 241.966442 
L 293.012053 241.593159 
L 295.747906 240.642984 
L 296.659857 240.47331 
L 297.571808 240.100027 
L 300.763636 238.912308 
L 301.675587 238.776569 
L 303.043514 238.301481 
L 305.323391 237.181632 
L 307.147293 236.163587 
L 310.795097 234.63652 
L 311.251073 234.568651 
L 312.163023 233.991759 
L 313.074974 233.754215 
L 314.442901 233.211258 
L 316.266803 232.973714 
L 317.178754 232.498626 
L 317.634729 232.091409 
L 318.090705 231.243038 
L 319.914607 230.734016 
L 321.282533 230.021384 
L 322.194484 229.715971 
L 323.106435 229.240883 
L 325.842288 228.121034 
L 326.754239 227.917425 
L 327.66619 227.442338 
L 328.122165 227.238729 
L 328.578141 227.170859 
L 330.858018 226.05101 
L 331.769969 225.474118 
L 333.137896 225.202639 
L 334.961798 224.693617 
L 335.417773 224.659682 
L 335.873749 224.286399 
L 336.7857 223.980986 
L 339.065577 223.064745 
L 339.521553 222.725397 
L 339.977528 222.555723 
L 340.889479 222.046701 
L 342.713381 221.469809 
L 343.625332 220.892917 
L 344.081307 220.417829 
L 344.537283 220.146351 
L 344.993258 220.044546 
L 345.905209 219.29798 
L 346.361185 219.23011 
L 346.81716 218.483544 
L 347.273136 218.279935 
L 347.729111 217.906652 
L 348.185087 217.838783 
L 349.097038 217.261891 
L 350.008989 216.956477 
L 350.464964 216.617129 
L 350.92094 216.447455 
L 352.744842 215.225801 
L 354.112768 214.51317 
L 355.024719 214.275626 
L 355.93667 213.766604 
L 356.392646 212.986103 
L 357.304597 212.307406 
L 357.760572 212.205602 
L 360.496425 210.882144 
L 361.408376 210.508861 
L 362.776302 209.355077 
L 363.688253 208.574576 
L 364.600204 208.031619 
L 365.05618 207.522596 
L 365.512155 207.217183 
L 366.424106 206.470617 
L 366.880082 206.267008 
L 367.792033 205.350768 
L 368.703984 205.045354 
L 369.615935 204.434527 
L 370.983861 203.721896 
L 371.439837 203.654026 
L 372.807763 202.90746 
L 373.719714 202.330568 
L 378.279469 200.633827 
L 378.735444 200.260544 
L 380.559346 199.547913 
L 381.015322 199.412173 
L 381.927273 198.801347 
L 382.839224 198.394129 
L 383.751175 197.749367 
L 384.663126 195.916887 
L 385.575077 194.830972 
L 386.943003 194.118341 
L 387.854954 193.745058 
L 388.31093 193.677188 
L 388.766905 193.40571 
L 391.046782 192.659144 
L 391.502758 192.455535 
L 392.414709 191.810773 
L 393.782635 191.233881 
L 394.694586 190.724859 
L 395.606537 190.181901 
L 396.062513 189.876488 
L 396.518488 189.367466 
L 397.430439 188.858443 
L 399.710317 187.602855 
L 402.44617 186.211527 
L 403.814096 185.804309 
L 405.182022 185.261352 
L 405.637998 184.922004 
L 406.549949 184.650525 
L 407.4619 184.277242 
L 407.917875 183.903959 
L 409.741777 183.259197 
L 410.653728 182.580501 
L 411.565679 182.207218 
L 412.47763 181.494587 
L 413.389581 181.223108 
L 413.845557 180.81589 
L 414.301532 180.74802 
L 415.213483 180.035389 
L 416.125434 179.560302 
L 416.58141 179.356693 
L 417.037385 178.881605 
L 420.229213 177.592082 
L 421.141164 177.184864 
L 422.509091 176.743711 
L 423.421042 176.607972 
L 423.877017 176.404363 
L 424.332993 176.336493 
L 425.244944 175.929276 
L 425.700919 175.895341 
L 427.524821 175.216644 
L 428.892748 174.232534 
L 429.348723 174.06286 
L 430.260674 173.553838 
L 430.71665 173.418099 
L 433.452503 171.857097 
L 433.908478 171.755292 
L 435.276404 170.940856 
L 436.644331 170.465769 
L 437.556282 170.160356 
L 439.380184 169.549529 
L 440.292135 169.244115 
L 442.116037 168.870832 
L 442.572012 168.667223 
L 443.027988 168.599354 
L 443.939939 168.192136 
L 444.395914 168.124266 
L 444.85189 167.886722 
L 445.763841 167.717048 
L 447.131767 167.208026 
L 448.043718 167.106221 
L 449.411645 166.800808 
L 451.691522 166.39359 
L 463.546885 162.864368 
L 464.00286 162.389281 
L 464.914811 162.015998 
L 468.562615 160.62467 
L 469.01859 160.353191 
L 470.386517 159.945974 
L 471.298468 159.70843 
L 471.754443 159.403016 
L 472.210419 159.301212 
L 472.666394 158.893994 
L 474.034321 158.622515 
L 474.946272 158.181363 
L 475.402247 157.638406 
L 477.226149 157.197253 
L 480.417978 156.518556 
L 480.873953 156.518556 
L 481.329928 156.314947 
L 483.15383 155.975599 
L 483.609806 155.77199 
L 485.433708 155.432642 
L 486.345659 155.025424 
L 487.25761 154.85575 
L 489.537487 154.278858 
L 491.361389 153.701966 
L 491.817365 153.600162 
L 492.27334 153.362618 
L 493.185291 153.125074 
L 494.097242 152.751791 
L 495.009193 152.412443 
L 495.465169 152.107029 
L 496.37712 151.835551 
L 500.024923 150.579962 
L 500.936874 150.512093 
L 502.760776 149.969135 
L 503.216752 149.697657 
L 504.128703 149.426178 
L 506.40858 148.374199 
L 506.864556 148.340264 
L 511.880286 146.541718 
L 514.160163 145.930891 
L 515.072114 145.489739 
L 516.440041 145.184325 
L 518.263943 143.691193 
L 520.087845 142.910692 
L 520.999796 142.503474 
L 523.735649 141.451495 
L 524.191624 141.146081 
L 526.471502 140.399515 
L 527.839428 139.619014 
L 528.295403 139.51721 
L 530.575281 138.261621 
L 531.943207 137.650795 
L 532.399183 137.311446 
L 533.311134 137.006033 
L 535.591011 135.852249 
L 536.958938 135.377161 
L 538.78284 134.630595 
L 540.150766 134.121573 
L 540.606742 133.951899 
L 541.518693 133.816159 
L 541.974668 133.510746 
L 543.79857 133.137463 
L 544.710521 132.76418 
L 546.534423 131.915809 
L 552.91808 129.133154 
L 554.286006 128.692001 
L 554.741982 128.386588 
L 555.653933 128.284783 
L 556.109908 127.97937 
L 557.021859 127.809696 
L 557.93381 127.368543 
L 558.389785 127.164934 
L 558.845761 127.097064 
L 559.757712 126.791651 
L 562.94954 125.671802 
L 564.317467 125.366388 
L 566.141369 124.585887 
L 567.05332 124.076865 
L 568.877222 123.160625 
L 569.789173 122.957016 
L 570.245148 122.685537 
L 570.701124 122.583733 
L 572.06905 121.803232 
L 572.981001 121.429949 
L 574.804903 120.717318 
L 577.08478 119.936817 
L 577.996731 119.461729 
L 580.276609 118.681228 
L 583.012462 117.561379 
L 584.836364 116.713008 
L 589.396118 114.948398 
L 589.852094 114.642984 
L 591.675996 114.032157 
L 592.131971 114.032157 
L 593.043922 113.624939 
L 594.867824 112.131807 
L 595.3238 111.996068 
L 595.779775 111.724589 
L 596.235751 111.622785 
L 596.691726 111.385241 
L 597.147702 111.317371 
L 597.603677 110.978023 
L 598.059653 110.876219 
L 598.971604 110.299327 
L 600.33953 109.586695 
L 601.251481 109.213412 
L 601.707457 108.975869 
L 603.075383 108.670455 
L 605.35526 107.889954 
L 606.267211 107.584541 
L 607.635138 106.87191 
L 608.547089 106.430757 
L 609.45904 106.193213 
L 610.826966 105.548451 
L 614.930746 104.021384 
L 616.298672 103.173014 
L 616.754648 103.071209 
L 617.666599 102.630057 
L 618.57855 102.290708 
L 619.034525 101.88349 
L 619.946476 101.510207 
L 621.314402 101.03512 
L 621.770378 100.661837 
L 622.226353 100.627902 
L 623.138304 100.356423 
L 624.050255 100.05101 
L 624.506231 99.847401 
L 624.962206 99.779531 
L 626.330133 99.270509 
L 627.698059 98.761487 
L 629.521961 97.947051 
L 629.977937 97.879181 
L 633.625741 96.352114 
L 634.993667 95.910961 
L 635.905618 95.843092 
L 636.817569 95.469809 
L 639.553422 94.655373 
L 640.465373 94.621438 
L 644.113177 93.433719 
L 645.025128 92.958632 
L 645.481103 92.551414 
L 646.84903 91.736978 
L 647.760981 91.194021 
L 650.496834 90.311716 
L 650.952809 89.938433 
L 653.688662 88.784649 
L 655.512564 88.275626 
L 656.424515 87.868408 
L 656.88049 87.630865 
L 657.792441 87.359386 
L 658.248417 87.087907 
L 659.160368 86.918233 
L 662.808172 85.357231 
L 663.264147 85.289362 
L 663.720123 84.983948 
L 664.176098 84.814274 
L 664.632074 84.407056 
L 665.088049 84.339187 
L 666.911951 83.626555 
L 668.735853 83.185403 
L 669.191828 83.117533 
L 669.647804 82.913924 
L 670.103779 82.879989 
L 671.01573 82.574576 
L 671.471706 82.540641 
L 672.839632 81.997684 
L 674.663534 81.454727 
L 675.575485 80.77603 
L 677.399387 79.757985 
L 678.767314 79.282898 
L 682.415117 77.552222 
L 682.871093 77.314678 
L 683.327068 76.873525 
L 685.606946 76.262699 
L 686.974872 75.651872 
L 687.886823 75.414328 
L 688.342799 75.176784 
L 688.798774 74.803501 
L 690.622676 74.328414 
L 691.078652 73.989065 
L 697.006333 71.851172 
L 697.918284 71.681497 
L 700.198161 70.968866 
L 701.110112 70.595583 
L 702.022063 70.256235 
L 702.934014 70.018691 
L 703.38999 69.815082 
L 703.845965 69.815082 
L 704.757916 69.441799 
L 705.669867 68.898842 
L 707.949745 68.118341 
L 709.317671 67.643253 
L 709.773647 67.575384 
L 710.685598 67.202101 
L 712.053524 66.896687 
L 713.42145 66.455535 
L 713.877426 66.35373 
L 714.333401 66.048317 
L 715.245352 65.844708 
L 724.364862 63.231726 
L 726.64474 62.824508 
L 727.556691 62.383356 
L 728.468641 61.942203 
L 729.836568 61.534985 
L 734.396323 59.804309 
L 734.852298 59.464961 
L 736.220225 59.159548 
L 737.132176 58.888069 
L 738.044127 58.412981 
L 738.500102 58.005764 
L 739.412053 57.70035 
L 739.868029 57.428872 
L 740.77998 57.327067 
L 743.971808 56.444762 
L 745.339734 56.173283 
L 746.707661 55.8 
L 747.163636 55.8 
L 747.163636 55.8 
" clip-path="url(#pfe321dcad8)" style="fill: none; stroke: #1f77b4; stroke-width: 1.5; stroke-linecap: square"/>
   </g>
   <g id="line2d_34">
    <path d="M 138.892339 307.8 
L 142.996118 307.698196 
L 146.643922 307.528521 
L 148.467824 307.528521 
L 148.9238 307.392782 
L 151.203677 307.290978 
L 153.93953 306.985564 
L 156.675383 306.88376 
L 157.587334 306.781955 
L 160.779162 306.646216 
L 163.970991 306.544412 
L 166.250868 306.476542 
L 172.17855 306.374737 
L 174.458427 306.306868 
L 177.650255 306.205063 
L 179.930133 306.137194 
L 184.945863 306.035389 
L 186.769765 305.865715 
L 188.593667 305.83178 
L 191.32952 305.729976 
L 193.153422 305.696041 
L 195.433299 305.628171 
L 197.257201 305.458497 
L 201.360981 305.356693 
L 202.272932 305.288823 
L 204.096834 305.187019 
L 206.832686 305.085214 
L 208.656588 304.98341 
L 216.864147 304.474387 
L 220.055975 304.372583 
L 221.423902 304.236844 
L 223.703779 304.135039 
L 228.263534 303.897495 
L 232.823289 303.829626 
L 234.647191 303.626017 
L 236.471093 303.524212 
L 241.486823 303.049125 
L 244.678652 302.675842 
L 246.046578 302.607972 
L 249.694382 302.132884 
L 252.430235 302.065015 
L 253.798161 301.929276 
L 255.166088 301.827471 
L 267.933401 300.843361 
L 268.845352 300.673687 
L 271.581205 300.571883 
L 278.876813 300.13073 
L 282.068641 300.028925 
L 283.892543 299.825316 
L 286.172421 299.723512 
L 288.908274 299.621708 
L 291.188151 299.519903 
L 293.012053 299.485968 
L 295.291931 299.418099 
L 296.203882 299.282359 
L 302.587538 299.180555 
L 303.499489 299.07875 
L 308.971195 298.976946 
L 313.074974 298.773337 
L 316.266803 298.671532 
L 318.090705 298.467924 
L 321.282533 298.366119 
L 322.194484 298.196445 
L 324.474362 298.128575 
L 329.034116 298.060706 
L 330.858018 297.891032 
L 332.68192 297.857097 
L 334.049847 297.755292 
L 335.873749 297.585618 
L 340.433504 297.348074 
L 344.993258 297.24627 
L 349.097038 297.042661 
L 350.464964 297.008726 
L 351.376915 296.872987 
L 353.656793 296.771182 
L 354.568744 296.703313 
L 355.480695 296.635443 
L 356.392646 296.567573 
L 360.496425 296.499704 
L 361.864351 296.397899 
L 374.175689 295.583464 
L 376.455567 295.481659 
L 378.735444 295.413789 
L 385.119101 295.311985 
L 386.031052 295.176246 
L 392.414709 295.074441 
L 396.974464 294.836897 
L 397.886415 294.802963 
L 398.798366 294.701158 
L 401.078243 294.599354 
L 403.358121 294.531484 
L 405.637998 294.42968 
L 407.917875 294.36181 
L 412.021655 294.260005 
L 414.757508 294.158201 
L 421.141164 294.056396 
L 426.156895 293.784918 
L 427.980797 293.717048 
L 429.348723 293.615244 
L 435.73238 293.513439 
L 438.468233 293.411635 
L 446.675792 293.30983 
L 448.499694 293.275896 
L 453.971399 293.208026 
L 454.88335 293.140156 
L 461.267007 293.038352 
L 463.090909 293.004417 
L 474.946272 292.902612 
L 476.314198 292.766873 
L 496.833095 292.665069 
L 499.112972 292.597199 
L 510.968335 292.529329 
L 511.880286 292.46146 
L 514.160163 292.39359 
L 515.52809 292.257851 
L 518.263943 292.156046 
L 521.455771 292.020307 
L 525.559551 291.918503 
L 527.839428 291.850633 
L 531.031256 291.748828 
L 534.67906 291.579154 
L 536.958938 291.47735 
L 538.78284 291.443415 
L 542.886619 291.341611 
L 544.710521 291.307676 
L 550.638202 291.205871 
L 552.462104 291.171936 
L 554.741982 291.070132 
L 557.477835 290.968327 
L 560.669663 290.900458 
L 561.581614 290.832588 
L 572.525026 290.730784 
L 578.452707 290.391435 
L 580.732584 290.323566 
L 581.644535 290.221761 
L 582.556486 290.153892 
L 586.20429 290.052087 
L 588.940143 289.950283 
L 593.499898 289.848478 
L 595.779775 289.610935 
L 600.33953 289.50913 
L 601.251481 289.407326 
L 605.811236 289.305521 
L 608.091113 289.237651 
L 613.106844 289.203717 
L 614.018795 289.101912 
L 619.034525 289.000108 
L 619.946476 288.932238 
L 629.977937 288.830434 
L 632.71379 288.728629 
L 639.553422 288.626825 
L 641.377324 288.59289 
L 645.481103 288.52502 
L 646.393054 288.423216 
L 652.320735 288.321411 
L 654.600613 288.253542 
L 662.808172 288.151737 
L 664.176098 288.049933 
L 665.544025 287.948128 
L 666.911951 287.846324 
L 673.751583 287.744519 
L 676.487436 287.642715 
L 688.798774 287.54091 
L 692.902554 287.337301 
L 698.374259 287.235497 
L 699.28621 287.167627 
L 706.125843 287.099758 
L 707.037794 287.031888 
L 712.053524 286.930083 
L 713.877426 286.896149 
L 720.261083 286.794344 
L 722.996936 286.69254 
L 730.748519 286.590735 
L 732.572421 286.5568 
L 736.6762 286.454996 
L 740.324004 286.285322 
L 745.339734 286.183517 
L 747.163636 286.149583 
L 747.163636 286.149583 
" clip-path="url(#pfe321dcad8)" style="fill: none; stroke: #ff7f0e; stroke-width: 1.5; stroke-linecap: square"/>
   </g>
   <g id="patch_3">
    <path d="M 108 320.4 
L 108 43.2 
" style="fill: none; stroke: #a9a9a9; stroke-width: 0.8; stroke-linejoin: miter; stroke-linecap: square"/>
   </g>
   <g id="patch_4">
    <path d="M 777.6 320.4 
L 777.6 43.2 
" style="fill: none"/>
   </g>
   <g id="patch_5">
    <path d="M 108 320.4 
L 777.6 320.4 
" style="fill: none; stroke: #a9a9a9; stroke-width: 0.8; stroke-linejoin: miter; stroke-linecap: square"/>
   </g>
   <g id="patch_6">
    <path d="M 108 43.2 
L 777.6 43.2 
" style="fill: none"/>
   </g>
   <g id="text_17">
    <!-- get_subscribe history -->
    <g style="fill: #a9a9a9" transform="translate(378.6075 37.2) scale(0.12 -0.12)">
     <defs>
      <path id="DejaVuSans-67" d="M 2906 1791 
Q 2906 2416 2648 2759 
Q 2391 3103 1925 3103 
Q 1463 3103 1205 2759 
Q 947 2416 947 1791 
Q 947 1169 1205 825 
Q 1463 481 1925 481 
Q 2391 481 2648 825 
Q 2906 1169 2906 1791 
z
M 3481 434 
Q 3481 -459 3084 -895 
Q 2688 -1331 1869 -1331 
Q 1566 -1331 1297 -1286 
Q 1028 -1241 775 -1147 
L 775 -588 
Q 1028 -725 1275 -790 
Q 1522 -856 1778 -856 
Q 2344 -856 2625 -561 
Q 2906 -266 2906 331 
L 2906 616 
Q 2728 306 2450 153 
Q 2172 0 1784 0 
Q 1141 0 747 490 
Q 353 981 353 1791 
Q 353 2603 747 3093 
Q 1141 3584 1784 3584 
Q 2172 3584 2450 3431 
Q 2728 3278 2906 2969 
L 2906 3500 
L 3481 3500 
L 3481 434 
z
" transform="scale(0.015625)"/>
      <path id="DejaVuSans-65" d="M 3597 1894 
L 3597 1613 
L 953 1613 
Q 991 1019 1311 708 
Q 1631 397 2203 397 
Q 2534 397 2845 478 
Q 3156 559 3463 722 
L 3463 178 
Q 3153 47 2828 -22 
Q 2503 -91 2169 -91 
Q 1331 -91 842 396 
Q 353 884 353 1716 
Q 353 2575 817 3079 
Q 1281 3584 2069 3584 
Q 2775 3584 3186 3129 
Q 3597 2675 3597 1894 
z
M 3022 2063 
Q 3016 2534 2758 2815 
Q 2500 3097 2075 3097 
Q 1594 3097 1305 2825 
Q 1016 2553 972 2059 
L 3022 2063 
z
" transform="scale(0.015625)"/>
      <path id="DejaVuSans-74" d="M 1172 4494 
L 1172 3500 
L 2356 3500 
L 2356 3053 
L 1172 3053 
L 1172 1153 
Q 1172 725 1289 603 
Q 1406 481 1766 481 
L 2356 481 
L 2356 0 
L 1766 0 
Q 1100 0 847 248 
Q 594 497 594 1153 
L 594 3053 
L 172 3053 
L 172 3500 
L 594 3500 
L 594 4494 
L 1172 4494 
z
" transform="scale(0.015625)"/>
      <path id="DejaVuSans-5f" d="M 3263 -1063 
L 3263 -1509 
L -63 -1509 
L -63 -1063 
L 3263 -1063 
z
" transform="scale(0.015625)"/>
      <path id="DejaVuSans-73" d="M 2834 3397 
L 2834 2853 
Q 2591 2978 2328 3040 
Q 2066 3103 1784 3103 
Q 1356 3103 1142 2972 
Q 928 2841 928 2578 
Q 928 2378 1081 2264 
Q 1234 2150 1697 2047 
L 1894 2003 
Q 2506 1872 2764 1633 
Q 3022 1394 3022 966 
Q 3022 478 2636 193 
Q 2250 -91 1575 -91 
Q 1294 -91 989 -36 
Q 684 19 347 128 
L 347 722 
Q 666 556 975 473 
Q 1284 391 1588 391 
Q 1994 391 2212 530 
Q 2431 669 2431 922 
Q 2431 1156 2273 1281 
Q 2116 1406 1581 1522 
L 1381 1569 
Q 847 1681 609 1914 
Q 372 2147 372 2553 
Q 372 3047 722 3315 
Q 1072 3584 1716 3584 
Q 2034 3584 2315 3537 
Q 2597 3491 2834 3397 
z
" transform="scale(0.015625)"/>
      <path id="DejaVuSans-75" d="M 544 1381 
L 544 3500 
L 1119 3500 
L 1119 1403 
Q 1119 906 1312 657 
Q 1506 409 1894 409 
Q 2359 409 2629 706 
Q 2900 1003 2900 1516 
L 2900 3500 
L 3475 3500 
L 3475 0 
L 2900 0 
L 2900 538 
Q 2691 219 2414 64 
Q 2138 -91 1772 -91 
Q 1169 -91 856 284 
Q 544 659 544 1381 
z
M 1991 3584 
L 1991 3584 
z
" transform="scale(0.015625)"/>
      <path id="DejaVuSans-62" d="M 3116 1747 
Q 3116 2381 2855 2742 
Q 2594 3103 2138 3103 
Q 1681 3103 1420 2742 
Q 1159 2381 1159 1747 
Q 1159 1113 1420 752 
Q 1681 391 2138 391 
Q 2594 391 2855 752 
Q 3116 1113 3116 1747 
z
M 1159 2969 
Q 1341 3281 1617 3432 
Q 1894 3584 2278 3584 
Q 2916 3584 3314 3078 
Q 3713 2572 3713 1747 
Q 3713 922 3314 415 
Q 2916 -91 2278 -91 
Q 1894 -91 1617 61 
Q 1341 213 1159 525 
L 1159 0 
L 581 0 
L 581 4863 
L 1159 4863 
L 1159 2969 
z
" transform="scale(0.015625)"/>
      <path id="DejaVuSans-63" d="M 3122 3366 
L 3122 2828 
Q 2878 2963 2633 3030 
Q 2388 3097 2138 3097 
Q 1578 3097 1268 2742 
Q 959 2388 959 1747 
Q 959 1106 1268 751 
Q 1578 397 2138 397 
Q 2388 397 2633 464 
Q 2878 531 3122 666 
L 3122 134 
Q 2881 22 2623 -34 
Q 2366 -91 2075 -91 
Q 1284 -91 818 406 
Q 353 903 353 1747 
Q 353 2603 823 3093 
Q 1294 3584 2113 3584 
Q 2378 3584 2631 3529 
Q 2884 3475 3122 3366 
z
" transform="scale(0.015625)"/>
      <path id="DejaVuSans-72" d="M 2631 2963 
Q 2534 3019 2420 3045 
Q 2306 3072 2169 3072 
Q 1681 3072 1420 2755 
Q 1159 2438 1159 1844 
L 1159 0 
L 581 0 
L 581 3500 
L 1159 3500 
L 1159 2956 
Q 1341 3275 1631 3429 
Q 1922 3584 2338 3584 
Q 2397 3584 2469 3576 
Q 2541 3569 2628 3553 
L 2631 2963 
z
" transform="scale(0.015625)"/>
      <path id="DejaVuSans-69" d="M 603 3500 
L 1178 3500 
L 1178 0 
L 603 0 
L 603 3500 
z
M 603 4863 
L 1178 4863 
L 1178 4134 
L 603 4134 
L 603 4863 
z
" transform="scale(0.015625)"/>
      <path id="DejaVuSans-20" transform="scale(0.015625)"/>
      <path id="DejaVuSans-68" d="M 3513 2113 
L 3513 0 
L 2938 0 
L 2938 2094 
Q 2938 2591 2744 2837 
Q 2550 3084 2163 3084 
Q 1697 3084 1428 2787 
Q 1159 2491 1159 1978 
L 1159 0 
L 581 0 
L 581 4863 
L 1159 4863 
L 1159 2956 
Q 1366 3272 1645 3428 
Q 1925 3584 2291 3584 
Q 2894 3584 3203 3211 
Q 3513 2838 3513 2113 
z
" transform="scale(0.015625)"/>
      <path id="DejaVuSans-6f" d="M 1959 3097 
Q 1497 3097 1228 2736 
Q 959 2375 959 1747 
Q 959 1119 1226 758 
Q 1494 397 1959 397 
Q 2419 397 2687 759 
Q 2956 1122 2956 1747 
Q 2956 2369 2687 2733 
Q 2419 3097 1959 3097 
z
M 1959 3584 
Q 2709 3584 3137 3096 
Q 3566 2609 3566 1747 
Q 3566 888 3137 398 
Q 2709 -91 1959 -91 
Q 1206 -91 779 398 
Q 353 888 353 1747 
Q 353 2609 779 3096 
Q 1206 3584 1959 3584 
z
" transform="scale(0.015625)"/>
      <path id="DejaVuSans-79" d="M 2059 -325 
Q 1816 -950 1584 -1140 
Q 1353 -1331 966 -1331 
L 506 -1331 
L 506 -850 
L 844 -850 
Q 1081 -850 1212 -737 
Q 1344 -625 1503 -206 
L 1606 56 
L 191 3500 
L 800 3500 
L 1894 763 
L 2988 3500 
L 3597 3500 
L 2059 -325 
z
" transform="scale(0.015625)"/>
     </defs>
     <use xlink:href="#DejaVuSans-67"/>
     <use xlink:href="#DejaVuSans-65" transform="translate(63.476562 0)"/>
     <use xlink:href="#DejaVuSans-74" transform="translate(125 0)"/>
     <use xlink:href="#DejaVuSans-5f" transform="translate(164.208984 0)"/>
     <use xlink:href="#DejaVuSans-73" transform="translate(214.208984 0)"/>
     <use xlink:href="#DejaVuSans-75" transform="translate(266.308594 0)"/>
     <use xlink:href="#DejaVuSans-62" transform="translate(329.6875 0)"/>
     <use xlink:href="#DejaVuSans-73" transform="translate(393.164062 0)"/>
     <use xlink:href="#DejaVuSans-63" transform="translate(445.263672 0)"/>
     <use xlink:href="#DejaVuSans-72" transform="translate(500.244141 0)"/>
     <use xlink:href="#DejaVuSans-69" transform="translate(541.357422 0)"/>
     <use xlink:href="#DejaVuSans-62" transform="translate(569.140625 0)"/>
     <use xlink:href="#DejaVuSans-65" transform="translate(632.617188 0)"/>
     <use xlink:href="#DejaVuSans-20" transform="translate(694.140625 0)"/>
     <use xlink:href="#DejaVuSans-68" transform="translate(725.927734 0)"/>
     <use xlink:href="#DejaVuSans-69" transform="translate(789.306641 0)"/>
     <use xlink:href="#DejaVuSans-73" transform="translate(817.089844 0)"/>
     <use xlink:href="#DejaVuSans-74" transform="translate(869.189453 0)"/>
     <use xlink:href="#DejaVuSans-6f" transform="translate(908.398438 0)"/>
     <use xlink:href="#DejaVuSans-72" transform="translate(969.580078 0)"/>
     <use xlink:href="#DejaVuSans-79" transform="translate(1010.693359 0)"/>
    </g>
   </g>
   <g id="legend_1">
    <g id="line2d_35">
     <path d="M 815.08 328.498438 
L 825.08 328.498438 
L 835.08 328.498438 
" style="fill: none; stroke: #1f77b4; stroke-width: 1.5; stroke-linecap: square"/>
    </g>
    <g id="text_18">
     <!-- star -->
     <g style="fill: #a9a9a9" transform="translate(843.08 331.998438) scale(0.1 -0.1)">
      <defs>
       <path id="DejaVuSans-61" d="M 2194 1759 
Q 1497 1759 1228 1600 
Q 959 1441 959 1056 
Q 959 750 1161 570 
Q 1363 391 1709 391 
Q 2188 391 2477 730 
Q 2766 1069 2766 1631 
L 2766 1759 
L 2194 1759 
z
M 3341 1997 
L 3341 0 
L 2766 0 
L 2766 531 
Q 2569 213 2275 61 
Q 1981 -91 1556 -91 
Q 1019 -91 701 211 
Q 384 513 384 1019 
Q 384 1609 779 1909 
Q 1175 2209 1959 2209 
L 2766 2209 
L 2766 2266 
Q 2766 2663 2505 2880 
Q 2244 3097 1772 3097 
Q 1472 3097 1187 3025 
Q 903 2953 641 2809 
L 641 3341 
Q 956 3463 1253 3523 
Q 1550 3584 1831 3584 
Q 2591 3584 2966 3190 
Q 3341 2797 3341 1997 
z
" transform="scale(0.015625)"/>
      </defs>
      <use xlink:href="#DejaVuSans-73"/>
      <use xlink:href="#DejaVuSans-74" transform="translate(52.099609 0)"/>
      <use xlink:href="#DejaVuSans-61" transform="translate(91.308594 0)"/>
      <use xlink:href="#DejaVuSans-72" transform="translate(152.587891 0)"/>
     </g>
    </g>
    <g id="line2d_36">
     <path d="M 815.08 343.176562 
L 825.08 343.176562 
L 835.08 343.176562 
" style="fill: none; stroke: #ff7f0e; stroke-width: 1.5; stroke-linecap: square"/>
    </g>
    <g id="text_19">
     <!-- fork -->
     <g style="fill: #a9a9a9" transform="translate(843.08 346.676562) scale(0.1 -0.1)">
      <defs>
       <path id="DejaVuSans-66" d="M 2375 4863 
L 2375 4384 
L 1825 4384 
Q 1516 4384 1395 4259 
Q 1275 4134 1275 3809 
L 1275 3500 
L 2222 3500 
L 2222 3053 
L 1275 3053 
L 1275 0 
L 697 0 
L 697 3053 
L 147 3053 
L 147 3500 
L 697 3500 
L 697 3744 
Q 697 4328 969 4595 
Q 1241 4863 1831 4863 
L 2375 4863 
z
" transform="scale(0.015625)"/>
       <path id="DejaVuSans-6b" d="M 581 4863 
L 1159 4863 
L 1159 1991 
L 2875 3500 
L 3609 3500 
L 1753 1863 
L 3688 0 
L 2938 0 
L 1159 1709 
L 1159 0 
L 581 0 
L 581 4863 
z
" transform="scale(0.015625)"/>
      </defs>
      <use xlink:href="#DejaVuSans-66"/>
      <use xlink:href="#DejaVuSans-6f" transform="translate(35.205078 0)"/>
      <use xlink:href="#DejaVuSans-72" transform="translate(96.386719 0)"/>
      <use xlink:href="#DejaVuSans-6b" transform="translate(137.5 0)"/>
     </g>
    </g>
   </g>
  </g>
 </g>
 <defs>
  <clipPath id="pfe321dcad8">
   <rect x="108" y="43.2" width="669.6" height="277.2"/>
  </clipPath>
 </defs>
</svg>
