<?xml version="1.0" encoding="utf-8" standalone="no"?>
<!DOCTYPE svg PUBLIC "-//W3C//DTD SVG 1.1//EN"
  "http://www.w3.org/Graphics/SVG/1.1/DTD/svg11.dtd">
<svg xmlns:xlink="http://www.w3.org/1999/xlink" width="864pt" height="360pt" viewBox="0 0 864 360" xmlns="http://www.w3.org/2000/svg" version="1.1">
 <metadata>
  <rdf:RDF xmlns:dc="http://purl.org/dc/elements/1.1/" xmlns:cc="http://creativecommons.org/ns#" xmlns:rdf="http://www.w3.org/1999/02/22-rdf-syntax-ns#">
   <cc:Work>
    <dc:type rdf:resource="http://purl.org/dc/dcmitype/StillImage"/>
    <dc:date>2025-03-23T08:16:40.489773</dc:date>
    <dc:format>image/svg+xml</dc:format>
    <dc:creator>
     <cc:Agent>
      <dc:title>Matplotlib v3.10.1, https://matplotlib.org/</dc:title>
     </cc:Agent>
    </dc:creator>
   </cc:Work>
  </rdf:RDF>
 </metadata>
 <defs>
  <style type="text/css">*{stroke-linejoin: round; stroke-linecap: butt}</style>
 </defs>
 <g id="figure_1">
  <g id="patch_1">
   <path d="M 0 360 
L 864 360 
L 864 0 
L 0 0 
L 0 360 
z
" style="fill: none; opacity: 0"/>
  </g>
  <g id="axes_1">
   <g id="patch_2">
    <path d="M 108 320.4 
L 777.6 320.4 
L 777.6 43.2 
L 108 43.2 
L 108 320.4 
z
" style="fill: none; opacity: 0"/>
   </g>
   <g id="matplotlib.axis_1">
    <g id="xtick_1">
     <g id="line2d_1">
      <path d="M 127.972442 320.4 
L 127.972442 43.2 
" clip-path="url(#p7d927e6067)" style="fill: none; stroke-dasharray: 5.12,1.28,0.8,1.28; stroke-dashoffset: 0; stroke: #b0b0b0; stroke-width: 0.8"/>
     </g>
     <g id="line2d_2">
      <defs>
       <path id="mcc499a0d8c" d="M 0 0 
L 0 3.5 
" style="stroke: #a9a9a9; stroke-width: 0.8"/>
      </defs>
      <g>
       <use xlink:href="#mcc499a0d8c" x="127.972442" y="320.4" style="fill: #a9a9a9; stroke: #a9a9a9; stroke-width: 0.8"/>
      </g>
     </g>
     <g id="text_1">
      <!-- 2021-07 -->
      <g style="fill: #a9a9a9" transform="translate(107.081036 334.998438) scale(0.1 -0.1)">
       <defs>
        <path id="DejaVuSans-32" d="M 1228 531 
L 3431 531 
L 3431 0 
L 469 0 
L 469 531 
Q 828 903 1448 1529 
Q 2069 2156 2228 2338 
Q 2531 2678 2651 2914 
Q 2772 3150 2772 3378 
Q 2772 3750 2511 3984 
Q 2250 4219 1831 4219 
Q 1534 4219 1204 4116 
Q 875 4013 500 3803 
L 500 4441 
Q 881 4594 1212 4672 
Q 1544 4750 1819 4750 
Q 2544 4750 2975 4387 
Q 3406 4025 3406 3419 
Q 3406 3131 3298 2873 
Q 3191 2616 2906 2266 
Q 2828 2175 2409 1742 
Q 1991 1309 1228 531 
z
" transform="scale(0.015625)"/>
        <path id="DejaVuSans-30" d="M 2034 4250 
Q 1547 4250 1301 3770 
Q 1056 3291 1056 2328 
Q 1056 1369 1301 889 
Q 1547 409 2034 409 
Q 2525 409 2770 889 
Q 3016 1369 3016 2328 
Q 3016 3291 2770 3770 
Q 2525 4250 2034 4250 
z
M 2034 4750 
Q 2819 4750 3233 4129 
Q 3647 3509 3647 2328 
Q 3647 1150 3233 529 
Q 2819 -91 2034 -91 
Q 1250 -91 836 529 
Q 422 1150 422 2328 
Q 422 3509 836 4129 
Q 1250 4750 2034 4750 
z
" transform="scale(0.015625)"/>
        <path id="DejaVuSans-31" d="M 794 531 
L 1825 531 
L 1825 4091 
L 703 3866 
L 703 4441 
L 1819 4666 
L 2450 4666 
L 2450 531 
L 3481 531 
L 3481 0 
L 794 0 
L 794 531 
z
" transform="scale(0.015625)"/>
        <path id="DejaVuSans-2d" d="M 313 2009 
L 1997 2009 
L 1997 1497 
L 313 1497 
L 313 2009 
z
" transform="scale(0.015625)"/>
        <path id="DejaVuSans-37" d="M 525 4666 
L 3525 4666 
L 3525 4397 
L 1831 0 
L 1172 0 
L 2766 4134 
L 525 4134 
L 525 4666 
z
" transform="scale(0.015625)"/>
       </defs>
       <use xlink:href="#DejaVuSans-32"/>
       <use xlink:href="#DejaVuSans-30" transform="translate(63.623047 0)"/>
       <use xlink:href="#DejaVuSans-32" transform="translate(127.246094 0)"/>
       <use xlink:href="#DejaVuSans-31" transform="translate(190.869141 0)"/>
       <use xlink:href="#DejaVuSans-2d" transform="translate(254.492188 0)"/>
       <use xlink:href="#DejaVuSans-30" transform="translate(290.576172 0)"/>
       <use xlink:href="#DejaVuSans-37" transform="translate(354.199219 0)"/>
      </g>
     </g>
    </g>
    <g id="xtick_2">
     <g id="line2d_3">
      <path d="M 211.683816 320.4 
L 211.683816 43.2 
" clip-path="url(#p7d927e6067)" style="fill: none; stroke-dasharray: 5.12,1.28,0.8,1.28; stroke-dashoffset: 0; stroke: #b0b0b0; stroke-width: 0.8"/>
     </g>
     <g id="line2d_4">
      <g>
       <use xlink:href="#mcc499a0d8c" x="211.683816" y="320.4" style="fill: #a9a9a9; stroke: #a9a9a9; stroke-width: 0.8"/>
      </g>
     </g>
     <g id="text_2">
      <!-- 2022-01 -->
      <g style="fill: #a9a9a9" transform="translate(190.792409 334.998438) scale(0.1 -0.1)">
       <use xlink:href="#DejaVuSans-32"/>
       <use xlink:href="#DejaVuSans-30" transform="translate(63.623047 0)"/>
       <use xlink:href="#DejaVuSans-32" transform="translate(127.246094 0)"/>
       <use xlink:href="#DejaVuSans-32" transform="translate(190.869141 0)"/>
       <use xlink:href="#DejaVuSans-2d" transform="translate(254.492188 0)"/>
       <use xlink:href="#DejaVuSans-30" transform="translate(290.576172 0)"/>
       <use xlink:href="#DejaVuSans-31" transform="translate(354.199219 0)"/>
      </g>
     </g>
    </g>
    <g id="xtick_3">
     <g id="line2d_5">
      <path d="M 294.03033 320.4 
L 294.03033 43.2 
" clip-path="url(#p7d927e6067)" style="fill: none; stroke-dasharray: 5.12,1.28,0.8,1.28; stroke-dashoffset: 0; stroke: #b0b0b0; stroke-width: 0.8"/>
     </g>
     <g id="line2d_6">
      <g>
       <use xlink:href="#mcc499a0d8c" x="294.03033" y="320.4" style="fill: #a9a9a9; stroke: #a9a9a9; stroke-width: 0.8"/>
      </g>
     </g>
     <g id="text_3">
      <!-- 2022-07 -->
      <g style="fill: #a9a9a9" transform="translate(273.138924 334.998438) scale(0.1 -0.1)">
       <use xlink:href="#DejaVuSans-32"/>
       <use xlink:href="#DejaVuSans-30" transform="translate(63.623047 0)"/>
       <use xlink:href="#DejaVuSans-32" transform="translate(127.246094 0)"/>
       <use xlink:href="#DejaVuSans-32" transform="translate(190.869141 0)"/>
       <use xlink:href="#DejaVuSans-2d" transform="translate(254.492188 0)"/>
       <use xlink:href="#DejaVuSans-30" transform="translate(290.576172 0)"/>
       <use xlink:href="#DejaVuSans-37" transform="translate(354.199219 0)"/>
      </g>
     </g>
    </g>
    <g id="xtick_4">
     <g id="line2d_7">
      <path d="M 377.741704 320.4 
L 377.741704 43.2 
" clip-path="url(#p7d927e6067)" style="fill: none; stroke-dasharray: 5.12,1.28,0.8,1.28; stroke-dashoffset: 0; stroke: #b0b0b0; stroke-width: 0.8"/>
     </g>
     <g id="line2d_8">
      <g>
       <use xlink:href="#mcc499a0d8c" x="377.741704" y="320.4" style="fill: #a9a9a9; stroke: #a9a9a9; stroke-width: 0.8"/>
      </g>
     </g>
     <g id="text_4">
      <!-- 2023-01 -->
      <g style="fill: #a9a9a9" transform="translate(356.850298 334.998438) scale(0.1 -0.1)">
       <defs>
        <path id="DejaVuSans-33" d="M 2597 2516 
Q 3050 2419 3304 2112 
Q 3559 1806 3559 1356 
Q 3559 666 3084 287 
Q 2609 -91 1734 -91 
Q 1441 -91 1130 -33 
Q 819 25 488 141 
L 488 750 
Q 750 597 1062 519 
Q 1375 441 1716 441 
Q 2309 441 2620 675 
Q 2931 909 2931 1356 
Q 2931 1769 2642 2001 
Q 2353 2234 1838 2234 
L 1294 2234 
L 1294 2753 
L 1863 2753 
Q 2328 2753 2575 2939 
Q 2822 3125 2822 3475 
Q 2822 3834 2567 4026 
Q 2313 4219 1838 4219 
Q 1578 4219 1281 4162 
Q 984 4106 628 3988 
L 628 4550 
Q 988 4650 1302 4700 
Q 1616 4750 1894 4750 
Q 2613 4750 3031 4423 
Q 3450 4097 3450 3541 
Q 3450 3153 3228 2886 
Q 3006 2619 2597 2516 
z
" transform="scale(0.015625)"/>
       </defs>
       <use xlink:href="#DejaVuSans-32"/>
       <use xlink:href="#DejaVuSans-30" transform="translate(63.623047 0)"/>
       <use xlink:href="#DejaVuSans-32" transform="translate(127.246094 0)"/>
       <use xlink:href="#DejaVuSans-33" transform="translate(190.869141 0)"/>
       <use xlink:href="#DejaVuSans-2d" transform="translate(254.492188 0)"/>
       <use xlink:href="#DejaVuSans-30" transform="translate(290.576172 0)"/>
       <use xlink:href="#DejaVuSans-31" transform="translate(354.199219 0)"/>
      </g>
     </g>
    </g>
    <g id="xtick_5">
     <g id="line2d_9">
      <path d="M 460.088219 320.4 
L 460.088219 43.2 
" clip-path="url(#p7d927e6067)" style="fill: none; stroke-dasharray: 5.12,1.28,0.8,1.28; stroke-dashoffset: 0; stroke: #b0b0b0; stroke-width: 0.8"/>
     </g>
     <g id="line2d_10">
      <g>
       <use xlink:href="#mcc499a0d8c" x="460.088219" y="320.4" style="fill: #a9a9a9; stroke: #a9a9a9; stroke-width: 0.8"/>
      </g>
     </g>
     <g id="text_5">
      <!-- 2023-07 -->
      <g style="fill: #a9a9a9" transform="translate(439.196812 334.998438) scale(0.1 -0.1)">
       <use xlink:href="#DejaVuSans-32"/>
       <use xlink:href="#DejaVuSans-30" transform="translate(63.623047 0)"/>
       <use xlink:href="#DejaVuSans-32" transform="translate(127.246094 0)"/>
       <use xlink:href="#DejaVuSans-33" transform="translate(190.869141 0)"/>
       <use xlink:href="#DejaVuSans-2d" transform="translate(254.492188 0)"/>
       <use xlink:href="#DejaVuSans-30" transform="translate(290.576172 0)"/>
       <use xlink:href="#DejaVuSans-37" transform="translate(354.199219 0)"/>
      </g>
     </g>
    </g>
    <g id="xtick_6">
     <g id="line2d_11">
      <path d="M 543.799592 320.4 
L 543.799592 43.2 
" clip-path="url(#p7d927e6067)" style="fill: none; stroke-dasharray: 5.12,1.28,0.8,1.28; stroke-dashoffset: 0; stroke: #b0b0b0; stroke-width: 0.8"/>
     </g>
     <g id="line2d_12">
      <g>
       <use xlink:href="#mcc499a0d8c" x="543.799592" y="320.4" style="fill: #a9a9a9; stroke: #a9a9a9; stroke-width: 0.8"/>
      </g>
     </g>
     <g id="text_6">
      <!-- 2024-01 -->
      <g style="fill: #a9a9a9" transform="translate(522.908186 334.998438) scale(0.1 -0.1)">
       <defs>
        <path id="DejaVuSans-34" d="M 2419 4116 
L 825 1625 
L 2419 1625 
L 2419 4116 
z
M 2253 4666 
L 3047 4666 
L 3047 1625 
L 3713 1625 
L 3713 1100 
L 3047 1100 
L 3047 0 
L 2419 0 
L 2419 1100 
L 313 1100 
L 313 1709 
L 2253 4666 
z
" transform="scale(0.015625)"/>
       </defs>
       <use xlink:href="#DejaVuSans-32"/>
       <use xlink:href="#DejaVuSans-30" transform="translate(63.623047 0)"/>
       <use xlink:href="#DejaVuSans-32" transform="translate(127.246094 0)"/>
       <use xlink:href="#DejaVuSans-34" transform="translate(190.869141 0)"/>
       <use xlink:href="#DejaVuSans-2d" transform="translate(254.492188 0)"/>
       <use xlink:href="#DejaVuSans-30" transform="translate(290.576172 0)"/>
       <use xlink:href="#DejaVuSans-31" transform="translate(354.199219 0)"/>
      </g>
     </g>
    </g>
    <g id="xtick_7">
     <g id="line2d_13">
      <path d="M 626.60106 320.4 
L 626.60106 43.2 
" clip-path="url(#p7d927e6067)" style="fill: none; stroke-dasharray: 5.12,1.28,0.8,1.28; stroke-dashoffset: 0; stroke: #b0b0b0; stroke-width: 0.8"/>
     </g>
     <g id="line2d_14">
      <g>
       <use xlink:href="#mcc499a0d8c" x="626.60106" y="320.4" style="fill: #a9a9a9; stroke: #a9a9a9; stroke-width: 0.8"/>
      </g>
     </g>
     <g id="text_7">
      <!-- 2024-07 -->
      <g style="fill: #a9a9a9" transform="translate(605.709654 334.998438) scale(0.1 -0.1)">
       <use xlink:href="#DejaVuSans-32"/>
       <use xlink:href="#DejaVuSans-30" transform="translate(63.623047 0)"/>
       <use xlink:href="#DejaVuSans-32" transform="translate(127.246094 0)"/>
       <use xlink:href="#DejaVuSans-34" transform="translate(190.869141 0)"/>
       <use xlink:href="#DejaVuSans-2d" transform="translate(254.492188 0)"/>
       <use xlink:href="#DejaVuSans-30" transform="translate(290.576172 0)"/>
       <use xlink:href="#DejaVuSans-37" transform="translate(354.199219 0)"/>
      </g>
     </g>
    </g>
    <g id="xtick_8">
     <g id="line2d_15">
      <path d="M 710.312434 320.4 
L 710.312434 43.2 
" clip-path="url(#p7d927e6067)" style="fill: none; stroke-dasharray: 5.12,1.28,0.8,1.28; stroke-dashoffset: 0; stroke: #b0b0b0; stroke-width: 0.8"/>
     </g>
     <g id="line2d_16">
      <g>
       <use xlink:href="#mcc499a0d8c" x="710.312434" y="320.4" style="fill: #a9a9a9; stroke: #a9a9a9; stroke-width: 0.8"/>
      </g>
     </g>
     <g id="text_8">
      <!-- 2025-01 -->
      <g style="fill: #a9a9a9" transform="translate(689.421028 334.998438) scale(0.1 -0.1)">
       <defs>
        <path id="DejaVuSans-35" d="M 691 4666 
L 3169 4666 
L 3169 4134 
L 1269 4134 
L 1269 2991 
Q 1406 3038 1543 3061 
Q 1681 3084 1819 3084 
Q 2600 3084 3056 2656 
Q 3513 2228 3513 1497 
Q 3513 744 3044 326 
Q 2575 -91 1722 -91 
Q 1428 -91 1123 -41 
Q 819 9 494 109 
L 494 744 
Q 775 591 1075 516 
Q 1375 441 1709 441 
Q 2250 441 2565 725 
Q 2881 1009 2881 1497 
Q 2881 1984 2565 2268 
Q 2250 2553 1709 2553 
Q 1456 2553 1204 2497 
Q 953 2441 691 2322 
L 691 4666 
z
" transform="scale(0.015625)"/>
       </defs>
       <use xlink:href="#DejaVuSans-32"/>
       <use xlink:href="#DejaVuSans-30" transform="translate(63.623047 0)"/>
       <use xlink:href="#DejaVuSans-32" transform="translate(127.246094 0)"/>
       <use xlink:href="#DejaVuSans-35" transform="translate(190.869141 0)"/>
       <use xlink:href="#DejaVuSans-2d" transform="translate(254.492188 0)"/>
       <use xlink:href="#DejaVuSans-30" transform="translate(290.576172 0)"/>
       <use xlink:href="#DejaVuSans-31" transform="translate(354.199219 0)"/>
      </g>
     </g>
    </g>
   </g>
   <g id="matplotlib.axis_2">
    <g id="ytick_1">
     <g id="line2d_17">
      <path d="M 108 307.83388 
L 777.6 307.83388 
" clip-path="url(#p7d927e6067)" style="fill: none; stroke-dasharray: 5.12,1.28,0.8,1.28; stroke-dashoffset: 0; stroke: #b0b0b0; stroke-width: 0.8"/>
     </g>
     <g id="line2d_18">
      <defs>
       <path id="m842770cf86" d="M 0 0 
L -3.5 0 
" style="stroke: #a9a9a9; stroke-width: 0.8"/>
      </defs>
      <g>
       <use xlink:href="#m842770cf86" x="108" y="307.83388" style="fill: #a9a9a9; stroke: #a9a9a9; stroke-width: 0.8"/>
      </g>
     </g>
     <g id="text_9">
      <!-- 0 -->
      <g style="fill: #a9a9a9" transform="translate(94.6375 311.633099) scale(0.1 -0.1)">
       <use xlink:href="#DejaVuSans-30"/>
      </g>
     </g>
    </g>
    <g id="ytick_2">
     <g id="line2d_19">
      <path d="M 108 273.953805 
L 777.6 273.953805 
" clip-path="url(#p7d927e6067)" style="fill: none; stroke-dasharray: 5.12,1.28,0.8,1.28; stroke-dashoffset: 0; stroke: #b0b0b0; stroke-width: 0.8"/>
     </g>
     <g id="line2d_20">
      <g>
       <use xlink:href="#m842770cf86" x="108" y="273.953805" style="fill: #a9a9a9; stroke: #a9a9a9; stroke-width: 0.8"/>
      </g>
     </g>
     <g id="text_10">
      <!-- 1000 -->
      <g style="fill: #a9a9a9" transform="translate(75.55 277.753024) scale(0.1 -0.1)">
       <use xlink:href="#DejaVuSans-31"/>
       <use xlink:href="#DejaVuSans-30" transform="translate(63.623047 0)"/>
       <use xlink:href="#DejaVuSans-30" transform="translate(127.246094 0)"/>
       <use xlink:href="#DejaVuSans-30" transform="translate(190.869141 0)"/>
      </g>
     </g>
    </g>
    <g id="ytick_3">
     <g id="line2d_21">
      <path d="M 108 240.073729 
L 777.6 240.073729 
" clip-path="url(#p7d927e6067)" style="fill: none; stroke-dasharray: 5.12,1.28,0.8,1.28; stroke-dashoffset: 0; stroke: #b0b0b0; stroke-width: 0.8"/>
     </g>
     <g id="line2d_22">
      <g>
       <use xlink:href="#m842770cf86" x="108" y="240.073729" style="fill: #a9a9a9; stroke: #a9a9a9; stroke-width: 0.8"/>
      </g>
     </g>
     <g id="text_11">
      <!-- 2000 -->
      <g style="fill: #a9a9a9" transform="translate(75.55 243.872948) scale(0.1 -0.1)">
       <use xlink:href="#DejaVuSans-32"/>
       <use xlink:href="#DejaVuSans-30" transform="translate(63.623047 0)"/>
       <use xlink:href="#DejaVuSans-30" transform="translate(127.246094 0)"/>
       <use xlink:href="#DejaVuSans-30" transform="translate(190.869141 0)"/>
      </g>
     </g>
    </g>
    <g id="ytick_4">
     <g id="line2d_23">
      <path d="M 108 206.193654 
L 777.6 206.193654 
" clip-path="url(#p7d927e6067)" style="fill: none; stroke-dasharray: 5.12,1.28,0.8,1.28; stroke-dashoffset: 0; stroke: #b0b0b0; stroke-width: 0.8"/>
     </g>
     <g id="line2d_24">
      <g>
       <use xlink:href="#m842770cf86" x="108" y="206.193654" style="fill: #a9a9a9; stroke: #a9a9a9; stroke-width: 0.8"/>
      </g>
     </g>
     <g id="text_12">
      <!-- 3000 -->
      <g style="fill: #a9a9a9" transform="translate(75.55 209.992873) scale(0.1 -0.1)">
       <use xlink:href="#DejaVuSans-33"/>
       <use xlink:href="#DejaVuSans-30" transform="translate(63.623047 0)"/>
       <use xlink:href="#DejaVuSans-30" transform="translate(127.246094 0)"/>
       <use xlink:href="#DejaVuSans-30" transform="translate(190.869141 0)"/>
      </g>
     </g>
    </g>
    <g id="ytick_5">
     <g id="line2d_25">
      <path d="M 108 172.313579 
L 777.6 172.313579 
" clip-path="url(#p7d927e6067)" style="fill: none; stroke-dasharray: 5.12,1.28,0.8,1.28; stroke-dashoffset: 0; stroke: #b0b0b0; stroke-width: 0.8"/>
     </g>
     <g id="line2d_26">
      <g>
       <use xlink:href="#m842770cf86" x="108" y="172.313579" style="fill: #a9a9a9; stroke: #a9a9a9; stroke-width: 0.8"/>
      </g>
     </g>
     <g id="text_13">
      <!-- 4000 -->
      <g style="fill: #a9a9a9" transform="translate(75.55 176.112798) scale(0.1 -0.1)">
       <use xlink:href="#DejaVuSans-34"/>
       <use xlink:href="#DejaVuSans-30" transform="translate(63.623047 0)"/>
       <use xlink:href="#DejaVuSans-30" transform="translate(127.246094 0)"/>
       <use xlink:href="#DejaVuSans-30" transform="translate(190.869141 0)"/>
      </g>
     </g>
    </g>
    <g id="ytick_6">
     <g id="line2d_27">
      <path d="M 108 138.433504 
L 777.6 138.433504 
" clip-path="url(#p7d927e6067)" style="fill: none; stroke-dasharray: 5.12,1.28,0.8,1.28; stroke-dashoffset: 0; stroke: #b0b0b0; stroke-width: 0.8"/>
     </g>
     <g id="line2d_28">
      <g>
       <use xlink:href="#m842770cf86" x="108" y="138.433504" style="fill: #a9a9a9; stroke: #a9a9a9; stroke-width: 0.8"/>
      </g>
     </g>
     <g id="text_14">
      <!-- 5000 -->
      <g style="fill: #a9a9a9" transform="translate(75.55 142.232722) scale(0.1 -0.1)">
       <use xlink:href="#DejaVuSans-35"/>
       <use xlink:href="#DejaVuSans-30" transform="translate(63.623047 0)"/>
       <use xlink:href="#DejaVuSans-30" transform="translate(127.246094 0)"/>
       <use xlink:href="#DejaVuSans-30" transform="translate(190.869141 0)"/>
      </g>
     </g>
    </g>
    <g id="ytick_7">
     <g id="line2d_29">
      <path d="M 108 104.553428 
L 777.6 104.553428 
" clip-path="url(#p7d927e6067)" style="fill: none; stroke-dasharray: 5.12,1.28,0.8,1.28; stroke-dashoffset: 0; stroke: #b0b0b0; stroke-width: 0.8"/>
     </g>
     <g id="line2d_30">
      <g>
       <use xlink:href="#m842770cf86" x="108" y="104.553428" style="fill: #a9a9a9; stroke: #a9a9a9; stroke-width: 0.8"/>
      </g>
     </g>
     <g id="text_15">
      <!-- 6000 -->
      <g style="fill: #a9a9a9" transform="translate(75.55 108.352647) scale(0.1 -0.1)">
       <defs>
        <path id="DejaVuSans-36" d="M 2113 2584 
Q 1688 2584 1439 2293 
Q 1191 2003 1191 1497 
Q 1191 994 1439 701 
Q 1688 409 2113 409 
Q 2538 409 2786 701 
Q 3034 994 3034 1497 
Q 3034 2003 2786 2293 
Q 2538 2584 2113 2584 
z
M 3366 4563 
L 3366 3988 
Q 3128 4100 2886 4159 
Q 2644 4219 2406 4219 
Q 1781 4219 1451 3797 
Q 1122 3375 1075 2522 
Q 1259 2794 1537 2939 
Q 1816 3084 2150 3084 
Q 2853 3084 3261 2657 
Q 3669 2231 3669 1497 
Q 3669 778 3244 343 
Q 2819 -91 2113 -91 
Q 1303 -91 875 529 
Q 447 1150 447 2328 
Q 447 3434 972 4092 
Q 1497 4750 2381 4750 
Q 2619 4750 2861 4703 
Q 3103 4656 3366 4563 
z
" transform="scale(0.015625)"/>
       </defs>
       <use xlink:href="#DejaVuSans-36"/>
       <use xlink:href="#DejaVuSans-30" transform="translate(63.623047 0)"/>
       <use xlink:href="#DejaVuSans-30" transform="translate(127.246094 0)"/>
       <use xlink:href="#DejaVuSans-30" transform="translate(190.869141 0)"/>
      </g>
     </g>
    </g>
    <g id="ytick_8">
     <g id="line2d_31">
      <path d="M 108 70.673353 
L 777.6 70.673353 
" clip-path="url(#p7d927e6067)" style="fill: none; stroke-dasharray: 5.12,1.28,0.8,1.28; stroke-dashoffset: 0; stroke: #b0b0b0; stroke-width: 0.8"/>
     </g>
     <g id="line2d_32">
      <g>
       <use xlink:href="#m842770cf86" x="108" y="70.673353" style="fill: #a9a9a9; stroke: #a9a9a9; stroke-width: 0.8"/>
      </g>
     </g>
     <g id="text_16">
      <!-- 7000 -->
      <g style="fill: #a9a9a9" transform="translate(75.55 74.472572) scale(0.1 -0.1)">
       <use xlink:href="#DejaVuSans-37"/>
       <use xlink:href="#DejaVuSans-30" transform="translate(63.623047 0)"/>
       <use xlink:href="#DejaVuSans-30" transform="translate(127.246094 0)"/>
       <use xlink:href="#DejaVuSans-30" transform="translate(190.869141 0)"/>
      </g>
     </g>
    </g>
   </g>
   <g id="line2d_33">
    <path d="M 138.436364 307.73224 
L 141.166082 307.495079 
L 141.621035 307.291799 
L 143.440848 307.054638 
L 145.26066 306.681958 
L 146.170567 306.546437 
L 148.445332 306.343157 
L 149.355238 305.970476 
L 149.810192 305.360635 
L 150.265145 305.055714 
L 150.720098 304.005432 
L 151.175051 303.937671 
L 151.630004 303.564991 
L 152.53991 303.09067 
L 154.359723 301.599946 
L 156.179535 300.685184 
L 157.544395 300.041463 
L 157.999348 299.296101 
L 158.909254 298.6185 
L 159.364207 298.415219 
L 163.913738 297.737618 
L 164.368691 297.534337 
L 167.553363 297.263297 
L 169.373176 296.822856 
L 173.012801 296.314654 
L 173.467754 296.077494 
L 173.922707 296.009734 
L 174.832613 295.704813 
L 178.017285 295.162732 
L 178.927191 294.891691 
L 183.021769 294.18021 
L 183.931675 293.976929 
L 184.841582 293.943049 
L 186.661394 293.502608 
L 187.116347 292.858887 
L 188.481207 292.316806 
L 189.846066 291.944125 
L 190.301019 291.706964 
L 191.210925 291.537564 
L 193.030738 290.995483 
L 193.940644 290.927723 
L 194.85055 290.690562 
L 196.670363 290.216241 
L 197.125316 290.182361 
L 198.035222 289.74192 
L 198.490175 289.67416 
L 198.945128 289.436999 
L 203.949613 288.589997 
L 205.769425 288.047916 
L 206.224378 287.742995 
L 208.499144 286.997634 
L 209.40905 286.353912 
L 210.773909 286.082872 
L 220.782878 283.135305 
L 221.237831 283.101425 
L 222.602691 282.694864 
L 223.057644 282.694864 
L 223.512597 282.491584 
L 224.422503 282.389944 
L 224.877456 282.220543 
L 226.697269 282.152783 
L 227.607175 281.983383 
L 228.517081 281.509062 
L 229.88194 281.00086 
L 230.336894 280.69594 
L 231.2468 280.289379 
L 231.701753 280.052218 
L 232.611659 279.747298 
L 233.066612 279.611777 
L 233.976519 279.035816 
L 234.431472 278.527615 
L 235.341378 277.104652 
L 235.796331 276.969131 
L 236.251284 276.969131 
L 237.616143 276.15601 
L 238.071097 275.918849 
L 238.52605 275.817209 
L 238.981003 275.376768 
L 239.890909 275.004087 
L 240.800815 274.563646 
L 243.075581 271.61608 
L 245.8053 270.125356 
L 246.715206 269.379995 
L 247.170159 269.075074 
L 247.625112 268.431353 
L 248.080065 267.38107 
L 248.535018 266.669589 
L 248.989971 266.296908 
L 249.444925 266.093627 
L 253.08455 262.70562 
L 253.994456 261.858618 
L 256.724174 260.130734 
L 257.179128 259.961334 
L 258.543987 259.148212 
L 259.908846 258.23345 
L 261.728659 256.573326 
L 262.638565 256.200645 
L 263.548471 255.556924 
L 264.003424 255.285883 
L 264.458377 255.218123 
L 265.823237 254.438881 
L 266.27819 253.93068 
L 268.552956 252.677118 
L 269.007909 252.507717 
L 270.372768 251.559075 
L 277.197065 249.11971 
L 278.106971 248.272708 
L 279.47183 247.595106 
L 280.381737 247.019145 
L 281.291643 246.748104 
L 281.746596 246.443184 
L 282.201549 246.307663 
L 283.566408 245.392901 
L 285.841174 244.85082 
L 287.206033 244.037698 
L 288.570893 243.732778 
L 289.025846 243.631137 
L 290.390705 242.580855 
L 292.210518 242.072654 
L 292.665471 241.699973 
L 295.39519 240.751331 
L 296.305096 240.581931 
L 297.215002 240.20925 
L 300.399674 239.023447 
L 301.30958 238.887927 
L 302.674439 238.413606 
L 304.949205 237.295563 
L 306.769018 236.279161 
L 310.408642 234.754558 
L 310.863596 234.686798 
L 311.773502 234.110836 
L 312.683408 233.873676 
L 314.048267 233.331595 
L 315.86808 233.094434 
L 316.777986 232.620113 
L 317.232939 232.213552 
L 317.687892 231.36655 
L 319.507705 230.858349 
L 320.872564 230.146867 
L 321.78247 229.841947 
L 322.692377 229.367626 
L 325.422095 228.249583 
L 326.332002 228.046303 
L 327.241908 227.571982 
L 327.696861 227.368701 
L 328.151814 227.300941 
L 330.42658 226.182899 
L 331.336486 225.606937 
L 332.701345 225.335897 
L 334.521158 224.827696 
L 334.976111 224.793816 
L 335.431064 224.421135 
L 336.34097 224.116214 
L 338.615736 223.201452 
L 339.070689 222.862651 
L 339.525642 222.693251 
L 340.435548 222.18505 
L 342.255361 221.609088 
L 343.165267 221.033127 
L 343.62022 220.558806 
L 344.075173 220.287766 
L 344.530126 220.186125 
L 345.440033 219.440764 
L 345.894986 219.373003 
L 346.349939 218.627642 
L 346.804892 218.424361 
L 347.259845 218.051681 
L 347.714798 217.98392 
L 348.624704 217.407959 
L 349.534611 217.103038 
L 349.989564 216.764238 
L 350.444517 216.594837 
L 352.264329 215.375155 
L 353.629189 214.663673 
L 354.539095 214.426513 
L 355.449001 213.918311 
L 355.903954 213.13907 
L 356.813861 212.461468 
L 357.268814 212.359828 
L 359.998532 211.038505 
L 360.908439 210.665824 
L 362.273298 209.513902 
L 363.183204 208.73466 
L 364.09311 208.192579 
L 364.548064 207.684378 
L 365.003017 207.379457 
L 365.912923 206.634095 
L 366.367876 206.430815 
L 367.277782 205.516053 
L 368.187689 205.211132 
L 369.097595 204.601291 
L 370.462454 203.889809 
L 370.917407 203.822049 
L 372.282267 203.076687 
L 373.192173 202.500726 
L 377.741704 200.806722 
L 378.196657 200.434041 
L 380.01647 199.72256 
L 380.471423 199.58704 
L 381.381329 198.977198 
L 382.291235 198.604517 
L 383.201141 197.960796 
L 384.111048 196.131272 
L 385.020954 195.047109 
L 386.385813 194.335628 
L 387.29572 193.962947 
L 387.750673 193.895187 
L 388.205626 193.624146 
L 390.480391 192.878785 
L 390.935344 192.675504 
L 391.845251 192.031783 
L 393.21011 191.455821 
L 394.120016 190.94762 
L 395.029923 190.405539 
L 395.484876 190.100618 
L 395.939829 189.592417 
L 396.849735 189.084216 
L 399.124501 187.830653 
L 401.854219 186.44157 
L 403.219079 186.035009 
L 404.583938 185.492928 
L 405.038891 185.154127 
L 405.948797 184.883087 
L 406.858704 184.510406 
L 407.313657 184.137725 
L 409.133469 183.494004 
L 410.043375 182.816402 
L 410.953282 182.443721 
L 411.863188 181.73224 
L 412.773094 181.461199 
L 413.228047 181.054638 
L 413.683 180.986878 
L 414.592907 180.275397 
L 415.502813 179.801076 
L 415.957766 179.597795 
L 416.412719 179.123474 
L 419.597391 177.836031 
L 420.507297 177.42947 
L 421.872157 176.989029 
L 422.782063 176.853509 
L 423.237016 176.650229 
L 423.691969 176.582468 
L 424.601875 176.175908 
L 425.056828 176.142027 
L 426.876641 175.464426 
L 428.2415 174.481904 
L 428.696453 174.312503 
L 429.60636 173.804302 
L 430.061313 173.668782 
L 432.791031 172.110298 
L 433.245985 172.008658 
L 434.610844 171.195536 
L 435.975703 170.721215 
L 436.885609 170.416295 
L 438.705422 169.806453 
L 439.615328 169.501533 
L 441.435141 169.128852 
L 441.890094 168.925571 
L 442.345047 168.857811 
L 443.254953 168.45125 
L 443.709906 168.38349 
L 444.164859 168.14633 
L 445.074766 167.976929 
L 446.439625 167.468728 
L 447.349531 167.367088 
L 448.714391 167.062167 
L 450.989156 166.655606 
L 462.817937 163.132079 
L 463.27289 162.657757 
L 464.182797 162.285077 
L 467.822422 160.895994 
L 468.277375 160.624953 
L 469.642234 160.218392 
L 470.55214 159.981232 
L 471.007093 159.676311 
L 471.462046 159.574671 
L 471.917 159.16811 
L 473.281859 158.897069 
L 474.191765 158.456628 
L 474.646718 157.914547 
L 476.466531 157.474106 
L 479.651203 156.796504 
L 480.106156 156.796504 
L 480.561109 156.593224 
L 482.380921 156.254423 
L 482.835874 156.051143 
L 484.655687 155.712342 
L 485.565593 155.305781 
L 486.475499 155.136381 
L 488.750265 154.560419 
L 490.570077 153.984458 
L 491.025031 153.882818 
L 491.479984 153.645657 
L 492.38989 153.408497 
L 493.299796 153.035816 
L 494.209702 152.697015 
L 494.664656 152.392095 
L 495.574562 152.121054 
L 499.214187 150.867491 
L 500.124093 150.799731 
L 501.943905 150.25765 
L 502.398859 149.986609 
L 503.308765 149.715569 
L 505.58353 148.665286 
L 506.038483 148.631406 
L 511.042968 146.835762 
L 513.317733 146.225921 
L 514.22764 145.78548 
L 515.592499 145.480559 
L 517.412311 143.989836 
L 519.232124 143.210594 
L 520.14203 142.804033 
L 522.871749 141.753751 
L 523.326702 141.44883 
L 525.601468 140.703469 
L 526.966327 139.924227 
L 527.42128 139.822587 
L 529.696046 138.569024 
L 531.060905 137.959183 
L 531.515858 137.620382 
L 532.425764 137.315461 
L 534.70053 136.163539 
L 536.065389 135.689218 
L 537.885202 134.943856 
L 539.250061 134.435655 
L 539.705014 134.266254 
L 540.614921 134.130734 
L 541.069874 133.825813 
L 542.889686 133.453133 
L 543.799592 133.080452 
L 545.619405 132.23345 
L 551.988748 129.455284 
L 553.353608 129.014843 
L 553.808561 128.709922 
L 554.718467 128.608282 
L 555.17342 128.303361 
L 556.083327 128.133961 
L 556.993233 127.69352 
L 557.448186 127.490239 
L 557.903139 127.422479 
L 558.813045 127.117558 
L 561.997717 125.999516 
L 563.362576 125.694595 
L 565.182389 124.949234 
L 566.092295 124.441033 
L 567.912108 123.526271 
L 568.822014 123.32299 
L 569.276967 123.051949 
L 569.73192 122.950309 
L 571.096779 122.171067 
L 572.006686 121.798387 
L 573.826498 121.086905 
L 576.101264 120.307663 
L 577.01117 119.833342 
L 579.285936 119.054101 
L 582.015654 117.936058 
L 583.835467 117.089056 
L 588.384998 115.327292 
L 588.839951 115.022372 
L 590.659764 114.41253 
L 591.114717 114.41253 
L 592.024623 114.005969 
L 593.844435 112.515246 
L 594.299389 112.379726 
L 594.754342 112.108685 
L 596.119201 111.736004 
L 596.574154 111.397204 
L 597.029107 111.295563 
L 597.939013 110.719602 
L 599.303873 110.00812 
L 600.213779 109.63544 
L 600.668732 109.398279 
L 602.033592 109.093358 
L 604.308357 108.314117 
L 605.218263 108.009196 
L 606.583123 107.297714 
L 607.493029 106.857273 
L 608.402935 106.620113 
L 609.767795 105.976392 
L 613.862373 104.451788 
L 615.227232 103.604786 
L 615.682185 103.503146 
L 616.592091 103.062705 
L 617.501998 102.723904 
L 617.956951 102.317343 
L 618.866857 101.944663 
L 620.231716 101.470341 
L 620.686669 101.097661 
L 621.141623 101.063781 
L 622.051529 100.79274 
L 622.961435 100.487819 
L 623.416388 100.284539 
L 623.871341 100.216779 
L 625.236201 99.708578 
L 626.60106 99.200376 
L 628.420872 98.387255 
L 628.875826 98.319494 
L 632.51545 96.794891 
L 633.88031 96.35445 
L 634.790216 96.28669 
L 635.700122 95.914009 
L 638.429841 95.100887 
L 639.339747 95.067007 
L 642.979372 93.881205 
L 643.889278 93.406884 
L 644.344232 93.000323 
L 645.709091 92.187201 
L 646.618997 91.64512 
L 649.348716 90.764238 
L 649.803669 90.391557 
L 652.533388 89.239634 
L 654.3532 88.731433 
L 655.263106 88.324872 
L 655.71806 88.087712 
L 656.627966 87.816671 
L 657.082919 87.545631 
L 657.992825 87.37623 
L 661.63245 85.817747 
L 662.087403 85.749987 
L 662.542356 85.445066 
L 662.997309 85.275666 
L 663.452263 84.869105 
L 663.907216 84.801344 
L 665.727028 84.089863 
L 667.546841 83.649422 
L 668.001794 83.581662 
L 668.456747 83.378381 
L 668.9117 83.344501 
L 669.821606 83.039581 
L 670.276559 83.0057 
L 671.641419 82.463619 
L 673.461231 81.921538 
L 674.371137 81.243937 
L 676.19095 80.227534 
L 677.555809 79.753213 
L 681.195434 78.025329 
L 681.650387 77.788169 
L 682.10534 77.347728 
L 684.380106 76.737887 
L 685.744965 76.128045 
L 686.654872 75.890885 
L 687.109825 75.653724 
L 687.564778 75.281043 
L 689.38459 74.806722 
L 689.839543 74.467921 
L 695.753934 72.333477 
L 696.66384 72.164076 
L 698.938606 71.452595 
L 699.848512 71.079914 
L 700.758418 70.741113 
L 701.668325 70.503953 
L 702.123278 70.300672 
L 702.578231 70.300672 
L 703.488137 69.927991 
L 704.398043 69.38591 
L 706.672809 68.606668 
L 708.037668 68.132347 
L 708.492621 68.064587 
L 709.402528 67.691906 
L 710.767387 67.386986 
L 712.132246 66.946545 
L 712.587199 66.844905 
L 713.042152 66.539984 
L 713.952059 66.336703 
L 723.051121 63.727938 
L 725.325887 63.321377 
L 726.235793 62.880936 
L 727.145699 62.440495 
L 728.510558 62.033934 
L 733.06009 60.30605 
L 733.515043 59.967249 
L 734.879902 59.662329 
L 735.789808 59.391288 
L 736.699715 58.950847 
L 737.154668 58.544286 
L 738.064574 58.239365 
L 738.519527 57.968325 
L 739.429433 57.866685 
L 742.614105 56.985803 
L 743.978965 56.714762 
L 747.163636 55.8 
L 747.163636 55.8 
" clip-path="url(#p7d927e6067)" style="fill: none; stroke: #1f77b4; stroke-width: 1.5; stroke-linecap: square"/>
   </g>
   <g id="line2d_34">
    <path d="M 138.891317 307.8 
L 142.985895 307.69836 
L 146.62552 307.528959 
L 148.445332 307.528959 
L 148.900285 307.393439 
L 151.175051 307.291799 
L 153.90477 306.986878 
L 156.634488 306.885238 
L 157.544395 306.783598 
L 160.729066 306.648077 
L 163.913738 306.546437 
L 166.188504 306.478677 
L 172.102894 306.377037 
L 174.37766 306.309277 
L 177.562332 306.207636 
L 179.837097 306.139876 
L 184.841582 306.038236 
L 186.661394 305.868836 
L 188.481207 305.834956 
L 191.210925 305.733315 
L 193.030738 305.699435 
L 195.305503 305.631675 
L 197.125316 305.462275 
L 201.219894 305.360635 
L 202.1298 305.292874 
L 203.949613 305.191234 
L 206.679331 305.089594 
L 208.499144 304.987954 
L 216.6883 304.479753 
L 219.872972 304.378112 
L 221.237831 304.242592 
L 223.512597 304.140952 
L 228.062128 303.903791 
L 232.611659 303.836031 
L 234.431472 303.632751 
L 236.251284 303.531111 
L 241.255768 303.056789 
L 244.44044 302.684109 
L 245.8053 302.616348 
L 249.444925 302.142027 
L 252.174643 302.074267 
L 253.539503 301.938747 
L 254.904362 301.837107 
L 267.643049 300.854585 
L 268.552956 300.685184 
L 271.282674 300.583544 
L 278.561924 300.143103 
L 281.746596 300.041463 
L 283.566408 299.838182 
L 285.841174 299.736542 
L 288.570893 299.634902 
L 290.845658 299.533262 
L 292.665471 299.499382 
L 294.940236 299.431621 
L 295.850143 299.296101 
L 302.219486 299.194461 
L 303.129393 299.092821 
L 308.58883 298.99118 
L 312.683408 298.7879 
L 315.86808 298.68626 
L 317.687892 298.482979 
L 320.872564 298.381339 
L 321.78247 298.211939 
L 324.057236 298.144179 
L 328.606767 298.076418 
L 330.42658 297.907018 
L 332.246392 297.873138 
L 333.611252 297.771498 
L 335.431064 297.602097 
L 339.980595 297.364937 
L 344.530126 297.263297 
L 348.624704 297.060016 
L 349.989564 297.026136 
L 350.89947 296.890616 
L 353.174236 296.788976 
L 354.084142 296.721215 
L 354.994048 296.653455 
L 355.903954 296.585695 
L 359.998532 296.517935 
L 361.363392 296.416295 
L 373.647126 295.603173 
L 375.921892 295.501533 
L 378.196657 295.433773 
L 384.566001 295.332132 
L 385.475907 295.196612 
L 391.845251 295.094972 
L 396.394782 294.857811 
L 397.304688 294.823931 
L 398.214594 294.722291 
L 400.48936 294.620651 
L 402.764126 294.552891 
L 405.038891 294.45125 
L 407.313657 294.38349 
L 411.408235 294.28185 
L 414.137954 294.18021 
L 420.507297 294.07857 
L 425.511781 293.807529 
L 427.331594 293.739769 
L 428.696453 293.638129 
L 435.065797 293.536488 
L 437.795516 293.434848 
L 445.984672 293.333208 
L 447.804484 293.299328 
L 453.263922 293.231568 
L 454.173828 293.163807 
L 460.543172 293.062167 
L 462.362984 293.028287 
L 474.191765 292.926647 
L 475.556625 292.791127 
L 496.029515 292.689486 
L 498.30428 292.621726 
L 510.133062 292.553966 
L 511.042968 292.486206 
L 513.317733 292.418446 
L 514.682593 292.282926 
L 517.412311 292.181285 
L 520.596983 292.045765 
L 524.691561 291.944125 
L 526.966327 291.876365 
L 530.150999 291.774724 
L 533.790624 291.605324 
L 536.065389 291.503684 
L 537.885202 291.469804 
L 541.97978 291.368163 
L 543.799592 291.334283 
L 549.713983 291.232643 
L 551.533795 291.198763 
L 553.808561 291.097123 
L 556.53828 290.995483 
L 559.722951 290.927723 
L 560.632858 290.859962 
L 571.551733 290.758322 
L 577.466123 290.419521 
L 579.740889 290.351761 
L 580.650795 290.250121 
L 581.560701 290.182361 
L 585.200326 290.080721 
L 587.930045 289.97908 
L 592.479576 289.87744 
L 594.754342 289.64028 
L 599.303873 289.538639 
L 600.213779 289.436999 
L 604.76331 289.335359 
L 607.038076 289.267599 
L 612.04256 289.233719 
L 612.952466 289.132079 
L 617.956951 289.030438 
L 618.866857 288.962678 
L 628.875826 288.861038 
L 631.605544 288.759398 
L 638.429841 288.657757 
L 640.249653 288.623877 
L 644.344232 288.556117 
L 645.254138 288.454477 
L 651.168528 288.352837 
L 653.443294 288.285077 
L 661.63245 288.183436 
L 662.997309 288.081796 
L 664.362169 287.980156 
L 665.727028 287.878516 
L 672.551325 287.776876 
L 675.281044 287.675235 
L 687.564778 287.573595 
L 691.659356 287.370315 
L 697.118793 287.268674 
L 698.0287 287.200914 
L 704.852996 287.133154 
L 705.762903 287.065394 
L 710.767387 286.963754 
L 712.587199 286.929874 
L 718.956543 286.828233 
L 721.686262 286.726593 
L 729.420465 286.624953 
L 731.240277 286.591073 
L 735.334855 286.489433 
L 738.97448 286.320032 
L 743.978965 286.218392 
L 747.163636 286.082872 
L 747.163636 286.082872 
" clip-path="url(#p7d927e6067)" style="fill: none; stroke: #ff7f0e; stroke-width: 1.5; stroke-linecap: square"/>
   </g>
   <g id="patch_3">
    <path d="M 108 320.4 
L 108 43.2 
" style="fill: none; stroke: #a9a9a9; stroke-width: 0.8; stroke-linejoin: miter; stroke-linecap: square"/>
   </g>
   <g id="patch_4">
    <path d="M 777.6 320.4 
L 777.6 43.2 
" style="fill: none"/>
   </g>
   <g id="patch_5">
    <path d="M 108 320.4 
L 777.6 320.4 
" style="fill: none; stroke: #a9a9a9; stroke-width: 0.8; stroke-linejoin: miter; stroke-linecap: square"/>
   </g>
   <g id="patch_6">
    <path d="M 108 43.2 
L 777.6 43.2 
" style="fill: none"/>
   </g>
   <g id="text_17">
    <!-- get_subscribe history -->
    <g style="fill: #a9a9a9" transform="translate(378.6075 37.2) scale(0.12 -0.12)">
     <defs>
      <path id="DejaVuSans-67" d="M 2906 1791 
Q 2906 2416 2648 2759 
Q 2391 3103 1925 3103 
Q 1463 3103 1205 2759 
Q 947 2416 947 1791 
Q 947 1169 1205 825 
Q 1463 481 1925 481 
Q 2391 481 2648 825 
Q 2906 1169 2906 1791 
z
M 3481 434 
Q 3481 -459 3084 -895 
Q 2688 -1331 1869 -1331 
Q 1566 -1331 1297 -1286 
Q 1028 -1241 775 -1147 
L 775 -588 
Q 1028 -725 1275 -790 
Q 1522 -856 1778 -856 
Q 2344 -856 2625 -561 
Q 2906 -266 2906 331 
L 2906 616 
Q 2728 306 2450 153 
Q 2172 0 1784 0 
Q 1141 0 747 490 
Q 353 981 353 1791 
Q 353 2603 747 3093 
Q 1141 3584 1784 3584 
Q 2172 3584 2450 3431 
Q 2728 3278 2906 2969 
L 2906 3500 
L 3481 3500 
L 3481 434 
z
" transform="scale(0.015625)"/>
      <path id="DejaVuSans-65" d="M 3597 1894 
L 3597 1613 
L 953 1613 
Q 991 1019 1311 708 
Q 1631 397 2203 397 
Q 2534 397 2845 478 
Q 3156 559 3463 722 
L 3463 178 
Q 3153 47 2828 -22 
Q 2503 -91 2169 -91 
Q 1331 -91 842 396 
Q 353 884 353 1716 
Q 353 2575 817 3079 
Q 1281 3584 2069 3584 
Q 2775 3584 3186 3129 
Q 3597 2675 3597 1894 
z
M 3022 2063 
Q 3016 2534 2758 2815 
Q 2500 3097 2075 3097 
Q 1594 3097 1305 2825 
Q 1016 2553 972 2059 
L 3022 2063 
z
" transform="scale(0.015625)"/>
      <path id="DejaVuSans-74" d="M 1172 4494 
L 1172 3500 
L 2356 3500 
L 2356 3053 
L 1172 3053 
L 1172 1153 
Q 1172 725 1289 603 
Q 1406 481 1766 481 
L 2356 481 
L 2356 0 
L 1766 0 
Q 1100 0 847 248 
Q 594 497 594 1153 
L 594 3053 
L 172 3053 
L 172 3500 
L 594 3500 
L 594 4494 
L 1172 4494 
z
" transform="scale(0.015625)"/>
      <path id="DejaVuSans-5f" d="M 3263 -1063 
L 3263 -1509 
L -63 -1509 
L -63 -1063 
L 3263 -1063 
z
" transform="scale(0.015625)"/>
      <path id="DejaVuSans-73" d="M 2834 3397 
L 2834 2853 
Q 2591 2978 2328 3040 
Q 2066 3103 1784 3103 
Q 1356 3103 1142 2972 
Q 928 2841 928 2578 
Q 928 2378 1081 2264 
Q 1234 2150 1697 2047 
L 1894 2003 
Q 2506 1872 2764 1633 
Q 3022 1394 3022 966 
Q 3022 478 2636 193 
Q 2250 -91 1575 -91 
Q 1294 -91 989 -36 
Q 684 19 347 128 
L 347 722 
Q 666 556 975 473 
Q 1284 391 1588 391 
Q 1994 391 2212 530 
Q 2431 669 2431 922 
Q 2431 1156 2273 1281 
Q 2116 1406 1581 1522 
L 1381 1569 
Q 847 1681 609 1914 
Q 372 2147 372 2553 
Q 372 3047 722 3315 
Q 1072 3584 1716 3584 
Q 2034 3584 2315 3537 
Q 2597 3491 2834 3397 
z
" transform="scale(0.015625)"/>
      <path id="DejaVuSans-75" d="M 544 1381 
L 544 3500 
L 1119 3500 
L 1119 1403 
Q 1119 906 1312 657 
Q 1506 409 1894 409 
Q 2359 409 2629 706 
Q 2900 1003 2900 1516 
L 2900 3500 
L 3475 3500 
L 3475 0 
L 2900 0 
L 2900 538 
Q 2691 219 2414 64 
Q 2138 -91 1772 -91 
Q 1169 -91 856 284 
Q 544 659 544 1381 
z
M 1991 3584 
L 1991 3584 
z
" transform="scale(0.015625)"/>
      <path id="DejaVuSans-62" d="M 3116 1747 
Q 3116 2381 2855 2742 
Q 2594 3103 2138 3103 
Q 1681 3103 1420 2742 
Q 1159 2381 1159 1747 
Q 1159 1113 1420 752 
Q 1681 391 2138 391 
Q 2594 391 2855 752 
Q 3116 1113 3116 1747 
z
M 1159 2969 
Q 1341 3281 1617 3432 
Q 1894 3584 2278 3584 
Q 2916 3584 3314 3078 
Q 3713 2572 3713 1747 
Q 3713 922 3314 415 
Q 2916 -91 2278 -91 
Q 1894 -91 1617 61 
Q 1341 213 1159 525 
L 1159 0 
L 581 0 
L 581 4863 
L 1159 4863 
L 1159 2969 
z
" transform="scale(0.015625)"/>
      <path id="DejaVuSans-63" d="M 3122 3366 
L 3122 2828 
Q 2878 2963 2633 3030 
Q 2388 3097 2138 3097 
Q 1578 3097 1268 2742 
Q 959 2388 959 1747 
Q 959 1106 1268 751 
Q 1578 397 2138 397 
Q 2388 397 2633 464 
Q 2878 531 3122 666 
L 3122 134 
Q 2881 22 2623 -34 
Q 2366 -91 2075 -91 
Q 1284 -91 818 406 
Q 353 903 353 1747 
Q 353 2603 823 3093 
Q 1294 3584 2113 3584 
Q 2378 3584 2631 3529 
Q 2884 3475 3122 3366 
z
" transform="scale(0.015625)"/>
      <path id="DejaVuSans-72" d="M 2631 2963 
Q 2534 3019 2420 3045 
Q 2306 3072 2169 3072 
Q 1681 3072 1420 2755 
Q 1159 2438 1159 1844 
L 1159 0 
L 581 0 
L 581 3500 
L 1159 3500 
L 1159 2956 
Q 1341 3275 1631 3429 
Q 1922 3584 2338 3584 
Q 2397 3584 2469 3576 
Q 2541 3569 2628 3553 
L 2631 2963 
z
" transform="scale(0.015625)"/>
      <path id="DejaVuSans-69" d="M 603 3500 
L 1178 3500 
L 1178 0 
L 603 0 
L 603 3500 
z
M 603 4863 
L 1178 4863 
L 1178 4134 
L 603 4134 
L 603 4863 
z
" transform="scale(0.015625)"/>
      <path id="DejaVuSans-20" transform="scale(0.015625)"/>
      <path id="DejaVuSans-68" d="M 3513 2113 
L 3513 0 
L 2938 0 
L 2938 2094 
Q 2938 2591 2744 2837 
Q 2550 3084 2163 3084 
Q 1697 3084 1428 2787 
Q 1159 2491 1159 1978 
L 1159 0 
L 581 0 
L 581 4863 
L 1159 4863 
L 1159 2956 
Q 1366 3272 1645 3428 
Q 1925 3584 2291 3584 
Q 2894 3584 3203 3211 
Q 3513 2838 3513 2113 
z
" transform="scale(0.015625)"/>
      <path id="DejaVuSans-6f" d="M 1959 3097 
Q 1497 3097 1228 2736 
Q 959 2375 959 1747 
Q 959 1119 1226 758 
Q 1494 397 1959 397 
Q 2419 397 2687 759 
Q 2956 1122 2956 1747 
Q 2956 2369 2687 2733 
Q 2419 3097 1959 3097 
z
M 1959 3584 
Q 2709 3584 3137 3096 
Q 3566 2609 3566 1747 
Q 3566 888 3137 398 
Q 2709 -91 1959 -91 
Q 1206 -91 779 398 
Q 353 888 353 1747 
Q 353 2609 779 3096 
Q 1206 3584 1959 3584 
z
" transform="scale(0.015625)"/>
      <path id="DejaVuSans-79" d="M 2059 -325 
Q 1816 -950 1584 -1140 
Q 1353 -1331 966 -1331 
L 506 -1331 
L 506 -850 
L 844 -850 
Q 1081 -850 1212 -737 
Q 1344 -625 1503 -206 
L 1606 56 
L 191 3500 
L 800 3500 
L 1894 763 
L 2988 3500 
L 3597 3500 
L 2059 -325 
z
" transform="scale(0.015625)"/>
     </defs>
     <use xlink:href="#DejaVuSans-67"/>
     <use xlink:href="#DejaVuSans-65" transform="translate(63.476562 0)"/>
     <use xlink:href="#DejaVuSans-74" transform="translate(125 0)"/>
     <use xlink:href="#DejaVuSans-5f" transform="translate(164.208984 0)"/>
     <use xlink:href="#DejaVuSans-73" transform="translate(214.208984 0)"/>
     <use xlink:href="#DejaVuSans-75" transform="translate(266.308594 0)"/>
     <use xlink:href="#DejaVuSans-62" transform="translate(329.6875 0)"/>
     <use xlink:href="#DejaVuSans-73" transform="translate(393.164062 0)"/>
     <use xlink:href="#DejaVuSans-63" transform="translate(445.263672 0)"/>
     <use xlink:href="#DejaVuSans-72" transform="translate(500.244141 0)"/>
     <use xlink:href="#DejaVuSans-69" transform="translate(541.357422 0)"/>
     <use xlink:href="#DejaVuSans-62" transform="translate(569.140625 0)"/>
     <use xlink:href="#DejaVuSans-65" transform="translate(632.617188 0)"/>
     <use xlink:href="#DejaVuSans-20" transform="translate(694.140625 0)"/>
     <use xlink:href="#DejaVuSans-68" transform="translate(725.927734 0)"/>
     <use xlink:href="#DejaVuSans-69" transform="translate(789.306641 0)"/>
     <use xlink:href="#DejaVuSans-73" transform="translate(817.089844 0)"/>
     <use xlink:href="#DejaVuSans-74" transform="translate(869.189453 0)"/>
     <use xlink:href="#DejaVuSans-6f" transform="translate(908.398438 0)"/>
     <use xlink:href="#DejaVuSans-72" transform="translate(969.580078 0)"/>
     <use xlink:href="#DejaVuSans-79" transform="translate(1010.693359 0)"/>
    </g>
   </g>
   <g id="legend_1">
    <g id="line2d_35">
     <path d="M 815.08 328.498438 
L 825.08 328.498438 
L 835.08 328.498438 
" style="fill: none; stroke: #1f77b4; stroke-width: 1.5; stroke-linecap: square"/>
    </g>
    <g id="text_18">
     <!-- star -->
     <g style="fill: #a9a9a9" transform="translate(843.08 331.998438) scale(0.1 -0.1)">
      <defs>
       <path id="DejaVuSans-61" d="M 2194 1759 
Q 1497 1759 1228 1600 
Q 959 1441 959 1056 
Q 959 750 1161 570 
Q 1363 391 1709 391 
Q 2188 391 2477 730 
Q 2766 1069 2766 1631 
L 2766 1759 
L 2194 1759 
z
M 3341 1997 
L 3341 0 
L 2766 0 
L 2766 531 
Q 2569 213 2275 61 
Q 1981 -91 1556 -91 
Q 1019 -91 701 211 
Q 384 513 384 1019 
Q 384 1609 779 1909 
Q 1175 2209 1959 2209 
L 2766 2209 
L 2766 2266 
Q 2766 2663 2505 2880 
Q 2244 3097 1772 3097 
Q 1472 3097 1187 3025 
Q 903 2953 641 2809 
L 641 3341 
Q 956 3463 1253 3523 
Q 1550 3584 1831 3584 
Q 2591 3584 2966 3190 
Q 3341 2797 3341 1997 
z
" transform="scale(0.015625)"/>
      </defs>
      <use xlink:href="#DejaVuSans-73"/>
      <use xlink:href="#DejaVuSans-74" transform="translate(52.099609 0)"/>
      <use xlink:href="#DejaVuSans-61" transform="translate(91.308594 0)"/>
      <use xlink:href="#DejaVuSans-72" transform="translate(152.587891 0)"/>
     </g>
    </g>
    <g id="line2d_36">
     <path d="M 815.08 343.176562 
L 825.08 343.176562 
L 835.08 343.176562 
" style="fill: none; stroke: #ff7f0e; stroke-width: 1.5; stroke-linecap: square"/>
    </g>
    <g id="text_19">
     <!-- fork -->
     <g style="fill: #a9a9a9" transform="translate(843.08 346.676562) scale(0.1 -0.1)">
      <defs>
       <path id="DejaVuSans-66" d="M 2375 4863 
L 2375 4384 
L 1825 4384 
Q 1516 4384 1395 4259 
Q 1275 4134 1275 3809 
L 1275 3500 
L 2222 3500 
L 2222 3053 
L 1275 3053 
L 1275 0 
L 697 0 
L 697 3053 
L 147 3053 
L 147 3500 
L 697 3500 
L 697 3744 
Q 697 4328 969 4595 
Q 1241 4863 1831 4863 
L 2375 4863 
z
" transform="scale(0.015625)"/>
       <path id="DejaVuSans-6b" d="M 581 4863 
L 1159 4863 
L 1159 1991 
L 2875 3500 
L 3609 3500 
L 1753 1863 
L 3688 0 
L 2938 0 
L 1159 1709 
L 1159 0 
L 581 0 
L 581 4863 
z
" transform="scale(0.015625)"/>
      </defs>
      <use xlink:href="#DejaVuSans-66"/>
      <use xlink:href="#DejaVuSans-6f" transform="translate(35.205078 0)"/>
      <use xlink:href="#DejaVuSans-72" transform="translate(96.386719 0)"/>
      <use xlink:href="#DejaVuSans-6b" transform="translate(137.5 0)"/>
     </g>
    </g>
   </g>
  </g>
 </g>
 <defs>
  <clipPath id="p7d927e6067">
   <rect x="108" y="43.2" width="669.6" height="277.2"/>
  </clipPath>
 </defs>
</svg>
