<?xml version="1.0" encoding="utf-8" standalone="no"?>
<!DOCTYPE svg PUBLIC "-//W3C//DTD SVG 1.1//EN"
  "http://www.w3.org/Graphics/SVG/1.1/DTD/svg11.dtd">
<svg xmlns:xlink="http://www.w3.org/1999/xlink" width="864pt" height="360pt" viewBox="0 0 864 360" xmlns="http://www.w3.org/2000/svg" version="1.1">
 <metadata>
  <rdf:RDF xmlns:dc="http://purl.org/dc/elements/1.1/" xmlns:cc="http://creativecommons.org/ns#" xmlns:rdf="http://www.w3.org/1999/02/22-rdf-syntax-ns#">
   <cc:Work>
    <dc:type rdf:resource="http://purl.org/dc/dcmitype/StillImage"/>
    <dc:date>2025-03-18T08:14:27.756469</dc:date>
    <dc:format>image/svg+xml</dc:format>
    <dc:creator>
     <cc:Agent>
      <dc:title>Matplotlib v3.10.1, https://matplotlib.org/</dc:title>
     </cc:Agent>
    </dc:creator>
   </cc:Work>
  </rdf:RDF>
 </metadata>
 <defs>
  <style type="text/css">*{stroke-linejoin: round; stroke-linecap: butt}</style>
 </defs>
 <g id="figure_1">
  <g id="patch_1">
   <path d="M 0 360 
L 864 360 
L 864 0 
L 0 0 
L 0 360 
z
" style="fill: none; opacity: 0"/>
  </g>
  <g id="axes_1">
   <g id="patch_2">
    <path d="M 108 320.4 
L 777.6 320.4 
L 777.6 43.2 
L 108 43.2 
L 108 320.4 
z
" style="fill: none; opacity: 0"/>
   </g>
   <g id="matplotlib.axis_1">
    <g id="xtick_1">
     <g id="line2d_1">
      <path d="M 127.933192 320.4 
L 127.933192 43.2 
" clip-path="url(#p9df27f8e59)" style="fill: none; stroke-dasharray: 5.12,1.28,0.8,1.28; stroke-dashoffset: 0; stroke: #b0b0b0; stroke-width: 0.8"/>
     </g>
     <g id="line2d_2">
      <defs>
       <path id="m0fdaa7f059" d="M 0 0 
L 0 3.5 
" style="stroke: #a9a9a9; stroke-width: 0.8"/>
      </defs>
      <g>
       <use xlink:href="#m0fdaa7f059" x="127.933192" y="320.4" style="fill: #a9a9a9; stroke: #a9a9a9; stroke-width: 0.8"/>
      </g>
     </g>
     <g id="text_1">
      <!-- 2021-07 -->
      <g style="fill: #a9a9a9" transform="translate(107.041786 334.998438) scale(0.1 -0.1)">
       <defs>
        <path id="DejaVuSans-32" d="M 1228 531 
L 3431 531 
L 3431 0 
L 469 0 
L 469 531 
Q 828 903 1448 1529 
Q 2069 2156 2228 2338 
Q 2531 2678 2651 2914 
Q 2772 3150 2772 3378 
Q 2772 3750 2511 3984 
Q 2250 4219 1831 4219 
Q 1534 4219 1204 4116 
Q 875 4013 500 3803 
L 500 4441 
Q 881 4594 1212 4672 
Q 1544 4750 1819 4750 
Q 2544 4750 2975 4387 
Q 3406 4025 3406 3419 
Q 3406 3131 3298 2873 
Q 3191 2616 2906 2266 
Q 2828 2175 2409 1742 
Q 1991 1309 1228 531 
z
" transform="scale(0.015625)"/>
        <path id="DejaVuSans-30" d="M 2034 4250 
Q 1547 4250 1301 3770 
Q 1056 3291 1056 2328 
Q 1056 1369 1301 889 
Q 1547 409 2034 409 
Q 2525 409 2770 889 
Q 3016 1369 3016 2328 
Q 3016 3291 2770 3770 
Q 2525 4250 2034 4250 
z
M 2034 4750 
Q 2819 4750 3233 4129 
Q 3647 3509 3647 2328 
Q 3647 1150 3233 529 
Q 2819 -91 2034 -91 
Q 1250 -91 836 529 
Q 422 1150 422 2328 
Q 422 3509 836 4129 
Q 1250 4750 2034 4750 
z
" transform="scale(0.015625)"/>
        <path id="DejaVuSans-31" d="M 794 531 
L 1825 531 
L 1825 4091 
L 703 3866 
L 703 4441 
L 1819 4666 
L 2450 4666 
L 2450 531 
L 3481 531 
L 3481 0 
L 794 0 
L 794 531 
z
" transform="scale(0.015625)"/>
        <path id="DejaVuSans-2d" d="M 313 2009 
L 1997 2009 
L 1997 1497 
L 313 1497 
L 313 2009 
z
" transform="scale(0.015625)"/>
        <path id="DejaVuSans-37" d="M 525 4666 
L 3525 4666 
L 3525 4397 
L 1831 0 
L 1172 0 
L 2766 4134 
L 525 4134 
L 525 4666 
z
" transform="scale(0.015625)"/>
       </defs>
       <use xlink:href="#DejaVuSans-32"/>
       <use xlink:href="#DejaVuSans-30" transform="translate(63.623047 0)"/>
       <use xlink:href="#DejaVuSans-32" transform="translate(127.246094 0)"/>
       <use xlink:href="#DejaVuSans-31" transform="translate(190.869141 0)"/>
       <use xlink:href="#DejaVuSans-2d" transform="translate(254.492188 0)"/>
       <use xlink:href="#DejaVuSans-30" transform="translate(290.576172 0)"/>
       <use xlink:href="#DejaVuSans-37" transform="translate(354.199219 0)"/>
      </g>
     </g>
    </g>
    <g id="xtick_2">
     <g id="line2d_3">
      <path d="M 211.958562 320.4 
L 211.958562 43.2 
" clip-path="url(#p9df27f8e59)" style="fill: none; stroke-dasharray: 5.12,1.28,0.8,1.28; stroke-dashoffset: 0; stroke: #b0b0b0; stroke-width: 0.8"/>
     </g>
     <g id="line2d_4">
      <g>
       <use xlink:href="#m0fdaa7f059" x="211.958562" y="320.4" style="fill: #a9a9a9; stroke: #a9a9a9; stroke-width: 0.8"/>
      </g>
     </g>
     <g id="text_2">
      <!-- 2022-01 -->
      <g style="fill: #a9a9a9" transform="translate(191.067156 334.998438) scale(0.1 -0.1)">
       <use xlink:href="#DejaVuSans-32"/>
       <use xlink:href="#DejaVuSans-30" transform="translate(63.623047 0)"/>
       <use xlink:href="#DejaVuSans-32" transform="translate(127.246094 0)"/>
       <use xlink:href="#DejaVuSans-32" transform="translate(190.869141 0)"/>
       <use xlink:href="#DejaVuSans-2d" transform="translate(254.492188 0)"/>
       <use xlink:href="#DejaVuSans-30" transform="translate(290.576172 0)"/>
       <use xlink:href="#DejaVuSans-31" transform="translate(354.199219 0)"/>
      </g>
     </g>
    </g>
    <g id="xtick_3">
     <g id="line2d_5">
      <path d="M 294.613953 320.4 
L 294.613953 43.2 
" clip-path="url(#p9df27f8e59)" style="fill: none; stroke-dasharray: 5.12,1.28,0.8,1.28; stroke-dashoffset: 0; stroke: #b0b0b0; stroke-width: 0.8"/>
     </g>
     <g id="line2d_6">
      <g>
       <use xlink:href="#m0fdaa7f059" x="294.613953" y="320.4" style="fill: #a9a9a9; stroke: #a9a9a9; stroke-width: 0.8"/>
      </g>
     </g>
     <g id="text_3">
      <!-- 2022-07 -->
      <g style="fill: #a9a9a9" transform="translate(273.722547 334.998438) scale(0.1 -0.1)">
       <use xlink:href="#DejaVuSans-32"/>
       <use xlink:href="#DejaVuSans-30" transform="translate(63.623047 0)"/>
       <use xlink:href="#DejaVuSans-32" transform="translate(127.246094 0)"/>
       <use xlink:href="#DejaVuSans-32" transform="translate(190.869141 0)"/>
       <use xlink:href="#DejaVuSans-2d" transform="translate(254.492188 0)"/>
       <use xlink:href="#DejaVuSans-30" transform="translate(290.576172 0)"/>
       <use xlink:href="#DejaVuSans-37" transform="translate(354.199219 0)"/>
      </g>
     </g>
    </g>
    <g id="xtick_4">
     <g id="line2d_7">
      <path d="M 378.639323 320.4 
L 378.639323 43.2 
" clip-path="url(#p9df27f8e59)" style="fill: none; stroke-dasharray: 5.12,1.28,0.8,1.28; stroke-dashoffset: 0; stroke: #b0b0b0; stroke-width: 0.8"/>
     </g>
     <g id="line2d_8">
      <g>
       <use xlink:href="#m0fdaa7f059" x="378.639323" y="320.4" style="fill: #a9a9a9; stroke: #a9a9a9; stroke-width: 0.8"/>
      </g>
     </g>
     <g id="text_4">
      <!-- 2023-01 -->
      <g style="fill: #a9a9a9" transform="translate(357.747917 334.998438) scale(0.1 -0.1)">
       <defs>
        <path id="DejaVuSans-33" d="M 2597 2516 
Q 3050 2419 3304 2112 
Q 3559 1806 3559 1356 
Q 3559 666 3084 287 
Q 2609 -91 1734 -91 
Q 1441 -91 1130 -33 
Q 819 25 488 141 
L 488 750 
Q 750 597 1062 519 
Q 1375 441 1716 441 
Q 2309 441 2620 675 
Q 2931 909 2931 1356 
Q 2931 1769 2642 2001 
Q 2353 2234 1838 2234 
L 1294 2234 
L 1294 2753 
L 1863 2753 
Q 2328 2753 2575 2939 
Q 2822 3125 2822 3475 
Q 2822 3834 2567 4026 
Q 2313 4219 1838 4219 
Q 1578 4219 1281 4162 
Q 984 4106 628 3988 
L 628 4550 
Q 988 4650 1302 4700 
Q 1616 4750 1894 4750 
Q 2613 4750 3031 4423 
Q 3450 4097 3450 3541 
Q 3450 3153 3228 2886 
Q 3006 2619 2597 2516 
z
" transform="scale(0.015625)"/>
       </defs>
       <use xlink:href="#DejaVuSans-32"/>
       <use xlink:href="#DejaVuSans-30" transform="translate(63.623047 0)"/>
       <use xlink:href="#DejaVuSans-32" transform="translate(127.246094 0)"/>
       <use xlink:href="#DejaVuSans-33" transform="translate(190.869141 0)"/>
       <use xlink:href="#DejaVuSans-2d" transform="translate(254.492188 0)"/>
       <use xlink:href="#DejaVuSans-30" transform="translate(290.576172 0)"/>
       <use xlink:href="#DejaVuSans-31" transform="translate(354.199219 0)"/>
      </g>
     </g>
    </g>
    <g id="xtick_5">
     <g id="line2d_9">
      <path d="M 461.294715 320.4 
L 461.294715 43.2 
" clip-path="url(#p9df27f8e59)" style="fill: none; stroke-dasharray: 5.12,1.28,0.8,1.28; stroke-dashoffset: 0; stroke: #b0b0b0; stroke-width: 0.8"/>
     </g>
     <g id="line2d_10">
      <g>
       <use xlink:href="#m0fdaa7f059" x="461.294715" y="320.4" style="fill: #a9a9a9; stroke: #a9a9a9; stroke-width: 0.8"/>
      </g>
     </g>
     <g id="text_5">
      <!-- 2023-07 -->
      <g style="fill: #a9a9a9" transform="translate(440.403308 334.998438) scale(0.1 -0.1)">
       <use xlink:href="#DejaVuSans-32"/>
       <use xlink:href="#DejaVuSans-30" transform="translate(63.623047 0)"/>
       <use xlink:href="#DejaVuSans-32" transform="translate(127.246094 0)"/>
       <use xlink:href="#DejaVuSans-33" transform="translate(190.869141 0)"/>
       <use xlink:href="#DejaVuSans-2d" transform="translate(254.492188 0)"/>
       <use xlink:href="#DejaVuSans-30" transform="translate(290.576172 0)"/>
       <use xlink:href="#DejaVuSans-37" transform="translate(354.199219 0)"/>
      </g>
     </g>
    </g>
    <g id="xtick_6">
     <g id="line2d_11">
      <path d="M 545.320085 320.4 
L 545.320085 43.2 
" clip-path="url(#p9df27f8e59)" style="fill: none; stroke-dasharray: 5.12,1.28,0.8,1.28; stroke-dashoffset: 0; stroke: #b0b0b0; stroke-width: 0.8"/>
     </g>
     <g id="line2d_12">
      <g>
       <use xlink:href="#m0fdaa7f059" x="545.320085" y="320.4" style="fill: #a9a9a9; stroke: #a9a9a9; stroke-width: 0.8"/>
      </g>
     </g>
     <g id="text_6">
      <!-- 2024-01 -->
      <g style="fill: #a9a9a9" transform="translate(524.428678 334.998438) scale(0.1 -0.1)">
       <defs>
        <path id="DejaVuSans-34" d="M 2419 4116 
L 825 1625 
L 2419 1625 
L 2419 4116 
z
M 2253 4666 
L 3047 4666 
L 3047 1625 
L 3713 1625 
L 3713 1100 
L 3047 1100 
L 3047 0 
L 2419 0 
L 2419 1100 
L 313 1100 
L 313 1709 
L 2253 4666 
z
" transform="scale(0.015625)"/>
       </defs>
       <use xlink:href="#DejaVuSans-32"/>
       <use xlink:href="#DejaVuSans-30" transform="translate(63.623047 0)"/>
       <use xlink:href="#DejaVuSans-32" transform="translate(127.246094 0)"/>
       <use xlink:href="#DejaVuSans-34" transform="translate(190.869141 0)"/>
       <use xlink:href="#DejaVuSans-2d" transform="translate(254.492188 0)"/>
       <use xlink:href="#DejaVuSans-30" transform="translate(290.576172 0)"/>
       <use xlink:href="#DejaVuSans-31" transform="translate(354.199219 0)"/>
      </g>
     </g>
    </g>
    <g id="xtick_7">
     <g id="line2d_13">
      <path d="M 628.432135 320.4 
L 628.432135 43.2 
" clip-path="url(#p9df27f8e59)" style="fill: none; stroke-dasharray: 5.12,1.28,0.8,1.28; stroke-dashoffset: 0; stroke: #b0b0b0; stroke-width: 0.8"/>
     </g>
     <g id="line2d_14">
      <g>
       <use xlink:href="#m0fdaa7f059" x="628.432135" y="320.4" style="fill: #a9a9a9; stroke: #a9a9a9; stroke-width: 0.8"/>
      </g>
     </g>
     <g id="text_7">
      <!-- 2024-07 -->
      <g style="fill: #a9a9a9" transform="translate(607.540729 334.998438) scale(0.1 -0.1)">
       <use xlink:href="#DejaVuSans-32"/>
       <use xlink:href="#DejaVuSans-30" transform="translate(63.623047 0)"/>
       <use xlink:href="#DejaVuSans-32" transform="translate(127.246094 0)"/>
       <use xlink:href="#DejaVuSans-34" transform="translate(190.869141 0)"/>
       <use xlink:href="#DejaVuSans-2d" transform="translate(254.492188 0)"/>
       <use xlink:href="#DejaVuSans-30" transform="translate(290.576172 0)"/>
       <use xlink:href="#DejaVuSans-37" transform="translate(354.199219 0)"/>
      </g>
     </g>
    </g>
    <g id="xtick_8">
     <g id="line2d_15">
      <path d="M 712.457505 320.4 
L 712.457505 43.2 
" clip-path="url(#p9df27f8e59)" style="fill: none; stroke-dasharray: 5.12,1.28,0.8,1.28; stroke-dashoffset: 0; stroke: #b0b0b0; stroke-width: 0.8"/>
     </g>
     <g id="line2d_16">
      <g>
       <use xlink:href="#m0fdaa7f059" x="712.457505" y="320.4" style="fill: #a9a9a9; stroke: #a9a9a9; stroke-width: 0.8"/>
      </g>
     </g>
     <g id="text_8">
      <!-- 2025-01 -->
      <g style="fill: #a9a9a9" transform="translate(691.566099 334.998438) scale(0.1 -0.1)">
       <defs>
        <path id="DejaVuSans-35" d="M 691 4666 
L 3169 4666 
L 3169 4134 
L 1269 4134 
L 1269 2991 
Q 1406 3038 1543 3061 
Q 1681 3084 1819 3084 
Q 2600 3084 3056 2656 
Q 3513 2228 3513 1497 
Q 3513 744 3044 326 
Q 2575 -91 1722 -91 
Q 1428 -91 1123 -41 
Q 819 9 494 109 
L 494 744 
Q 775 591 1075 516 
Q 1375 441 1709 441 
Q 2250 441 2565 725 
Q 2881 1009 2881 1497 
Q 2881 1984 2565 2268 
Q 2250 2553 1709 2553 
Q 1456 2553 1204 2497 
Q 953 2441 691 2322 
L 691 4666 
z
" transform="scale(0.015625)"/>
       </defs>
       <use xlink:href="#DejaVuSans-32"/>
       <use xlink:href="#DejaVuSans-30" transform="translate(63.623047 0)"/>
       <use xlink:href="#DejaVuSans-32" transform="translate(127.246094 0)"/>
       <use xlink:href="#DejaVuSans-35" transform="translate(190.869141 0)"/>
       <use xlink:href="#DejaVuSans-2d" transform="translate(254.492188 0)"/>
       <use xlink:href="#DejaVuSans-30" transform="translate(290.576172 0)"/>
       <use xlink:href="#DejaVuSans-31" transform="translate(354.199219 0)"/>
      </g>
     </g>
    </g>
   </g>
   <g id="matplotlib.axis_2">
    <g id="ytick_1">
     <g id="line2d_17">
      <path d="M 108 307.833953 
L 777.6 307.833953 
" clip-path="url(#p9df27f8e59)" style="fill: none; stroke-dasharray: 5.12,1.28,0.8,1.28; stroke-dashoffset: 0; stroke: #b0b0b0; stroke-width: 0.8"/>
     </g>
     <g id="line2d_18">
      <defs>
       <path id="m1f5f328776" d="M 0 0 
L -3.5 0 
" style="stroke: #a9a9a9; stroke-width: 0.8"/>
      </defs>
      <g>
       <use xlink:href="#m1f5f328776" x="108" y="307.833953" style="fill: #a9a9a9; stroke: #a9a9a9; stroke-width: 0.8"/>
      </g>
     </g>
     <g id="text_9">
      <!-- 0 -->
      <g style="fill: #a9a9a9" transform="translate(94.6375 311.633172) scale(0.1 -0.1)">
       <use xlink:href="#DejaVuSans-30"/>
      </g>
     </g>
    </g>
    <g id="ytick_2">
     <g id="line2d_19">
      <path d="M 108 273.880841 
L 777.6 273.880841 
" clip-path="url(#p9df27f8e59)" style="fill: none; stroke-dasharray: 5.12,1.28,0.8,1.28; stroke-dashoffset: 0; stroke: #b0b0b0; stroke-width: 0.8"/>
     </g>
     <g id="line2d_20">
      <g>
       <use xlink:href="#m1f5f328776" x="108" y="273.880841" style="fill: #a9a9a9; stroke: #a9a9a9; stroke-width: 0.8"/>
      </g>
     </g>
     <g id="text_10">
      <!-- 1000 -->
      <g style="fill: #a9a9a9" transform="translate(75.55 277.680059) scale(0.1 -0.1)">
       <use xlink:href="#DejaVuSans-31"/>
       <use xlink:href="#DejaVuSans-30" transform="translate(63.623047 0)"/>
       <use xlink:href="#DejaVuSans-30" transform="translate(127.246094 0)"/>
       <use xlink:href="#DejaVuSans-30" transform="translate(190.869141 0)"/>
      </g>
     </g>
    </g>
    <g id="ytick_3">
     <g id="line2d_21">
      <path d="M 108 239.927728 
L 777.6 239.927728 
" clip-path="url(#p9df27f8e59)" style="fill: none; stroke-dasharray: 5.12,1.28,0.8,1.28; stroke-dashoffset: 0; stroke: #b0b0b0; stroke-width: 0.8"/>
     </g>
     <g id="line2d_22">
      <g>
       <use xlink:href="#m1f5f328776" x="108" y="239.927728" style="fill: #a9a9a9; stroke: #a9a9a9; stroke-width: 0.8"/>
      </g>
     </g>
     <g id="text_11">
      <!-- 2000 -->
      <g style="fill: #a9a9a9" transform="translate(75.55 243.726947) scale(0.1 -0.1)">
       <use xlink:href="#DejaVuSans-32"/>
       <use xlink:href="#DejaVuSans-30" transform="translate(63.623047 0)"/>
       <use xlink:href="#DejaVuSans-30" transform="translate(127.246094 0)"/>
       <use xlink:href="#DejaVuSans-30" transform="translate(190.869141 0)"/>
      </g>
     </g>
    </g>
    <g id="ytick_4">
     <g id="line2d_23">
      <path d="M 108 205.974616 
L 777.6 205.974616 
" clip-path="url(#p9df27f8e59)" style="fill: none; stroke-dasharray: 5.12,1.28,0.8,1.28; stroke-dashoffset: 0; stroke: #b0b0b0; stroke-width: 0.8"/>
     </g>
     <g id="line2d_24">
      <g>
       <use xlink:href="#m1f5f328776" x="108" y="205.974616" style="fill: #a9a9a9; stroke: #a9a9a9; stroke-width: 0.8"/>
      </g>
     </g>
     <g id="text_12">
      <!-- 3000 -->
      <g style="fill: #a9a9a9" transform="translate(75.55 209.773835) scale(0.1 -0.1)">
       <use xlink:href="#DejaVuSans-33"/>
       <use xlink:href="#DejaVuSans-30" transform="translate(63.623047 0)"/>
       <use xlink:href="#DejaVuSans-30" transform="translate(127.246094 0)"/>
       <use xlink:href="#DejaVuSans-30" transform="translate(190.869141 0)"/>
      </g>
     </g>
    </g>
    <g id="ytick_5">
     <g id="line2d_25">
      <path d="M 108 172.021504 
L 777.6 172.021504 
" clip-path="url(#p9df27f8e59)" style="fill: none; stroke-dasharray: 5.12,1.28,0.8,1.28; stroke-dashoffset: 0; stroke: #b0b0b0; stroke-width: 0.8"/>
     </g>
     <g id="line2d_26">
      <g>
       <use xlink:href="#m1f5f328776" x="108" y="172.021504" style="fill: #a9a9a9; stroke: #a9a9a9; stroke-width: 0.8"/>
      </g>
     </g>
     <g id="text_13">
      <!-- 4000 -->
      <g style="fill: #a9a9a9" transform="translate(75.55 175.820722) scale(0.1 -0.1)">
       <use xlink:href="#DejaVuSans-34"/>
       <use xlink:href="#DejaVuSans-30" transform="translate(63.623047 0)"/>
       <use xlink:href="#DejaVuSans-30" transform="translate(127.246094 0)"/>
       <use xlink:href="#DejaVuSans-30" transform="translate(190.869141 0)"/>
      </g>
     </g>
    </g>
    <g id="ytick_6">
     <g id="line2d_27">
      <path d="M 108 138.068391 
L 777.6 138.068391 
" clip-path="url(#p9df27f8e59)" style="fill: none; stroke-dasharray: 5.12,1.28,0.8,1.28; stroke-dashoffset: 0; stroke: #b0b0b0; stroke-width: 0.8"/>
     </g>
     <g id="line2d_28">
      <g>
       <use xlink:href="#m1f5f328776" x="108" y="138.068391" style="fill: #a9a9a9; stroke: #a9a9a9; stroke-width: 0.8"/>
      </g>
     </g>
     <g id="text_14">
      <!-- 5000 -->
      <g style="fill: #a9a9a9" transform="translate(75.55 141.86761) scale(0.1 -0.1)">
       <use xlink:href="#DejaVuSans-35"/>
       <use xlink:href="#DejaVuSans-30" transform="translate(63.623047 0)"/>
       <use xlink:href="#DejaVuSans-30" transform="translate(127.246094 0)"/>
       <use xlink:href="#DejaVuSans-30" transform="translate(190.869141 0)"/>
      </g>
     </g>
    </g>
    <g id="ytick_7">
     <g id="line2d_29">
      <path d="M 108 104.115279 
L 777.6 104.115279 
" clip-path="url(#p9df27f8e59)" style="fill: none; stroke-dasharray: 5.12,1.28,0.8,1.28; stroke-dashoffset: 0; stroke: #b0b0b0; stroke-width: 0.8"/>
     </g>
     <g id="line2d_30">
      <g>
       <use xlink:href="#m1f5f328776" x="108" y="104.115279" style="fill: #a9a9a9; stroke: #a9a9a9; stroke-width: 0.8"/>
      </g>
     </g>
     <g id="text_15">
      <!-- 6000 -->
      <g style="fill: #a9a9a9" transform="translate(75.55 107.914498) scale(0.1 -0.1)">
       <defs>
        <path id="DejaVuSans-36" d="M 2113 2584 
Q 1688 2584 1439 2293 
Q 1191 2003 1191 1497 
Q 1191 994 1439 701 
Q 1688 409 2113 409 
Q 2538 409 2786 701 
Q 3034 994 3034 1497 
Q 3034 2003 2786 2293 
Q 2538 2584 2113 2584 
z
M 3366 4563 
L 3366 3988 
Q 3128 4100 2886 4159 
Q 2644 4219 2406 4219 
Q 1781 4219 1451 3797 
Q 1122 3375 1075 2522 
Q 1259 2794 1537 2939 
Q 1816 3084 2150 3084 
Q 2853 3084 3261 2657 
Q 3669 2231 3669 1497 
Q 3669 778 3244 343 
Q 2819 -91 2113 -91 
Q 1303 -91 875 529 
Q 447 1150 447 2328 
Q 447 3434 972 4092 
Q 1497 4750 2381 4750 
Q 2619 4750 2861 4703 
Q 3103 4656 3366 4563 
z
" transform="scale(0.015625)"/>
       </defs>
       <use xlink:href="#DejaVuSans-36"/>
       <use xlink:href="#DejaVuSans-30" transform="translate(63.623047 0)"/>
       <use xlink:href="#DejaVuSans-30" transform="translate(127.246094 0)"/>
       <use xlink:href="#DejaVuSans-30" transform="translate(190.869141 0)"/>
      </g>
     </g>
    </g>
    <g id="ytick_8">
     <g id="line2d_31">
      <path d="M 108 70.162167 
L 777.6 70.162167 
" clip-path="url(#p9df27f8e59)" style="fill: none; stroke-dasharray: 5.12,1.28,0.8,1.28; stroke-dashoffset: 0; stroke: #b0b0b0; stroke-width: 0.8"/>
     </g>
     <g id="line2d_32">
      <g>
       <use xlink:href="#m1f5f328776" x="108" y="70.162167" style="fill: #a9a9a9; stroke: #a9a9a9; stroke-width: 0.8"/>
      </g>
     </g>
     <g id="text_16">
      <!-- 7000 -->
      <g style="fill: #a9a9a9" transform="translate(75.55 73.961385) scale(0.1 -0.1)">
       <use xlink:href="#DejaVuSans-37"/>
       <use xlink:href="#DejaVuSans-30" transform="translate(63.623047 0)"/>
       <use xlink:href="#DejaVuSans-30" transform="translate(127.246094 0)"/>
       <use xlink:href="#DejaVuSans-30" transform="translate(190.869141 0)"/>
      </g>
     </g>
    </g>
   </g>
   <g id="line2d_33">
    <path d="M 138.436364 307.732094 
L 141.176321 307.494422 
L 141.632981 307.290703 
L 143.459619 307.053032 
L 145.286258 306.679547 
L 146.199577 306.543735 
L 148.482875 306.340016 
L 149.396195 305.966532 
L 149.852854 305.355376 
L 150.309514 305.049798 
L 150.766173 303.997251 
L 151.222833 303.929345 
L 151.679493 303.555861 
L 152.592812 303.080517 
L 154.41945 301.58658 
L 156.246089 300.669846 
L 157.616068 300.024737 
L 158.072727 299.277769 
L 158.986047 298.598707 
L 159.442706 298.394988 
L 164.009302 297.715926 
L 164.465962 297.512207 
L 167.662579 297.240582 
L 169.489218 296.799192 
L 173.142495 296.289895 
L 173.599154 296.052223 
L 174.055814 295.984317 
L 174.969133 295.678739 
L 178.165751 295.135489 
L 179.07907 294.863864 
L 183.189006 294.150849 
L 184.102326 293.94713 
L 185.015645 293.913177 
L 186.842283 293.471787 
L 187.298943 292.826677 
L 188.668922 292.283428 
L 190.038901 291.909943 
L 190.49556 291.672272 
L 191.408879 291.502506 
L 193.235518 290.959256 
L 194.148837 290.89135 
L 195.062156 290.653678 
L 196.888795 290.178335 
L 197.345455 290.144382 
L 198.258774 289.702991 
L 198.715433 289.635085 
L 199.172093 289.397413 
L 204.195349 288.548585 
L 206.021987 288.005335 
L 206.478647 287.699757 
L 208.761945 286.952789 
L 209.675264 286.30768 
L 211.045243 286.036055 
L 221.091755 283.082134 
L 221.548414 283.048181 
L 222.918393 282.640744 
L 223.375053 282.640744 
L 223.831712 282.437025 
L 224.745032 282.335166 
L 225.201691 282.1654 
L 227.02833 282.097494 
L 227.941649 281.927728 
L 228.854968 281.452385 
L 230.224947 280.943088 
L 230.681607 280.63751 
L 231.594926 280.230073 
L 232.051586 279.992401 
L 232.964905 279.686823 
L 233.421564 279.551011 
L 234.334884 278.973808 
L 234.791543 278.464511 
L 235.704863 277.03848 
L 236.161522 276.902668 
L 236.618182 276.902668 
L 237.988161 276.087793 
L 238.44482 275.850121 
L 238.90148 275.748262 
L 239.35814 275.306871 
L 240.271459 274.933387 
L 241.184778 274.491997 
L 243.468076 271.538076 
L 246.208034 270.044139 
L 247.121353 269.297171 
L 247.578013 268.991593 
L 248.034672 268.346483 
L 248.491332 267.293937 
L 248.947992 266.580922 
L 249.404651 266.207437 
L 249.861311 266.003719 
L 253.514588 262.608407 
L 254.427907 261.75958 
L 257.167865 260.027971 
L 257.624524 259.858205 
L 258.994503 259.043331 
L 260.364482 258.126597 
L 262.191121 256.462894 
L 263.10444 256.08941 
L 264.017759 255.444301 
L 264.474419 255.172676 
L 264.931078 255.10477 
L 266.301057 254.323848 
L 266.757717 253.814551 
L 269.041015 252.558286 
L 269.497674 252.388521 
L 270.867653 251.437833 
L 277.717548 248.993209 
L 278.630867 248.144382 
L 280.000846 247.465319 
L 280.914165 246.888116 
L 281.827484 246.616492 
L 282.284144 246.310914 
L 282.740803 246.175101 
L 284.110782 245.258367 
L 286.39408 244.715117 
L 287.764059 243.900243 
L 289.134038 243.594665 
L 289.590698 243.492805 
L 290.960677 242.440259 
L 292.787315 241.930962 
L 293.243975 241.557478 
L 295.983932 240.606791 
L 296.897252 240.437025 
L 297.810571 240.063541 
L 301.007188 238.875182 
L 301.920507 238.739369 
L 303.290486 238.264026 
L 305.573784 237.143573 
L 307.400423 236.12498 
L 311.0537 234.59709 
L 311.510359 234.529184 
L 312.423679 233.951981 
L 313.336998 233.714309 
L 314.706977 233.171059 
L 316.533615 232.933387 
L 317.446934 232.458044 
L 317.903594 232.050606 
L 318.360254 231.201778 
L 320.186892 230.692482 
L 321.556871 229.979466 
L 322.47019 229.673888 
L 323.38351 229.198545 
L 326.123467 228.078092 
L 327.036786 227.874373 
L 327.950106 227.39903 
L 328.406765 227.195311 
L 328.863425 227.127405 
L 331.146723 226.006952 
L 332.060042 225.429749 
L 333.430021 225.158124 
L 335.25666 224.648828 
L 335.713319 224.614875 
L 336.169979 224.24139 
L 337.083298 223.935812 
L 339.366596 223.019078 
L 339.823256 222.679547 
L 340.279915 222.509782 
L 341.193235 222.000485 
L 343.019873 221.423282 
L 343.933192 220.846079 
L 344.389852 220.370736 
L 344.846512 220.099111 
L 345.303171 219.997251 
L 346.21649 219.250283 
L 346.67315 219.182377 
L 347.12981 218.435408 
L 347.586469 218.23169 
L 348.043129 217.858205 
L 348.499789 217.790299 
L 349.413108 217.213096 
L 350.326427 216.907518 
L 350.783087 216.567987 
L 351.239746 216.398222 
L 353.066385 215.175909 
L 354.436364 214.462894 
L 355.349683 214.225222 
L 356.263002 213.715926 
L 356.719662 212.935004 
L 357.632981 212.255942 
L 358.089641 212.154082 
L 360.829598 210.829911 
L 361.742918 210.456427 
L 363.112896 209.302021 
L 364.026216 208.521099 
L 364.939535 207.97785 
L 365.396195 207.468553 
L 365.852854 207.162975 
L 366.766173 206.416006 
L 367.222833 206.212288 
L 368.136152 205.295554 
L 369.049471 204.989976 
L 369.962791 204.37882 
L 371.33277 203.665804 
L 371.789429 203.597898 
L 373.159408 202.85093 
L 374.072727 202.273727 
L 378.639323 200.576071 
L 379.095983 200.202587 
L 380.922622 199.489572 
L 381.379281 199.353759 
L 382.2926 198.742603 
L 383.20592 198.335166 
L 384.119239 197.690057 
L 385.032558 195.856589 
L 385.945877 194.770089 
L 387.315856 194.057074 
L 388.229175 193.683589 
L 388.685835 193.615683 
L 389.142495 193.344058 
L 391.425793 192.59709 
L 391.882452 192.393371 
L 392.795772 191.748262 
L 394.165751 191.171059 
L 395.07907 190.661762 
L 395.992389 190.118513 
L 396.449049 189.812935 
L 396.905708 189.303638 
L 397.819027 188.794341 
L 400.102326 187.538076 
L 402.842283 186.145998 
L 404.212262 185.738561 
L 405.582241 185.195311 
L 406.038901 184.85578 
L 406.95222 184.584155 
L 407.865539 184.210671 
L 408.322199 183.837187 
L 410.148837 183.192078 
L 411.062156 182.513015 
L 411.975476 182.139531 
L 412.888795 181.426516 
L 413.802114 181.154891 
L 414.258774 180.747454 
L 414.715433 180.679547 
L 415.628753 179.966532 
L 416.542072 179.491188 
L 416.998732 179.28747 
L 417.455391 178.812126 
L 420.652008 177.521908 
L 421.565328 177.11447 
L 422.935307 176.67308 
L 423.848626 176.537268 
L 424.305285 176.333549 
L 424.761945 176.265643 
L 425.675264 175.858205 
L 426.131924 175.824252 
L 427.958562 175.14519 
L 429.328541 174.16055 
L 429.785201 173.990784 
L 430.69852 173.481487 
L 431.15518 173.345675 
L 433.895137 171.783832 
L 434.351797 171.681973 
L 435.721776 170.867098 
L 437.091755 170.391754 
L 438.005074 170.086176 
L 439.831712 169.47502 
L 440.745032 169.169442 
L 442.57167 168.795958 
L 443.02833 168.592239 
L 443.484989 168.524333 
L 444.398309 168.116896 
L 444.854968 168.048989 
L 445.311628 167.811318 
L 446.224947 167.641552 
L 447.594926 167.132255 
L 448.508245 167.030396 
L 449.878224 166.724818 
L 452.161522 166.317381 
L 464.034672 162.786257 
L 464.491332 162.310914 
L 465.404651 161.937429 
L 469.057928 160.545352 
L 469.514588 160.273727 
L 470.884567 159.866289 
L 471.797886 159.628618 
L 472.254545 159.32304 
L 472.711205 159.22118 
L 473.167865 158.813743 
L 474.537844 158.542118 
L 475.451163 158.100728 
L 475.907822 157.557478 
L 477.734461 157.116087 
L 480.931078 156.437025 
L 481.387738 156.437025 
L 481.844397 156.233306 
L 483.671036 155.893775 
L 484.127696 155.690057 
L 485.954334 155.350525 
L 486.867653 154.943088 
L 487.780973 154.773323 
L 490.064271 154.19612 
L 491.890909 153.618917 
L 492.347569 153.517057 
L 492.804228 153.279386 
L 493.717548 153.041714 
L 494.630867 152.66823 
L 495.544186 152.328698 
L 496.000846 152.02312 
L 496.914165 151.751496 
L 500.567442 150.49523 
L 501.480761 150.427324 
L 503.3074 149.884074 
L 503.764059 149.612449 
L 504.677378 149.340825 
L 506.960677 148.288278 
L 507.417336 148.254325 
L 512.440592 146.45481 
L 514.72389 145.843654 
L 515.637209 145.402264 
L 517.007188 145.096686 
L 518.833827 143.602749 
L 519.747146 143.331124 
L 520.203805 142.957639 
L 522.943763 141.905093 
L 523.400423 141.599515 
L 524.313742 141.32789 
L 524.770402 141.022312 
L 527.0537 140.275344 
L 528.423679 139.494422 
L 528.880338 139.392563 
L 531.163636 138.136297 
L 532.533615 137.525141 
L 532.990275 137.18561 
L 533.903594 136.880032 
L 536.186892 135.725627 
L 537.556871 135.250283 
L 539.38351 134.503314 
L 540.753488 133.994018 
L 541.210148 133.824252 
L 542.123467 133.68844 
L 542.580127 133.382862 
L 544.406765 133.009378 
L 545.320085 132.635893 
L 547.146723 131.787065 
L 553.539958 129.00291 
L 554.909937 128.56152 
L 555.366596 128.255942 
L 556.279915 128.154082 
L 556.736575 127.848504 
L 557.649894 127.678739 
L 558.563214 127.237348 
L 559.019873 127.03363 
L 559.476533 126.965724 
L 560.389852 126.660146 
L 563.586469 125.539693 
L 564.956448 125.234115 
L 566.783087 124.453193 
L 567.696406 123.943897 
L 569.523044 123.027162 
L 570.436364 122.823444 
L 570.893023 122.551819 
L 571.349683 122.44996 
L 572.719662 121.669038 
L 573.632981 121.295554 
L 575.459619 120.582538 
L 577.742918 119.801617 
L 578.656237 119.326273 
L 580.939535 118.545352 
L 583.679493 117.424899 
L 585.506131 116.576071 
L 590.072727 114.810509 
L 590.529387 114.504931 
L 592.356025 113.893775 
L 592.812685 113.893775 
L 593.726004 113.486338 
L 595.552643 111.992401 
L 596.009302 111.856589 
L 596.465962 111.584964 
L 596.922622 111.483104 
L 597.379281 111.245432 
L 597.835941 111.177526 
L 598.2926 110.837995 
L 598.74926 110.736136 
L 599.662579 110.158933 
L 601.032558 109.445918 
L 601.945877 109.072433 
L 602.402537 108.834762 
L 603.772516 108.529184 
L 606.055814 107.748262 
L 606.969133 107.442684 
L 608.339112 106.729669 
L 609.252431 106.288278 
L 610.165751 106.050606 
L 611.535729 105.405497 
L 615.645666 103.877607 
L 617.015645 103.028779 
L 617.472304 102.92692 
L 618.385624 102.48553 
L 619.298943 102.145998 
L 619.755603 101.738561 
L 620.668922 101.365077 
L 622.038901 100.889733 
L 622.49556 100.516249 
L 622.95222 100.482296 
L 623.865539 100.210671 
L 624.778858 99.905093 
L 625.235518 99.701374 
L 625.692178 99.633468 
L 627.062156 99.124171 
L 628.432135 98.614875 
L 630.258774 97.8 
L 630.715433 97.732094 
L 634.36871 96.204204 
L 635.738689 95.762813 
L 636.652008 95.694907 
L 637.565328 95.321423 
L 640.305285 94.506548 
L 641.218605 94.472595 
L 644.871882 93.284236 
L 645.785201 92.774939 
L 646.24186 92.367502 
L 647.611839 91.552627 
L 648.525159 91.009378 
L 651.265116 90.126597 
L 651.721776 89.753112 
L 654.461734 88.598707 
L 656.288372 88.08941 
L 657.201691 87.681973 
L 657.658351 87.444301 
L 658.57167 87.172676 
L 659.02833 86.901051 
L 659.941649 86.731285 
L 663.594926 85.169442 
L 664.051586 85.101536 
L 664.508245 84.795958 
L 664.964905 84.626192 
L 665.421564 84.218755 
L 665.878224 84.150849 
L 667.704863 83.437833 
L 669.531501 82.996443 
L 669.988161 82.928537 
L 670.44482 82.724818 
L 670.90148 82.690865 
L 671.814799 82.385287 
L 672.271459 82.351334 
L 673.641438 81.808084 
L 675.468076 81.264834 
L 676.381395 80.585772 
L 678.208034 79.567179 
L 679.578013 79.091835 
L 683.23129 77.360226 
L 683.687949 77.122555 
L 684.144609 76.681164 
L 686.427907 76.070008 
L 687.797886 75.458852 
L 688.711205 75.22118 
L 689.167865 74.983508 
L 689.624524 74.610024 
L 691.451163 74.134681 
L 691.907822 73.79515 
L 697.844397 71.62215 
L 698.757717 71.452385 
L 701.041015 70.739369 
L 701.954334 70.365885 
L 702.867653 70.026354 
L 703.780973 69.788682 
L 704.237632 69.584964 
L 704.694292 69.584964 
L 705.607611 69.211479 
L 706.52093 68.66823 
L 708.804228 67.887308 
L 710.174207 67.411964 
L 710.630867 67.344058 
L 711.544186 66.970574 
L 712.914165 66.664996 
L 714.284144 66.223605 
L 714.740803 66.121746 
L 715.197463 65.816168 
L 716.110782 65.612449 
L 725.243975 62.99806 
L 727.527273 62.590622 
L 728.440592 62.149232 
L 729.353911 61.707842 
L 730.72389 61.300404 
L 735.290486 59.568795 
L 735.747146 59.229264 
L 737.117125 58.923686 
L 738.030444 58.652061 
L 738.943763 58.176718 
L 739.400423 57.769281 
L 740.313742 57.463703 
L 740.770402 57.192078 
L 741.683721 57.090218 
L 744.880338 56.207437 
L 746.250317 55.935812 
L 746.706977 55.8 
L 747.163636 55.8 
L 747.163636 55.8 
" clip-path="url(#p9df27f8e59)" style="fill: none; stroke: #1f77b4; stroke-width: 1.5; stroke-linecap: square"/>
   </g>
   <g id="line2d_34">
    <path d="M 138.893023 307.8 
L 143.00296 307.698141 
L 146.656237 307.528375 
L 148.482875 307.528375 
L 148.939535 307.392563 
L 151.222833 307.290703 
L 153.962791 306.985125 
L 156.702748 306.883266 
L 157.616068 306.781407 
L 160.812685 306.645594 
L 164.009302 306.543735 
L 166.2926 306.475829 
L 172.229175 306.373969 
L 174.512474 306.306063 
L 177.709091 306.204204 
L 179.992389 306.136297 
L 185.015645 306.034438 
L 186.842283 305.864673 
L 188.668922 305.830719 
L 191.408879 305.72886 
L 193.235518 305.694907 
L 195.518816 305.627001 
L 197.345455 305.457235 
L 201.455391 305.355376 
L 202.36871 305.28747 
L 204.195349 305.18561 
L 206.935307 305.083751 
L 208.761945 304.981892 
L 216.981818 304.472595 
L 220.178436 304.370736 
L 221.548414 304.234923 
L 223.831712 304.133064 
L 228.398309 303.895392 
L 232.964905 303.827486 
L 234.791543 303.623767 
L 236.618182 303.521908 
L 241.641438 303.046564 
L 244.838055 302.67308 
L 246.208034 302.605174 
L 249.861311 302.12983 
L 252.601268 302.061924 
L 253.971247 301.926112 
L 255.341226 301.824252 
L 268.127696 300.839612 
L 269.041015 300.669846 
L 271.780973 300.567987 
L 279.087526 300.126597 
L 282.284144 300.024737 
L 284.110782 299.821019 
L 286.39408 299.719159 
L 289.134038 299.6173 
L 291.417336 299.515441 
L 293.243975 299.481487 
L 295.527273 299.413581 
L 296.440592 299.277769 
L 302.833827 299.175909 
L 303.747146 299.07405 
L 309.227061 298.972191 
L 313.336998 298.768472 
L 316.533615 298.666613 
L 318.360254 298.462894 
L 321.556871 298.361035 
L 322.47019 298.191269 
L 324.753488 298.123363 
L 329.320085 298.055457 
L 331.146723 297.885691 
L 332.973362 297.851738 
L 334.34334 297.749879 
L 336.169979 297.580113 
L 340.736575 297.342441 
L 345.303171 297.240582 
L 349.413108 297.036863 
L 350.783087 297.00291 
L 351.696406 296.867098 
L 353.979704 296.765238 
L 354.893023 296.697332 
L 355.806342 296.629426 
L 356.719662 296.56152 
L 360.829598 296.493614 
L 362.199577 296.391754 
L 374.529387 295.57688 
L 376.812685 295.47502 
L 379.095983 295.407114 
L 385.489218 295.305255 
L 386.402537 295.169442 
L 392.795772 295.067583 
L 397.362368 294.829911 
L 398.275687 294.795958 
L 399.189006 294.694099 
L 401.472304 294.592239 
L 403.755603 294.524333 
L 406.038901 294.422474 
L 408.322199 294.354568 
L 412.432135 294.252708 
L 415.172093 294.150849 
L 421.565328 294.048989 
L 426.588584 293.777365 
L 428.415222 293.709458 
L 429.785201 293.607599 
L 436.178436 293.50574 
L 438.918393 293.40388 
L 447.138266 293.302021 
L 448.964905 293.268068 
L 454.44482 293.200162 
L 455.35814 293.132255 
L 461.751374 293.030396 
L 463.578013 292.996443 
L 475.451163 292.894584 
L 476.821142 292.758771 
L 497.370825 292.656912 
L 499.654123 292.589006 
L 511.527273 292.521099 
L 512.440592 292.453193 
L 514.72389 292.385287 
L 516.093869 292.249475 
L 518.833827 292.147615 
L 522.030444 292.011803 
L 526.140381 291.909943 
L 528.423679 291.842037 
L 531.620296 291.740178 
L 535.273573 291.570412 
L 537.556871 291.468553 
L 539.38351 291.4346 
L 543.493446 291.332741 
L 545.320085 291.298787 
L 551.25666 291.196928 
L 553.083298 291.162975 
L 555.366596 291.061116 
L 558.106554 290.959256 
L 561.303171 290.89135 
L 562.21649 290.823444 
L 573.176321 290.721584 
L 579.112896 290.382053 
L 581.396195 290.314147 
L 582.309514 290.212288 
L 583.222833 290.144382 
L 586.87611 290.042522 
L 589.616068 289.940663 
L 594.182664 289.838804 
L 596.465962 289.601132 
L 601.032558 289.499272 
L 601.945877 289.397413 
L 606.512474 289.295554 
L 608.795772 289.227648 
L 613.819027 289.193694 
L 614.732347 289.091835 
L 619.755603 288.989976 
L 620.668922 288.92207 
L 630.715433 288.82021 
L 633.455391 288.718351 
L 640.305285 288.616492 
L 642.131924 288.582538 
L 646.24186 288.514632 
L 647.15518 288.412773 
L 653.091755 288.310914 
L 655.375053 288.243007 
L 663.594926 288.141148 
L 664.964905 288.039289 
L 666.334884 287.937429 
L 667.704863 287.83557 
L 674.554757 287.733711 
L 677.294715 287.631851 
L 689.624524 287.529992 
L 693.734461 287.326273 
L 699.214376 287.224414 
L 700.127696 287.156508 
L 706.97759 287.088601 
L 707.890909 287.020695 
L 712.914165 286.918836 
L 714.740803 286.884883 
L 721.134038 286.783023 
L 723.873996 286.681164 
L 731.637209 286.579305 
L 733.463848 286.545352 
L 737.573784 286.443492 
L 741.227061 286.273727 
L 746.250317 286.171867 
L 747.163636 286.137914 
L 747.163636 286.137914 
" clip-path="url(#p9df27f8e59)" style="fill: none; stroke: #ff7f0e; stroke-width: 1.5; stroke-linecap: square"/>
   </g>
   <g id="patch_3">
    <path d="M 108 320.4 
L 108 43.2 
" style="fill: none; stroke: #a9a9a9; stroke-width: 0.8; stroke-linejoin: miter; stroke-linecap: square"/>
   </g>
   <g id="patch_4">
    <path d="M 777.6 320.4 
L 777.6 43.2 
" style="fill: none"/>
   </g>
   <g id="patch_5">
    <path d="M 108 320.4 
L 777.6 320.4 
" style="fill: none; stroke: #a9a9a9; stroke-width: 0.8; stroke-linejoin: miter; stroke-linecap: square"/>
   </g>
   <g id="patch_6">
    <path d="M 108 43.2 
L 777.6 43.2 
" style="fill: none"/>
   </g>
   <g id="text_17">
    <!-- get_subscribe history -->
    <g style="fill: #a9a9a9" transform="translate(378.6075 37.2) scale(0.12 -0.12)">
     <defs>
      <path id="DejaVuSans-67" d="M 2906 1791 
Q 2906 2416 2648 2759 
Q 2391 3103 1925 3103 
Q 1463 3103 1205 2759 
Q 947 2416 947 1791 
Q 947 1169 1205 825 
Q 1463 481 1925 481 
Q 2391 481 2648 825 
Q 2906 1169 2906 1791 
z
M 3481 434 
Q 3481 -459 3084 -895 
Q 2688 -1331 1869 -1331 
Q 1566 -1331 1297 -1286 
Q 1028 -1241 775 -1147 
L 775 -588 
Q 1028 -725 1275 -790 
Q 1522 -856 1778 -856 
Q 2344 -856 2625 -561 
Q 2906 -266 2906 331 
L 2906 616 
Q 2728 306 2450 153 
Q 2172 0 1784 0 
Q 1141 0 747 490 
Q 353 981 353 1791 
Q 353 2603 747 3093 
Q 1141 3584 1784 3584 
Q 2172 3584 2450 3431 
Q 2728 3278 2906 2969 
L 2906 3500 
L 3481 3500 
L 3481 434 
z
" transform="scale(0.015625)"/>
      <path id="DejaVuSans-65" d="M 3597 1894 
L 3597 1613 
L 953 1613 
Q 991 1019 1311 708 
Q 1631 397 2203 397 
Q 2534 397 2845 478 
Q 3156 559 3463 722 
L 3463 178 
Q 3153 47 2828 -22 
Q 2503 -91 2169 -91 
Q 1331 -91 842 396 
Q 353 884 353 1716 
Q 353 2575 817 3079 
Q 1281 3584 2069 3584 
Q 2775 3584 3186 3129 
Q 3597 2675 3597 1894 
z
M 3022 2063 
Q 3016 2534 2758 2815 
Q 2500 3097 2075 3097 
Q 1594 3097 1305 2825 
Q 1016 2553 972 2059 
L 3022 2063 
z
" transform="scale(0.015625)"/>
      <path id="DejaVuSans-74" d="M 1172 4494 
L 1172 3500 
L 2356 3500 
L 2356 3053 
L 1172 3053 
L 1172 1153 
Q 1172 725 1289 603 
Q 1406 481 1766 481 
L 2356 481 
L 2356 0 
L 1766 0 
Q 1100 0 847 248 
Q 594 497 594 1153 
L 594 3053 
L 172 3053 
L 172 3500 
L 594 3500 
L 594 4494 
L 1172 4494 
z
" transform="scale(0.015625)"/>
      <path id="DejaVuSans-5f" d="M 3263 -1063 
L 3263 -1509 
L -63 -1509 
L -63 -1063 
L 3263 -1063 
z
" transform="scale(0.015625)"/>
      <path id="DejaVuSans-73" d="M 2834 3397 
L 2834 2853 
Q 2591 2978 2328 3040 
Q 2066 3103 1784 3103 
Q 1356 3103 1142 2972 
Q 928 2841 928 2578 
Q 928 2378 1081 2264 
Q 1234 2150 1697 2047 
L 1894 2003 
Q 2506 1872 2764 1633 
Q 3022 1394 3022 966 
Q 3022 478 2636 193 
Q 2250 -91 1575 -91 
Q 1294 -91 989 -36 
Q 684 19 347 128 
L 347 722 
Q 666 556 975 473 
Q 1284 391 1588 391 
Q 1994 391 2212 530 
Q 2431 669 2431 922 
Q 2431 1156 2273 1281 
Q 2116 1406 1581 1522 
L 1381 1569 
Q 847 1681 609 1914 
Q 372 2147 372 2553 
Q 372 3047 722 3315 
Q 1072 3584 1716 3584 
Q 2034 3584 2315 3537 
Q 2597 3491 2834 3397 
z
" transform="scale(0.015625)"/>
      <path id="DejaVuSans-75" d="M 544 1381 
L 544 3500 
L 1119 3500 
L 1119 1403 
Q 1119 906 1312 657 
Q 1506 409 1894 409 
Q 2359 409 2629 706 
Q 2900 1003 2900 1516 
L 2900 3500 
L 3475 3500 
L 3475 0 
L 2900 0 
L 2900 538 
Q 2691 219 2414 64 
Q 2138 -91 1772 -91 
Q 1169 -91 856 284 
Q 544 659 544 1381 
z
M 1991 3584 
L 1991 3584 
z
" transform="scale(0.015625)"/>
      <path id="DejaVuSans-62" d="M 3116 1747 
Q 3116 2381 2855 2742 
Q 2594 3103 2138 3103 
Q 1681 3103 1420 2742 
Q 1159 2381 1159 1747 
Q 1159 1113 1420 752 
Q 1681 391 2138 391 
Q 2594 391 2855 752 
Q 3116 1113 3116 1747 
z
M 1159 2969 
Q 1341 3281 1617 3432 
Q 1894 3584 2278 3584 
Q 2916 3584 3314 3078 
Q 3713 2572 3713 1747 
Q 3713 922 3314 415 
Q 2916 -91 2278 -91 
Q 1894 -91 1617 61 
Q 1341 213 1159 525 
L 1159 0 
L 581 0 
L 581 4863 
L 1159 4863 
L 1159 2969 
z
" transform="scale(0.015625)"/>
      <path id="DejaVuSans-63" d="M 3122 3366 
L 3122 2828 
Q 2878 2963 2633 3030 
Q 2388 3097 2138 3097 
Q 1578 3097 1268 2742 
Q 959 2388 959 1747 
Q 959 1106 1268 751 
Q 1578 397 2138 397 
Q 2388 397 2633 464 
Q 2878 531 3122 666 
L 3122 134 
Q 2881 22 2623 -34 
Q 2366 -91 2075 -91 
Q 1284 -91 818 406 
Q 353 903 353 1747 
Q 353 2603 823 3093 
Q 1294 3584 2113 3584 
Q 2378 3584 2631 3529 
Q 2884 3475 3122 3366 
z
" transform="scale(0.015625)"/>
      <path id="DejaVuSans-72" d="M 2631 2963 
Q 2534 3019 2420 3045 
Q 2306 3072 2169 3072 
Q 1681 3072 1420 2755 
Q 1159 2438 1159 1844 
L 1159 0 
L 581 0 
L 581 3500 
L 1159 3500 
L 1159 2956 
Q 1341 3275 1631 3429 
Q 1922 3584 2338 3584 
Q 2397 3584 2469 3576 
Q 2541 3569 2628 3553 
L 2631 2963 
z
" transform="scale(0.015625)"/>
      <path id="DejaVuSans-69" d="M 603 3500 
L 1178 3500 
L 1178 0 
L 603 0 
L 603 3500 
z
M 603 4863 
L 1178 4863 
L 1178 4134 
L 603 4134 
L 603 4863 
z
" transform="scale(0.015625)"/>
      <path id="DejaVuSans-20" transform="scale(0.015625)"/>
      <path id="DejaVuSans-68" d="M 3513 2113 
L 3513 0 
L 2938 0 
L 2938 2094 
Q 2938 2591 2744 2837 
Q 2550 3084 2163 3084 
Q 1697 3084 1428 2787 
Q 1159 2491 1159 1978 
L 1159 0 
L 581 0 
L 581 4863 
L 1159 4863 
L 1159 2956 
Q 1366 3272 1645 3428 
Q 1925 3584 2291 3584 
Q 2894 3584 3203 3211 
Q 3513 2838 3513 2113 
z
" transform="scale(0.015625)"/>
      <path id="DejaVuSans-6f" d="M 1959 3097 
Q 1497 3097 1228 2736 
Q 959 2375 959 1747 
Q 959 1119 1226 758 
Q 1494 397 1959 397 
Q 2419 397 2687 759 
Q 2956 1122 2956 1747 
Q 2956 2369 2687 2733 
Q 2419 3097 1959 3097 
z
M 1959 3584 
Q 2709 3584 3137 3096 
Q 3566 2609 3566 1747 
Q 3566 888 3137 398 
Q 2709 -91 1959 -91 
Q 1206 -91 779 398 
Q 353 888 353 1747 
Q 353 2609 779 3096 
Q 1206 3584 1959 3584 
z
" transform="scale(0.015625)"/>
      <path id="DejaVuSans-79" d="M 2059 -325 
Q 1816 -950 1584 -1140 
Q 1353 -1331 966 -1331 
L 506 -1331 
L 506 -850 
L 844 -850 
Q 1081 -850 1212 -737 
Q 1344 -625 1503 -206 
L 1606 56 
L 191 3500 
L 800 3500 
L 1894 763 
L 2988 3500 
L 3597 3500 
L 2059 -325 
z
" transform="scale(0.015625)"/>
     </defs>
     <use xlink:href="#DejaVuSans-67"/>
     <use xlink:href="#DejaVuSans-65" transform="translate(63.476562 0)"/>
     <use xlink:href="#DejaVuSans-74" transform="translate(125 0)"/>
     <use xlink:href="#DejaVuSans-5f" transform="translate(164.208984 0)"/>
     <use xlink:href="#DejaVuSans-73" transform="translate(214.208984 0)"/>
     <use xlink:href="#DejaVuSans-75" transform="translate(266.308594 0)"/>
     <use xlink:href="#DejaVuSans-62" transform="translate(329.6875 0)"/>
     <use xlink:href="#DejaVuSans-73" transform="translate(393.164062 0)"/>
     <use xlink:href="#DejaVuSans-63" transform="translate(445.263672 0)"/>
     <use xlink:href="#DejaVuSans-72" transform="translate(500.244141 0)"/>
     <use xlink:href="#DejaVuSans-69" transform="translate(541.357422 0)"/>
     <use xlink:href="#DejaVuSans-62" transform="translate(569.140625 0)"/>
     <use xlink:href="#DejaVuSans-65" transform="translate(632.617188 0)"/>
     <use xlink:href="#DejaVuSans-20" transform="translate(694.140625 0)"/>
     <use xlink:href="#DejaVuSans-68" transform="translate(725.927734 0)"/>
     <use xlink:href="#DejaVuSans-69" transform="translate(789.306641 0)"/>
     <use xlink:href="#DejaVuSans-73" transform="translate(817.089844 0)"/>
     <use xlink:href="#DejaVuSans-74" transform="translate(869.189453 0)"/>
     <use xlink:href="#DejaVuSans-6f" transform="translate(908.398438 0)"/>
     <use xlink:href="#DejaVuSans-72" transform="translate(969.580078 0)"/>
     <use xlink:href="#DejaVuSans-79" transform="translate(1010.693359 0)"/>
    </g>
   </g>
   <g id="legend_1">
    <g id="line2d_35">
     <path d="M 815.08 328.498438 
L 825.08 328.498438 
L 835.08 328.498438 
" style="fill: none; stroke: #1f77b4; stroke-width: 1.5; stroke-linecap: square"/>
    </g>
    <g id="text_18">
     <!-- star -->
     <g style="fill: #a9a9a9" transform="translate(843.08 331.998438) scale(0.1 -0.1)">
      <defs>
       <path id="DejaVuSans-61" d="M 2194 1759 
Q 1497 1759 1228 1600 
Q 959 1441 959 1056 
Q 959 750 1161 570 
Q 1363 391 1709 391 
Q 2188 391 2477 730 
Q 2766 1069 2766 1631 
L 2766 1759 
L 2194 1759 
z
M 3341 1997 
L 3341 0 
L 2766 0 
L 2766 531 
Q 2569 213 2275 61 
Q 1981 -91 1556 -91 
Q 1019 -91 701 211 
Q 384 513 384 1019 
Q 384 1609 779 1909 
Q 1175 2209 1959 2209 
L 2766 2209 
L 2766 2266 
Q 2766 2663 2505 2880 
Q 2244 3097 1772 3097 
Q 1472 3097 1187 3025 
Q 903 2953 641 2809 
L 641 3341 
Q 956 3463 1253 3523 
Q 1550 3584 1831 3584 
Q 2591 3584 2966 3190 
Q 3341 2797 3341 1997 
z
" transform="scale(0.015625)"/>
      </defs>
      <use xlink:href="#DejaVuSans-73"/>
      <use xlink:href="#DejaVuSans-74" transform="translate(52.099609 0)"/>
      <use xlink:href="#DejaVuSans-61" transform="translate(91.308594 0)"/>
      <use xlink:href="#DejaVuSans-72" transform="translate(152.587891 0)"/>
     </g>
    </g>
    <g id="line2d_36">
     <path d="M 815.08 343.176562 
L 825.08 343.176562 
L 835.08 343.176562 
" style="fill: none; stroke: #ff7f0e; stroke-width: 1.5; stroke-linecap: square"/>
    </g>
    <g id="text_19">
     <!-- fork -->
     <g style="fill: #a9a9a9" transform="translate(843.08 346.676562) scale(0.1 -0.1)">
      <defs>
       <path id="DejaVuSans-66" d="M 2375 4863 
L 2375 4384 
L 1825 4384 
Q 1516 4384 1395 4259 
Q 1275 4134 1275 3809 
L 1275 3500 
L 2222 3500 
L 2222 3053 
L 1275 3053 
L 1275 0 
L 697 0 
L 697 3053 
L 147 3053 
L 147 3500 
L 697 3500 
L 697 3744 
Q 697 4328 969 4595 
Q 1241 4863 1831 4863 
L 2375 4863 
z
" transform="scale(0.015625)"/>
       <path id="DejaVuSans-6b" d="M 581 4863 
L 1159 4863 
L 1159 1991 
L 2875 3500 
L 3609 3500 
L 1753 1863 
L 3688 0 
L 2938 0 
L 1159 1709 
L 1159 0 
L 581 0 
L 581 4863 
z
" transform="scale(0.015625)"/>
      </defs>
      <use xlink:href="#DejaVuSans-66"/>
      <use xlink:href="#DejaVuSans-6f" transform="translate(35.205078 0)"/>
      <use xlink:href="#DejaVuSans-72" transform="translate(96.386719 0)"/>
      <use xlink:href="#DejaVuSans-6b" transform="translate(137.5 0)"/>
     </g>
    </g>
   </g>
  </g>
 </g>
 <defs>
  <clipPath id="p9df27f8e59">
   <rect x="108" y="43.2" width="669.6" height="277.2"/>
  </clipPath>
 </defs>
</svg>
