<?xml version="1.0" encoding="utf-8" standalone="no"?>
<!DOCTYPE svg PUBLIC "-//W3C//DTD SVG 1.1//EN"
  "http://www.w3.org/Graphics/SVG/1.1/DTD/svg11.dtd">
<svg xmlns:xlink="http://www.w3.org/1999/xlink" width="864pt" height="360pt" viewBox="0 0 864 360" xmlns="http://www.w3.org/2000/svg" version="1.1">
 <metadata>
  <rdf:RDF xmlns:dc="http://purl.org/dc/elements/1.1/" xmlns:cc="http://creativecommons.org/ns#" xmlns:rdf="http://www.w3.org/1999/02/22-rdf-syntax-ns#">
   <cc:Work>
    <dc:type rdf:resource="http://purl.org/dc/dcmitype/StillImage"/>
    <dc:date>2025-03-19T20:06:02.373124</dc:date>
    <dc:format>image/svg+xml</dc:format>
    <dc:creator>
     <cc:Agent>
      <dc:title>Matplotlib v3.10.1, https://matplotlib.org/</dc:title>
     </cc:Agent>
    </dc:creator>
   </cc:Work>
  </rdf:RDF>
 </metadata>
 <defs>
  <style type="text/css">*{stroke-linejoin: round; stroke-linecap: butt}</style>
 </defs>
 <g id="figure_1">
  <g id="patch_1">
   <path d="M 0 360 
L 864 360 
L 864 0 
L 0 0 
L 0 360 
z
" style="fill: none; opacity: 0"/>
  </g>
  <g id="axes_1">
   <g id="patch_2">
    <path d="M 108 320.4 
L 777.6 320.4 
L 777.6 43.2 
L 108 43.2 
L 108 320.4 
z
" style="fill: none; opacity: 0"/>
   </g>
   <g id="matplotlib.axis_1">
    <g id="xtick_1">
     <g id="line2d_1">
      <path d="M 127.941066 320.4 
L 127.941066 43.2 
" clip-path="url(#pea004ad90a)" style="fill: none; stroke-dasharray: 5.12,1.28,0.8,1.28; stroke-dashoffset: 0; stroke: #b0b0b0; stroke-width: 0.8"/>
     </g>
     <g id="line2d_2">
      <defs>
       <path id="m5906b9e480" d="M 0 0 
L 0 3.5 
" style="stroke: #a9a9a9; stroke-width: 0.8"/>
      </defs>
      <g>
       <use xlink:href="#m5906b9e480" x="127.941066" y="320.4" style="fill: #a9a9a9; stroke: #a9a9a9; stroke-width: 0.8"/>
      </g>
     </g>
     <g id="text_1">
      <!-- 2021-07 -->
      <g style="fill: #a9a9a9" transform="translate(107.04966 334.998438) scale(0.1 -0.1)">
       <defs>
        <path id="DejaVuSans-32" d="M 1228 531 
L 3431 531 
L 3431 0 
L 469 0 
L 469 531 
Q 828 903 1448 1529 
Q 2069 2156 2228 2338 
Q 2531 2678 2651 2914 
Q 2772 3150 2772 3378 
Q 2772 3750 2511 3984 
Q 2250 4219 1831 4219 
Q 1534 4219 1204 4116 
Q 875 4013 500 3803 
L 500 4441 
Q 881 4594 1212 4672 
Q 1544 4750 1819 4750 
Q 2544 4750 2975 4387 
Q 3406 4025 3406 3419 
Q 3406 3131 3298 2873 
Q 3191 2616 2906 2266 
Q 2828 2175 2409 1742 
Q 1991 1309 1228 531 
z
" transform="scale(0.015625)"/>
        <path id="DejaVuSans-30" d="M 2034 4250 
Q 1547 4250 1301 3770 
Q 1056 3291 1056 2328 
Q 1056 1369 1301 889 
Q 1547 409 2034 409 
Q 2525 409 2770 889 
Q 3016 1369 3016 2328 
Q 3016 3291 2770 3770 
Q 2525 4250 2034 4250 
z
M 2034 4750 
Q 2819 4750 3233 4129 
Q 3647 3509 3647 2328 
Q 3647 1150 3233 529 
Q 2819 -91 2034 -91 
Q 1250 -91 836 529 
Q 422 1150 422 2328 
Q 422 3509 836 4129 
Q 1250 4750 2034 4750 
z
" transform="scale(0.015625)"/>
        <path id="DejaVuSans-31" d="M 794 531 
L 1825 531 
L 1825 4091 
L 703 3866 
L 703 4441 
L 1819 4666 
L 2450 4666 
L 2450 531 
L 3481 531 
L 3481 0 
L 794 0 
L 794 531 
z
" transform="scale(0.015625)"/>
        <path id="DejaVuSans-2d" d="M 313 2009 
L 1997 2009 
L 1997 1497 
L 313 1497 
L 313 2009 
z
" transform="scale(0.015625)"/>
        <path id="DejaVuSans-37" d="M 525 4666 
L 3525 4666 
L 3525 4397 
L 1831 0 
L 1172 0 
L 2766 4134 
L 525 4134 
L 525 4666 
z
" transform="scale(0.015625)"/>
       </defs>
       <use xlink:href="#DejaVuSans-32"/>
       <use xlink:href="#DejaVuSans-30" transform="translate(63.623047 0)"/>
       <use xlink:href="#DejaVuSans-32" transform="translate(127.246094 0)"/>
       <use xlink:href="#DejaVuSans-31" transform="translate(190.869141 0)"/>
       <use xlink:href="#DejaVuSans-2d" transform="translate(254.492188 0)"/>
       <use xlink:href="#DejaVuSans-30" transform="translate(290.576172 0)"/>
       <use xlink:href="#DejaVuSans-37" transform="translate(354.199219 0)"/>
      </g>
     </g>
    </g>
    <g id="xtick_2">
     <g id="line2d_3">
      <path d="M 211.903448 320.4 
L 211.903448 43.2 
" clip-path="url(#pea004ad90a)" style="fill: none; stroke-dasharray: 5.12,1.28,0.8,1.28; stroke-dashoffset: 0; stroke: #b0b0b0; stroke-width: 0.8"/>
     </g>
     <g id="line2d_4">
      <g>
       <use xlink:href="#m5906b9e480" x="211.903448" y="320.4" style="fill: #a9a9a9; stroke: #a9a9a9; stroke-width: 0.8"/>
      </g>
     </g>
     <g id="text_2">
      <!-- 2022-01 -->
      <g style="fill: #a9a9a9" transform="translate(191.012042 334.998438) scale(0.1 -0.1)">
       <use xlink:href="#DejaVuSans-32"/>
       <use xlink:href="#DejaVuSans-30" transform="translate(63.623047 0)"/>
       <use xlink:href="#DejaVuSans-32" transform="translate(127.246094 0)"/>
       <use xlink:href="#DejaVuSans-32" transform="translate(190.869141 0)"/>
       <use xlink:href="#DejaVuSans-2d" transform="translate(254.492188 0)"/>
       <use xlink:href="#DejaVuSans-30" transform="translate(290.576172 0)"/>
       <use xlink:href="#DejaVuSans-31" transform="translate(354.199219 0)"/>
      </g>
     </g>
    </g>
    <g id="xtick_3">
     <g id="line2d_5">
      <path d="M 294.496879 320.4 
L 294.496879 43.2 
" clip-path="url(#pea004ad90a)" style="fill: none; stroke-dasharray: 5.12,1.28,0.8,1.28; stroke-dashoffset: 0; stroke: #b0b0b0; stroke-width: 0.8"/>
     </g>
     <g id="line2d_6">
      <g>
       <use xlink:href="#m5906b9e480" x="294.496879" y="320.4" style="fill: #a9a9a9; stroke: #a9a9a9; stroke-width: 0.8"/>
      </g>
     </g>
     <g id="text_3">
      <!-- 2022-07 -->
      <g style="fill: #a9a9a9" transform="translate(273.605473 334.998438) scale(0.1 -0.1)">
       <use xlink:href="#DejaVuSans-32"/>
       <use xlink:href="#DejaVuSans-30" transform="translate(63.623047 0)"/>
       <use xlink:href="#DejaVuSans-32" transform="translate(127.246094 0)"/>
       <use xlink:href="#DejaVuSans-32" transform="translate(190.869141 0)"/>
       <use xlink:href="#DejaVuSans-2d" transform="translate(254.492188 0)"/>
       <use xlink:href="#DejaVuSans-30" transform="translate(290.576172 0)"/>
       <use xlink:href="#DejaVuSans-37" transform="translate(354.199219 0)"/>
      </g>
     </g>
    </g>
    <g id="xtick_4">
     <g id="line2d_7">
      <path d="M 378.459261 320.4 
L 378.459261 43.2 
" clip-path="url(#pea004ad90a)" style="fill: none; stroke-dasharray: 5.12,1.28,0.8,1.28; stroke-dashoffset: 0; stroke: #b0b0b0; stroke-width: 0.8"/>
     </g>
     <g id="line2d_8">
      <g>
       <use xlink:href="#m5906b9e480" x="378.459261" y="320.4" style="fill: #a9a9a9; stroke: #a9a9a9; stroke-width: 0.8"/>
      </g>
     </g>
     <g id="text_4">
      <!-- 2023-01 -->
      <g style="fill: #a9a9a9" transform="translate(357.567855 334.998438) scale(0.1 -0.1)">
       <defs>
        <path id="DejaVuSans-33" d="M 2597 2516 
Q 3050 2419 3304 2112 
Q 3559 1806 3559 1356 
Q 3559 666 3084 287 
Q 2609 -91 1734 -91 
Q 1441 -91 1130 -33 
Q 819 25 488 141 
L 488 750 
Q 750 597 1062 519 
Q 1375 441 1716 441 
Q 2309 441 2620 675 
Q 2931 909 2931 1356 
Q 2931 1769 2642 2001 
Q 2353 2234 1838 2234 
L 1294 2234 
L 1294 2753 
L 1863 2753 
Q 2328 2753 2575 2939 
Q 2822 3125 2822 3475 
Q 2822 3834 2567 4026 
Q 2313 4219 1838 4219 
Q 1578 4219 1281 4162 
Q 984 4106 628 3988 
L 628 4550 
Q 988 4650 1302 4700 
Q 1616 4750 1894 4750 
Q 2613 4750 3031 4423 
Q 3450 4097 3450 3541 
Q 3450 3153 3228 2886 
Q 3006 2619 2597 2516 
z
" transform="scale(0.015625)"/>
       </defs>
       <use xlink:href="#DejaVuSans-32"/>
       <use xlink:href="#DejaVuSans-30" transform="translate(63.623047 0)"/>
       <use xlink:href="#DejaVuSans-32" transform="translate(127.246094 0)"/>
       <use xlink:href="#DejaVuSans-33" transform="translate(190.869141 0)"/>
       <use xlink:href="#DejaVuSans-2d" transform="translate(254.492188 0)"/>
       <use xlink:href="#DejaVuSans-30" transform="translate(290.576172 0)"/>
       <use xlink:href="#DejaVuSans-31" transform="translate(354.199219 0)"/>
      </g>
     </g>
    </g>
    <g id="xtick_5">
     <g id="line2d_9">
      <path d="M 461.052692 320.4 
L 461.052692 43.2 
" clip-path="url(#pea004ad90a)" style="fill: none; stroke-dasharray: 5.12,1.28,0.8,1.28; stroke-dashoffset: 0; stroke: #b0b0b0; stroke-width: 0.8"/>
     </g>
     <g id="line2d_10">
      <g>
       <use xlink:href="#m5906b9e480" x="461.052692" y="320.4" style="fill: #a9a9a9; stroke: #a9a9a9; stroke-width: 0.8"/>
      </g>
     </g>
     <g id="text_5">
      <!-- 2023-07 -->
      <g style="fill: #a9a9a9" transform="translate(440.161286 334.998438) scale(0.1 -0.1)">
       <use xlink:href="#DejaVuSans-32"/>
       <use xlink:href="#DejaVuSans-30" transform="translate(63.623047 0)"/>
       <use xlink:href="#DejaVuSans-32" transform="translate(127.246094 0)"/>
       <use xlink:href="#DejaVuSans-33" transform="translate(190.869141 0)"/>
       <use xlink:href="#DejaVuSans-2d" transform="translate(254.492188 0)"/>
       <use xlink:href="#DejaVuSans-30" transform="translate(290.576172 0)"/>
       <use xlink:href="#DejaVuSans-37" transform="translate(354.199219 0)"/>
      </g>
     </g>
    </g>
    <g id="xtick_6">
     <g id="line2d_11">
      <path d="M 545.015074 320.4 
L 545.015074 43.2 
" clip-path="url(#pea004ad90a)" style="fill: none; stroke-dasharray: 5.12,1.28,0.8,1.28; stroke-dashoffset: 0; stroke: #b0b0b0; stroke-width: 0.8"/>
     </g>
     <g id="line2d_12">
      <g>
       <use xlink:href="#m5906b9e480" x="545.015074" y="320.4" style="fill: #a9a9a9; stroke: #a9a9a9; stroke-width: 0.8"/>
      </g>
     </g>
     <g id="text_6">
      <!-- 2024-01 -->
      <g style="fill: #a9a9a9" transform="translate(524.123668 334.998438) scale(0.1 -0.1)">
       <defs>
        <path id="DejaVuSans-34" d="M 2419 4116 
L 825 1625 
L 2419 1625 
L 2419 4116 
z
M 2253 4666 
L 3047 4666 
L 3047 1625 
L 3713 1625 
L 3713 1100 
L 3047 1100 
L 3047 0 
L 2419 0 
L 2419 1100 
L 313 1100 
L 313 1709 
L 2253 4666 
z
" transform="scale(0.015625)"/>
       </defs>
       <use xlink:href="#DejaVuSans-32"/>
       <use xlink:href="#DejaVuSans-30" transform="translate(63.623047 0)"/>
       <use xlink:href="#DejaVuSans-32" transform="translate(127.246094 0)"/>
       <use xlink:href="#DejaVuSans-34" transform="translate(190.869141 0)"/>
       <use xlink:href="#DejaVuSans-2d" transform="translate(254.492188 0)"/>
       <use xlink:href="#DejaVuSans-30" transform="translate(290.576172 0)"/>
       <use xlink:href="#DejaVuSans-31" transform="translate(354.199219 0)"/>
      </g>
     </g>
    </g>
    <g id="xtick_7">
     <g id="line2d_13">
      <path d="M 628.064822 320.4 
L 628.064822 43.2 
" clip-path="url(#pea004ad90a)" style="fill: none; stroke-dasharray: 5.12,1.28,0.8,1.28; stroke-dashoffset: 0; stroke: #b0b0b0; stroke-width: 0.8"/>
     </g>
     <g id="line2d_14">
      <g>
       <use xlink:href="#m5906b9e480" x="628.064822" y="320.4" style="fill: #a9a9a9; stroke: #a9a9a9; stroke-width: 0.8"/>
      </g>
     </g>
     <g id="text_7">
      <!-- 2024-07 -->
      <g style="fill: #a9a9a9" transform="translate(607.173416 334.998438) scale(0.1 -0.1)">
       <use xlink:href="#DejaVuSans-32"/>
       <use xlink:href="#DejaVuSans-30" transform="translate(63.623047 0)"/>
       <use xlink:href="#DejaVuSans-32" transform="translate(127.246094 0)"/>
       <use xlink:href="#DejaVuSans-34" transform="translate(190.869141 0)"/>
       <use xlink:href="#DejaVuSans-2d" transform="translate(254.492188 0)"/>
       <use xlink:href="#DejaVuSans-30" transform="translate(290.576172 0)"/>
       <use xlink:href="#DejaVuSans-37" transform="translate(354.199219 0)"/>
      </g>
     </g>
    </g>
    <g id="xtick_8">
     <g id="line2d_15">
      <path d="M 712.027205 320.4 
L 712.027205 43.2 
" clip-path="url(#pea004ad90a)" style="fill: none; stroke-dasharray: 5.12,1.28,0.8,1.28; stroke-dashoffset: 0; stroke: #b0b0b0; stroke-width: 0.8"/>
     </g>
     <g id="line2d_16">
      <g>
       <use xlink:href="#m5906b9e480" x="712.027205" y="320.4" style="fill: #a9a9a9; stroke: #a9a9a9; stroke-width: 0.8"/>
      </g>
     </g>
     <g id="text_8">
      <!-- 2025-01 -->
      <g style="fill: #a9a9a9" transform="translate(691.135798 334.998438) scale(0.1 -0.1)">
       <defs>
        <path id="DejaVuSans-35" d="M 691 4666 
L 3169 4666 
L 3169 4134 
L 1269 4134 
L 1269 2991 
Q 1406 3038 1543 3061 
Q 1681 3084 1819 3084 
Q 2600 3084 3056 2656 
Q 3513 2228 3513 1497 
Q 3513 744 3044 326 
Q 2575 -91 1722 -91 
Q 1428 -91 1123 -41 
Q 819 9 494 109 
L 494 744 
Q 775 591 1075 516 
Q 1375 441 1709 441 
Q 2250 441 2565 725 
Q 2881 1009 2881 1497 
Q 2881 1984 2565 2268 
Q 2250 2553 1709 2553 
Q 1456 2553 1204 2497 
Q 953 2441 691 2322 
L 691 4666 
z
" transform="scale(0.015625)"/>
       </defs>
       <use xlink:href="#DejaVuSans-32"/>
       <use xlink:href="#DejaVuSans-30" transform="translate(63.623047 0)"/>
       <use xlink:href="#DejaVuSans-32" transform="translate(127.246094 0)"/>
       <use xlink:href="#DejaVuSans-35" transform="translate(190.869141 0)"/>
       <use xlink:href="#DejaVuSans-2d" transform="translate(254.492188 0)"/>
       <use xlink:href="#DejaVuSans-30" transform="translate(290.576172 0)"/>
       <use xlink:href="#DejaVuSans-31" transform="translate(354.199219 0)"/>
      </g>
     </g>
    </g>
   </g>
   <g id="matplotlib.axis_2">
    <g id="ytick_1">
     <g id="line2d_17">
      <path d="M 108 307.833944 
L 777.6 307.833944 
" clip-path="url(#pea004ad90a)" style="fill: none; stroke-dasharray: 5.12,1.28,0.8,1.28; stroke-dashoffset: 0; stroke: #b0b0b0; stroke-width: 0.8"/>
     </g>
     <g id="line2d_18">
      <defs>
       <path id="m04634dd8f8" d="M 0 0 
L -3.5 0 
" style="stroke: #a9a9a9; stroke-width: 0.8"/>
      </defs>
      <g>
       <use xlink:href="#m04634dd8f8" x="108" y="307.833944" style="fill: #a9a9a9; stroke: #a9a9a9; stroke-width: 0.8"/>
      </g>
     </g>
     <g id="text_9">
      <!-- 0 -->
      <g style="fill: #a9a9a9" transform="translate(94.6375 311.633163) scale(0.1 -0.1)">
       <use xlink:href="#DejaVuSans-30"/>
      </g>
     </g>
    </g>
    <g id="ytick_2">
     <g id="line2d_19">
      <path d="M 108 273.889978 
L 777.6 273.889978 
" clip-path="url(#pea004ad90a)" style="fill: none; stroke-dasharray: 5.12,1.28,0.8,1.28; stroke-dashoffset: 0; stroke: #b0b0b0; stroke-width: 0.8"/>
     </g>
     <g id="line2d_20">
      <g>
       <use xlink:href="#m04634dd8f8" x="108" y="273.889978" style="fill: #a9a9a9; stroke: #a9a9a9; stroke-width: 0.8"/>
      </g>
     </g>
     <g id="text_10">
      <!-- 1000 -->
      <g style="fill: #a9a9a9" transform="translate(75.55 277.689197) scale(0.1 -0.1)">
       <use xlink:href="#DejaVuSans-31"/>
       <use xlink:href="#DejaVuSans-30" transform="translate(63.623047 0)"/>
       <use xlink:href="#DejaVuSans-30" transform="translate(127.246094 0)"/>
       <use xlink:href="#DejaVuSans-30" transform="translate(190.869141 0)"/>
      </g>
     </g>
    </g>
    <g id="ytick_3">
     <g id="line2d_21">
      <path d="M 108 239.946013 
L 777.6 239.946013 
" clip-path="url(#pea004ad90a)" style="fill: none; stroke-dasharray: 5.12,1.28,0.8,1.28; stroke-dashoffset: 0; stroke: #b0b0b0; stroke-width: 0.8"/>
     </g>
     <g id="line2d_22">
      <g>
       <use xlink:href="#m04634dd8f8" x="108" y="239.946013" style="fill: #a9a9a9; stroke: #a9a9a9; stroke-width: 0.8"/>
      </g>
     </g>
     <g id="text_11">
      <!-- 2000 -->
      <g style="fill: #a9a9a9" transform="translate(75.55 243.745232) scale(0.1 -0.1)">
       <use xlink:href="#DejaVuSans-32"/>
       <use xlink:href="#DejaVuSans-30" transform="translate(63.623047 0)"/>
       <use xlink:href="#DejaVuSans-30" transform="translate(127.246094 0)"/>
       <use xlink:href="#DejaVuSans-30" transform="translate(190.869141 0)"/>
      </g>
     </g>
    </g>
    <g id="ytick_4">
     <g id="line2d_23">
      <path d="M 108 206.002047 
L 777.6 206.002047 
" clip-path="url(#pea004ad90a)" style="fill: none; stroke-dasharray: 5.12,1.28,0.8,1.28; stroke-dashoffset: 0; stroke: #b0b0b0; stroke-width: 0.8"/>
     </g>
     <g id="line2d_24">
      <g>
       <use xlink:href="#m04634dd8f8" x="108" y="206.002047" style="fill: #a9a9a9; stroke: #a9a9a9; stroke-width: 0.8"/>
      </g>
     </g>
     <g id="text_12">
      <!-- 3000 -->
      <g style="fill: #a9a9a9" transform="translate(75.55 209.801266) scale(0.1 -0.1)">
       <use xlink:href="#DejaVuSans-33"/>
       <use xlink:href="#DejaVuSans-30" transform="translate(63.623047 0)"/>
       <use xlink:href="#DejaVuSans-30" transform="translate(127.246094 0)"/>
       <use xlink:href="#DejaVuSans-30" transform="translate(190.869141 0)"/>
      </g>
     </g>
    </g>
    <g id="ytick_5">
     <g id="line2d_25">
      <path d="M 108 172.058082 
L 777.6 172.058082 
" clip-path="url(#pea004ad90a)" style="fill: none; stroke-dasharray: 5.12,1.28,0.8,1.28; stroke-dashoffset: 0; stroke: #b0b0b0; stroke-width: 0.8"/>
     </g>
     <g id="line2d_26">
      <g>
       <use xlink:href="#m04634dd8f8" x="108" y="172.058082" style="fill: #a9a9a9; stroke: #a9a9a9; stroke-width: 0.8"/>
      </g>
     </g>
     <g id="text_13">
      <!-- 4000 -->
      <g style="fill: #a9a9a9" transform="translate(75.55 175.857301) scale(0.1 -0.1)">
       <use xlink:href="#DejaVuSans-34"/>
       <use xlink:href="#DejaVuSans-30" transform="translate(63.623047 0)"/>
       <use xlink:href="#DejaVuSans-30" transform="translate(127.246094 0)"/>
       <use xlink:href="#DejaVuSans-30" transform="translate(190.869141 0)"/>
      </g>
     </g>
    </g>
    <g id="ytick_6">
     <g id="line2d_27">
      <path d="M 108 138.114116 
L 777.6 138.114116 
" clip-path="url(#pea004ad90a)" style="fill: none; stroke-dasharray: 5.12,1.28,0.8,1.28; stroke-dashoffset: 0; stroke: #b0b0b0; stroke-width: 0.8"/>
     </g>
     <g id="line2d_28">
      <g>
       <use xlink:href="#m04634dd8f8" x="108" y="138.114116" style="fill: #a9a9a9; stroke: #a9a9a9; stroke-width: 0.8"/>
      </g>
     </g>
     <g id="text_14">
      <!-- 5000 -->
      <g style="fill: #a9a9a9" transform="translate(75.55 141.913335) scale(0.1 -0.1)">
       <use xlink:href="#DejaVuSans-35"/>
       <use xlink:href="#DejaVuSans-30" transform="translate(63.623047 0)"/>
       <use xlink:href="#DejaVuSans-30" transform="translate(127.246094 0)"/>
       <use xlink:href="#DejaVuSans-30" transform="translate(190.869141 0)"/>
      </g>
     </g>
    </g>
    <g id="ytick_7">
     <g id="line2d_29">
      <path d="M 108 104.170151 
L 777.6 104.170151 
" clip-path="url(#pea004ad90a)" style="fill: none; stroke-dasharray: 5.12,1.28,0.8,1.28; stroke-dashoffset: 0; stroke: #b0b0b0; stroke-width: 0.8"/>
     </g>
     <g id="line2d_30">
      <g>
       <use xlink:href="#m04634dd8f8" x="108" y="104.170151" style="fill: #a9a9a9; stroke: #a9a9a9; stroke-width: 0.8"/>
      </g>
     </g>
     <g id="text_15">
      <!-- 6000 -->
      <g style="fill: #a9a9a9" transform="translate(75.55 107.96937) scale(0.1 -0.1)">
       <defs>
        <path id="DejaVuSans-36" d="M 2113 2584 
Q 1688 2584 1439 2293 
Q 1191 2003 1191 1497 
Q 1191 994 1439 701 
Q 1688 409 2113 409 
Q 2538 409 2786 701 
Q 3034 994 3034 1497 
Q 3034 2003 2786 2293 
Q 2538 2584 2113 2584 
z
M 3366 4563 
L 3366 3988 
Q 3128 4100 2886 4159 
Q 2644 4219 2406 4219 
Q 1781 4219 1451 3797 
Q 1122 3375 1075 2522 
Q 1259 2794 1537 2939 
Q 1816 3084 2150 3084 
Q 2853 3084 3261 2657 
Q 3669 2231 3669 1497 
Q 3669 778 3244 343 
Q 2819 -91 2113 -91 
Q 1303 -91 875 529 
Q 447 1150 447 2328 
Q 447 3434 972 4092 
Q 1497 4750 2381 4750 
Q 2619 4750 2861 4703 
Q 3103 4656 3366 4563 
z
" transform="scale(0.015625)"/>
       </defs>
       <use xlink:href="#DejaVuSans-36"/>
       <use xlink:href="#DejaVuSans-30" transform="translate(63.623047 0)"/>
       <use xlink:href="#DejaVuSans-30" transform="translate(127.246094 0)"/>
       <use xlink:href="#DejaVuSans-30" transform="translate(190.869141 0)"/>
      </g>
     </g>
    </g>
    <g id="ytick_8">
     <g id="line2d_31">
      <path d="M 108 70.226185 
L 777.6 70.226185 
" clip-path="url(#pea004ad90a)" style="fill: none; stroke-dasharray: 5.12,1.28,0.8,1.28; stroke-dashoffset: 0; stroke: #b0b0b0; stroke-width: 0.8"/>
     </g>
     <g id="line2d_32">
      <g>
       <use xlink:href="#m04634dd8f8" x="108" y="70.226185" style="fill: #a9a9a9; stroke: #a9a9a9; stroke-width: 0.8"/>
      </g>
     </g>
     <g id="text_16">
      <!-- 7000 -->
      <g style="fill: #a9a9a9" transform="translate(75.55 74.025404) scale(0.1 -0.1)">
       <use xlink:href="#DejaVuSans-37"/>
       <use xlink:href="#DejaVuSans-30" transform="translate(63.623047 0)"/>
       <use xlink:href="#DejaVuSans-30" transform="translate(127.246094 0)"/>
       <use xlink:href="#DejaVuSans-30" transform="translate(190.869141 0)"/>
      </g>
     </g>
    </g>
   </g>
   <g id="line2d_33">
    <path d="M 138.436364 307.732112 
L 141.174267 307.494504 
L 141.630585 307.290841 
L 143.455854 307.053233 
L 145.281123 306.679849 
L 146.193758 306.544073 
L 148.475344 306.340409 
L 149.387979 305.967026 
L 149.844296 305.356034 
L 150.300613 305.050539 
L 150.756931 303.998276 
L 151.213248 303.930388 
L 151.669565 303.557004 
L 152.5822 303.081789 
L 154.407469 301.588254 
L 156.232738 300.671767 
L 157.60169 300.026832 
L 158.058007 299.280065 
L 158.970642 298.601185 
L 159.426959 298.397522 
L 163.990132 297.718642 
L 164.44645 297.514978 
L 167.640671 297.243427 
L 169.46594 296.802155 
L 173.116478 296.292996 
L 173.572795 296.055388 
L 174.029113 295.9875 
L 174.941747 295.682004 
L 178.135968 295.138901 
L 179.048603 294.867349 
L 183.155459 294.154526 
L 184.068093 293.950862 
L 184.980728 293.916918 
L 186.805997 293.475647 
L 187.262314 292.830711 
L 188.631266 292.287608 
L 190.000218 291.914224 
L 190.456535 291.676616 
L 191.36917 291.506897 
L 193.194439 290.963793 
L 194.107074 290.895905 
L 195.019708 290.658297 
L 196.844978 290.183082 
L 197.301295 290.149138 
L 198.213929 289.707866 
L 198.670247 289.639978 
L 199.126564 289.402371 
L 204.146054 288.553772 
L 205.971323 288.010668 
L 206.427641 287.705172 
L 208.709227 286.958405 
L 209.621862 286.31347 
L 210.990814 286.041918 
L 221.029794 283.088793 
L 221.486111 283.054849 
L 222.855063 282.647522 
L 223.311381 282.647522 
L 223.767698 282.443858 
L 224.680333 282.342026 
L 225.13665 282.172306 
L 226.961919 282.104418 
L 227.874554 281.934698 
L 228.787188 281.459483 
L 230.15614 280.950323 
L 230.612457 280.644828 
L 231.525092 280.2375 
L 231.981409 279.999892 
L 232.894044 279.694397 
L 233.350361 279.558621 
L 234.262996 278.981573 
L 234.719313 278.472414 
L 235.631948 277.046767 
L 236.088265 276.910991 
L 236.544582 276.910991 
L 237.913534 276.096336 
L 238.369851 275.858728 
L 238.826169 275.756897 
L 239.282486 275.315625 
L 240.195121 274.942241 
L 241.107755 274.50097 
L 243.389342 271.547845 
L 246.127245 270.05431 
L 247.03988 269.307543 
L 247.496197 269.002047 
L 247.952515 268.357112 
L 248.408832 267.304849 
L 248.865149 266.592026 
L 249.321467 266.218642 
L 249.777784 266.014978 
L 253.428322 262.620582 
L 254.340957 261.771983 
L 257.078861 260.040841 
L 257.535178 259.871121 
L 258.90413 259.056466 
L 260.273082 258.139978 
L 262.098351 256.476724 
L 263.010985 256.103341 
L 263.92362 255.458405 
L 264.379937 255.186853 
L 264.836255 255.118966 
L 266.205206 254.338254 
L 266.661524 253.829095 
L 268.94311 252.573168 
L 269.399428 252.403448 
L 270.768379 251.453017 
L 277.613139 249.009052 
L 278.525773 248.160453 
L 279.894725 247.481573 
L 280.80736 246.904526 
L 281.719995 246.632974 
L 282.176312 246.327478 
L 282.632629 246.191703 
L 284.001581 245.275216 
L 286.283168 244.732112 
L 287.652119 243.917457 
L 289.021071 243.611961 
L 289.477389 243.510129 
L 290.84634 242.457866 
L 292.67161 241.948707 
L 293.127927 241.575323 
L 295.865831 240.624892 
L 296.778465 240.455172 
L 297.6911 240.081789 
L 300.885321 238.89375 
L 301.797956 238.757974 
L 303.166907 238.282759 
L 305.448494 237.162608 
L 307.273763 236.144289 
L 310.924301 234.61681 
L 311.380619 234.548922 
L 312.293253 233.971875 
L 313.205888 233.734267 
L 314.57484 233.191164 
L 316.400109 232.953556 
L 317.312744 232.478341 
L 317.769061 232.071013 
L 318.225378 231.222414 
L 320.050647 230.713254 
L 321.419599 230.000431 
L 322.332234 229.694935 
L 323.244868 229.21972 
L 325.982772 228.099569 
L 326.895407 227.895905 
L 327.808041 227.42069 
L 328.264359 227.217026 
L 328.720676 227.149138 
L 331.002263 226.028987 
L 331.914897 225.45194 
L 333.283849 225.180388 
L 335.109118 224.671228 
L 335.565435 224.637284 
L 336.021753 224.263901 
L 336.934387 223.958405 
L 339.215974 223.041918 
L 339.672291 222.702478 
L 340.128608 222.532759 
L 341.041243 222.023599 
L 342.866512 221.446552 
L 343.779147 220.869504 
L 344.235464 220.394289 
L 344.691781 220.122737 
L 345.148099 220.020905 
L 346.060733 219.274138 
L 346.517051 219.20625 
L 346.973368 218.459483 
L 347.429685 218.255819 
L 347.886002 217.882435 
L 348.34232 217.814547 
L 349.254954 217.2375 
L 350.167589 216.932004 
L 350.623906 216.592565 
L 351.080224 216.422845 
L 352.905493 215.200862 
L 354.274445 214.488039 
L 355.187079 214.250431 
L 356.099714 213.741272 
L 356.556031 212.96056 
L 357.468666 212.281681 
L 357.924983 212.179849 
L 360.662887 210.856034 
L 361.575521 210.482651 
L 362.944473 209.328556 
L 363.857108 208.547845 
L 364.769742 208.004741 
L 365.22606 207.495582 
L 365.682377 207.190086 
L 366.595012 206.443319 
L 367.051329 206.239655 
L 367.963963 205.323168 
L 368.876598 205.017672 
L 369.789233 204.406681 
L 371.158185 203.693858 
L 371.614502 203.62597 
L 372.983454 202.879203 
L 373.896088 202.302155 
L 378.459261 200.604957 
L 378.915579 200.231573 
L 380.740848 199.51875 
L 381.197165 199.382974 
L 382.1098 198.771983 
L 383.022434 198.364655 
L 383.935069 197.71972 
L 384.847703 195.886746 
L 385.760338 194.800539 
L 387.12929 194.087716 
L 388.041924 193.714332 
L 388.498242 193.646444 
L 388.954559 193.374892 
L 391.236146 192.628125 
L 391.692463 192.424461 
L 392.605097 191.779526 
L 393.974049 191.202478 
L 394.886684 190.693319 
L 395.799319 190.150216 
L 396.255636 189.84472 
L 396.711953 189.33556 
L 397.624588 188.826401 
L 399.906174 187.570474 
L 402.644078 186.178772 
L 404.01303 185.771444 
L 405.381982 185.228341 
L 405.838299 184.888901 
L 406.750934 184.617349 
L 407.663568 184.243966 
L 408.119886 183.870582 
L 409.945155 183.225647 
L 410.857789 182.546767 
L 411.770424 182.173384 
L 412.683058 181.46056 
L 413.595693 181.189009 
L 414.05201 180.781681 
L 414.508328 180.713793 
L 415.420962 180.00097 
L 416.333597 179.525754 
L 416.789914 179.322091 
L 417.246231 178.846875 
L 420.440453 177.557004 
L 421.353087 177.149677 
L 422.722039 176.708405 
L 423.634674 176.572629 
L 424.090991 176.368966 
L 424.547308 176.301078 
L 425.459943 175.89375 
L 425.91626 175.859806 
L 427.741529 175.180927 
L 429.110481 174.196552 
L 429.566798 174.026832 
L 430.479433 173.517672 
L 430.93575 173.381897 
L 433.673654 171.820474 
L 434.129971 171.718642 
L 435.498923 170.903987 
L 436.867875 170.428772 
L 437.78051 170.123276 
L 439.605779 169.512284 
L 440.518414 169.206789 
L 442.343683 168.833405 
L 442.8 168.629741 
L 443.256317 168.561853 
L 444.168952 168.154526 
L 444.625269 168.086638 
L 445.081586 167.84903 
L 445.994221 167.67931 
L 447.363173 167.170151 
L 448.275808 167.068319 
L 449.644759 166.762823 
L 451.926346 166.355496 
L 463.790596 162.825323 
L 464.246913 162.350108 
L 465.159547 161.976724 
L 468.810086 160.585022 
L 469.266403 160.31347 
L 470.635355 159.906142 
L 471.54799 159.668534 
L 472.004307 159.363039 
L 472.460624 159.261207 
L 472.916942 158.853879 
L 474.285893 158.582328 
L 475.198528 158.141056 
L 475.654845 157.597953 
L 477.480114 157.156681 
L 480.674336 156.477802 
L 481.130653 156.477802 
L 481.58697 156.274138 
L 483.412239 155.934698 
L 483.868557 155.731034 
L 485.693826 155.391595 
L 486.60646 154.984267 
L 487.519095 154.814547 
L 489.800681 154.2375 
L 491.625951 153.660453 
L 492.082268 153.558621 
L 492.538585 153.321013 
L 493.45122 153.083405 
L 494.363854 152.710022 
L 495.276489 152.370582 
L 495.732806 152.065086 
L 496.645441 151.793534 
L 500.295979 150.537608 
L 501.208614 150.46972 
L 503.033883 149.926616 
L 503.4902 149.655065 
L 504.402835 149.383513 
L 506.684421 148.33125 
L 507.140739 148.297306 
L 512.160229 146.498276 
L 514.441815 145.887284 
L 515.35445 145.446013 
L 516.723402 145.140517 
L 518.548671 143.646983 
L 520.37394 142.866272 
L 521.286575 142.458944 
L 524.024479 141.406681 
L 524.480796 141.101185 
L 526.762382 140.354418 
L 528.131334 139.573707 
L 528.587652 139.471875 
L 530.869238 138.215948 
L 532.23819 137.604957 
L 532.694507 137.265517 
L 533.607142 136.960022 
L 535.888728 135.805927 
L 537.25768 135.330711 
L 539.082949 134.583944 
L 540.451901 134.074784 
L 540.908219 133.905065 
L 541.820853 133.769289 
L 542.277171 133.463793 
L 544.10244 133.090409 
L 545.015074 132.717026 
L 546.840343 131.868427 
L 553.228786 129.085022 
L 554.597737 128.64375 
L 555.054055 128.338254 
L 555.966689 128.236422 
L 556.423007 127.930927 
L 557.335641 127.761207 
L 558.248276 127.319935 
L 558.704593 127.116272 
L 559.16091 127.048384 
L 560.073545 126.742888 
L 563.267766 125.622737 
L 564.636718 125.317241 
L 566.461987 124.53653 
L 567.374622 124.027371 
L 569.199891 123.110884 
L 570.112526 122.90722 
L 570.568843 122.635668 
L 571.02516 122.533836 
L 572.394112 121.753125 
L 573.306747 121.379741 
L 575.132016 120.666918 
L 577.413602 119.886207 
L 578.326237 119.410991 
L 580.607823 118.63028 
L 583.345727 117.510129 
L 585.170996 116.66153 
L 589.734169 114.896444 
L 590.190487 114.590948 
L 592.015756 113.979957 
L 592.472073 113.979957 
L 593.384708 113.572629 
L 595.209977 112.079095 
L 595.666294 111.943319 
L 596.122611 111.671767 
L 596.578929 111.569935 
L 597.035246 111.332328 
L 597.491563 111.26444 
L 597.947881 110.925 
L 598.404198 110.823168 
L 599.316832 110.246121 
L 600.685784 109.533297 
L 601.598419 109.159914 
L 602.054736 108.922306 
L 603.423688 108.61681 
L 605.705275 107.836099 
L 606.617909 107.530603 
L 607.986861 106.81778 
L 608.899496 106.376509 
L 609.81213 106.138901 
L 611.181082 105.493966 
L 615.287938 103.966487 
L 616.65689 103.117888 
L 617.113207 103.016056 
L 618.025842 102.574784 
L 618.938476 102.235345 
L 619.394794 101.828017 
L 620.307428 101.454634 
L 621.67638 100.979418 
L 622.132697 100.606034 
L 622.589015 100.572091 
L 623.501649 100.300539 
L 624.414284 99.995043 
L 624.870601 99.791379 
L 625.326918 99.723491 
L 626.69587 99.214332 
L 628.064822 98.705172 
L 629.890091 97.890517 
L 630.346409 97.822629 
L 633.996947 96.295151 
L 635.365899 95.853879 
L 636.278533 95.785991 
L 637.191168 95.412608 
L 639.929072 94.597953 
L 640.841706 94.564009 
L 644.492245 93.37597 
L 645.404879 92.900754 
L 645.861197 92.493427 
L 647.230149 91.678772 
L 648.142783 91.135668 
L 650.880687 90.253125 
L 651.337004 89.879741 
L 654.074908 88.725647 
L 655.900177 88.216487 
L 656.812812 87.809159 
L 657.269129 87.571552 
L 658.181764 87.3 
L 658.638081 87.028448 
L 659.550716 86.858728 
L 663.201254 85.297306 
L 663.657571 85.229418 
L 664.113889 84.923922 
L 664.570206 84.754203 
L 665.026523 84.346875 
L 665.48284 84.278987 
L 667.30811 83.566164 
L 669.133379 83.124892 
L 669.589696 83.057004 
L 670.046013 82.853341 
L 670.502331 82.819397 
L 671.414965 82.513901 
L 671.871283 82.479957 
L 673.240234 81.936853 
L 675.065504 81.39375 
L 675.978138 80.714871 
L 677.803407 79.696552 
L 679.172359 79.221336 
L 682.822898 77.490194 
L 683.279215 77.252586 
L 683.735532 76.811315 
L 686.017119 76.200323 
L 687.386071 75.589332 
L 688.298705 75.351724 
L 688.755022 75.114116 
L 689.21134 74.740733 
L 691.036609 74.265517 
L 691.492926 73.926078 
L 697.425051 71.787608 
L 698.337686 71.617888 
L 700.619272 70.905065 
L 701.531907 70.531681 
L 702.444541 70.192241 
L 703.357176 69.954634 
L 703.813493 69.75097 
L 704.269811 69.75097 
L 705.182445 69.377586 
L 706.09508 68.834483 
L 708.376666 68.053772 
L 709.745618 67.578556 
L 710.201935 67.510668 
L 711.11457 67.137284 
L 712.483522 66.831789 
L 713.852474 66.390517 
L 714.308791 66.288685 
L 714.765108 65.98319 
L 715.677743 65.779526 
L 724.804089 63.165841 
L 727.085675 62.758513 
L 727.99831 62.317241 
L 728.910945 61.87597 
L 730.279896 61.468642 
L 734.843069 59.7375 
L 735.299387 59.39806 
L 736.668339 59.092565 
L 737.580973 58.821013 
L 738.493608 58.345797 
L 738.949925 57.93847 
L 739.86256 57.632974 
L 740.318877 57.361422 
L 741.231512 57.259591 
L 744.425733 56.377047 
L 745.794684 56.105496 
L 747.163636 55.8 
L 747.163636 55.8 
" clip-path="url(#pea004ad90a)" style="fill: none; stroke: #1f77b4; stroke-width: 1.5; stroke-linecap: square"/>
   </g>
   <g id="line2d_34">
    <path d="M 138.892681 307.8 
L 142.999537 307.698168 
L 146.650075 307.528448 
L 148.475344 307.528448 
L 148.931661 307.392672 
L 151.213248 307.290841 
L 153.951152 306.985345 
L 156.689055 306.883513 
L 157.60169 306.781681 
L 160.795911 306.645905 
L 163.990132 306.544073 
L 166.271719 306.476185 
L 172.203844 306.374353 
L 174.48543 306.306466 
L 177.679651 306.204634 
L 179.961238 306.136746 
L 184.980728 306.034914 
L 186.805997 305.865194 
L 188.631266 305.83125 
L 191.36917 305.729418 
L 193.194439 305.695474 
L 195.476026 305.627586 
L 197.301295 305.457866 
L 201.40815 305.356034 
L 202.320785 305.288147 
L 204.146054 305.186315 
L 206.883958 305.084483 
L 208.709227 304.982651 
L 216.922939 304.473491 
L 220.11716 304.371659 
L 221.486111 304.235884 
L 223.767698 304.134052 
L 228.330871 303.896444 
L 232.894044 303.828556 
L 234.719313 303.624892 
L 236.544582 303.52306 
L 241.564073 303.047845 
L 244.758294 302.674461 
L 246.127245 302.606573 
L 249.777784 302.131358 
L 252.515688 302.06347 
L 253.884639 301.927694 
L 255.253591 301.825862 
L 268.030476 300.841487 
L 268.94311 300.671767 
L 271.681014 300.569935 
L 278.982091 300.128664 
L 282.176312 300.026832 
L 284.001581 299.823168 
L 286.283168 299.721336 
L 289.021071 299.619504 
L 291.302658 299.517672 
L 293.127927 299.483728 
L 295.409513 299.415841 
L 296.322148 299.280065 
L 302.71059 299.178233 
L 303.623225 299.076401 
L 309.099032 298.974569 
L 313.205888 298.770905 
L 316.400109 298.669073 
L 318.225378 298.465409 
L 321.419599 298.363578 
L 322.332234 298.193858 
L 324.61382 298.12597 
L 329.176993 298.058082 
L 331.002263 297.888362 
L 332.827532 297.854418 
L 334.196484 297.752586 
L 336.021753 297.582866 
L 340.584926 297.345259 
L 345.148099 297.243427 
L 349.254954 297.039763 
L 350.623906 297.005819 
L 351.536541 296.870043 
L 353.818127 296.768211 
L 354.730762 296.700323 
L 355.643396 296.632435 
L 356.556031 296.564547 
L 360.662887 296.496659 
L 362.031839 296.394828 
L 374.352406 295.580172 
L 376.633992 295.478341 
L 378.915579 295.410453 
L 385.304021 295.308621 
L 386.216655 295.172845 
L 392.605097 295.071013 
L 397.16827 294.833405 
L 398.080905 294.799461 
L 398.99354 294.697629 
L 401.275126 294.595797 
L 403.556713 294.527909 
L 405.838299 294.426078 
L 408.119886 294.35819 
L 412.226741 294.256358 
L 414.964645 294.154526 
L 421.353087 294.052694 
L 426.372577 293.781142 
L 428.197847 293.713254 
L 429.566798 293.611422 
L 435.955241 293.509591 
L 438.693144 293.407759 
L 446.906856 293.305927 
L 448.732125 293.271983 
L 454.207932 293.204095 
L 455.120567 293.136207 
L 461.509009 293.034375 
L 463.334278 293.000431 
L 475.198528 292.898599 
L 476.56748 292.762823 
L 497.101758 292.660991 
L 499.383345 292.593103 
L 511.247594 292.525216 
L 512.160229 292.457328 
L 514.441815 292.38944 
L 515.810767 292.253664 
L 518.548671 292.151832 
L 521.742892 292.016056 
L 525.849748 291.914224 
L 528.131334 291.846336 
L 531.325555 291.744504 
L 534.976094 291.574784 
L 537.25768 291.472953 
L 539.082949 291.439009 
L 543.189805 291.337177 
L 545.015074 291.303233 
L 550.947199 291.201401 
L 552.772468 291.167457 
L 555.054055 291.065625 
L 557.791959 290.963793 
L 560.98618 290.895905 
L 561.898814 290.828017 
L 572.850429 290.726185 
L 578.782554 290.386746 
L 581.064141 290.318858 
L 581.976775 290.217026 
L 582.88941 290.149138 
L 586.539948 290.047306 
L 589.277852 289.945474 
L 593.841025 289.843642 
L 596.122611 289.606034 
L 600.685784 289.504203 
L 601.598419 289.402371 
L 606.161592 289.300539 
L 608.443178 289.232651 
L 613.462669 289.198707 
L 614.375303 289.096875 
L 619.394794 288.995043 
L 620.307428 288.927155 
L 630.346409 288.825323 
L 633.084312 288.723491 
L 639.929072 288.621659 
L 641.754341 288.587716 
L 645.861197 288.519828 
L 646.773831 288.417996 
L 652.705956 288.316164 
L 654.987543 288.248276 
L 663.201254 288.146444 
L 664.570206 288.044612 
L 665.939158 287.94278 
L 667.30811 287.840948 
L 674.152869 287.739116 
L 676.890773 287.637284 
L 689.21134 287.535453 
L 693.318195 287.331789 
L 698.794003 287.229957 
L 699.706638 287.162069 
L 706.551397 287.094181 
L 707.464032 287.026293 
L 712.483522 286.924461 
L 714.308791 286.890517 
L 720.697233 286.788685 
L 723.435137 286.686853 
L 731.192531 286.585022 
L 733.0178 286.551078 
L 737.124656 286.449246 
L 740.775194 286.279526 
L 745.794684 286.177694 
L 747.163636 286.14375 
L 747.163636 286.14375 
" clip-path="url(#pea004ad90a)" style="fill: none; stroke: #ff7f0e; stroke-width: 1.5; stroke-linecap: square"/>
   </g>
   <g id="patch_3">
    <path d="M 108 320.4 
L 108 43.2 
" style="fill: none; stroke: #a9a9a9; stroke-width: 0.8; stroke-linejoin: miter; stroke-linecap: square"/>
   </g>
   <g id="patch_4">
    <path d="M 777.6 320.4 
L 777.6 43.2 
" style="fill: none"/>
   </g>
   <g id="patch_5">
    <path d="M 108 320.4 
L 777.6 320.4 
" style="fill: none; stroke: #a9a9a9; stroke-width: 0.8; stroke-linejoin: miter; stroke-linecap: square"/>
   </g>
   <g id="patch_6">
    <path d="M 108 43.2 
L 777.6 43.2 
" style="fill: none"/>
   </g>
   <g id="text_17">
    <!-- get_subscribe history -->
    <g style="fill: #a9a9a9" transform="translate(378.6075 37.2) scale(0.12 -0.12)">
     <defs>
      <path id="DejaVuSans-67" d="M 2906 1791 
Q 2906 2416 2648 2759 
Q 2391 3103 1925 3103 
Q 1463 3103 1205 2759 
Q 947 2416 947 1791 
Q 947 1169 1205 825 
Q 1463 481 1925 481 
Q 2391 481 2648 825 
Q 2906 1169 2906 1791 
z
M 3481 434 
Q 3481 -459 3084 -895 
Q 2688 -1331 1869 -1331 
Q 1566 -1331 1297 -1286 
Q 1028 -1241 775 -1147 
L 775 -588 
Q 1028 -725 1275 -790 
Q 1522 -856 1778 -856 
Q 2344 -856 2625 -561 
Q 2906 -266 2906 331 
L 2906 616 
Q 2728 306 2450 153 
Q 2172 0 1784 0 
Q 1141 0 747 490 
Q 353 981 353 1791 
Q 353 2603 747 3093 
Q 1141 3584 1784 3584 
Q 2172 3584 2450 3431 
Q 2728 3278 2906 2969 
L 2906 3500 
L 3481 3500 
L 3481 434 
z
" transform="scale(0.015625)"/>
      <path id="DejaVuSans-65" d="M 3597 1894 
L 3597 1613 
L 953 1613 
Q 991 1019 1311 708 
Q 1631 397 2203 397 
Q 2534 397 2845 478 
Q 3156 559 3463 722 
L 3463 178 
Q 3153 47 2828 -22 
Q 2503 -91 2169 -91 
Q 1331 -91 842 396 
Q 353 884 353 1716 
Q 353 2575 817 3079 
Q 1281 3584 2069 3584 
Q 2775 3584 3186 3129 
Q 3597 2675 3597 1894 
z
M 3022 2063 
Q 3016 2534 2758 2815 
Q 2500 3097 2075 3097 
Q 1594 3097 1305 2825 
Q 1016 2553 972 2059 
L 3022 2063 
z
" transform="scale(0.015625)"/>
      <path id="DejaVuSans-74" d="M 1172 4494 
L 1172 3500 
L 2356 3500 
L 2356 3053 
L 1172 3053 
L 1172 1153 
Q 1172 725 1289 603 
Q 1406 481 1766 481 
L 2356 481 
L 2356 0 
L 1766 0 
Q 1100 0 847 248 
Q 594 497 594 1153 
L 594 3053 
L 172 3053 
L 172 3500 
L 594 3500 
L 594 4494 
L 1172 4494 
z
" transform="scale(0.015625)"/>
      <path id="DejaVuSans-5f" d="M 3263 -1063 
L 3263 -1509 
L -63 -1509 
L -63 -1063 
L 3263 -1063 
z
" transform="scale(0.015625)"/>
      <path id="DejaVuSans-73" d="M 2834 3397 
L 2834 2853 
Q 2591 2978 2328 3040 
Q 2066 3103 1784 3103 
Q 1356 3103 1142 2972 
Q 928 2841 928 2578 
Q 928 2378 1081 2264 
Q 1234 2150 1697 2047 
L 1894 2003 
Q 2506 1872 2764 1633 
Q 3022 1394 3022 966 
Q 3022 478 2636 193 
Q 2250 -91 1575 -91 
Q 1294 -91 989 -36 
Q 684 19 347 128 
L 347 722 
Q 666 556 975 473 
Q 1284 391 1588 391 
Q 1994 391 2212 530 
Q 2431 669 2431 922 
Q 2431 1156 2273 1281 
Q 2116 1406 1581 1522 
L 1381 1569 
Q 847 1681 609 1914 
Q 372 2147 372 2553 
Q 372 3047 722 3315 
Q 1072 3584 1716 3584 
Q 2034 3584 2315 3537 
Q 2597 3491 2834 3397 
z
" transform="scale(0.015625)"/>
      <path id="DejaVuSans-75" d="M 544 1381 
L 544 3500 
L 1119 3500 
L 1119 1403 
Q 1119 906 1312 657 
Q 1506 409 1894 409 
Q 2359 409 2629 706 
Q 2900 1003 2900 1516 
L 2900 3500 
L 3475 3500 
L 3475 0 
L 2900 0 
L 2900 538 
Q 2691 219 2414 64 
Q 2138 -91 1772 -91 
Q 1169 -91 856 284 
Q 544 659 544 1381 
z
M 1991 3584 
L 1991 3584 
z
" transform="scale(0.015625)"/>
      <path id="DejaVuSans-62" d="M 3116 1747 
Q 3116 2381 2855 2742 
Q 2594 3103 2138 3103 
Q 1681 3103 1420 2742 
Q 1159 2381 1159 1747 
Q 1159 1113 1420 752 
Q 1681 391 2138 391 
Q 2594 391 2855 752 
Q 3116 1113 3116 1747 
z
M 1159 2969 
Q 1341 3281 1617 3432 
Q 1894 3584 2278 3584 
Q 2916 3584 3314 3078 
Q 3713 2572 3713 1747 
Q 3713 922 3314 415 
Q 2916 -91 2278 -91 
Q 1894 -91 1617 61 
Q 1341 213 1159 525 
L 1159 0 
L 581 0 
L 581 4863 
L 1159 4863 
L 1159 2969 
z
" transform="scale(0.015625)"/>
      <path id="DejaVuSans-63" d="M 3122 3366 
L 3122 2828 
Q 2878 2963 2633 3030 
Q 2388 3097 2138 3097 
Q 1578 3097 1268 2742 
Q 959 2388 959 1747 
Q 959 1106 1268 751 
Q 1578 397 2138 397 
Q 2388 397 2633 464 
Q 2878 531 3122 666 
L 3122 134 
Q 2881 22 2623 -34 
Q 2366 -91 2075 -91 
Q 1284 -91 818 406 
Q 353 903 353 1747 
Q 353 2603 823 3093 
Q 1294 3584 2113 3584 
Q 2378 3584 2631 3529 
Q 2884 3475 3122 3366 
z
" transform="scale(0.015625)"/>
      <path id="DejaVuSans-72" d="M 2631 2963 
Q 2534 3019 2420 3045 
Q 2306 3072 2169 3072 
Q 1681 3072 1420 2755 
Q 1159 2438 1159 1844 
L 1159 0 
L 581 0 
L 581 3500 
L 1159 3500 
L 1159 2956 
Q 1341 3275 1631 3429 
Q 1922 3584 2338 3584 
Q 2397 3584 2469 3576 
Q 2541 3569 2628 3553 
L 2631 2963 
z
" transform="scale(0.015625)"/>
      <path id="DejaVuSans-69" d="M 603 3500 
L 1178 3500 
L 1178 0 
L 603 0 
L 603 3500 
z
M 603 4863 
L 1178 4863 
L 1178 4134 
L 603 4134 
L 603 4863 
z
" transform="scale(0.015625)"/>
      <path id="DejaVuSans-20" transform="scale(0.015625)"/>
      <path id="DejaVuSans-68" d="M 3513 2113 
L 3513 0 
L 2938 0 
L 2938 2094 
Q 2938 2591 2744 2837 
Q 2550 3084 2163 3084 
Q 1697 3084 1428 2787 
Q 1159 2491 1159 1978 
L 1159 0 
L 581 0 
L 581 4863 
L 1159 4863 
L 1159 2956 
Q 1366 3272 1645 3428 
Q 1925 3584 2291 3584 
Q 2894 3584 3203 3211 
Q 3513 2838 3513 2113 
z
" transform="scale(0.015625)"/>
      <path id="DejaVuSans-6f" d="M 1959 3097 
Q 1497 3097 1228 2736 
Q 959 2375 959 1747 
Q 959 1119 1226 758 
Q 1494 397 1959 397 
Q 2419 397 2687 759 
Q 2956 1122 2956 1747 
Q 2956 2369 2687 2733 
Q 2419 3097 1959 3097 
z
M 1959 3584 
Q 2709 3584 3137 3096 
Q 3566 2609 3566 1747 
Q 3566 888 3137 398 
Q 2709 -91 1959 -91 
Q 1206 -91 779 398 
Q 353 888 353 1747 
Q 353 2609 779 3096 
Q 1206 3584 1959 3584 
z
" transform="scale(0.015625)"/>
      <path id="DejaVuSans-79" d="M 2059 -325 
Q 1816 -950 1584 -1140 
Q 1353 -1331 966 -1331 
L 506 -1331 
L 506 -850 
L 844 -850 
Q 1081 -850 1212 -737 
Q 1344 -625 1503 -206 
L 1606 56 
L 191 3500 
L 800 3500 
L 1894 763 
L 2988 3500 
L 3597 3500 
L 2059 -325 
z
" transform="scale(0.015625)"/>
     </defs>
     <use xlink:href="#DejaVuSans-67"/>
     <use xlink:href="#DejaVuSans-65" transform="translate(63.476562 0)"/>
     <use xlink:href="#DejaVuSans-74" transform="translate(125 0)"/>
     <use xlink:href="#DejaVuSans-5f" transform="translate(164.208984 0)"/>
     <use xlink:href="#DejaVuSans-73" transform="translate(214.208984 0)"/>
     <use xlink:href="#DejaVuSans-75" transform="translate(266.308594 0)"/>
     <use xlink:href="#DejaVuSans-62" transform="translate(329.6875 0)"/>
     <use xlink:href="#DejaVuSans-73" transform="translate(393.164062 0)"/>
     <use xlink:href="#DejaVuSans-63" transform="translate(445.263672 0)"/>
     <use xlink:href="#DejaVuSans-72" transform="translate(500.244141 0)"/>
     <use xlink:href="#DejaVuSans-69" transform="translate(541.357422 0)"/>
     <use xlink:href="#DejaVuSans-62" transform="translate(569.140625 0)"/>
     <use xlink:href="#DejaVuSans-65" transform="translate(632.617188 0)"/>
     <use xlink:href="#DejaVuSans-20" transform="translate(694.140625 0)"/>
     <use xlink:href="#DejaVuSans-68" transform="translate(725.927734 0)"/>
     <use xlink:href="#DejaVuSans-69" transform="translate(789.306641 0)"/>
     <use xlink:href="#DejaVuSans-73" transform="translate(817.089844 0)"/>
     <use xlink:href="#DejaVuSans-74" transform="translate(869.189453 0)"/>
     <use xlink:href="#DejaVuSans-6f" transform="translate(908.398438 0)"/>
     <use xlink:href="#DejaVuSans-72" transform="translate(969.580078 0)"/>
     <use xlink:href="#DejaVuSans-79" transform="translate(1010.693359 0)"/>
    </g>
   </g>
   <g id="legend_1">
    <g id="line2d_35">
     <path d="M 815.08 328.498438 
L 825.08 328.498438 
L 835.08 328.498438 
" style="fill: none; stroke: #1f77b4; stroke-width: 1.5; stroke-linecap: square"/>
    </g>
    <g id="text_18">
     <!-- star -->
     <g style="fill: #a9a9a9" transform="translate(843.08 331.998438) scale(0.1 -0.1)">
      <defs>
       <path id="DejaVuSans-61" d="M 2194 1759 
Q 1497 1759 1228 1600 
Q 959 1441 959 1056 
Q 959 750 1161 570 
Q 1363 391 1709 391 
Q 2188 391 2477 730 
Q 2766 1069 2766 1631 
L 2766 1759 
L 2194 1759 
z
M 3341 1997 
L 3341 0 
L 2766 0 
L 2766 531 
Q 2569 213 2275 61 
Q 1981 -91 1556 -91 
Q 1019 -91 701 211 
Q 384 513 384 1019 
Q 384 1609 779 1909 
Q 1175 2209 1959 2209 
L 2766 2209 
L 2766 2266 
Q 2766 2663 2505 2880 
Q 2244 3097 1772 3097 
Q 1472 3097 1187 3025 
Q 903 2953 641 2809 
L 641 3341 
Q 956 3463 1253 3523 
Q 1550 3584 1831 3584 
Q 2591 3584 2966 3190 
Q 3341 2797 3341 1997 
z
" transform="scale(0.015625)"/>
      </defs>
      <use xlink:href="#DejaVuSans-73"/>
      <use xlink:href="#DejaVuSans-74" transform="translate(52.099609 0)"/>
      <use xlink:href="#DejaVuSans-61" transform="translate(91.308594 0)"/>
      <use xlink:href="#DejaVuSans-72" transform="translate(152.587891 0)"/>
     </g>
    </g>
    <g id="line2d_36">
     <path d="M 815.08 343.176562 
L 825.08 343.176562 
L 835.08 343.176562 
" style="fill: none; stroke: #ff7f0e; stroke-width: 1.5; stroke-linecap: square"/>
    </g>
    <g id="text_19">
     <!-- fork -->
     <g style="fill: #a9a9a9" transform="translate(843.08 346.676562) scale(0.1 -0.1)">
      <defs>
       <path id="DejaVuSans-66" d="M 2375 4863 
L 2375 4384 
L 1825 4384 
Q 1516 4384 1395 4259 
Q 1275 4134 1275 3809 
L 1275 3500 
L 2222 3500 
L 2222 3053 
L 1275 3053 
L 1275 0 
L 697 0 
L 697 3053 
L 147 3053 
L 147 3500 
L 697 3500 
L 697 3744 
Q 697 4328 969 4595 
Q 1241 4863 1831 4863 
L 2375 4863 
z
" transform="scale(0.015625)"/>
       <path id="DejaVuSans-6b" d="M 581 4863 
L 1159 4863 
L 1159 1991 
L 2875 3500 
L 3609 3500 
L 1753 1863 
L 3688 0 
L 2938 0 
L 1159 1709 
L 1159 0 
L 581 0 
L 581 4863 
z
" transform="scale(0.015625)"/>
      </defs>
      <use xlink:href="#DejaVuSans-66"/>
      <use xlink:href="#DejaVuSans-6f" transform="translate(35.205078 0)"/>
      <use xlink:href="#DejaVuSans-72" transform="translate(96.386719 0)"/>
      <use xlink:href="#DejaVuSans-6b" transform="translate(137.5 0)"/>
     </g>
    </g>
   </g>
  </g>
 </g>
 <defs>
  <clipPath id="pea004ad90a">
   <rect x="108" y="43.2" width="669.6" height="277.2"/>
  </clipPath>
 </defs>
</svg>
